<svg width="232" height="20" viewBox="0 0 232 20" fill="none" xmlns="http://www.w3.org/2000/svg">
<g clip-path="url(#clip0_209_4842)">
<path fill-rule="evenodd" clip-rule="evenodd" d="M0.755673 0H4.28256C4.6999 0 5.03823 0.338326 5.03823 0.755673V4.25868C5.03823 4.67602 4.6999 5.01435 4.28256 5.01435H0.755673C0.338326 5.01435 0 4.67602 0 4.25868V0.755673C0 0.338326 0.338326 0 0.755673 0ZM20.4051 5.45682H17.6067C16.629 5.45682 15.8363 4.66419 15.8363 3.68643V0.755673C15.8363 0.338324 15.498 0 15.0807 0H11.5538C11.1364 0 10.7981 0.338324 10.7981 0.755673V4.25868C10.7981 4.67602 11.1364 5.01435 11.5538 5.01435H14.3521C15.3299 5.01435 16.1225 5.80698 16.1225 6.78474V14.7219C16.1225 15.1392 16.4609 15.4775 16.8782 15.4775H20.4051C20.8225 15.4775 21.1608 15.1392 21.1608 14.7219V6.21248C21.1608 5.79514 20.8225 5.45682 20.4051 5.45682ZM30.7681 5.45682H27.9697C26.9919 5.45682 26.1993 4.66419 26.1993 3.68643V0.755673C26.1993 0.338324 25.861 0 25.4437 0H21.9167C21.4994 0 21.1611 0.338324 21.1611 0.755673V4.25868C21.1611 4.67602 21.4994 5.01435 21.9167 5.01435H24.7151C25.6929 5.01435 26.4855 5.80698 26.4855 6.78474V14.7219C26.4855 15.1392 26.8238 15.4775 27.2412 15.4775H30.7681C31.1854 15.4775 31.5238 15.1392 31.5238 14.7219V6.21248C31.5238 5.79514 31.1854 5.45682 30.7681 5.45682ZM10.0425 5.45681H6.51557C6.09823 5.45681 5.75992 5.79512 5.75992 6.21246V14.7219C5.75992 15.1392 6.09823 15.4775 6.51557 15.4775H10.0425C10.4598 15.4775 10.7982 15.1392 10.7982 14.7219V6.21246C10.7982 5.79512 10.4598 5.45681 10.0425 5.45681ZM45.0788 7.12241C45.748 5.74333 46.7822 5.05379 48.1613 5.05379C50.108 5.05379 51.2437 6.45318 51.2437 8.8258V15.235C51.2437 15.3691 51.1351 15.4774 51.0013 15.4774H49.7625C49.6287 15.4774 49.5201 15.3691 49.5201 15.235V8.96764C49.5201 7.3861 48.8711 6.57471 47.5936 6.57471C46.1536 6.57471 45.3222 7.62949 45.3222 9.4747V15.235C45.3222 15.3691 45.2139 15.4774 45.0797 15.4774H43.841C43.7071 15.4774 43.5985 15.3691 43.5985 15.235V8.88672C43.5985 7.4064 42.909 6.57471 41.6924 6.57471C40.273 6.57471 39.4007 7.71041 39.4007 9.55595V15.235C39.4007 15.3691 39.2924 15.4774 39.1585 15.4774H37.9197C37.7856 15.4774 37.6773 15.3691 37.6773 15.235V5.58025C37.6773 5.4464 37.7856 5.3378 37.9197 5.3378H39.057C39.1908 5.3378 39.2994 5.4464 39.2994 5.58025V6.66949C39.2994 6.77164 39.4348 6.80302 39.4828 6.71255C40.0668 5.61163 40.9773 5.05379 42.1994 5.05379C43.5985 5.05379 44.6127 5.78394 45.0788 7.12241ZM58.6677 5.09435C55.7677 5.09435 54.0643 7.14265 54.0643 10.5291C54.0643 13.875 55.788 15.7205 58.688 15.7205C60.6538 15.7205 62.0966 14.8239 62.8369 13.1199C62.8892 12.9996 62.8307 12.8593 62.7104 12.8063L61.7363 12.3747C61.6151 12.3211 61.4714 12.3737 61.4185 12.4953C60.9418 13.5922 60.0274 14.1996 58.8095 14.1996C57.0858 14.1996 55.9169 13.0159 55.7978 11.178C55.7886 11.0362 55.8975 10.9143 56.0397 10.9143H62.7446C62.8785 10.9143 62.9871 10.8057 62.9871 10.6719V9.69773C62.9871 6.65589 61.4052 5.09435 58.6677 5.09435ZM61.2431 9.51527H55.788C55.8286 7.60881 56.8425 6.45312 58.6271 6.45312C60.2898 6.45312 61.2431 7.42634 61.2431 9.29188V9.51527ZM81.4963 9.3125V12.05C81.4963 13.4223 81.5747 14.419 81.759 15.1771C81.7963 15.3303 81.6818 15.4771 81.5243 15.4771H80.2461C80.1243 15.4771 80.0221 15.3863 80.0058 15.2654C79.9563 14.8968 79.9166 14.4759 79.8926 14.0488C79.8867 13.9516 79.7553 13.9193 79.7101 14.0057C79.1483 15.0799 77.9637 15.7205 76.467 15.7205C74.3987 15.7205 73.04 14.5445 73.04 12.7396C73.04 11.7257 73.547 10.8537 74.4597 10.3466C75.2301 9.96143 76.2037 9.71804 77.8664 9.51527L79.7523 9.29218V9.13003C79.7523 7.2642 79.083 6.51403 77.5218 6.51403C76.2178 6.51403 75.3852 7.16665 75.2298 8.31804C75.2141 8.43556 75.1101 8.52173 74.9913 8.52173H73.6341C73.4858 8.52173 73.3729 8.38942 73.3932 8.24266C73.6563 6.33188 75.2372 5.09435 77.5015 5.09435C80.2797 5.09435 81.4963 6.35188 81.4963 9.3125ZM76.8526 14.3011C78.6169 14.3011 79.7726 13.0236 79.7726 11.0565V10.5494L77.0147 10.955C75.5141 11.178 74.8652 11.7054 74.8652 12.699C74.8652 13.6928 75.6153 14.3011 76.8526 14.3011ZM93.1387 1.42698H91.9C91.7661 1.42698 91.6575 1.53559 91.6575 1.66943V6.48913C91.6575 6.58575 91.5329 6.62113 91.48 6.54051C90.8326 5.55067 89.8981 5.09437 88.6766 5.09437C86.1416 5.09437 84.357 7.28452 84.357 10.4076C84.357 13.5913 86.0201 15.7205 88.4735 15.7205C89.9092 15.7205 90.944 15.0858 91.5778 13.9525C91.6267 13.8648 91.7587 13.8974 91.7587 13.9977V15.2348C91.7587 15.3686 91.8674 15.4773 92.0012 15.4773H93.1387C93.2726 15.4773 93.3812 15.3686 93.3812 15.2348V1.66943C93.3812 1.53559 93.2726 1.42698 93.1387 1.42698ZM91.6978 10.651C91.6978 12.8208 90.623 14.1999 88.94 14.1999C87.2164 14.1999 86.1822 12.7802 86.1822 10.4076C86.1822 8.01467 87.2164 6.61559 88.94 6.61559C90.6433 6.61559 91.6978 7.97405 91.6978 10.1845V10.651ZM97.3747 5.33785H98.6135C98.7474 5.33785 98.8559 5.4464 98.8559 5.5803V15.235C98.8559 15.3689 98.7474 15.4774 98.6135 15.4774H97.3747C97.2408 15.4774 97.1322 15.3689 97.1322 15.235V5.5803C97.1322 5.4464 97.2408 5.33785 97.3747 5.33785ZM110.192 5.33789H108.953C108.819 5.33789 108.711 5.4465 108.711 5.58034V10.793C108.711 12.8613 107.616 14.2403 105.993 14.2403C104.655 14.2403 103.925 13.3074 103.925 11.604V5.58034C103.925 5.4465 103.817 5.33789 103.683 5.33789H102.444C102.31 5.33789 102.201 5.4465 102.201 5.58034V11.8068C102.201 14.1794 103.114 15.7206 105.669 15.7206C106.933 15.7206 108.069 14.9967 108.632 13.964C108.679 13.877 108.812 13.9123 108.812 14.0117V15.235C108.812 15.3688 108.921 15.4774 109.055 15.4774H110.192C110.326 15.4774 110.435 15.3688 110.435 15.235V5.58034C110.435 5.4465 110.326 5.33789 110.192 5.33789ZM98.7352 1.42698H97.2527C97.1189 1.42698 97.0102 1.53563 97.0102 1.66945V3.15161C97.0102 3.28542 97.1189 3.39406 97.2527 3.39406H98.7352C98.8688 3.39406 98.9773 3.28556 98.9773 3.15191V1.66913C98.9773 1.53549 98.8688 1.42698 98.7352 1.42698ZM70.5939 5.39864H68.3985C68.3449 5.39864 68.3016 5.35496 68.3016 5.30142V1.73004C68.3016 1.59619 68.1929 1.48757 68.0591 1.48757H66.8203C66.6865 1.48757 66.5779 1.59619 66.5779 1.73004V4.14417H66.5742C66.5742 4.83526 66.0139 5.39588 65.3228 5.39588V5.39864H64.9342C64.8003 5.39864 64.692 5.50695 64.692 5.64079V6.57557C64.692 6.70942 64.8003 6.81802 64.9342 6.81802H66.4809C66.5345 6.81802 66.5779 6.86142 66.5779 6.91495V12.4962C66.5779 14.382 67.1455 15.7205 69.3357 15.7205C69.8932 15.7205 70.2711 15.6756 70.6492 15.5857C70.7588 15.5599 70.8363 15.4617 70.8363 15.3494V14.1993C70.8363 14.0762 70.7231 13.9836 70.6028 14.0094C70.3573 14.0627 70.1231 14.098 69.7819 14.098C68.7477 14.098 68.3016 13.5913 68.3016 12.4353V6.91495C68.3016 6.86142 68.3449 6.81802 68.3985 6.81802H70.5939C70.728 6.81802 70.8363 6.70942 70.8363 6.57557V5.64079C70.8363 5.50695 70.728 5.39864 70.5939 5.39864ZM121.486 7.12241C122.155 5.74333 123.189 5.05379 124.568 5.05379C126.515 5.05379 127.651 6.45318 127.651 8.8258V15.235C127.651 15.3691 127.542 15.4774 127.408 15.4774H126.169C126.036 15.4774 125.927 15.3691 125.927 15.235V8.96764C125.927 7.3861 125.278 6.57471 124 6.57471C122.56 6.57471 121.729 7.62949 121.729 9.4747V15.235C121.729 15.3691 121.621 15.4774 121.487 15.4774H120.248C120.114 15.4774 120.005 15.3691 120.005 15.235V8.88672C120.005 7.4064 119.316 6.57471 118.099 6.57471C116.68 6.57471 115.808 7.71041 115.808 9.55595V15.235C115.808 15.3691 115.699 15.4774 115.565 15.4774H114.327C114.193 15.4774 114.084 15.3691 114.084 15.235V5.58025C114.084 5.4464 114.193 5.3378 114.327 5.3378H115.464C115.598 5.3378 115.706 5.4464 115.706 5.58025V6.66949C115.706 6.77164 115.842 6.80302 115.89 6.71255C116.474 5.61163 117.384 5.05379 118.606 5.05379C120.005 5.05379 121.02 5.78394 121.486 7.12241Z" fill="#A7A7BB"/>
<path fill-rule="evenodd" clip-rule="evenodd" d="M177.135 7.10344C177.579 6.0733 178.449 5.30951 180.015 5.23667C180.151 5.23032 180.265 5.34339 180.265 5.47976V6.99624C180.265 7.12836 180.157 7.23372 180.025 7.23783C178.191 7.29494 177.368 8.02357 177.135 9.38114V15.375C177.135 15.5088 177.027 15.6174 176.893 15.6174H175.654C175.52 15.6174 175.411 15.5088 175.411 15.375V5.47341C175.411 5.33956 175.52 5.23096 175.654 5.23096H176.893C177.027 5.23096 177.135 5.33956 177.135 5.47341V7.10344ZM148.886 5.23434C146.336 5.23434 144.27 7.61309 144.27 10.5474C144.27 13.4817 146.336 15.8605 148.886 15.8605C151.435 15.8605 153.501 13.4817 153.501 10.5474C153.501 7.61309 151.435 5.23434 148.886 5.23434ZM148.886 14.5017C147.288 14.5017 145.993 12.7313 145.993 10.5474C145.993 8.36353 147.288 6.59311 148.886 6.59311C150.483 6.59311 151.778 8.36353 151.778 10.5474C151.778 12.7313 150.483 14.5017 148.886 14.5017ZM141.261 5.73409H142.322C142.456 5.73409 142.565 5.84264 142.565 5.97656V14.8068C142.565 16.0736 142.379 17.0733 142.008 17.8062C141.315 19.1599 140.006 19.8369 138.081 19.8369C137.01 19.8369 136.11 19.5962 135.379 19.1148C134.718 18.6795 134.321 18.0215 134.187 17.141C134.164 16.9921 134.276 16.8561 134.427 16.8561H135.663C135.777 16.8561 135.872 16.9372 135.899 17.0479C135.988 17.403 136.135 17.6837 136.34 17.89C136.717 18.2626 137.31 18.4489 138.119 18.4489C139.397 18.4489 140.234 17.9955 140.629 17.089C140.864 16.5547 140.972 15.6019 140.953 14.2293C140.619 14.7386 140.217 15.1175 139.747 15.3657C139.277 15.6142 138.655 15.7383 137.882 15.7383C136.806 15.7383 135.864 15.3549 135.057 14.5878C134.25 13.8209 133.846 12.5526 133.846 10.7828C133.846 9.1124 134.253 7.80831 135.066 6.87051C135.88 5.93301 136.862 5.46396 138.012 5.46396C138.792 5.46396 139.472 5.65657 140.054 6.04149C140.369 6.25903 140.691 6.57574 141.019 6.99161V5.97656C141.019 5.84264 141.127 5.73409 141.261 5.73409ZM138.081 14.369C139.279 14.369 140.123 13.8257 140.611 12.7389C140.883 12.1241 141.019 11.4069 141.019 10.5872C141.019 9.35158 140.765 8.43542 140.259 7.83926C139.752 7.24311 139.107 6.94503 138.322 6.94503C137.148 6.94503 136.345 7.49792 135.912 8.60308C135.684 9.19323 135.569 9.96637 135.569 10.9225C135.569 12.0466 135.796 12.9021 136.251 13.4886C136.705 14.0757 137.315 14.369 138.081 14.369ZM162.093 5.50114H163.404C163.574 5.50114 163.691 5.67046 163.631 5.82902L160.058 15.3204C160.022 15.4148 159.932 15.4774 159.831 15.4774H158.381C158.28 15.4774 158.189 15.4141 158.154 15.3188L154.653 5.8275C154.595 5.6692 154.712 5.50114 154.881 5.50114H156.304C156.409 5.50114 156.502 5.56847 156.534 5.66804L159.144 13.6237L161.863 5.66518C161.897 5.56708 161.989 5.50114 162.093 5.50114ZM185.062 5.7993C185.59 5.54479 186.177 5.41739 186.823 5.41739C188.239 5.41739 189.195 5.91108 189.692 6.89846C189.965 7.43872 190.102 8.21186 190.102 9.21787V15.3747C190.102 15.5087 189.993 15.6172 189.859 15.6172H188.639C188.505 15.6172 188.397 15.5087 188.397 15.3747V9.32965C188.397 8.72117 188.307 8.23049 188.127 7.85789C187.829 7.2371 187.288 6.9264 186.506 6.9264C186.108 6.9264 185.782 6.96697 185.528 7.0475C185.068 7.18421 184.665 7.45735 184.317 7.86721C184.038 8.19653 183.856 8.53638 183.772 8.88704C183.688 9.238 183.646 9.7395 183.646 10.3915V15.3747C183.646 15.5087 183.538 15.6172 183.404 15.6172H182.212C182.078 15.6172 181.97 15.5087 181.97 15.3747V5.88341C181.97 5.74949 182.078 5.64094 182.212 5.64094H183.32C183.454 5.64094 183.562 5.74949 183.562 5.88341V6.79064C183.562 6.88165 183.674 6.92099 183.735 6.85265C184.155 6.37446 184.598 6.02334 185.062 5.7993ZM207.091 5.41739C206.445 5.41739 205.858 5.54479 205.33 5.7993C204.866 6.02334 204.424 6.37446 204.003 6.85265C203.943 6.92099 203.831 6.88165 203.831 6.79064V5.88341C203.831 5.74949 203.722 5.64094 203.588 5.64094H202.48C202.347 5.64094 202.238 5.74949 202.238 5.88341V15.3747C202.238 15.5087 202.347 15.6172 202.48 15.6172H203.672C203.806 15.6172 203.915 15.5087 203.915 15.3747V10.3915C203.915 9.7395 203.957 9.238 204.04 8.88704C204.124 8.53638 204.306 8.19653 204.585 7.86721C204.933 7.45735 205.337 7.18421 205.796 7.0475C206.051 6.96697 206.377 6.9264 206.774 6.9264C207.557 6.9264 208.097 7.2371 208.395 7.85789C208.575 8.23049 208.665 8.72117 208.665 9.32965V15.3747C208.665 15.5087 208.774 15.6172 208.908 15.6172H210.127C210.261 15.6172 210.37 15.5087 210.37 15.3747V9.21787C210.37 8.21186 210.233 7.43872 209.96 6.89846C209.463 5.91108 208.507 5.41739 207.091 5.41739ZM218.307 7.46216C217.953 7.05531 217.384 6.85188 216.602 6.85188C215.534 6.85188 214.77 7.37292 214.311 8.41498C214.013 9.09106 213.863 9.9252 213.863 10.9177C213.863 11.9162 214.075 12.7566 214.497 13.4387C214.919 14.1211 215.584 14.4622 216.49 14.4622C217.186 14.4622 217.737 14.2503 218.144 13.8266C218.515 13.4396 218.782 12.9222 218.944 12.2744C218.971 12.1659 219.065 12.0869 219.177 12.0869H220.332C220.481 12.0869 220.598 12.2219 220.572 12.369C220.361 13.548 219.911 14.4212 219.22 14.9886C218.474 15.6001 217.521 15.906 216.36 15.906C215.056 15.906 214.016 15.4294 213.239 14.476C212.463 13.5229 212.075 12.3324 212.075 10.9039C212.075 9.15266 212.5 7.78968 213.351 6.81462C214.202 5.83986 215.285 5.35218 216.602 5.35218C217.726 5.35218 218.64 5.62562 219.345 6.17189C220.001 6.68025 220.413 7.52962 220.583 8.72003C220.603 8.86467 220.488 8.99431 220.342 8.99431H219.185C219.069 8.99431 218.974 8.91066 218.95 8.79733C218.836 8.26961 218.622 7.82446 218.307 7.46216ZM200.263 12.19V9.45249C200.263 6.49187 199.046 5.23434 196.268 5.23434C194.004 5.23434 192.423 6.47187 192.16 8.38264C192.14 8.52941 192.253 8.66171 192.401 8.66171H193.758C193.877 8.66171 193.981 8.57555 193.997 8.45803C194.152 7.30664 194.985 6.65401 196.289 6.65401C197.85 6.65401 198.519 7.40418 198.519 9.27002V9.43217L196.633 9.65525C194.97 9.85802 193.997 10.1014 193.226 10.4866C192.314 10.9937 191.807 11.8657 191.807 12.8796C191.807 14.6845 193.165 15.8605 195.234 15.8605C196.73 15.8605 197.915 15.2199 198.477 14.1457C198.522 14.0593 198.653 14.0916 198.659 14.1888C198.683 14.6159 198.723 15.0368 198.773 15.4054C198.789 15.5263 198.891 15.6171 199.013 15.6171H200.291C200.449 15.6171 200.563 15.4703 200.526 15.3171C200.341 14.5589 200.263 13.5623 200.263 12.19ZM198.539 11.1965C198.539 13.1636 197.384 14.4411 195.619 14.4411C194.382 14.4411 193.632 13.8328 193.632 12.8389C193.632 11.8454 194.281 11.318 195.781 11.095L198.539 10.6894V11.1965ZM164.784 10.6691C164.784 7.28264 166.487 5.23434 169.387 5.23434C172.124 5.23434 173.706 6.79588 173.706 9.83772V10.8119C173.706 10.9457 173.598 11.0543 173.464 11.0543H166.759C166.617 11.0543 166.508 11.1762 166.517 11.318C166.636 13.1559 167.805 14.3396 169.529 14.3396C170.747 14.3396 171.661 13.7322 172.138 12.6353C172.191 12.5137 172.334 12.4611 172.456 12.5146L173.43 12.9463C173.55 12.9992 173.608 13.1396 173.556 13.2599C172.816 14.9639 171.373 15.8605 169.407 15.8605C166.507 15.8605 164.784 14.0149 164.784 10.6691ZM166.507 9.65525H171.962V9.43187C171.962 7.56633 171.009 6.59311 169.346 6.59311C167.562 6.59311 166.548 7.7488 166.507 9.65525ZM226.894 5.23434C223.994 5.23434 222.29 7.28264 222.29 10.6691C222.29 14.0149 224.014 15.8605 226.914 15.8605C228.879 15.8605 230.322 14.9643 231.062 13.2611C231.115 13.1409 231.056 12.9994 230.936 12.9463L229.962 12.5146C229.837 12.459 229.695 12.5209 229.639 12.6466C229.161 13.7364 228.249 14.3396 227.035 14.3396C225.308 14.3396 224.138 13.1509 224.023 11.3064C224.014 11.1683 224.127 11.0543 224.266 11.0543H230.971C231.104 11.0543 231.213 10.9458 231.213 10.8119V9.83772C231.213 6.79588 229.631 5.23434 226.894 5.23434ZM229.469 9.65525H224.014C224.054 7.7488 225.068 6.59311 226.853 6.59311C228.516 6.59311 229.469 7.56633 229.469 9.43187V9.65525Z" fill="#A7A7BB"/>
</g>
<defs>
<clipPath id="clip0_209_4842">
<rect width="231.385" height="20" fill="white"/>
</clipPath>
</defs>
</svg>
