<svg width="278" height="24" viewBox="0 0 278 24" fill="none" xmlns="http://www.w3.org/2000/svg">
<g clip-path="url(#clip0_142_3)">
<path fill-rule="evenodd" clip-rule="evenodd" d="M0.906808 0H5.13907C5.63988 0 6.04587 0.405992 6.04587 0.906808V5.11041C6.04587 5.61123 5.63988 6.01722 5.13907 6.01722H0.906808C0.405992 6.01722 0 5.61123 0 5.11041V0.906808C0 0.405992 0.405992 0 0.906808 0ZM24.4861 6.54818H21.1281C19.9547 6.54818 19.0036 5.59703 19.0036 4.42371V0.906808C19.0036 0.405989 18.5976 0 18.0968 0H13.8645C13.3637 0 12.9577 0.405989 12.9577 0.906808V5.11041C12.9577 5.61123 13.3637 6.01722 13.8645 6.01722H17.2226C18.3959 6.01722 19.347 6.96837 19.347 8.14169V17.6663C19.347 18.1671 19.753 18.573 20.2538 18.573H24.4861C24.9869 18.573 25.3929 18.1671 25.3929 17.6663V7.45497C25.3929 6.95417 24.9869 6.54818 24.4861 6.54818ZM36.9217 6.54818H33.5636C32.3903 6.54818 31.4392 5.59703 31.4392 4.42371V0.906808C31.4392 0.405989 31.0332 0 30.5324 0H26.3001C25.7993 0 25.3933 0.405989 25.3933 0.906808V5.11041C25.3933 5.61123 25.7993 6.01722 26.3001 6.01722H29.6581C30.8315 6.01722 31.7826 6.96837 31.7826 8.14169V17.6663C31.7826 18.1671 32.1886 18.573 32.6894 18.573H36.9217C37.4225 18.573 37.8285 18.1671 37.8285 17.6663V7.45497C37.8285 6.95417 37.4225 6.54818 36.9217 6.54818ZM12.051 6.54817H7.81868C7.31788 6.54817 6.9119 6.95415 6.9119 7.45495V17.6662C6.9119 18.167 7.31788 18.573 7.81868 18.573H12.051C12.5518 18.573 12.9578 18.167 12.9578 17.6662V7.45495C12.9578 6.95415 12.5518 6.54817 12.051 6.54817ZM54.0946 8.54689C54.8977 6.892 56.1386 6.06454 57.7935 6.06454C60.1296 6.06454 61.4925 7.74382 61.4925 10.591V18.282C61.4925 18.4429 61.3621 18.5729 61.2015 18.5729H59.715C59.5544 18.5729 59.4241 18.4429 59.4241 18.282V10.7612C59.4241 8.86332 58.6454 7.88965 57.1123 7.88965C55.3843 7.88965 54.3866 9.15539 54.3866 11.3696V18.282C54.3866 18.4429 54.2567 18.5729 54.0957 18.5729H52.6092C52.4485 18.5729 52.3182 18.4429 52.3182 18.282V10.6641C52.3182 8.88768 51.4908 7.88965 50.0308 7.88965C48.3276 7.88965 47.2808 9.25249 47.2808 11.4671V18.282C47.2808 18.4429 47.1508 18.5729 46.9902 18.5729H45.5037C45.3427 18.5729 45.2127 18.4429 45.2127 18.282V6.6963C45.2127 6.53568 45.3427 6.40536 45.5037 6.40536H46.8684C47.029 6.40536 47.1593 6.53568 47.1593 6.6963V8.00339C47.1593 8.12596 47.3218 8.16362 47.3794 8.05506C48.0802 6.73395 49.1727 6.06454 50.6393 6.06454C52.3182 6.06454 53.5352 6.94072 54.0946 8.54689ZM70.4012 6.11322C66.9212 6.11322 64.8772 8.57118 64.8772 12.6349C64.8772 16.65 66.9456 18.8646 70.4256 18.8646C72.7846 18.8646 74.5159 17.7887 75.4043 15.7439C75.4671 15.5995 75.3969 15.4311 75.2525 15.3676L74.0835 14.8496C73.9381 14.7853 73.7656 14.8485 73.7021 14.9943C73.1302 16.3106 72.0328 17.0395 70.5714 17.0395C68.503 17.0395 67.1003 15.6191 66.9574 13.4136C66.9463 13.2434 67.077 13.0972 67.2476 13.0972H75.2935C75.4541 13.0972 75.5845 12.9669 75.5845 12.8063V11.6373C75.5845 7.98707 73.6863 6.11322 70.4012 6.11322ZM73.4917 11.4183H66.9456C66.9943 9.13057 68.2109 7.74375 70.3525 7.74375C72.3478 7.74375 73.4917 8.91161 73.4917 11.1503V11.4183ZM97.7955 11.175V14.46C97.7955 16.1068 97.8897 17.3028 98.1108 18.2125C98.1555 18.3964 98.0182 18.5725 97.8291 18.5725H96.2953C96.1491 18.5725 96.0265 18.4636 96.007 18.3185C95.9475 17.8762 95.8999 17.3711 95.8711 16.8586C95.8641 16.7419 95.7064 16.7031 95.6521 16.8069C94.9779 18.0959 93.5564 18.8646 91.7605 18.8646C89.2785 18.8646 87.648 17.4534 87.648 15.2875C87.648 14.0709 88.2565 13.0245 89.3516 12.416C90.2761 11.9537 91.4444 11.6616 93.4397 11.4183L95.7027 11.1506V10.956C95.7027 8.71704 94.8997 7.81683 93.0262 7.81683C91.4614 7.81683 90.4622 8.59999 90.2758 9.98165C90.2569 10.1227 90.1321 10.2261 89.9896 10.2261H88.3609C88.183 10.2261 88.0475 10.0673 88.0718 9.89119C88.3875 7.59826 90.2846 6.11322 93.0018 6.11322C96.3356 6.11322 97.7955 7.62226 97.7955 11.175ZM92.2231 17.1613C94.3403 17.1613 95.7271 15.6283 95.7271 13.2678V12.6593L92.4177 13.146C90.6169 13.4136 89.8382 14.0465 89.8382 15.2387C89.8382 16.4314 90.7384 17.1613 92.2231 17.1613ZM111.766 1.71238H110.28C110.119 1.71238 109.989 1.84271 109.989 2.00332V7.78695C109.989 7.9029 109.839 7.94536 109.776 7.84861C108.999 6.6608 107.878 6.11324 106.412 6.11324C103.37 6.11324 101.228 8.74142 101.228 12.4891C101.228 16.3095 103.224 18.8646 106.168 18.8646C107.891 18.8646 109.133 18.1029 109.893 16.743C109.952 16.6378 110.11 16.6769 110.11 16.7973V18.2817C110.11 18.4424 110.241 18.5727 110.401 18.5727H111.766C111.927 18.5727 112.057 18.4424 112.057 18.2817V2.00332C112.057 1.84271 111.927 1.71238 111.766 1.71238ZM110.037 12.7812C110.037 15.385 108.748 17.0399 106.728 17.0399C104.66 17.0399 103.419 15.3363 103.419 12.4891C103.419 9.6176 104.66 7.93871 106.728 7.93871C108.772 7.93871 110.037 9.56886 110.037 12.2214V12.7812ZM116.85 6.40542H118.336C118.497 6.40542 118.627 6.53568 118.627 6.69636V18.282C118.627 18.4427 118.497 18.5729 118.336 18.5729H116.85C116.689 18.5729 116.559 18.4427 116.559 18.282V6.69636C116.559 6.53568 116.689 6.40542 116.85 6.40542ZM132.23 6.40547H130.744C130.583 6.40547 130.453 6.53579 130.453 6.69641V12.9515C130.453 15.4335 129.139 17.0884 127.192 17.0884C125.586 17.0884 124.71 15.9689 124.71 13.9249V6.69641C124.71 6.53579 124.58 6.40547 124.419 6.40547H122.933C122.772 6.40547 122.642 6.53579 122.642 6.69641V14.1682C122.642 17.0153 123.737 18.8648 126.803 18.8648C128.32 18.8648 129.683 17.996 130.358 16.7568C130.415 16.6523 130.575 16.6948 130.575 16.8141V18.282C130.575 18.4426 130.705 18.5729 130.866 18.5729H132.23C132.391 18.5729 132.521 18.4426 132.521 18.282V6.69641C132.521 6.53579 132.391 6.40547 132.23 6.40547ZM118.482 1.71238H116.703C116.543 1.71238 116.412 1.84276 116.412 2.00334V3.78193C116.412 3.94251 116.543 4.07287 116.703 4.07287H118.482C118.643 4.07287 118.773 3.94267 118.773 3.78229V2.00296C118.773 1.84258 118.643 1.71238 118.482 1.71238ZM84.7126 6.47837H82.0782C82.0139 6.47837 81.9619 6.42595 81.9619 6.3617V2.07604C81.9619 1.91543 81.8315 1.78508 81.6709 1.78508H80.1844C80.0238 1.78508 79.8934 1.91543 79.8934 2.07604V4.97301H79.889C79.889 5.80231 79.2166 6.47506 78.3874 6.47506V6.47837H77.921C77.7604 6.47837 77.6304 6.60834 77.6304 6.76895V7.89069C77.6304 8.0513 77.7604 8.18163 77.921 8.18163H79.7771C79.8414 8.18163 79.8934 8.23371 79.8934 8.29793V14.9954C79.8934 17.2584 80.5747 18.8646 83.2029 18.8646C83.8719 18.8646 84.3253 18.8107 84.7791 18.7029C84.9105 18.6718 85.0036 18.5541 85.0036 18.4193V17.0391C85.0036 16.8914 84.8677 16.7803 84.7233 16.8113C84.4287 16.8752 84.1477 16.9176 83.7382 16.9176C82.4973 16.9176 81.9619 16.3095 81.9619 14.9223V8.29793C81.9619 8.23371 82.0139 8.18163 82.0782 8.18163H84.7126C84.8736 8.18163 85.0036 8.0513 85.0036 7.89069V6.76895C85.0036 6.60834 84.8736 6.47837 84.7126 6.47837ZM145.783 8.54689C146.586 6.892 147.827 6.06454 149.482 6.06454C151.818 6.06454 153.181 7.74382 153.181 10.591V18.282C153.181 18.4429 153.05 18.5729 152.89 18.5729H151.403C151.243 18.5729 151.112 18.4429 151.112 18.282V10.7612C151.112 8.86332 150.334 7.88965 148.801 7.88965C147.073 7.88965 146.075 9.15539 146.075 11.3696V18.282C146.075 18.4429 145.945 18.5729 145.784 18.5729H144.297C144.137 18.5729 144.006 18.4429 144.006 18.282V10.6641C144.006 8.88768 143.179 7.88965 141.719 7.88965C140.016 7.88965 138.969 9.25249 138.969 11.4671V18.282C138.969 18.4429 138.839 18.5729 138.678 18.5729H137.192C137.031 18.5729 136.901 18.4429 136.901 18.282V6.6963C136.901 6.53568 137.031 6.40536 137.192 6.40536H138.557C138.717 6.40536 138.848 6.53568 138.848 6.6963V8.00339C138.848 8.12596 139.01 8.16362 139.068 8.05506C139.768 6.73395 140.861 6.06454 142.328 6.06454C144.006 6.06454 145.223 6.94072 145.783 8.54689Z" fill="white"/>
<path fill-rule="evenodd" clip-rule="evenodd" d="M212.562 8.5239C213.095 7.28773 214.139 6.37118 216.018 6.28377C216.182 6.27615 216.317 6.41184 216.317 6.57547V8.39526C216.317 8.5538 216.189 8.68023 216.03 8.68516C213.829 8.7537 212.841 9.62805 212.562 11.2571V18.4497C212.562 18.6103 212.432 18.7407 212.271 18.7407H210.785C210.624 18.7407 210.494 18.6103 210.494 18.4497V6.56786C210.494 6.40724 210.624 6.27692 210.785 6.27692H212.271C212.432 6.27692 212.562 6.40724 212.562 6.56786V8.5239ZM178.663 6.28097C175.604 6.28097 173.124 9.13548 173.124 12.6567C173.124 16.1779 175.604 19.0324 178.663 19.0324C181.721 19.0324 184.201 16.1779 184.201 12.6567C184.201 9.13548 181.721 6.28097 178.663 6.28097ZM178.663 17.4018C176.746 17.4018 175.192 15.2773 175.192 12.6567C175.192 10.036 176.746 7.9115 178.663 7.9115C180.579 7.9115 182.133 10.036 182.133 12.6567C182.133 15.2773 180.579 17.4018 178.663 17.4018ZM169.513 6.88068H170.787C170.948 6.88068 171.078 7.01094 171.078 7.17164V17.7679C171.078 19.2881 170.855 20.4878 170.41 21.3672C169.577 22.9916 168.007 23.804 165.697 23.804C164.412 23.804 163.332 23.5152 162.455 22.9375C161.662 22.4151 161.185 21.6255 161.024 20.569C160.997 20.3903 161.131 20.2271 161.312 20.2271H162.795C162.932 20.2271 163.046 20.3244 163.079 20.4572C163.185 20.8833 163.361 21.2202 163.608 21.4678C164.06 21.9149 164.771 22.1385 165.742 22.1385C167.276 22.1385 168.281 21.5944 168.755 20.5065C169.037 19.8654 169.166 18.722 169.144 17.0749C168.743 17.6861 168.261 18.1408 167.697 18.4386C167.133 18.7368 166.386 18.8857 165.459 18.8857C164.167 18.8857 163.037 18.4256 162.068 17.5051C161.1 16.5849 160.615 15.0629 160.615 12.9391C160.615 10.9346 161.103 9.36974 162.079 8.24438C163.056 7.11938 164.234 6.55652 165.615 6.55652C166.55 6.55652 167.366 6.78765 168.064 7.24955C168.443 7.51061 168.829 7.89066 169.222 8.38969V7.17164C169.222 7.01094 169.353 6.88068 169.513 6.88068ZM165.697 17.2426C167.135 17.2426 168.147 16.5907 168.733 15.2865C169.059 14.5487 169.222 13.688 169.222 12.7044C169.222 11.2217 168.918 10.1223 168.31 9.40688C167.702 8.6915 166.928 8.33381 165.986 8.33381C164.577 8.33381 163.614 8.99727 163.095 10.3235C162.82 11.0316 162.683 11.9594 162.683 13.1068C162.683 14.4557 162.956 15.4822 163.501 16.1861C164.046 16.8907 164.778 17.2426 165.697 17.2426ZM194.511 6.60114H196.085C196.288 6.60114 196.429 6.80432 196.357 6.99459L192.069 18.3842C192.027 18.4976 191.918 18.5727 191.797 18.5727H190.057C189.935 18.5727 189.826 18.4967 189.784 18.3824L185.584 6.99277C185.514 6.80281 185.654 6.60114 185.857 6.60114H187.565C187.69 6.60114 187.802 6.68193 187.841 6.80142L190.972 16.3483L194.236 6.79799C194.276 6.68026 194.387 6.60114 194.511 6.60114ZM222.075 6.95893C222.708 6.65352 223.412 6.50063 224.187 6.50063C225.886 6.50063 227.034 7.09306 227.63 8.27792C227.958 8.92623 228.122 9.854 228.122 11.0612V18.4495C228.122 18.6102 227.991 18.7404 227.831 18.7404H226.367C226.206 18.7404 226.076 18.6102 226.076 18.4495V11.1953C226.076 10.4652 225.968 9.87635 225.752 9.42924C225.394 8.68429 224.746 8.31145 223.807 8.31145C223.33 8.31145 222.939 8.36013 222.633 8.45676C222.082 8.62082 221.597 8.94859 221.18 9.44042C220.845 9.83561 220.627 10.2434 220.526 10.6642C220.426 11.0854 220.375 11.6872 220.375 12.4696V18.4495C220.375 18.6102 220.245 18.7404 220.085 18.7404H218.654C218.494 18.7404 218.363 18.6102 218.363 18.4495V7.05986C218.363 6.89916 218.494 6.7689 218.654 6.7689H219.984C220.145 6.7689 220.275 6.89916 220.275 7.05986V8.14854C220.275 8.25775 220.409 8.30496 220.481 8.22295C220.986 7.64911 221.517 7.22778 222.075 6.95893ZM248.509 6.50063C247.734 6.50063 247.03 6.65352 246.397 6.95893C245.84 7.22778 245.308 7.64911 244.803 8.22295C244.731 8.30496 244.597 8.25775 244.597 8.14854V7.05986C244.597 6.89916 244.467 6.7689 244.306 6.7689H242.976C242.816 6.7689 242.685 6.89916 242.685 7.05986V18.4495C242.685 18.6102 242.816 18.7404 242.976 18.7404H244.407C244.567 18.7404 244.697 18.6102 244.697 18.4495V12.4696C244.697 11.6872 244.748 11.0854 244.848 10.6642C244.949 10.2434 245.167 9.83561 245.502 9.44042C245.919 8.94859 246.404 8.62082 246.955 8.45676C247.261 8.36013 247.652 8.31145 248.129 8.31145C249.068 8.31145 249.716 8.68429 250.074 9.42924C250.29 9.87635 250.398 10.4652 250.398 11.1953V18.4495C250.398 18.6102 250.528 18.7404 250.689 18.7404H252.153C252.313 18.7404 252.444 18.6102 252.444 18.4495V11.0612C252.444 9.854 252.28 8.92623 251.952 8.27792C251.356 7.09306 250.208 6.50063 248.509 6.50063ZM261.968 8.95436C261.543 8.46614 260.861 8.22203 259.922 8.22203C258.641 8.22203 257.724 8.84727 257.173 10.0977C256.815 10.909 256.636 11.91 256.636 13.101C256.636 14.2992 256.889 15.3077 257.396 16.1262C257.903 16.9451 258.7 17.3544 259.788 17.3544C260.623 17.3544 261.284 17.1002 261.772 16.5917C262.218 16.1273 262.538 15.5064 262.732 14.7291C262.765 14.5988 262.878 14.504 263.013 14.504H264.398C264.577 14.504 264.718 14.666 264.686 14.8425C264.434 16.2573 263.893 17.3052 263.063 17.9861C262.169 18.7199 261.025 19.0869 259.632 19.0869C258.067 19.0869 256.819 18.5151 255.887 17.3709C254.956 16.2272 254.49 14.7986 254.49 13.0844C254.49 10.983 255 9.34739 256.021 8.17731C257.042 7.0076 258.343 6.42239 259.922 6.42239C261.271 6.42239 262.368 6.75051 263.214 7.40604C264.001 8.01607 264.496 9.03531 264.699 10.4638C264.724 10.6374 264.586 10.7929 264.411 10.7929H263.022C262.882 10.7929 262.769 10.6926 262.74 10.5566C262.604 9.9233 262.346 9.38912 261.968 8.95436ZM240.316 14.6278V11.3428C240.316 7.79001 238.856 6.28097 235.522 6.28097C232.805 6.28097 230.908 7.76601 230.592 10.0589C230.567 10.2351 230.703 10.3938 230.881 10.3938H232.51C232.652 10.3938 232.777 10.2904 232.796 10.1494C232.982 8.76774 233.981 7.98459 235.546 7.98459C237.42 7.98459 238.223 8.88479 238.223 11.1238V11.3184L235.96 11.5861C233.964 11.8294 232.796 12.1215 231.872 12.5837C230.776 13.1922 230.168 14.2386 230.168 15.4552C230.168 17.6211 231.798 19.0323 234.28 19.0323C236.076 19.0323 237.498 18.2636 238.172 16.9746C238.226 16.8709 238.384 16.9096 238.391 17.0263C238.42 17.5388 238.468 18.0439 238.527 18.4863C238.547 18.6314 238.669 18.7403 238.815 18.7403H240.349C240.538 18.7403 240.676 18.5642 240.631 18.3803C240.41 17.4705 240.316 16.2746 240.316 14.6278ZM238.247 13.4355C238.247 15.796 236.86 17.3291 234.743 17.3291C233.258 17.3291 232.358 16.5991 232.358 15.4065C232.358 14.2143 233.137 13.5814 234.938 13.3137L238.247 12.8271V13.4355ZM197.74 12.8027C197.74 8.73894 199.784 6.28097 203.264 6.28097C206.549 6.28097 208.448 8.15482 208.448 11.805V12.974C208.448 13.1346 208.317 13.265 208.157 13.265H200.111C199.94 13.265 199.809 13.4112 199.82 13.5814C199.963 15.7868 201.366 17.2072 203.434 17.2072C204.896 17.2072 205.993 16.4784 206.565 15.1621C206.629 15.0162 206.801 14.9531 206.947 15.0173L208.116 15.5354C208.26 15.5989 208.33 15.7672 208.267 15.9116C207.379 17.9564 205.648 19.0323 203.289 19.0323C199.809 19.0323 197.74 16.8177 197.74 12.8027ZM199.809 11.5861H206.355V11.318C206.355 9.07936 205.211 7.9115 203.216 7.9115C201.074 7.9115 199.857 9.29833 199.809 11.5861ZM272.272 6.28097C268.792 6.28097 266.748 8.73894 266.748 12.8027C266.748 16.8177 268.817 19.0323 272.297 19.0323C274.655 19.0323 276.386 17.9569 277.275 15.913C277.337 15.7688 277.267 15.5991 277.124 15.5354L275.955 15.0173C275.804 14.9506 275.633 15.0248 275.567 15.1757C274.994 16.4834 273.899 17.2072 272.442 17.2072C270.37 17.2072 268.965 15.7808 268.828 13.5674C268.817 13.4017 268.953 13.265 269.119 13.265H277.165C277.325 13.265 277.455 13.1347 277.455 12.974V11.805C277.455 8.15482 275.557 6.28097 272.272 6.28097ZM275.363 11.5861H268.817C268.865 9.29833 270.082 7.9115 272.223 7.9115C274.219 7.9115 275.363 9.07936 275.363 11.318V11.5861Z" fill="white"/>
</g>
<defs>
<clipPath id="clip0_142_3">
<rect width="277.662" height="24" fill="white"/>
</clipPath>
</defs>
</svg>
