<svg width="24" height="24" viewBox="0 0 24 24" fill="none" xmlns="http://www.w3.org/2000/svg">
<mask id="path-1-inside-1_274_4353" fill="white">
<path fill-rule="evenodd" clip-rule="evenodd" d="M20 12C20 16.4183 16.4183 20 12 20C7.58172 20 4 16.4183 4 12C4 7.58172 7.58172 4 12 4C16.4183 4 20 7.58172 20 12ZM12.5 6.90906C12.5 6.63292 12.2761 6.40906 12 6.40906C11.7239 6.40906 11.5 6.63292 11.5 6.90906V12C11.5 12.1326 11.5527 12.2598 11.6464 12.3535L14.5555 15.2626C14.7508 15.4579 15.0674 15.4579 15.2626 15.2626C15.4579 15.0673 15.4579 14.7508 15.2626 14.5555L12.5 11.7929V6.90906Z"/>
</mask>
<path fill-rule="evenodd" clip-rule="evenodd" d="M20 12C20 16.4183 16.4183 20 12 20C7.58172 20 4 16.4183 4 12C4 7.58172 7.58172 4 12 4C16.4183 4 20 7.58172 20 12ZM12.5 6.90906C12.5 6.63292 12.2761 6.40906 12 6.40906C11.7239 6.40906 11.5 6.63292 11.5 6.90906V12C11.5 12.1326 11.5527 12.2598 11.6464 12.3535L14.5555 15.2626C14.7508 15.4579 15.0674 15.4579 15.2626 15.2626C15.4579 15.0673 15.4579 14.7508 15.2626 14.5555L12.5 11.7929V6.90906Z" fill="#A7A7BB"/>
<path d="M11.6464 12.3535L10.9393 13.0606L11.6464 12.3535ZM14.5555 15.2626L15.2626 14.5555L15.2626 14.5555L14.5555 15.2626ZM15.2626 15.2626L14.5555 14.5555L14.5555 14.5555L15.2626 15.2626ZM12.5 11.7929H11.5V12.2071L11.7929 12.5L12.5 11.7929ZM12 21C16.9706 21 21 16.9706 21 12H19C19 15.866 15.866 19 12 19V21ZM3 12C3 16.9706 7.02944 21 12 21V19C8.13401 19 5 15.866 5 12H3ZM12 3C7.02944 3 3 7.02944 3 12H5C5 8.13401 8.13401 5 12 5V3ZM21 12C21 7.02944 16.9706 3 12 3V5C15.866 5 19 8.13401 19 12H21ZM12 7.40906C11.7239 7.40906 11.5 7.1852 11.5 6.90906H13.5C13.5 6.08063 12.8284 5.40906 12 5.40906V7.40906ZM12.5 6.90906C12.5 7.1852 12.2761 7.40906 12 7.40906V5.40906C11.1716 5.40906 10.5 6.08063 10.5 6.90906H12.5ZM12.5 12V6.90906H10.5V12H12.5ZM12.3536 11.6464C12.4473 11.7402 12.5 11.8674 12.5 12H10.5C10.5 12.3978 10.658 12.7793 10.9393 13.0606L12.3536 11.6464ZM15.2626 14.5555L12.3536 11.6464L10.9393 13.0606L13.8484 15.9697L15.2626 14.5555ZM14.5555 14.5555C14.7508 14.3602 15.0674 14.3602 15.2626 14.5555L13.8484 15.9697C14.4342 16.5555 15.384 16.5555 15.9698 15.9697L14.5555 14.5555ZM14.5555 15.2626C14.3603 15.0674 14.3603 14.7508 14.5555 14.5555L15.9697 15.9697C16.5555 15.3839 16.5555 14.4342 15.9698 13.8484L14.5555 15.2626ZM11.7929 12.5L14.5555 15.2626L15.9698 13.8484L13.2071 11.0858L11.7929 12.5ZM11.5 6.90906V11.7929H13.5V6.90906H11.5Z" fill="#A7A7BB" mask="url(#path-1-inside-1_274_4353)"/>
</svg>
