<svg width="24" height="24" viewBox="0 0 24 24" fill="none" xmlns="http://www.w3.org/2000/svg">
<g clip-path="url(#clip0_274_4364)">
<path fill-rule="evenodd" clip-rule="evenodd" d="M8.99386 11.9957C6.72575 12.3246 5 14.3004 5 16.7213V18.6327C5 19.3884 5.58154 19.984 6.31892 19.984H17.6817C18.4191 19.984 19 19.3885 19 18.6327V16.7213C19 14.3003 17.2746 12.3242 15.0064 11.9955C14.5011 12.3764 13.9212 12.6636 13.2926 12.8313C12.8819 12.9508 12.4487 13.0149 12.0009 13.0149C11.5605 13.0149 11.1342 12.9529 10.7295 12.8372C10.0925 12.6703 9.50503 12.3809 8.99386 11.9957Z" fill="#A7A7BB"/>
<path d="M16 8C16 10.2091 14.2091 12 12 12C9.79086 12 8 10.2091 8 8C8 5.79086 9.79086 4 12 4C14.2091 4 16 5.79086 16 8Z" fill="#A7A7BB"/>
</g>
<defs>
<clipPath id="clip0_274_4364">
<rect width="14" height="16" fill="white" transform="translate(5 4)"/>
</clipPath>
</defs>
</svg>
