<svg width="24" height="24" viewBox="0 0 24 24" fill="none" xmlns="http://www.w3.org/2000/svg">
<path d="M18.9308 5.63318C17.6561 5.04829 16.2891 4.61736 14.8599 4.37054C14.8339 4.36578 14.8079 4.37768 14.7945 4.40149C14.6187 4.71418 14.424 5.1221 14.2876 5.44272C12.7503 5.21257 11.221 5.21257 9.71526 5.44272C9.57888 5.11495 9.37707 4.71418 9.20048 4.40149C9.18708 4.37848 9.16107 4.36657 9.13505 4.37054C7.7066 4.61656 6.33963 5.0475 5.06411 5.63318C5.05308 5.63795 5.04362 5.64588 5.03731 5.6562C2.44449 9.52984 1.73421 13.3082 2.08265 17.0398C2.08423 17.0581 2.09448 17.0755 2.10866 17.0866C3.81934 18.3429 5.47641 19.1056 7.10274 19.6111C7.12875 19.6191 7.15634 19.6096 7.1729 19.5881C7.5576 19.0628 7.90053 18.5088 8.19457 17.9263C8.21192 17.8922 8.19536 17.8517 8.15989 17.8382C7.61594 17.6319 7.09801 17.3803 6.59978 17.0946C6.56036 17.0716 6.55721 17.0152 6.59347 16.9882C6.69832 16.9097 6.80317 16.8279 6.90329 16.7454C6.92142 16.7303 6.94665 16.7271 6.96793 16.7367C10.2411 18.231 13.7846 18.231 17.0191 16.7367C17.0404 16.7263 17.0657 16.7295 17.0846 16.7446C17.1847 16.8271 17.2895 16.9097 17.3952 16.9882C17.4314 17.0152 17.4291 17.0716 17.3897 17.0946C16.8914 17.3858 16.3735 17.6319 15.8288 17.8374C15.7933 17.8509 15.7775 17.8922 15.7949 17.9263C16.0952 18.508 16.4381 19.062 16.8158 19.5873C16.8315 19.6096 16.8599 19.6191 16.8859 19.6111C18.5201 19.1056 20.1772 18.3429 21.8879 17.0866C21.9028 17.0755 21.9123 17.0589 21.9139 17.0406C22.3309 12.7265 21.2154 8.97907 18.9569 5.65699C18.9513 5.64588 18.9419 5.63795 18.9308 5.63318ZM8.68334 14.7677C7.69793 14.7677 6.88595 13.863 6.88595 12.7519C6.88595 11.6409 7.68216 10.7361 8.68334 10.7361C9.6924 10.7361 10.4965 11.6488 10.4807 12.7519C10.4807 13.863 9.68452 14.7677 8.68334 14.7677ZM15.329 14.7677C14.3435 14.7677 13.5316 13.863 13.5316 12.7519C13.5316 11.6409 14.3278 10.7361 15.329 10.7361C16.338 10.7361 17.1421 11.6488 17.1264 12.7519C17.1264 13.863 16.338 14.7677 15.329 14.7677Z" fill="#A7A7BB"/>
</svg>
