<svg width="72" height="72" viewBox="0 0 72 72" fill="none" xmlns="http://www.w3.org/2000/svg">
<g clip-path="url(#clip0_1256_88176)">
<path d="M58.3428 17.7899L39.7667 7.91289C37.4853 6.69741 34.7662 6.69741 32.4849 7.90267L13.7152 17.8205C10.884 19.5263 8.23605 21.5385 8.12402 27.4013V32.1304H15.4262V25.665L36.131 14.5929L56.6828 25.665V32.1304H63.9849V27.4013C63.8627 21.5078 61.1946 19.5059 58.3428 17.7899Z" fill="#356DF3"/>
<path d="M56.6726 46.8592L39.7769 56.3479V48.6875C45.7143 47.2881 49.6251 42.4365 49.6251 35.9504C49.6251 28.0857 44.207 22.8049 36.131 22.8049C28.0548 22.8049 22.6367 28.0857 22.6367 35.9504C22.6367 42.4466 26.5373 47.2881 32.4849 48.6875V56.3582L15.4364 46.8592V39.791H8.12402V44.5099C8.24624 50.3626 10.884 52.3849 13.7152 54.0906L32.4849 64.0085C34.7662 65.2138 37.4956 65.2138 39.7667 63.9984L58.3328 54.1213C61.1843 52.4155 63.8627 50.4034 63.9749 44.5099V39.791H56.6726V46.8592ZM29.4194 35.9504C29.4194 31.6402 31.8025 29.2705 36.131 29.2705C40.4593 29.2705 42.8424 31.6402 42.8424 35.9504C42.8424 40.1281 40.3371 42.6305 36.131 42.6305C31.9247 42.6305 29.4194 40.1382 29.4194 35.9504Z" fill="#356DF3"/>
</g>
<defs>
<clipPath id="clip0_1256_88176">
<rect width="56" height="58" fill="white" transform="translate(8 7)"/>
</clipPath>
</defs>
</svg>
