<svg width="72" height="72" viewBox="0 0 72 72" fill="none" xmlns="http://www.w3.org/2000/svg">
<path d="M24.9524 32.9758C24.2028 32.41 23.2864 32.1043 22.3444 32.1056C21.7271 32.0902 21.1132 32.2009 20.541 32.4311C19.9687 32.6612 19.4504 33.0057 19.0182 33.4432C18.5867 33.8783 18.2479 34.395 18.0219 34.9626C17.796 35.5303 17.6876 36.1373 17.7032 36.7473C17.6867 37.3661 17.7945 37.9819 18.0202 38.559C18.246 39.136 18.5852 39.6627 19.0182 40.1084C19.4612 40.5496 19.9908 40.8959 20.5741 41.1259C21.1574 41.356 21.7821 41.4649 22.4096 41.446C23.3247 41.4408 24.2157 41.1544 24.9601 40.6262V41.2057H27.6762V32.3384H24.9524V32.9749V32.9758ZM24.4256 35.0202C24.8719 35.5009 25.1095 36.1365 25.0865 36.7901C25.1101 37.4426 24.8725 38.0778 24.4256 38.5571C24.2022 38.7753 23.9359 38.9456 23.6432 39.0573C23.3506 39.1691 23.038 39.22 22.7247 39.2069C22.4211 39.2148 22.1193 39.1588 21.8391 39.0425C21.559 38.9263 21.3068 38.7524 21.0994 38.5324C20.659 38.0428 20.4288 37.4019 20.4577 36.7464C20.4399 36.1106 20.676 35.4936 21.1147 35.0297C21.3249 34.813 21.5781 34.6419 21.8584 34.5271C22.1386 34.4123 22.4398 34.3564 22.7429 34.3629C23.0538 34.352 23.3637 34.4048 23.6532 34.5179C23.9427 34.631 24.2056 34.802 24.4256 35.0202ZM35.5278 32.2633C34.7272 32.2618 33.9465 32.5112 33.2972 32.9758V32.3355H30.5935V41.2057H33.2972V37.1891C33.2972 36.1897 33.4284 35.4743 33.688 35.0924C33.9475 34.7096 34.3431 34.5652 34.9484 34.5652C35.4972 34.5652 35.8697 34.6925 36.0613 34.9471C36.2078 35.1371 36.3841 35.5674 36.3841 36.5393V41.2057H39.0906V36.0747C39.0906 34.8074 38.8052 33.8707 38.244 33.2931C37.5908 32.6101 36.6762 32.2633 35.5278 32.2633ZM48.6624 32.5882C47.9348 32.0534 47.0489 31.7731 46.1435 31.7912C45.5217 31.7695 44.9027 31.8842 44.3307 32.127C43.7588 32.3699 43.2479 32.735 42.8345 33.1962C42.07 34.0725 41.6614 35.1994 41.6881 36.3578C41.6716 36.945 41.7726 37.5297 41.9853 38.0779C42.1981 38.6261 42.5182 39.127 42.9274 39.5517C43.6766 40.2857 44.6628 40.7339 45.7124 40.8175C46.7619 40.9011 47.8076 40.6147 48.6652 40.0087V40.5711C48.6652 42.1139 48.035 42.8207 46.6827 42.8207C46.3761 42.8412 46.0688 42.7927 45.7837 42.6789C45.4986 42.5651 45.2431 42.3888 45.0363 42.1633C44.8567 41.9248 44.7398 41.6456 44.6963 41.351L44.6561 41.1439H42.0463L42.0788 41.4213C42.1233 41.9404 42.2772 42.4444 42.5307 42.9007C42.7841 43.357 43.1313 43.7553 43.5499 44.0699C44.364 44.6874 45.4118 45.0009 46.6626 45.0009C48.149 45.0009 49.3347 44.5449 50.19 43.6529C50.6471 43.1855 50.9667 42.6031 51.1142 41.9685C51.1688 41.7063 51.2081 41.4403 51.233 41.1734C51.2607 40.876 51.2732 40.5312 51.2732 40.1436V32.0163H48.6624V32.5882ZM48.1107 34.6079C48.3242 34.8385 48.4894 35.1088 48.5968 35.4031C48.7041 35.6975 48.7515 36.01 48.7361 36.3227C48.7606 36.9251 48.5562 37.5147 48.1634 37.9747C47.9492 38.1896 47.6941 38.3602 47.413 38.4766C47.1319 38.593 46.8303 38.6529 46.5256 38.6529C46.221 38.6529 45.9194 38.593 45.6383 38.4766C45.3571 38.3602 45.1021 38.1896 44.8879 37.9747C44.5052 37.5097 44.3082 36.9214 44.3343 36.3217C44.3083 35.7163 44.505 35.122 44.8879 34.6497C45.0889 34.4193 45.3403 34.2374 45.623 34.118C45.9057 33.9986 46.2121 33.9449 46.5189 33.961C46.8152 33.9518 47.1101 34.0047 47.3843 34.1162C47.6586 34.2276 47.9061 34.3952 48.1107 34.6079ZM57.3884 26.152H54.3772V41.1886H57.3884V26.1529V26.152ZM16.1756 26H12.4346L10.3113 29.0371L12.2546 31.7912L16.1746 26H16.1756ZM16.5003 41.1715L6.22654 26H2.50377L7.35189 33.2855L2 41.1886H5.70648L9.2693 36.0519L12.8292 41.1886L16.5012 41.1715H16.5003ZM69.3823 36.2666C69.3823 34.7447 68.9608 33.5325 68.1228 32.6661C67.2838 31.7978 66.1192 31.3361 64.6778 31.3361C63.2364 31.3361 62.0957 31.7959 61.2136 32.7032C60.3315 33.6104 59.9235 34.815 59.9235 36.2771C59.9235 37.7391 60.3718 38.9542 61.2567 39.851C62.1407 40.7487 63.3322 41.2057 64.7841 41.2057C65.2582 41.2085 65.7323 41.1582 66.1949 41.0537C66.6287 40.9492 67.0444 40.781 67.4275 40.553C67.8175 40.3207 68.1735 40.0366 68.4858 39.7085C68.7512 39.4295 68.9922 39.1285 69.206 38.8088L66.9687 37.5966C66.7197 37.9747 66.4142 38.312 66.0617 38.596C65.7045 38.824 65.286 38.9361 64.8617 38.919C64.5804 38.9296 64.2998 38.8843 64.0363 38.786C63.7729 38.6876 63.5319 38.5381 63.3274 38.3462C62.9632 37.9745 62.733 37.4939 62.6723 36.9791H69.3516L69.3823 36.2666ZM62.7259 35.0896C62.8285 34.6224 63.0891 34.2041 63.4645 33.9041C63.8398 33.6042 64.3074 33.4406 64.7894 33.4406C65.2714 33.4406 65.7389 33.6042 66.1143 33.9041C66.4897 34.2041 66.7503 34.6224 66.8528 35.0896H62.725H62.7259Z" fill="white"/>
</svg>
