<svg width="32" height="32" viewBox="0 0 32 32" fill="none" xmlns="http://www.w3.org/2000/svg">
<path d="M7.54842 7.84858V9.15798H13.9739C13.5725 13.2403 11.8377 16.5523 7 18.7667L7.95064 19.9991C14.077 17.207 15.685 12.7589 15.685 7.84858H7.54842Z" fill="white"/>
<path d="M22.5454 13.0092H19.7225V6H18.1443V19.8181H19.0303L19.7225 17.6569V14.3186H22.5454V13.0092Z" fill="white"/>
<path d="M21.2778 23.0309H23.7651L24.304 25H25.9103L23.4438 17.3309H21.6405L19.1844 25H20.7389L21.2778 23.0309ZM23.2054 20.9997L23.4334 21.8391H21.6094L21.8374 20.9997C21.9549 20.5989 22.0689 20.1878 22.1794 19.7664C22.29 19.338 22.3936 18.9131 22.4903 18.4917H22.5318C22.6492 18.9062 22.7598 19.3277 22.8634 19.756C22.974 20.1844 23.088 20.5989 23.2054 20.9997Z" fill="white"/>
</svg>
