<svg width="60" height="60" viewBox="0 0 60 60" fill="none" xmlns="http://www.w3.org/2000/svg">
<g id="Company_blockdaemon">
<path id="blockdaemon" fill-rule="evenodd" clip-rule="evenodd" d="M24.1088 15.6586L30.0085 12.2511L36.0522 15.7434L48.75 5.46986V23.084V44.733L30 55.5491L11.2585 44.7246V26.2797L11.25 26.2882V5.24947L24.1088 15.6586ZM14.5389 28.0597V42.8343L30 51.7601L45.4696 42.8343V28.2971L29.9915 37.4009L14.5389 28.0597ZM15.1577 24.6098L30.0085 33.5864L45.0627 24.737L30 16.0401L15.1577 24.6098ZM39.4259 17.2268L45.4696 20.7699V12.3358C43.4607 13.9633 41.4433 15.5993 39.4259 17.2268ZM14.5304 20.558L20.5741 17.0149L14.5304 12.1239C14.5304 14.9296 14.5304 17.7438 14.5304 20.558Z" fill="white"/>
</g>
</svg>
