<svg width="17" height="17" viewBox="0 0 17 17" fill="none" xmlns="http://www.w3.org/2000/svg">
<path fill-rule="evenodd" clip-rule="evenodd" d="M8.33358 2.50008C5.01987 2.50008 2.33358 5.18637 2.33358 8.50008C2.33358 11.8138 5.01987 14.5001 8.33358 14.5001C11.6473 14.5001 14.3336 11.8138 14.3336 8.50008C14.3336 5.18637 11.6473 2.50008 8.33358 2.50008ZM1.00024 8.50008C1.00024 4.44999 4.28349 1.16675 8.33358 1.16675C12.3837 1.16675 15.6669 4.44999 15.6669 8.50008C15.6669 12.5502 12.3837 15.8334 8.33358 15.8334C4.28349 15.8334 1.00024 12.5502 1.00024 8.50008ZM9.00024 4.99693V6.30608H7.66691V4.99693H9.00024ZM9.00024 7.09267V12.1297H7.66691V7.09267H9.00024Z" fill="black"/>
</svg>
