<svg width="72" height="72" viewBox="0 0 72 72" fill="none" xmlns="http://www.w3.org/2000/svg">
<path d="M60.0889 18.9109C57.2795 16.1014 52.8682 15.8919 49.7877 18.2455L44.4522 12.91C46.202 10.4579 45.9925 7.03239 43.7868 4.83907C41.3348 2.38698 37.3547 2.38698 34.8903 4.83907C32.4259 7.29116 32.4382 11.2712 34.8903 13.7356C37.096 15.9412 40.5092 16.1507 42.9613 14.401L48.2967 19.7364C46.1527 22.5459 46.165 26.415 48.2967 29.2244L35.7036 41.8176C34.3851 40.8071 32.7463 40.191 30.9596 40.191C26.6222 40.191 23.0981 43.7151 23.0981 48.0525C23.0981 52.3899 26.6222 55.914 30.9596 55.914C35.2969 55.914 38.8211 52.3899 38.8211 48.0525C38.8211 46.2658 38.1926 44.627 37.1945 43.3085L49.8 30.7031C52.8805 33.0566 57.2795 32.8471 60.1012 30.0377C63.1571 26.9448 63.1571 21.979 60.0889 18.9109Z" fill="#F05623"/>
<path d="M30.9596 27.0803C19.4015 27.0803 9.99977 36.482 9.99977 48.0401C9.99977 59.5982 19.4015 69 30.9596 69C42.5177 69 51.9194 59.5982 51.9194 48.0401C51.9194 36.482 42.5177 27.0803 30.9596 27.0803ZM30.9596 60.6086C24.0223 60.6086 18.3911 54.9651 18.3911 48.0401C18.3911 41.1151 24.0346 35.4716 30.9596 35.4716C37.8846 35.4716 43.5281 41.1151 43.5281 48.0401C43.5281 54.9651 37.8969 60.6086 30.9596 60.6086Z" fill="white"/>
</svg>
