<svg width="24" height="24" viewBox="0 0 24 24" fill="none" xmlns="http://www.w3.org/2000/svg">
<g clip-path="url(#clip0_870_37066)">
<path d="M2 13H22V11H2V13ZM12 21C7.02944 21 3 16.9706 3 12H1C1 18.0751 5.92487 23 12 23V21ZM3 12C3 7.02944 7.02944 3 12 3V1C5.92487 1 1 5.92487 1 12H3ZM12 3C16.9706 3 21 7.02944 21 12H23C23 5.92487 18.0751 1 12 1V3ZM21 12C21 16.9706 16.9706 21 12 21V23C18.0751 23 23 18.0751 23 12H21ZM12 21C11.7117 21 11.3618 20.8727 10.9594 20.4898C10.5518 20.1019 10.1393 19.4934 9.77111 18.6649C9.03584 17.0106 8.55556 14.655 8.55556 12H6.55556C6.55556 14.8678 7.07019 17.5123 7.94349 19.4772C8.37958 20.4584 8.92475 21.3144 9.58064 21.9385C10.2417 22.5676 11.061 23 12 23V21ZM8.55556 12C8.55556 9.345 9.03584 6.98943 9.77111 5.33507C10.1393 4.50663 10.5518 3.89811 10.9594 3.51024C11.3618 3.12728 11.7117 3 12 3V1C11.061 1 10.2417 1.43236 9.58064 2.06145C8.92475 2.68564 8.37958 3.54159 7.94349 4.52279C7.07019 6.48772 6.55556 9.13215 6.55556 12H8.55556ZM12 3C12.2883 3 12.6382 3.12728 13.0406 3.51024C13.4482 3.89811 13.8607 4.50663 14.2289 5.33507C14.9642 6.98943 15.4444 9.345 15.4444 12H17.4444C17.4444 9.13215 16.9298 6.48772 16.0565 4.52279C15.6204 3.54159 15.0753 2.68564 14.4194 2.06145C13.7583 1.43236 12.939 1 12 1V3ZM15.4444 12C15.4444 14.655 14.9642 17.0106 14.2289 18.6649C13.8607 19.4934 13.4482 20.1019 13.0406 20.4898C12.6382 20.8727 12.2883 21 12 21V23C12.939 23 13.7583 22.5676 14.4194 21.9385C15.0753 21.3144 15.6204 20.4584 16.0565 19.4772C16.9298 17.5123 17.4444 14.8678 17.4444 12H15.4444Z" fill="white"/>
</g>
<defs>
<clipPath id="clip0_870_37066">
<rect width="24" height="24" fill="white"/>
</clipPath>
</defs>
</svg>
