<svg width="72" height="72" viewBox="0 0 72 72" fill="none" xmlns="http://www.w3.org/2000/svg">
<g clip-path="url(#clip0_2192_103753)">
<path d="M36.0002 71.41C55.5565 71.41 71.41 55.5565 71.41 36.0002C71.41 16.4439 55.5565 0.590332 36.0002 0.590332C16.4439 0.590332 0.590332 16.4439 0.590332 36.0002C0.590332 55.5565 16.4439 71.41 36.0002 71.41Z" fill="#7246EE"/>
<path fill-rule="evenodd" clip-rule="evenodd" d="M18.2949 23.0166H11.2129L28.9178 56.0658L34.8194 45.0494L31.2785 38.4396L30.6883 39.5412L28.9178 42.8461L27.1473 39.5412L18.2949 23.0166ZM32.4588 36.2363L34.2293 39.5412L35.9998 42.8461L38.6555 47.8035L43.0817 56.0658L60.7867 23.0166H53.7047L44.8522 39.5412L43.0817 42.8461L41.3112 39.5412L39.5408 36.2363L35.9998 29.6264L32.4588 23.0166H25.3768L32.4588 36.2363ZM46.6227 23.0166L40.7211 34.033L37.1801 27.4231L39.5408 23.0166H46.6227Z" fill="white"/>
</g>
<defs>
<clipPath id="clip0_2192_103753">
<rect width="72" height="72" fill="white"/>
</clipPath>
</defs>
</svg>
