<svg width="16" height="16" viewBox="0 0 16 16" fill="none" xmlns="http://www.w3.org/2000/svg">
<path fill-rule="evenodd" clip-rule="evenodd" d="M8.00047 0.999999C11.86 1 15 4.14039 15 8.00047C15 11.86 11.86 15 8.00047 15C4.14039 15 1 11.86 1 8.00047C1 4.14039 4.14039 0.999999 8.00047 0.999999Z" fill="#B3B7CF"/>
<path fill-rule="evenodd" clip-rule="evenodd" d="M8 6C8.41355 6 8.75 5.66378 8.75 5.25051C8.75 4.83668 8.41356 4.5 8 4.5C7.58645 4.5 7.25 4.83667 7.25 5.25051C7.25 5.66378 7.58644 6 8 6Z" fill="white"/>
<path fill-rule="evenodd" clip-rule="evenodd" d="M7.5 11.5L7.5 7L8.5 7L8.5 11.5L7.5 11.5Z" fill="white"/>
</svg>
