<svg width="72" height="72" viewBox="0 0 72 72" fill="none" xmlns="http://www.w3.org/2000/svg">
<path d="M36.1907 6.62331L17.2307 12.4227L17.2285 12.4186C17.0673 12.4679 16.8979 12.4857 16.7301 12.4694C16.5622 12.4537 16.3991 12.4044 16.2502 12.3256C16.1013 12.2463 15.9695 12.138 15.8623 12.0079C15.812 11.9464 15.7676 11.8809 15.7296 11.8117C15.6866 11.734 15.6518 11.6516 15.6258 11.5657C15.6122 11.521 15.6011 11.4758 15.5925 11.43C15.5701 11.3106 15.5647 11.1881 15.5768 11.0666C15.5935 10.8984 15.6431 10.7352 15.7229 10.5868C15.7685 10.5019 15.8234 10.4221 15.8865 10.3499C15.9338 10.2956 15.9857 10.2452 16.0416 10.1995C16.096 10.1553 16.1537 10.1156 16.2142 10.0811C16.2993 10.0323 16.3899 9.99314 16.4843 9.96468L35.8186 4.05604C36.0611 3.98132 36.3204 3.98132 36.5627 4.05604L56.3181 10.0943C56.6419 10.1939 56.9128 10.4181 57.0717 10.7179C57.2306 11.0173 57.2647 11.3675 57.1662 11.6918C57.0679 12.0166 56.8451 12.2885 56.5468 12.4491C56.2483 12.6092 55.8985 12.6448 55.574 12.5477L36.1907 6.62331Z" fill="white"/>
<path fill-rule="evenodd" clip-rule="evenodd" d="M35.5104 67.8023L35.5155 67.8053C35.6107 67.8643 35.7132 67.91 35.8193 67.9421C35.8465 67.9507 35.8739 67.9583 35.9016 67.9649C35.9622 67.9797 36.024 67.9893 36.0863 67.9949L36.1469 67.9995L36.1976 68C36.4088 68 36.6168 67.9471 36.8025 67.8465L38.3776 66.9967C46.6699 62.5224 52.4402 56.8902 56.4237 51.1595C59.8622 46.18 62.3608 40.6119 63.7957 34.7312C64.8508 30.4236 65.3848 26.0052 65.3865 21.5705C65.4074 19.5176 65.2725 17.4662 64.9833 15.4342L64.6468 13.3975C64.6206 13.2308 64.5616 13.0712 64.4735 12.9279C64.3854 12.7841 64.2697 12.6595 64.1332 12.5609C63.9966 12.4623 63.8419 12.3917 63.678 12.353C63.5142 12.3144 63.3443 12.3088 63.1782 12.3363C63.1465 12.3414 63.1151 12.348 63.084 12.3561L63.0589 12.3622C63.0234 12.3708 62.9876 12.381 62.9528 12.3932C62.6342 12.502 62.3715 12.7322 62.2217 13.0341L51.6295 35.0997L51.4978 35.3467C51.3728 35.3065 51.2413 35.2852 51.1076 35.2852H21.5392L10.178 13.0987L10.1593 13.0565C10.1352 13.0046 10.1075 12.9538 10.0765 12.9055C10.0437 12.8532 10.0074 12.8039 9.96748 12.7566C9.9258 12.7078 9.88041 12.6621 9.83161 12.6199C9.70401 12.5091 9.55575 12.4252 9.39542 12.3724C9.23513 12.3195 9.06594 12.2992 8.89767 12.3124C8.82378 12.318 8.75068 12.3302 8.67921 12.3485C8.588 12.3718 8.49947 12.4054 8.41526 12.4486C8.26503 12.5259 8.13161 12.6321 8.02265 12.7612C7.96255 12.8323 7.91054 12.9096 7.86747 12.9914C7.83246 13.058 7.80336 13.1282 7.78055 13.2003C7.7628 13.2567 7.74901 13.3142 7.73919 13.3721C7.73185 13.4153 7.72674 13.4595 7.72391 13.5033L7.40535 15.4316C7.11599 17.4642 6.9812 19.5156 7.00211 21.568C7.00373 26.0031 7.53779 30.4215 8.59283 34.7286C10.029 40.6108 12.5291 46.1794 15.9694 51.1595C19.9462 56.8902 25.7143 62.5244 34.0154 66.9967L35.5104 67.8023ZM53.911 36.2326L62.6889 17.9633C62.789 19.1608 62.8328 20.3634 62.8199 21.5659C62.8177 25.7932 62.3084 30.0053 61.3027 34.1111C59.9428 39.6888 57.574 44.9703 54.3139 49.6941C50.9042 54.604 46.1184 59.4407 39.3539 63.4932L53.8866 36.2819L53.911 36.2326ZM22.847 37.8392L36.2248 63.9638L50.1674 37.8392H22.847ZM9.70318 17.7707L33.1378 63.5628C26.3121 59.4961 21.4926 54.632 18.0614 49.6941C14.8012 44.9703 12.4325 39.6888 11.0725 34.1111C10.0671 30.0058 9.55772 25.7948 9.55531 21.568C9.54168 20.3004 9.59108 19.0327 9.70318 17.7707Z" fill="white"/>
</svg>
