<svg width="72" height="23" viewBox="0 0 72 23" fill="none" xmlns="http://www.w3.org/2000/svg">
<path d="M0 0L9.2416 0.465207L18.3419 2.71371L0 0Z" fill="#00347C"/>
<path d="M0.680231 12.648L0 0L5.14132 22.1604L0.680231 12.648Z" fill="#004BAB"/>
<path d="M18.3417 2.7124L15.6802 14.7699L5.14111 22.16L10.1313 6.42685L18.3417 2.7124Z" fill="#006ADC"/>
<path d="M10.1315 6.42725L5.14132 22.1604L0 0L10.1315 6.42725Z" fill="#007DE8"/>
<path d="M10.1315 6.42725L0 0L18.3419 2.71281L10.1315 6.42725Z" fill="#0058BB"/>
<path d="M32.261 15.7824C31.4764 15.9744 30.6198 16.0709 29.6949 16.0709C28.7348 16.0709 27.8503 15.9176 27.0432 15.6129C26.2352 15.3073 25.5406 14.8772 24.9593 14.3228C24.3772 13.7683 23.9228 13.1038 23.5953 12.3285C23.2678 11.5532 23.104 10.6904 23.104 9.73921C23.104 8.77724 23.2705 7.90633 23.6034 7.12467C23.9363 6.34392 24.397 5.67857 24.9845 5.12951C25.5712 4.58046 26.2604 4.15943 27.0513 3.86462C27.8413 3.57071 28.6952 3.42285 29.6094 3.42285C30.5586 3.42285 31.4395 3.5671 32.2529 3.8556C33.0663 4.1441 33.7268 4.53178 34.2351 5.01862L32.405 7.10664C32.1225 6.77847 31.75 6.50981 31.2866 6.30064C30.8232 6.09148 30.2986 5.986 29.7111 5.986C29.2027 5.986 28.7339 6.07976 28.3047 6.26638C27.8755 6.45301 27.503 6.71356 27.1863 7.04714C26.8705 7.38072 26.6248 7.77741 26.4494 8.2354C26.2739 8.6934 26.1866 9.19466 26.1866 9.73741C26.1866 10.2919 26.2658 10.8013 26.4242 11.2656C26.5816 11.7299 26.8165 12.1284 27.1269 12.4619C27.4373 12.7955 27.8215 13.0561 28.2795 13.2427C28.7366 13.4293 29.2594 13.5231 29.8469 13.5231C30.1861 13.5231 30.5074 13.4978 30.8124 13.4464C31.1174 13.3951 31.399 13.3139 31.66 13.2003V11.0104H29.3727V8.66905H34.3197V15.035C33.7322 15.3406 33.0465 15.5895 32.261 15.7824Z" fill="white"/>
<path d="M47.8915 9.72305C47.8915 10.7752 47.6971 11.684 47.3075 12.4476C46.9179 13.2112 46.4042 13.8396 45.7653 14.3318C45.1274 14.8241 44.4066 15.1865 43.6049 15.4182C42.8032 15.6499 41.9899 15.7662 41.1657 15.7662H36.6929V3.74658H41.0298C41.8765 3.74658 42.7124 3.84575 43.5375 4.0441C44.3617 4.24244 45.0959 4.56971 45.7401 5.02861C46.3844 5.4875 46.9035 6.10057 47.2985 6.8705C47.6935 7.64044 47.8915 8.59159 47.8915 9.72305ZM44.8754 9.72305C44.8754 9.04417 44.7657 8.4807 44.5452 8.03352C44.3248 7.58634 44.0305 7.23023 43.6643 6.96426C43.2972 6.6983 42.8788 6.50898 42.4109 6.39538C41.9422 6.28268 41.459 6.22588 40.9623 6.22588H39.5218V13.2536H40.8939C41.4131 13.2536 41.9125 13.1941 42.393 13.0751C42.8734 12.9561 43.2963 12.7613 43.6634 12.49C44.0305 12.2186 44.3239 11.8562 44.5443 11.4036C44.7657 10.951 44.8754 10.3911 44.8754 9.72305Z" fill="white"/>
<path d="M57.5308 15.7658L56.5986 13.4064H51.9567L51.0758 15.7658H47.9248L52.9564 3.74707H55.7691L60.7502 15.7658H57.5308ZM54.3114 6.95484L52.7863 11.0804H55.8023L54.3114 6.95484Z" fill="white"/>
<path d="M70.0337 15.553C69.2545 15.9091 68.3565 16.0876 67.3398 16.0876C66.4139 16.0876 65.5573 15.9352 64.7727 15.6296C63.9872 15.324 63.307 14.8912 62.7311 14.3314C62.1553 13.7715 61.7036 13.1007 61.376 12.32C61.0485 11.5392 60.8848 10.6791 60.8848 9.7397C60.8848 8.77773 61.0512 7.90682 61.3841 7.12516C61.7171 6.34441 62.1777 5.67905 62.7653 5.13C63.352 4.58095 64.0412 4.15992 64.8321 3.86511C65.6221 3.5712 66.476 3.42334 67.3901 3.42334C68.2377 3.42334 69.07 3.5739 69.8888 3.87322C70.7076 4.17344 71.3717 4.6116 71.8791 5.1886L69.914 7.15762C69.6432 6.78437 69.2869 6.50669 68.8469 6.32547C68.406 6.14516 67.9543 6.0541 67.4918 6.0541C66.9834 6.0541 66.5174 6.14697 66.0945 6.33449C65.6707 6.52111 65.3072 6.77896 65.0021 7.10713C64.6971 7.4353 64.4596 7.82297 64.2904 8.27015C64.1213 8.71732 64.0367 9.20687 64.0367 9.7388C64.0367 10.2824 64.1213 10.7801 64.2904 11.2327C64.4596 11.6853 64.6944 12.0729 64.994 12.3957C65.2937 12.7185 65.6518 12.97 66.0702 13.1512C66.4877 13.3324 66.9457 13.4226 67.4423 13.4226C68.0182 13.4226 68.5203 13.3099 68.9504 13.0827C69.3796 12.8564 69.7242 12.5625 69.9833 12.2001L71.9997 14.1015C71.4679 14.7127 70.8129 15.196 70.0337 15.553Z" fill="white"/>
</svg>
