<svg width="576" height="190" viewBox="0 0 576 190" fill="none" xmlns="http://www.w3.org/2000/svg">
<g opacity="0.7" clip-path="url(#clip0_1_2148)">
<g opacity="0.2" clip-path="url(#clip1_1_2148)">
<g clip-path="url(#clip2_1_2148)">
<path d="M454.022 153.252L518.282 190.353L626.581 0.657487L540.911 0.657479L454.022 153.252Z" fill="#4147BA"/>
<path d="M474.253 118.049L521.848 32.3791L607.518 32.3791L518.257 190.345L474.253 118.049Z" fill="url(#paint0_linear_1_2148)"/>
<path d="M476.603 116.83L544.059 0.640155L540.886 0.640121L475.655 115.534L476.603 116.83Z" fill="white" fill-opacity="0.2"/>
<path d="M477.445 115.389L475.762 115.381L518.27 190.342L519.104 188.897L477.445 115.389Z" fill="#1A237E" fill-opacity="0.15"/>
<path d="M364.46 71.4658L432.78 190.014L518.271 190.344L450.243 71.4658L364.46 71.4658Z" fill="#D4D9EC"/>
<path d="M364.302 71.4684L365.591 73.2633L449.337 73.2633L515.725 188.883L433.522 188.524L432.688 189.969L518.257 190.345L450.232 71.4731L364.302 71.4684Z" fill="#263238" fill-opacity="0.1"/>
<path d="M433.599 188.569L366.987 71.4684L364.303 71.4665L432.765 190.014L433.599 188.569Z" fill="white" fill-opacity="0.2"/>
<path d="M366.107 71.4484L434.403 189.366L517.53 189.687L625.923 -0.933575L545.706 -0.933571L476.275 116.842L450.243 71.4484L366.107 71.4484Z" fill="url(#paint1_radial_1_2148)"/>
</g>
</g>
<g opacity="0.2" clip-path="url(#clip3_1_2148)">
<g clip-path="url(#clip4_1_2148)">
<path d="M12.0219 153.252L76.2827 190.353L184.582 0.657487L98.9111 0.657479L12.0219 153.252Z" fill="#4147BA"/>
<path d="M32.2532 118.049L79.8478 32.3791L165.518 32.3791L76.2572 190.345L32.2532 118.049Z" fill="url(#paint2_linear_1_2148)"/>
<path d="M34.6029 116.83L102.06 0.640155L98.8867 0.640121L33.6557 115.534L34.6029 116.83Z" fill="white" fill-opacity="0.2"/>
<path d="M35.4456 115.389L33.7622 115.381L76.2699 190.342L77.1042 188.897L35.4456 115.389Z" fill="#1A237E" fill-opacity="0.15"/>
<path d="M-77.5402 71.4658L-9.21937 190.014L76.2711 190.344L8.24337 71.4658L-77.5402 71.4658Z" fill="#D4D9EC"/>
<path d="M-77.6981 71.4684L-76.4088 73.2633L7.33692 73.2633L73.725 188.883L-8.47783 188.524L-9.31219 189.969L76.2574 190.345L8.232 71.4731L-77.6981 71.4684Z" fill="#263238" fill-opacity="0.1"/>
<path d="M-8.40031 188.569L-75.0129 71.4684L-77.6967 71.4665L-9.23467 190.014L-8.40031 188.569Z" fill="white" fill-opacity="0.2"/>
<path d="M-75.893 71.4484L-7.59637 189.366L75.5307 189.687L183.923 -0.933575L103.706 -0.933571L34.2752 116.842L8.2436 71.4484L-75.893 71.4484Z" fill="url(#paint3_radial_1_2148)"/>
</g>
</g>
<g opacity="0.2" clip-path="url(#clip5_1_2148)">
<g clip-path="url(#clip6_1_2148)">
<path d="M232.022 153.252L296.283 190.353L404.582 0.657487L318.911 0.657479L232.022 153.252Z" fill="#4147BA"/>
<path d="M252.253 118.049L299.848 32.3791L385.518 32.3791L296.257 190.345L252.253 118.049Z" fill="url(#paint4_linear_1_2148)"/>
<path d="M254.603 116.83L322.06 0.640155L318.887 0.640121L253.656 115.534L254.603 116.83Z" fill="white" fill-opacity="0.2"/>
<path d="M255.446 115.389L253.762 115.381L296.27 190.342L297.104 188.897L255.446 115.389Z" fill="#1A237E" fill-opacity="0.15"/>
<path d="M142.46 71.4658L210.781 190.014L296.271 190.344L228.243 71.4658L142.46 71.4658Z" fill="#D4D9EC"/>
<path d="M142.302 71.4684L143.591 73.2633L227.337 73.2633L293.725 188.883L211.522 188.524L210.688 189.969L296.257 190.345L228.232 71.4731L142.302 71.4684Z" fill="#263238" fill-opacity="0.1"/>
<path d="M211.6 188.569L144.987 71.4684L142.303 71.4665L210.765 190.014L211.6 188.569Z" fill="white" fill-opacity="0.2"/>
<path d="M144.107 71.4484L212.404 189.366L295.531 189.687L403.923 -0.933575L323.706 -0.933571L254.275 116.842L228.244 71.4484L144.107 71.4484Z" fill="url(#paint5_radial_1_2148)"/>
</g>
</g>
</g>
<defs>
<linearGradient id="paint0_linear_1_2148" x1="497.275" y1="152.734" x2="561.107" y2="114.12" gradientUnits="userSpaceOnUse">
<stop stop-color="#1A237E" stop-opacity="0.2"/>
<stop offset="1" stop-color="#1A237E" stop-opacity="0.02"/>
</linearGradient>
<radialGradient id="paint1_radial_1_2148" cx="0" cy="0" r="1" gradientUnits="userSpaceOnUse" gradientTransform="translate(350.373 39.4167) rotate(-60) scale(258.111 254.424)">
<stop stop-color="white" stop-opacity="0.1"/>
<stop offset="1" stop-color="white" stop-opacity="0"/>
</radialGradient>
<linearGradient id="paint2_linear_1_2148" x1="55.275" y1="152.734" x2="119.107" y2="114.12" gradientUnits="userSpaceOnUse">
<stop stop-color="#1A237E" stop-opacity="0.2"/>
<stop offset="1" stop-color="#1A237E" stop-opacity="0.02"/>
</linearGradient>
<radialGradient id="paint3_radial_1_2148" cx="0" cy="0" r="1" gradientUnits="userSpaceOnUse" gradientTransform="translate(-91.6268 39.4167) rotate(-60) scale(258.111 254.424)">
<stop stop-color="white" stop-opacity="0.1"/>
<stop offset="1" stop-color="white" stop-opacity="0"/>
</radialGradient>
<linearGradient id="paint4_linear_1_2148" x1="275.275" y1="152.734" x2="339.107" y2="114.12" gradientUnits="userSpaceOnUse">
<stop stop-color="#1A237E" stop-opacity="0.2"/>
<stop offset="1" stop-color="#1A237E" stop-opacity="0.02"/>
</linearGradient>
<radialGradient id="paint5_radial_1_2148" cx="0" cy="0" r="1" gradientUnits="userSpaceOnUse" gradientTransform="translate(128.373 39.4167) rotate(-60) scale(258.111 254.424)">
<stop stop-color="white" stop-opacity="0.1"/>
<stop offset="1" stop-color="white" stop-opacity="0"/>
</radialGradient>
<clipPath id="clip0_1_2148">
<rect width="576" height="190" fill="white"/>
</clipPath>
<clipPath id="clip1_1_2148">
<rect width="288" height="190" fill="white" transform="translate(346)"/>
</clipPath>
<clipPath id="clip2_1_2148">
<rect width="266.53" height="228.454" fill="white" transform="translate(299.211 112.886) rotate(-60)"/>
</clipPath>
<clipPath id="clip3_1_2148">
<rect width="288" height="190" fill="white" transform="translate(-96)"/>
</clipPath>
<clipPath id="clip4_1_2148">
<rect width="266.53" height="228.454" fill="white" transform="translate(-142.789 112.886) rotate(-60)"/>
</clipPath>
<clipPath id="clip5_1_2148">
<rect width="288" height="190" fill="white" transform="translate(124)"/>
</clipPath>
<clipPath id="clip6_1_2148">
<rect width="266.53" height="228.454" fill="white" transform="translate(77.2109 112.886) rotate(-60)"/>
</clipPath>
</defs>
</svg>
