<svg width="100" height="100" viewBox="0 0 100 100" fill="none" xmlns="http://www.w3.org/2000/svg">
<path d="M86.4771 29.166L84.6574 25.9858C84.0463 24.9178 82.5872 24.7228 81.7172 25.5928L77.5585 29.7515C76.929 30.381 76.8393 31.3623 77.3268 32.1071C78.8505 34.435 80.0643 36.9409 80.9463 39.5637L80.9574 39.5526C82.084 42.9001 82.667 46.4315 82.667 49.9974C82.667 68.0108 68.0123 82.6656 49.9989 82.6656C44.578 82.6656 39.3708 81.3636 34.6883 78.8646L41.7367 71.8165C44.3666 72.8137 47.1696 73.3318 49.9989 73.3318C62.8656 73.3318 73.3333 62.864 73.3333 49.9974C73.3333 49.1935 73.285 48.3874 73.2006 47.5833C72.92 44.8785 72.1729 42.256 70.9989 39.8291C70.4384 38.6702 68.9031 38.4069 67.9928 39.3171L63.7713 43.5387C63.3149 43.9951 63.1266 44.6549 63.2735 45.2834L63.6276 46.7993C63.8745 47.8563 63.9995 48.9322 63.9995 49.9974C63.9995 57.7175 57.7189 63.9981 49.9989 63.9981C47.5692 63.9981 45.1723 63.3609 43.0679 62.1554L41.2102 61.0913C40.4791 60.6725 39.5581 60.7953 38.9624 61.391L21.7519 78.6007C20.9542 79.3983 21.0408 80.7158 21.936 81.4022L24.4711 83.3459C31.8542 89.007 40.6819 91.9993 49.9989 91.9993C73.159 91.9993 92.0008 73.1572 92.0008 49.9974C92.0008 42.6854 90.0906 35.482 86.4771 29.166L86.4771 29.166Z" fill="url(#paint0_linear_755_77171)"/>
<path d="M75.5264 16.6516C68.1429 10.9905 59.3156 7.99805 49.999 7.99805C26.8389 7.99805 7.99707 26.84 7.99707 49.9999C7.99707 57.3125 9.90684 64.5161 13.5204 70.8317L15.34 74.0118C15.9511 75.0798 17.4102 75.2748 18.2803 74.4047L22.4383 70.2467C23.0676 69.6174 23.1574 68.6364 22.6702 67.8915C21.1486 65.5652 19.9332 63.0575 19.0506 60.4346L19.0404 60.4448C17.9138 57.0974 17.3308 53.5663 17.3308 49.9999C17.3308 31.9867 31.9855 17.3318 49.999 17.3318C55.4195 17.3318 60.6267 18.634 65.3092 21.1329L58.2612 28.181C55.6313 27.1836 52.8283 26.6655 49.999 26.6655C37.1322 26.6655 26.6646 37.1334 26.6646 49.9999C26.6646 50.3893 26.7686 52.1565 26.8009 52.4604C27.0862 55.1426 27.8333 57.7519 29.0002 60.167C29.5602 61.3261 31.096 61.5891 32.0062 60.6788L36.2262 56.4588C36.6826 56.0024 36.8709 55.3427 36.724 54.7142L36.3699 53.198C36.1234 52.1423 35.9983 51.0664 35.9983 49.9999C35.9983 42.2799 42.2789 35.9993 49.999 35.9993C52.4287 35.9993 54.8252 36.6364 56.9293 37.842L58.7872 38.9065C59.5183 39.3254 60.4394 39.2025 61.0352 38.6067L78.2456 21.3967C79.0433 20.599 78.9567 19.2816 78.0615 18.5952L75.5264 16.6516V16.6516Z" fill="url(#paint1_linear_755_77171)"/>
<defs>
<linearGradient id="paint0_linear_755_77171" x1="35.1855" y1="94.6748" x2="94.3131" y2="35.5473" gradientUnits="userSpaceOnUse">
<stop stop-color="#B090F5"/>
<stop offset="1" stop-color="#5FBFFF"/>
</linearGradient>
<linearGradient id="paint1_linear_755_77171" x1="7.99707" y1="41.4749" x2="78.7924" y2="41.4749" gradientUnits="userSpaceOnUse">
<stop offset="0.00336" stop-color="#68D7FA"/>
<stop offset="1" stop-color="#7EF1B3"/>
</linearGradient>
</defs>
</svg>
