<svg width="72" height="72" viewBox="0 0 72 72" fill="none" xmlns="http://www.w3.org/2000/svg">
<path d="M55.8745 11.8651C50.5608 7.32848 44.0848 4.80816 37.1106 4.64014L21.3357 46.4775L55.8745 11.8651ZM59.8598 15.7296L39.9335 35.7241L59.8598 55.5507C64.5092 50.006 67 42.9491 67 35.7241C67 28.3312 64.5092 21.4423 59.8598 15.7296ZM29.3062 9.34474L5.06256 33.7079C4.5644 41.6049 7.05519 49.1659 12.0367 55.3827L29.3062 9.34474ZM36.1143 39.5886L16.1881 59.4152C21.8338 64.1198 28.808 66.6401 36.1143 66.6401C43.4206 66.6401 50.3948 64.1198 56.0406 59.4152L36.1143 39.5886Z" fill="white"/>
</svg>
