<svg width="32" height="32" viewBox="0 0 32 32" fill="none" xmlns="http://www.w3.org/2000/svg">
<path fill-rule="evenodd" clip-rule="evenodd" d="M24.0415 10.6294C24.3209 10.9001 24.5219 11.2373 24.6243 11.6072V11.6043C25 12.9653 25 15.8038 25 15.8038C25 15.8038 25 18.6423 24.6243 20.0033C24.5219 20.3731 24.3209 20.7104 24.0415 20.9811C23.762 21.2517 23.414 21.4464 23.0323 21.5453C21.6292 21.9105 16 21.9105 16 21.9105C16 21.9105 10.3718 21.9105 8.96771 21.5482C8.58623 21.4491 8.23838 21.2544 7.95911 20.9837C7.67984 20.713 7.47898 20.3759 7.37671 20.0061C7 18.6452 7 15.8066 7 15.8066C7 15.8066 7 12.9681 7.37671 11.6072C7.47898 11.2374 7.67984 10.9003 7.95911 10.6296C8.23838 10.3589 8.58623 10.1642 8.96771 10.0651C10.3718 9.69995 16 9.69995 16 9.69995C16 9.69995 21.6292 9.69995 23.0323 10.0651C23.414 10.1641 23.762 10.3587 24.0415 10.6294ZM18.853 15.8416L14.2085 18.4331V13.2492L18.853 15.8416Z" fill="white"/>
</svg>
