<svg width="16" height="16" viewBox="0 0 16 16" fill="none" xmlns="http://www.w3.org/2000/svg">
<path fill-rule="evenodd" clip-rule="evenodd" d="M7.99953 15C4.13998 15 1 11.8596 1 7.99953C1 4.13998 4.13998 1 7.99953 1C11.8596 1 15 4.13998 15 7.99953C15 11.8596 11.8596 15 7.99953 15Z" fill="#EB524F"/>
<path fill-rule="evenodd" clip-rule="evenodd" d="M8 10C7.58645 10 7.25 10.3362 7.25 10.7495C7.25 11.1633 7.58644 11.5 8 11.5C8.41355 11.5 8.75 11.1633 8.75 10.7495C8.75 10.3362 8.41356 10 8 10Z" fill="white"/>
<path fill-rule="evenodd" clip-rule="evenodd" d="M8.5 4.5V9H7.5V4.5H8.5Z" fill="white"/>
</svg>
