<svg width="36" height="36" viewBox="0 0 36 36" fill="none" xmlns="http://www.w3.org/2000/svg">
<path d="M20.25 23.25C20.25 24.4926 19.2426 25.5 18 25.5C16.7574 25.5 15.75 24.4926 15.75 23.25C15.75 22.0074 16.7574 21 18 21C19.2426 21 20.25 22.0074 20.25 23.25Z" fill="#EB524F"/>
<path fill-rule="evenodd" clip-rule="evenodd" d="M18 4.5C10.5442 4.5 4.5 10.5442 4.5 18C4.5 25.4558 10.5442 31.5 18 31.5C25.4558 31.5 31.5 25.4558 31.5 18C31.5 10.5442 25.4558 4.5 18 4.5ZM1.5 18C1.5 8.8873 8.8873 1.5 18 1.5C27.1127 1.5 34.5 8.8873 34.5 18C34.5 27.1127 27.1127 34.5 18 34.5C8.8873 34.5 1.5 27.1127 1.5 18ZM18 9.5C18.8284 9.5 19.5 9.5 19.5 9.5V19.25C19.5 19.25 18.8284 19.25 18 19.25C17.1716 19.25 16.5 19.25 16.5 19.25V9.5C16.5 9.5 17.1716 9.5 18 9.5Z" fill="#EB524F"/>
</svg>
