<svg width="68" height="20" viewBox="0 0 68 20" fill="none" xmlns="http://www.w3.org/2000/svg">
<path fill-rule="evenodd" clip-rule="evenodd" d="M49.3813 2.5083H2.95979V12.7529H20.2205L24.6924 9.85046V12.8389L20.9658 15.2612H0V13.6057V12.7529V2.5083V1.32223V0H49.3813V2.5083ZM67.9964 15.2611H65.4487V5.82993H67.9964V15.2611ZM67.4193 4.88863C67.2049 5.03113 66.9531 5.10681 66.6957 5.1061C66.3513 5.10515 66.0214 4.96769 65.7782 4.72386C65.5351 4.48003 65.3985 4.14972 65.3985 3.80537C65.3985 3.54795 65.4749 3.29633 65.618 3.08235C65.7611 2.86837 65.9644 2.70165 66.2023 2.60331C66.4402 2.50496 66.7019 2.47942 66.9543 2.5299C67.2067 2.58038 67.4385 2.70462 67.6203 2.88688C67.802 3.06915 67.9256 3.30126 67.9754 3.55381C68.0252 3.80636 67.9989 4.06801 67.8999 4.30562C67.8009 4.54324 67.6337 4.74614 67.4193 4.88863ZM58.4267 6.08039C58.9387 5.79866 59.5145 5.65319 60.0988 5.65793C60.5902 5.65139 61.0777 5.74448 61.5321 5.93158C61.9865 6.11867 62.3982 6.3959 62.7424 6.74652C63.0867 7.09715 63.3563 7.51389 63.5351 7.9716C63.7138 8.42931 63.798 8.9185 63.7825 9.40963V15.2611H61.2491V9.56013C61.2533 9.35034 61.2159 9.1418 61.1389 8.94661C61.0619 8.75142 60.9469 8.57348 60.8005 8.42312C60.6541 8.27276 60.4794 8.15298 60.2863 8.07074C60.0933 7.98851 59.8858 7.94545 59.676 7.94406C59.2404 7.94192 58.821 8.10938 58.5066 8.41101C58.1923 8.71265 58.0077 9.12477 57.9919 9.56013V15.2611H55.4441V9.57446C55.4504 9.36349 55.4143 9.1534 55.3382 8.95654C55.2621 8.75969 55.1474 8.58003 55.0008 8.42814C54.8543 8.27625 54.6788 8.15518 54.4848 8.07205C54.2908 7.98892 54.0821 7.94541 53.8711 7.94406C53.4358 7.94195 53.0168 8.10953 52.703 8.41125C52.3893 8.71297 52.2054 9.12508 52.1905 9.56013V15.2611H49.6464V5.82993H52.0293V6.6075C52.3848 6.25604 52.8158 5.99016 53.2894 5.83001C53.763 5.66986 54.2668 5.61966 54.7627 5.6832C55.2586 5.74674 55.7336 5.92236 56.1515 6.19674C56.5694 6.47113 56.9194 6.83707 57.1749 7.26682C57.4836 6.77065 57.9147 6.36211 58.4267 6.08039ZM44.8561 12.8046C45.1743 12.4971 45.3594 12.0772 45.3715 11.6349V5.82993H47.9157V15.2576H45.5292V14.4764C45.2648 14.8169 44.9248 15.0913 44.5361 15.2779C44.1475 15.4645 43.7207 15.5581 43.2896 15.5514C41.3905 15.5514 39.5379 14.3116 39.5379 11.7459V5.82993H42.0821V11.6349C42.0759 11.8477 42.1123 12.0597 42.1891 12.2583C42.266 12.4568 42.3817 12.6381 42.5296 12.7913C42.6775 12.9445 42.8545 13.0667 43.0503 13.1505C43.246 13.2344 43.4565 13.2782 43.6695 13.2796C44.1119 13.2826 44.5379 13.112 44.8561 12.8046ZM32.8444 5.65793C33.7684 5.65182 34.6705 5.93914 35.4207 6.4785V5.82993H37.843V14.1324C37.843 16.8629 36.4097 19.2995 32.8659 19.2995C30.9452 19.2995 29.2826 18.4968 28.5659 17.042L30.5296 15.7664C30.788 16.1573 31.1401 16.4774 31.5537 16.6977C31.9674 16.918 32.4295 17.0314 32.8981 17.0277C33.5316 17.055 34.1502 16.8315 34.6198 16.4055C35.0895 15.9794 35.3721 15.3854 35.4064 14.7523C34.6588 15.2838 33.7615 15.5637 32.8444 15.5514C32.1835 15.5692 31.5259 15.4544 30.9101 15.2138C30.2944 14.9732 29.7332 14.6117 29.2595 14.1505C28.7858 13.6894 28.4093 13.1381 28.1522 12.5291C27.8951 11.9201 27.7627 11.2657 27.7627 10.6047C27.7627 9.9436 27.8951 9.28924 28.1522 8.68022C28.4093 8.07121 28.7858 7.51987 29.2595 7.05876C29.7332 6.59765 30.2944 6.23613 30.9101 5.99553C31.5259 5.75493 32.1835 5.64014 32.8444 5.65793ZM31.0263 12.4442C31.5053 12.941 32.1583 13.2328 32.8479 13.2581C33.5326 13.2328 34.1798 12.9389 34.6492 12.4399C35.1187 11.9409 35.3727 11.277 35.3562 10.5921C35.3737 9.90727 35.1199 9.24327 34.6501 8.74465C34.1803 8.24602 33.5326 7.95313 32.8479 7.92973C32.1583 7.95503 31.5053 8.24679 31.0263 8.74366C30.5473 9.24052 30.2797 9.90377 30.2797 10.5939C30.2797 11.284 30.5473 11.9473 31.0263 12.4442Z" fill="#E60027"/>
</svg>
