<svg width="32" height="32" viewBox="0 0 32 32" fill="none" xmlns="http://www.w3.org/2000/svg">
<path fill-rule="evenodd" clip-rule="evenodd" d="M15.8866 6.92975L19.1603 15.631H17.4115L15.0997 9.32721L11.9975 17.803H15.2729V19.3642H11.4261L9.70236 24.0737H7.87354L14.3119 6.92975H15.8866ZM14.4283 7.0986L8.1167 23.9048H9.58528L9.58527 23.9048H8.1164L14.428 7.0986H14.4283ZM11.3093 19.1954H15.105V19.1954H11.3093L11.3093 19.1954ZM15.0997 8.83929L17.5285 15.4621H18.9172L18.9172 15.4621H17.5288L15.0999 8.83886L15.0997 8.83929ZM16.443 18.1601V17.1782H20.6838C20.6838 19.711 19.6578 21.8859 16.6678 23.3083L15.9447 22.3814C18.0357 21.372 19.1497 20.0322 19.3842 18.1601H16.443ZM23.0778 19.5366H24.3382V20.5369H23.0778V24.7491H21.7879V16.3064H23.0778V19.5366Z" fill="#464646"/>
</svg>
