<svg width="72" height="72" viewBox="0 0 72 72" fill="none" xmlns="http://www.w3.org/2000/svg">
<path d="M6.51711 39.5634C6.51711 40.0536 6.39115 40.421 6.13947 40.6658C5.88734 40.9111 5.53321 41.0334 5.07642 41.0334C4.58447 41.0334 4.2243 40.8996 3.99569 40.6316C3.76729 40.3641 3.6532 40.0022 3.6532 39.5464V29.5652H1V39.4269C1 39.8941 1.06729 40.327 1.20209 40.7256C1.33666 41.1247 1.55924 41.4692 1.86981 41.7596C2.17994 42.0502 2.58131 42.2783 3.07326 42.4434C3.56542 42.6083 4.17426 42.6912 4.90065 42.6912C5.74414 42.6912 6.39417 42.58 6.85097 42.3578C7.30776 42.1358 7.63559 41.8937 7.83486 41.6316C8.03393 41.8937 8.36779 42.1358 8.83645 42.3578C9.30467 42.58 9.96096 42.6912 10.8042 42.6912C11.5071 42.6912 12.1045 42.6112 12.5965 42.4518C13.0884 42.2925 13.4896 42.0703 13.7999 41.7854C14.1103 41.5007 14.3359 41.156 14.4765 40.7514C14.6171 40.3471 14.6874 39.9052 14.6874 39.4269V29.5652H12.0694V39.5464C12.0694 39.9908 11.952 40.3496 11.7178 40.6232C11.4834 40.8966 11.1206 41.0334 10.6285 41.0334C10.16 41.0334 9.79985 40.9111 9.54795 40.6658C9.29604 40.421 9.1703 40.0536 9.1703 39.5634V29.5652H6.51711V39.5634V39.5634ZM16.8836 42.4348H24.0875V40.794H19.5191V36.5383H23.6307V34.8635H19.5191V31.206H23.9117V29.5652H16.8836V42.4348V42.4348ZM31.5547 42.4348H34.1727V32.4366C34.1727 31.958 34.2985 31.5935 34.5506 31.3426C34.8023 31.0923 35.1624 30.9666 35.6311 30.9666C36.123 30.9666 36.486 31.1007 36.7205 31.3684C36.9547 31.6361 37.0718 32.0037 37.0718 32.4708V42.4348H39.7073V32.5732C39.7073 32.1177 39.6428 31.6905 39.5141 31.2914C39.3851 30.8927 39.1685 30.548 38.864 30.2574C38.5593 29.9668 38.1611 29.736 37.6692 29.5652C37.1772 29.3942 36.5624 29.3088 35.8243 29.3088C34.9925 29.3088 34.3455 29.4173 33.8829 29.6336C33.42 29.8502 33.0834 30.1066 32.8724 30.4026C32.6732 30.1181 32.3393 29.8642 31.8711 29.642C31.4024 29.42 30.7524 29.3088 29.9207 29.3088C29.2179 29.3088 28.6205 29.3888 28.1285 29.548C27.6366 29.7079 27.2324 29.9301 26.9162 30.2146C26.6001 30.4996 26.3714 30.8443 26.231 31.2486C26.0904 31.6533 26.0201 32.0948 26.0201 32.5732V42.4348H28.6556V32.4708C28.6556 32.0037 28.7727 31.6361 29.0072 31.3684C29.2412 31.1007 29.6102 30.9666 30.114 30.9666C31.0744 30.9666 31.5547 31.4567 31.5547 32.4366V42.4348V42.4348ZM44.9434 36.8119L45.857 31.206H46.8057L47.7195 36.8119H44.9434ZM47.9654 38.4697L48.5979 42.4348H51.3564L49.0724 29.5652H43.5905L41.3414 42.4348H44.0824L44.6973 38.4697H47.9654V38.4697ZM61.7054 32.8296C61.7054 31.8042 61.386 31.0037 60.7478 30.4284C60.1092 29.8531 59.0699 29.5652 57.629 29.5652H53.008V42.4348H57.629C59.0699 42.4348 60.1092 42.1673 60.7478 41.6316C61.386 41.0962 61.7054 40.3385 61.7054 39.3585V32.8296V32.8296ZM55.6435 31.206H57.4357C58.0797 31.206 58.5132 31.3485 58.736 31.6332C58.9584 31.9181 59.0699 32.334 59.0699 32.881V39.1191C59.0699 39.7002 58.9293 40.1249 58.648 40.3924C58.367 40.6602 57.9102 40.794 57.2777 40.794H55.6435V31.206V31.206ZM63.7787 42.4348H71V40.794H66.4142V36.5383H70.5607V34.8635H66.4142V31.206H70.8068V29.5652H63.7787V42.4348V42.4348Z" fill="white"/>
</svg>
