<svg width="200" height="201" viewBox="0 0 200 201" fill="none" xmlns="http://www.w3.org/2000/svg">
<path fill-rule="evenodd" clip-rule="evenodd" d="M32.5278 113.516C32.5278 112.876 33.0465 112.357 33.6863 112.357H105.556C106.196 112.357 106.715 112.876 106.715 113.516C106.715 114.156 106.196 114.674 105.556 114.674H33.6863C33.0465 114.674 32.5278 114.156 32.5278 113.516Z" fill="url(#paint0_linear_863_53192)"/>
<path fill-rule="evenodd" clip-rule="evenodd" d="M32.0542 38.1546C32.0542 37.5148 32.5729 36.9961 33.2127 36.9961H105.548C106.188 36.9961 106.706 37.5148 106.706 38.1546C106.706 38.7944 106.188 39.3131 105.548 39.3131H33.2127C32.5729 39.3131 32.0542 38.7944 32.0542 38.1546Z" fill="url(#paint1_linear_863_53192)"/>
<path fill-rule="evenodd" clip-rule="evenodd" d="M105.556 114.759C106.196 114.759 106.715 114.24 106.715 113.6L106.715 38.1587C106.715 37.5189 106.196 37.0002 105.556 37.0002C104.916 37.0002 104.398 37.5189 104.398 38.1587L104.398 113.6C104.398 114.24 104.917 114.759 105.556 114.759Z" fill="url(#paint2_linear_863_53192)"/>
<path fill-rule="evenodd" clip-rule="evenodd" d="M148.31 141.755C148.761 141.301 148.758 140.568 148.304 140.117C140.815 132.675 136.653 128.545 132.492 124.415C128.331 120.286 124.169 116.156 116.68 108.715C116.226 108.264 115.493 108.266 115.042 108.72C114.591 109.174 114.593 109.907 115.047 110.358C122.535 117.799 126.696 121.928 130.857 126.057L130.86 126.06C135.021 130.19 139.182 134.319 146.671 141.76C147.125 142.211 147.859 142.209 148.31 141.755Z" fill="url(#paint3_linear_863_53192)"/>
<path fill-rule="evenodd" clip-rule="evenodd" d="M148.212 108.787C148.664 109.24 148.663 109.974 148.21 110.426L116.907 141.636C116.454 142.088 115.721 142.086 115.269 141.633C114.817 141.18 114.818 140.447 115.271 139.995L146.574 108.785C147.027 108.333 147.761 108.334 148.212 108.787Z" fill="url(#paint4_linear_863_53192)"/>
<path fill-rule="evenodd" clip-rule="evenodd" d="M33.2128 114.759C33.8526 114.759 34.3713 114.24 34.3713 113.6L34.3712 38.1587C34.3712 37.5189 33.8525 37.0002 33.2127 37.0002C32.5729 37.0002 32.0542 37.5189 32.0542 38.1587L32.0543 113.6C32.0543 114.24 32.573 114.759 33.2128 114.759Z" fill="url(#paint5_linear_863_53192)"/>
<path fill-rule="evenodd" clip-rule="evenodd" d="M93.5613 163.017C93.5613 162.378 94.08 161.859 94.7198 161.859H166.787C167.427 161.859 167.946 162.378 167.946 163.017C167.946 163.657 167.427 164.176 166.787 164.176H94.7198C94.08 164.176 93.5613 163.657 93.5613 163.017Z" fill="url(#paint6_linear_863_53192)"/>
<path fill-rule="evenodd" clip-rule="evenodd" d="M93.0886 87.6561C93.0886 87.0162 93.6073 86.4976 94.2471 86.4976H166.462C167.101 86.4976 167.62 87.0162 167.62 87.6561C167.62 88.2959 167.101 88.8146 166.462 88.8146H94.2471C93.6073 88.8146 93.0886 88.2959 93.0886 87.6561Z" fill="url(#paint7_linear_863_53192)"/>
<path fill-rule="evenodd" clip-rule="evenodd" d="M166.787 164.26C167.427 164.26 167.946 163.742 167.946 163.102V87.4003C167.946 86.7605 167.427 86.2418 166.787 86.2418C166.147 86.2418 165.629 86.7605 165.629 87.4003V163.102C165.629 163.742 166.147 164.26 166.787 164.26Z" fill="url(#paint8_linear_863_53192)"/>
<path fill-rule="evenodd" clip-rule="evenodd" d="M94.2471 164.26C94.8869 164.26 95.4056 163.742 95.4056 163.102V87.4003C95.4056 86.7605 94.8869 86.2418 94.2471 86.2418C93.6073 86.2418 93.0886 86.7605 93.0886 87.4003V163.102C93.0886 163.742 93.6073 164.26 94.2471 164.26Z" fill="url(#paint9_linear_863_53192)"/>
<path fill-rule="evenodd" clip-rule="evenodd" d="M79.6192 64.38C73.3402 58.7251 63.6659 59.2311 58.011 65.5101C57.6542 65.9063 57.0437 65.9382 56.6475 65.5814C56.2513 65.2246 56.2194 64.6141 56.5762 64.2179C62.9447 57.1466 73.8399 56.5768 80.9113 62.9453C87.9827 69.3138 88.5525 80.2089 82.184 87.2803C75.8155 94.3517 64.9203 94.9215 57.8489 88.553C51.5867 82.9132 50.424 73.7254 54.6611 66.7849C54.9389 66.3298 55.533 66.1861 55.9881 66.4639C56.4432 66.7417 56.5869 67.3359 56.3091 67.7909C52.5473 73.9528 53.582 82.1118 59.1411 87.1183C65.4201 92.7731 75.0944 92.2672 80.7493 85.9882C86.4041 79.7092 85.8982 70.0349 79.6192 64.38Z" fill="url(#paint10_linear_863_53192)"/>
<path d="M106.714 113.399C106.714 114.038 106.196 114.557 105.556 114.557C104.917 114.557 104.398 114.038 104.398 113.399C104.398 112.76 104.917 112.241 105.556 112.241C106.196 112.241 106.714 112.76 106.714 113.399Z" fill="#979797"/>
<path d="M34.408 38.1543C34.408 38.7937 33.8897 39.3121 33.2503 39.3121C32.6109 39.3121 32.0925 38.7937 32.0925 38.1543C32.0925 37.5149 32.6109 36.9966 33.2503 36.9966C33.8897 36.9966 34.408 37.5149 34.408 38.1543Z" fill="white"/>
<path d="M106.714 38.1543C106.714 38.7937 106.196 39.3121 105.556 39.3121C104.917 39.3121 104.398 38.7937 104.398 38.1543C104.398 37.5149 104.917 36.9966 105.556 36.9966C106.196 36.9966 106.714 37.5149 106.714 38.1543Z" fill="white"/>
<path d="M58.4351 64.9331C58.4351 65.5725 57.9168 66.0909 57.2774 66.0909C56.638 66.0909 56.1196 65.5725 56.1196 64.9331C56.1196 64.2937 56.638 63.7754 57.2774 63.7754C57.9168 63.7754 58.4351 64.2937 58.4351 64.9331Z" fill="white"/>
<path d="M34.408 113.399C34.408 114.038 33.8897 114.557 33.2503 114.557C32.6109 114.557 32.0925 114.038 32.0925 113.399C32.0925 112.76 32.6109 112.241 33.2503 112.241C33.8897 112.241 34.408 112.76 34.408 113.399Z" fill="white"/>
<path d="M167.945 87.4551C167.945 88.0945 167.427 88.6128 166.787 88.6128C166.148 88.6128 165.63 88.0945 165.63 87.4551C165.63 86.8157 166.148 86.2974 166.787 86.2974C167.427 86.2974 167.945 86.8157 167.945 87.4551Z" fill="white"/>
<path d="M167.945 163.101C167.945 163.74 167.427 164.259 166.787 164.259C166.148 164.259 165.63 163.74 165.63 163.101C165.63 162.462 166.148 161.943 166.787 161.943C167.427 161.943 167.945 162.462 167.945 163.101Z" fill="white"/>
<path d="M95.3521 87.4551C95.3521 88.0945 94.8338 88.6128 94.1944 88.6128C93.555 88.6128 93.0366 88.0945 93.0366 87.4551C93.0366 86.8157 93.555 86.2974 94.1944 86.2974C94.8338 86.2974 95.3521 86.8157 95.3521 87.4551Z" fill="white"/>
<path d="M117.021 140.815C117.021 141.454 116.503 141.973 115.863 141.973C115.224 141.973 114.706 141.454 114.706 140.815C114.706 140.176 115.224 139.657 115.863 139.657C116.503 139.657 117.021 140.176 117.021 140.815Z" fill="white"/>
<path d="M148.624 140.815C148.624 141.454 148.105 141.973 147.466 141.973C146.826 141.973 146.308 141.454 146.308 140.815C146.308 140.176 146.826 139.657 147.466 139.657C148.105 139.657 148.624 140.176 148.624 140.815Z" fill="white"/>
<path d="M117.021 109.605C117.021 110.244 116.503 110.763 115.863 110.763C115.224 110.763 114.706 110.244 114.706 109.605C114.706 108.966 115.224 108.447 115.863 108.447C116.503 108.447 117.021 108.966 117.021 109.605Z" fill="white"/>
<path d="M148.624 109.605C148.624 110.244 148.105 110.763 147.466 110.763C146.826 110.763 146.308 110.244 146.308 109.605C146.308 108.966 146.826 108.447 147.466 108.447C148.105 108.447 148.624 108.966 148.624 109.605Z" fill="white"/>
<path d="M95.6429 163.101C95.6429 163.74 95.1245 164.259 94.4851 164.259C93.8457 164.259 93.3274 163.74 93.3274 163.101C93.3274 162.462 93.8457 161.943 94.4851 161.943C95.1245 161.943 95.6429 162.462 95.6429 163.101Z" fill="white"/>
<defs>
<linearGradient id="paint0_linear_863_53192" x1="33.2022" y1="113.516" x2="105.556" y2="113.516" gradientUnits="userSpaceOnUse">
<stop stop-color="#8569FE"/>
<stop offset="1" stop-color="#8569FE" stop-opacity="0"/>
</linearGradient>
<linearGradient id="paint1_linear_863_53192" x1="33.2127" y1="38.1546" x2="105.548" y2="38.1546" gradientUnits="userSpaceOnUse">
<stop stop-color="#5E5FF5"/>
<stop offset="1" stop-color="#8569FE"/>
</linearGradient>
<linearGradient id="paint2_linear_863_53192" x1="105.556" y1="112.965" x2="105.556" y2="37.8988" gradientUnits="userSpaceOnUse">
<stop stop-color="#5E5FF5" stop-opacity="0"/>
<stop offset="1" stop-color="#8569FE"/>
</linearGradient>
<linearGradient id="paint3_linear_863_53192" x1="114.705" y1="108.378" x2="147.742" y2="141.255" gradientUnits="userSpaceOnUse">
<stop offset="0.291667" stop-color="#8569FE"/>
<stop offset="1" stop-color="#BE69FF" stop-opacity="0"/>
</linearGradient>
<linearGradient id="paint4_linear_863_53192" x1="116.253" y1="141.255" x2="147.563" y2="109.496" gradientUnits="userSpaceOnUse">
<stop offset="0.208333" stop-color="#8569FE"/>
<stop offset="1" stop-color="#BE69FF" stop-opacity="0"/>
</linearGradient>
<linearGradient id="paint5_linear_863_53192" x1="33.2124" y1="37.8543" x2="33.2124" y2="113.447" gradientUnits="userSpaceOnUse">
<stop stop-color="#5E5FF5"/>
<stop offset="1" stop-color="#8569FE"/>
</linearGradient>
<linearGradient id="paint6_linear_863_53192" x1="94.2343" y1="163.017" x2="166.787" y2="163.017" gradientUnits="userSpaceOnUse">
<stop stop-color="#5E5FF5" stop-opacity="0"/>
<stop offset="0.473958" stop-color="#8569FE"/>
<stop offset="1" stop-color="#BE69FF"/>
</linearGradient>
<linearGradient id="paint7_linear_863_53192" x1="94.2471" y1="87.6561" x2="166.462" y2="87.6561" gradientUnits="userSpaceOnUse">
<stop stop-color="#8569FE"/>
<stop offset="1" stop-color="#BE69FF" stop-opacity="0.48"/>
</linearGradient>
<linearGradient id="paint8_linear_863_53192" x1="166.787" y1="162.467" x2="166.787" y2="87.4003" gradientUnits="userSpaceOnUse">
<stop stop-color="#BE69FF"/>
<stop offset="1" stop-color="#BE69FF" stop-opacity="0"/>
</linearGradient>
<linearGradient id="paint9_linear_863_53192" x1="94.2471" y1="162.467" x2="94.2471" y2="87.4003" gradientUnits="userSpaceOnUse">
<stop stop-color="#8569FE"/>
<stop offset="1" stop-color="#8569FE" stop-opacity="0.32"/>
</linearGradient>
<linearGradient id="paint10_linear_863_53192" x1="57.2607" y1="63.9998" x2="85.2607" y2="91.9998" gradientUnits="userSpaceOnUse">
<stop stop-color="#5E5FF5"/>
<stop offset="0.546875" stop-color="#8569FE"/>
<stop offset="1" stop-color="#8569FE" stop-opacity="0"/>
</linearGradient>
</defs>
</svg>
