<svg width="32" height="32" viewBox="0 0 32 32" fill="none" xmlns="http://www.w3.org/2000/svg">
<path d="M8.01249 15.445L17.8402 11.5305C18.8126 11.123 22.1002 9.81631 22.1002 9.81631C22.1002 9.81631 23.6189 9.24564 23.4925 10.6319C23.4502 11.2026 23.1127 13.2005 22.7752 15.3615L21.7209 21.7644C21.7209 21.7644 21.6362 22.7045 20.9201 22.8654C20.2039 23.0263 19.022 22.2947 18.8109 22.1316C18.6422 22.0094 15.6475 20.1746 14.5509 19.2777C14.2558 19.0327 13.9183 18.5433 14.5933 17.9727C16.1115 16.6273 17.9254 14.9556 19.022 13.8956C19.5283 13.4062 20.034 12.2643 17.9254 13.6506L11.9762 17.5214C11.9762 17.5214 11.3017 17.929 10.0364 17.5624C8.77102 17.1957 7.29458 16.7058 7.29458 16.7058C7.29458 16.7058 6.28207 16.0942 8.01135 15.4423L8.01249 15.445Z" fill="white"/>
</svg>
