<svg width="72" height="96" viewBox="0 0 72 96" fill="none" xmlns="http://www.w3.org/2000/svg">
<path d="M49.2059 15.0592C50.1596 14.961 50.8612 14.7864 51.3106 14.5464C51.7564 14.3027 52.3703 13.6845 53.1596 12.6808C53.4994 13.8227 53.4994 14.8191 53.1596 15.6628C52.8198 16.5065 52.0999 17.4339 50.9964 18.4449L49.2095 15.0592H49.2059Z" fill="white"/>
<path d="M13.6882 42.7305C14.6529 42.3523 15.6943 42.3378 16.8124 42.676L13.8563 46.8618C12.7856 47.0181 12.0073 47.0181 11.5104 46.8618C11.0171 46.709 10.1839 46.2035 9.00366 45.3525C9.9793 45.3889 10.6992 45.258 11.1669 44.9561C12.497 44.1015 13.0597 42.9705 13.6882 42.7269V42.7305Z" fill="white"/>
<path d="M16.3191 48.9564L22.0633 54.0914L12.5043 61.2047C12.5883 65.8341 12.5262 68.1289 12.3216 68.0925C12.3069 68.0925 14.43 68.0525 15.8697 69.2598C16.2278 69.5581 16.7211 70.1399 17.3569 71.0091H12.7272C12.4495 70.9618 12.2229 70.7 12.0475 70.2199C11.8721 69.7399 11.5359 69.2708 11.0353 68.8125C11.1267 67.587 11.1267 66.4342 11.0353 65.3541C10.944 64.2776 10.6845 62.7175 10.2534 60.6701L16.3155 48.9564H16.3191Z" fill="white"/>
<path d="M40.9696 47.3745L48.9537 46.5853L40.1584 63.3539L42.8185 65.1723C44.0353 65.1177 44.7881 65.2195 45.0804 65.4741C45.4495 65.7978 45.7601 66.2669 46.0049 66.8851L41.8648 68.1252L39.1425 63.6521L40.9659 47.3781L40.9696 47.3745Z" fill="white"/>
<path d="M47.1888 44.5415L52.4689 38.2828L63.6285 45.6689C63.8843 46.2035 63.8843 46.6217 63.6285 46.9308C63.3764 47.2399 60.3069 50.8075 54.4239 57.6335C53.6127 56.8843 52.4251 56.8843 50.8648 57.6335C49.3081 58.3826 48.0804 58.4808 47.1888 57.928L48.3398 53.9204L53.0061 54.9278L62.0463 46.9308C55.6151 47.4072 51.7747 47.4072 50.525 46.9308C49.2716 46.4544 48.1608 45.658 47.1888 44.5415Z" fill="white"/>
<path d="M58.0085 8.32411C57.1608 7.49859 56.3788 6.9931 55.4872 6.82217C53.1157 6.37123 51.0731 7.22221 50.3349 7.61496C49.1803 8.2332 47.8392 10.5461 46.3045 14.5573H39.8002C40.4982 11.5462 41.3898 9.37147 42.475 8.02227C45.4312 4.33834 48.0109 3.44373 51.2375 3.44373C53.715 3.44373 56.1376 5.02567 58.0122 8.32411H58.0085Z" fill="white"/>
<path d="M34.4105 24.3181L31.1364 21.7143L39.8441 14.3682H41.43C43.6882 10.3752 45.1937 7.93862 45.9537 7.06219C49.447 3.0255 53.0097 2.37454 53.4226 2.27272C54.9939 1.87996 58.4762 1.72358 61.1291 3.14915C62.0792 3.66192 63.3069 4.42198 64.3849 5.99665C64.922 6.80762 65.514 8.09863 65.9963 9.73876C65.4336 8.90961 64.7028 8.11682 63.8075 7.36766C61.6334 5.55298 60.1096 5.22568 58.4507 5.22568C54.2485 5.22568 52.3301 7.90589 51.19 9.49511C50.43 10.557 49.5749 12.179 48.6321 14.3682C50.2619 15.5574 51.3179 16.4229 51.7856 16.9612C54.1425 19.6814 55.0195 21.7652 55.6151 23.4271C56.1888 25.0272 55.9001 26.6383 55.732 27.4856C55.6663 27.8275 55.6663 27.9693 55.732 27.9075L43.0597 31.275C45.5189 29.3185 46.7466 26.9983 46.7466 24.3181C46.7466 21.6379 42.6358 21.6342 34.4105 24.3181Z" fill="white"/>
<path d="M39.8368 14.3573L43.9403 14.3828L31.1364 21.7142L39.8368 14.3573Z" fill="white"/>
<path d="M22.3557 39.6902C31.3374 36.1772 37.7138 33.457 41.4738 31.5259C45.2631 29.5803 49.8855 26.6565 55.3374 22.7471C57.8185 28.1802 57.9135 33.337 55.6334 38.2137C53.3532 43.0905 51.2339 46.0835 49.268 47.1926C45.4677 49.891 40.447 50.8693 34.2022 50.1383C27.9903 49.4074 23.9854 47.1635 22.1949 43.4032C22.1766 43.3596 22.1656 43.3196 22.1656 43.276V39.9703C22.1656 39.8466 22.2387 39.7375 22.3557 39.6939V39.6902Z" fill="white"/>
<path d="M28.6992 52.6803C31.8161 46.3489 21.592 47.069 26.0463 39.7229C26.3569 39.2065 26.5871 38.7738 26.7369 38.421C26.8027 38.2719 26.7296 38.0973 26.5761 38.0319C26.5213 38.0101 26.4519 38.0028 26.3898 38.0173C22.4251 38.9774 19.4251 40.2211 17.3898 41.734C14.2034 44.1051 12.1352 49.1891 13.9769 52.3312C15.1645 54.3568 16.8928 55.8006 19.1511 56.6624C19.2826 56.7134 19.363 56.8479 19.3411 56.9861L17.9635 65.805L25.2826 68.4052C26.3569 68.7652 27.0694 69.1252 27.4239 69.4889C27.782 69.8526 27.9647 70.4053 27.9757 71.1472H33.3325C32.3971 69.6562 31.5969 68.7434 30.9318 68.4052C29.3752 67.616 27.3252 67.9906 26.5944 67.5869C25.3959 66.9178 23.1998 65.9759 20.0061 64.7576L28.6955 52.6839L28.6992 52.6803Z" fill="white"/>
<path d="M25.5201 82.7263C25.2461 82.0936 24.8697 81.5517 24.3874 81.0899C23.9087 80.6353 23.3423 80.2716 22.6955 80.0061C22.0487 79.7407 21.3581 79.6097 20.6273 79.6097C19.8965 79.6097 19.2278 79.7407 18.5847 80.0061C17.9452 80.2716 17.3861 80.6389 16.9038 81.108C16.4251 81.5772 16.0414 82.1263 15.7637 82.7518C15.4824 83.3809 15.3435 84.0501 15.3435 84.7629C15.3435 85.4757 15.4824 86.1593 15.7564 86.7849C16.0305 87.414 16.4068 87.9595 16.8892 88.4213C17.3679 88.8832 17.9306 89.2469 18.5701 89.5123C19.2132 89.7778 19.8965 89.9087 20.631 89.9087C21.3654 89.9087 22.0561 89.7778 22.6992 89.5123C23.3459 89.2469 23.9087 88.8832 24.391 88.4286C24.8733 87.9704 25.2497 87.4285 25.5238 86.7994C25.7978 86.1739 25.9367 85.4938 25.9367 84.7592C25.9367 84.0246 25.7978 83.3591 25.5238 82.7263H25.5201ZM23.2363 85.9302C23.0865 86.2939 22.8819 86.6103 22.6261 86.8794C22.3666 87.1522 22.067 87.3631 21.7235 87.5122C21.3764 87.6649 21.0146 87.7413 20.6237 87.7413C20.2327 87.7413 19.8673 87.6649 19.5274 87.5122C19.1839 87.3631 18.8843 87.1485 18.6249 86.8794C18.3654 86.6067 18.1645 86.2939 18.0146 85.9302C17.8648 85.5702 17.7917 85.1775 17.7917 84.7629C17.7917 84.3483 17.8685 83.9555 18.0146 83.5955C18.1645 83.2318 18.3654 82.9155 18.6249 82.6463C18.8843 82.3736 19.1839 82.1627 19.5274 82.0136C19.8709 81.8608 20.2363 81.7845 20.6237 81.7845C21.011 81.7845 21.38 81.8608 21.7235 82.0136C22.067 82.1627 22.3666 82.3772 22.6261 82.6463C22.8819 82.9191 23.0865 83.2318 23.2363 83.5955C23.3861 83.9555 23.4592 84.3447 23.4592 84.7629C23.4592 85.1811 23.3861 85.5702 23.2363 85.9302Z" fill="white"/>
<path d="M34.7503 79.8499L29.821 87.4723H34.5603V89.6579H25.7869L30.6103 82.0355H26.2509V79.8499H34.7503Z" fill="white"/>
<path d="M45.3946 79.8499L40.1693 94.0001H37.7174L39.0913 90.6252L39.4348 89.6397L35.6053 79.8499H38.3021L40.5859 86.1522L42.7308 79.8499H45.3946Z" fill="white"/>
<path d="M53.4117 86.9122C53.4117 87.3995 53.2984 87.8286 53.0682 88.2105C52.838 88.5887 52.542 88.9051 52.1766 89.156C51.8112 89.4106 51.3983 89.6033 50.9415 89.7306C50.4848 89.8615 50.0317 89.927 49.5859 89.927C48.8295 89.927 48.1352 89.7888 47.4994 89.5124C46.8636 89.236 46.3045 88.7923 45.8258 88.1814L47.3203 86.6904C47.6163 87.0613 47.9598 87.3559 48.3471 87.5632C48.7381 87.7741 49.1547 87.8795 49.6041 87.8795C49.9915 87.8795 50.3167 87.8068 50.5725 87.6686C50.8319 87.5268 50.9598 87.3122 50.9598 87.0322C50.9598 86.7522 50.7771 86.494 50.408 86.2976C50.0426 86.0976 49.5274 85.9048 48.8624 85.7121C48.4714 85.5994 48.095 85.4539 47.7296 85.283C47.3642 85.1084 47.039 84.8902 46.754 84.6393C46.4689 84.3884 46.2387 84.0938 46.067 83.7665C45.8953 83.4392 45.8076 83.061 45.8076 82.6319C45.8076 82.1555 45.9208 81.7336 46.1437 81.3517C46.3666 80.9735 46.659 80.6572 47.0171 80.4062C47.3788 80.1517 47.7881 79.9553 48.2485 79.8207C48.7052 79.6825 49.1693 79.6171 49.637 79.6171C51.1462 79.6171 52.3849 80.1807 53.3459 81.3117L51.8697 82.7882C51.5847 82.4355 51.2558 82.1591 50.8904 81.9554C50.525 81.7554 50.123 81.65 49.6882 81.65C49.5384 81.65 49.3812 81.6681 49.2168 81.7118C49.0524 81.7518 48.8953 81.8063 48.7527 81.8791C48.6102 81.9518 48.4933 82.05 48.402 82.1664C48.3106 82.2864 48.2631 82.4173 48.2631 82.5664C48.2631 82.8246 48.4385 83.0537 48.7856 83.2428C49.1364 83.4355 49.637 83.6283 50.2875 83.8174C50.7113 83.9447 51.1133 84.1011 51.4896 84.2938C51.8697 84.4865 52.1985 84.7084 52.4872 84.9629C52.7722 85.2175 53.0024 85.5048 53.1669 85.8248C53.3313 86.1449 53.4154 86.5085 53.4154 86.9158L53.4117 86.9122Z" fill="white"/>
</svg>
