<svg width="34" height="34" viewBox="0 0 34 34" fill="none" xmlns="http://www.w3.org/2000/svg">
<path d="M19.25 22.25C19.25 23.4926 18.2426 24.5 17 24.5C15.7574 24.5 14.75 23.4926 14.75 22.25C14.75 21.0074 15.7574 20 17 20C18.2426 20 19.25 21.0074 19.25 22.25Z" fill="#BFBFBF"/>
<path fill-rule="evenodd" clip-rule="evenodd" d="M17 3.5C9.54416 3.5 3.5 9.54416 3.5 17C3.5 24.4558 9.54416 30.5 17 30.5C24.4558 30.5 30.5 24.4558 30.5 17C30.5 9.54416 24.4558 3.5 17 3.5ZM0.5 17C0.5 7.8873 7.8873 0.5 17 0.5C26.1127 0.5 33.5 7.8873 33.5 17C33.5 26.1127 26.1127 33.5 17 33.5C7.8873 33.5 0.5 26.1127 0.5 17ZM17 8.5C17.8284 8.5 18.5 8.5 18.5 8.5V18.25C18.5 18.25 17.8284 18.25 17 18.25C16.1716 18.25 15.5 18.25 15.5 18.25V8.5C15.5 8.5 16.1716 8.5 17 8.5Z" fill="#BFBFBF"/>
</svg>
