<svg width="121" height="16" viewBox="0 0 121 16" fill="none" xmlns="http://www.w3.org/2000/svg">
<path d="M6.86391 0.306396H10.1428V12.2222C10.1428 12.8071 10.2992 13.2493 10.6127 13.5485C10.9259 13.848 11.3669 13.9974 11.9353 13.9974C12.5474 13.9974 12.9989 13.8343 13.2906 13.508C13.5818 13.1816 13.7277 12.7461 13.7277 12.2017V0.306396H17.0067V12.0971C17.0067 12.6692 16.9193 13.1938 16.7443 13.6705C16.5695 14.1476 16.2887 14.5594 15.9027 14.9067C15.5165 15.2542 15.0175 15.5233 14.4053 15.7139C13.7933 15.9045 13.0502 16 12.1757 16C11.1555 16 10.3505 15.8673 9.76025 15.6016C9.17002 15.3359 8.75103 15.0396 8.50327 14.7126C8.25538 15.0396 7.83668 15.3359 7.24644 15.6016C6.65621 15.8673 5.85081 16 4.83096 16C3.95652 16 3.21327 15.9045 2.60122 15.7139C1.98917 15.5233 1.4898 15.2542 1.10382 14.9067C0.717554 14.5594 0.437221 14.1476 0.262247 13.6705C0.087416 13.1938 0 12.6692 0 12.0971V0.306396H3.27887V12.2017C3.27887 12.7461 3.42442 13.1816 3.71609 13.508C4.00748 13.8343 4.45934 13.9974 5.07139 13.9974C5.63967 13.9974 6.08033 13.848 6.39382 13.5485C6.70703 13.2493 6.86391 12.8071 6.86391 12.2222V0.306396Z" fill="white"/>
<path d="M20.1328 0.306641H28.8765V2.30917H23.4117V6.64134H28.5487V8.64387H23.4117V13.6912H29.0951V15.6938H20.1328V0.306641H20.1328Z" fill="white"/>
<path d="M38.4284 3.77788C38.4284 3.19289 38.2715 2.75108 37.9583 2.45146C37.6448 2.15241 37.2041 2.00267 36.6358 2.00267C36.0238 2.00267 35.5719 2.16608 35.2805 2.49235C34.9889 2.81876 34.8433 3.25429 34.8433 3.79825V15.6937H31.5645V3.90305C31.5645 3.3309 31.6519 2.80662 31.8267 2.3295C32.0017 1.8528 32.282 1.44071 32.6683 1.09323C33.0543 0.745891 33.5536 0.47698 34.1657 0.286076C34.7777 0.0954514 35.521 0 36.3954 0C37.4153 0 38.2207 0.13285 38.8109 0.398552C39.4011 0.664115 39.8198 0.960517 40.0677 1.28734C40.3155 0.960517 40.7345 0.664114 41.3247 0.398552C41.9149 0.13285 42.7199 0 43.7402 0C44.6146 0 45.3577 0.0954514 45.9698 0.286076C46.582 0.47698 47.0809 0.745891 47.4672 1.09323C47.8532 1.44071 48.1339 1.8528 48.3088 2.3295C48.4837 2.80662 48.5711 3.3309 48.5711 3.90305V15.6937H45.2921V3.79825C45.2921 3.25429 45.1463 2.81876 44.8551 2.49235C44.5634 2.16608 44.1118 2.00267 43.4998 2.00267C42.9313 2.00267 42.4904 2.15241 42.1772 2.45146C41.8637 2.75107 41.7072 3.19289 41.7072 3.77788V15.6937H38.4284V3.77788Z" fill="white"/>
<path d="M54.9761 15.6938H51.6973V0.306641H54.9761V15.6938Z" fill="white"/>
<path d="M57.3366 0.306641H60.6373L62.9326 5.0883L65.206 0.306641H68.5287L64.572 7.90817L68.6817 15.6938H65.2716L62.9326 10.6055L60.5937 15.6938H57.1836L61.2931 7.90817L57.3366 0.306641H57.3366Z" fill="white"/>
<path d="M83.7986 6.06444C83.7986 7.15669 83.4233 8.01338 82.6728 8.63479C81.9221 9.25607 80.6798 9.56643 78.9457 9.56643H76.2789V15.7172H73V0.330078H78.9457C79.8201 0.330078 80.5634 0.412134 81.1754 0.575824C81.7875 0.739655 82.2864 0.971865 82.6728 1.27231C83.0588 1.57276 83.3429 1.93796 83.5253 2.36806C83.7073 2.79815 83.7986 3.28601 83.7986 3.83193V6.06444ZM76.2789 7.56389H78.5086C79.2517 7.56389 79.7726 7.41123 80.0715 7.10603C80.37 6.8007 80.5196 6.35623 80.5196 5.77264V4.12386C80.5196 3.54055 80.3666 3.09608 80.0606 2.79075C79.7545 2.48556 79.2299 2.33261 78.4867 2.33261H76.2789V7.56389Z" fill="white"/>
<path d="M86.2676 0.330078H89.5464V13.7147H95.2299V15.7172H86.2676V0.330078Z" fill="white"/>
<path d="M100.609 10.9764L99.8222 15.7172H96.4121L99.2319 0.330078H106.052L108.872 15.7172H105.462L104.675 10.9764H100.609ZM104.369 8.97376L103.232 2.33261H102.052L100.915 8.97376H104.369Z" fill="white"/>
<path d="M112.852 15.7172V9.75035L108.633 0.330078H111.999L114.491 7.01212L116.983 0.330078H120.35L116.131 9.75035V15.7172H112.852Z" fill="white"/>
</svg>
