<svg width="72" height="72" viewBox="0 0 72 72" fill="none" xmlns="http://www.w3.org/2000/svg">
<path d="M67 35.9999C67 18.875 53.114 5 36 5C18.886 5 5 18.875 5 35.9999C5 53.1249 18.875 66.9999 36 66.9999C42.7296 66.9999 48.9559 64.8442 54.0441 61.2004L63.3233 66.5622C64.9209 67.4813 66.9125 66.3324 66.9234 64.494L67 36.4595C67 36.2844 67 36.1422 67 35.9999ZM22.2453 28.0229L36.2189 19.9036L50.2909 28.0229L50.2471 44.1958L36.3173 36.1531L36.2736 52.3151L22.2016 44.1958L22.2453 28.0229Z" fill="white"/>
</svg>
