<svg width="1155" height="1154" viewBox="0 0 1155 1154" fill="none" xmlns="http://www.w3.org/2000/svg">
<path fill-rule="evenodd" clip-rule="evenodd" d="M252.263 440.528C154.673 496.077 88.8541 601.078 88.8542 721.463C88.8542 899.84 233.359 1044.44 411.612 1044.44C471.54 1044.44 527.653 1028.1 575.743 999.621C481.697 942.741 418.826 839.449 418.826 721.462C418.826 714.633 419.036 707.853 419.451 701.129C325.858 649.482 260.469 552.948 252.263 440.528ZM252.124 438.532C153.574 494.28 87.0498 600.097 87.0498 721.463C87.0498 900.835 232.361 1046.25 411.612 1046.25C472.224 1046.25 528.955 1029.62 577.5 1000.68C626.045 1029.62 682.776 1046.25 743.388 1046.25C922.638 1046.25 1067.95 900.835 1067.95 721.462C1067.95 598.875 1000.08 492.15 899.889 436.863C900.304 430.138 900.515 423.358 900.515 416.529C900.515 237.157 755.203 91.7465 575.953 91.7466C396.702 91.7466 251.391 237.157 251.391 416.529C251.391 423.924 251.638 431.261 252.124 438.532ZM254.002 439.545C300.614 413.394 354.373 398.484 411.612 398.484C471.539 398.484 527.652 414.828 575.742 443.304C487.678 496.567 426.949 590.526 419.58 699.138C326.668 647.547 261.873 551.407 254.002 439.545ZM421.325 700.099C428.418 591.397 489.252 497.366 577.5 444.352C665.3 497.097 725.964 590.444 733.563 698.447C686.951 724.598 633.192 739.508 575.953 739.508C519.931 739.508 467.242 725.225 421.325 700.099ZM421.201 702.087C420.822 708.497 420.63 714.957 420.63 721.462C420.63 839.138 483.52 942.115 577.5 998.573C671.48 942.115 734.37 839.139 734.37 721.463C734.37 714.4 734.143 707.39 733.697 700.44C686.997 726.477 633.206 741.312 575.953 741.312C519.918 741.312 467.2 727.102 421.201 702.087ZM735.441 699.46C735.927 706.731 736.174 714.068 736.174 721.463C736.174 839.449 673.303 942.741 579.257 999.621C627.347 1028.1 683.46 1044.44 743.388 1044.44C921.641 1044.44 1066.15 899.84 1066.15 721.462C1066.15 599.858 998.986 493.951 899.76 438.854C892.166 550.788 827.898 647.159 735.441 699.46ZM735.301 697.464C827.073 645.227 890.748 549.26 898.016 437.893C852.099 412.767 799.41 398.484 743.388 398.484C683.46 398.484 627.347 414.828 579.257 443.304C666.869 496.293 727.426 589.561 735.301 697.464ZM898.139 435.904C852.14 410.889 799.422 396.68 743.388 396.68C682.776 396.68 626.044 413.306 577.5 442.249C528.955 413.306 472.224 396.68 411.612 396.68C354.358 396.68 300.567 411.515 253.868 437.552C253.422 430.602 253.195 423.592 253.195 416.529C253.195 238.152 397.7 93.551 575.953 93.5509C754.206 93.5509 898.711 238.152 898.711 416.529C898.711 423.034 898.518 429.494 898.139 435.904Z" fill="url(#paint0_linear_2173_107080)"/>
<path d="M306.852 524.804H309.389V515.697H318.214V513.47H309.389V506.647H319.144V504.392H306.852V524.804Z" fill="#A484FF"/>
<path d="M327.912 525.114C331.07 525.128 333.339 523.549 334.058 521.223H331.464C330.9 522.168 329.745 522.971 327.912 522.971C325.191 522.971 323.302 521.195 323.176 517.953H334.284V516.938C334.298 511.271 330.9 509.297 327.686 509.297C323.528 509.297 320.751 512.568 320.751 517.276C320.751 521.97 323.486 525.128 327.912 525.114ZM323.19 515.895C323.359 513.526 325.036 511.44 327.686 511.44C330.21 511.44 331.817 513.343 331.831 515.895H323.19Z" fill="#A484FF"/>
<path d="M343.869 525.114C347.027 525.128 349.296 523.549 350.015 521.223H347.422C346.858 522.168 345.702 522.971 343.869 522.971C341.149 522.971 339.26 521.195 339.133 517.953H350.241V516.938C350.255 511.271 346.858 509.297 343.644 509.297C339.485 509.297 336.708 512.568 336.708 517.276C336.708 521.97 339.443 525.128 343.869 525.114ZM339.147 515.895C339.316 513.526 340.994 511.44 343.644 511.44C346.167 511.44 347.774 513.343 347.788 515.895H339.147Z" fill="#A484FF"/>
<path d="M359.178 525.114C362.096 525.128 363.097 523.309 363.633 522.464H363.886V524.804H366.254V504.392H363.802V511.919H363.633C363.111 511.102 362.181 509.297 359.206 509.297C355.358 509.297 352.665 512.342 352.665 517.191C352.665 522.055 355.358 525.128 359.178 525.114ZM355.118 517.135C355.118 513.935 356.57 511.468 359.516 511.468C362.364 511.468 363.872 513.738 363.886 517.135C363.872 520.575 362.322 522.943 359.516 522.943C356.612 522.943 355.118 520.391 355.118 517.135Z" fill="#A484FF"/>
<path d="M370.765 524.804H373.105V522.464H373.387C373.909 523.309 374.91 525.128 377.842 525.114C381.648 525.128 384.34 522.055 384.354 517.191C384.34 512.342 381.648 509.297 377.814 509.297C374.825 509.297 373.909 511.102 373.387 511.919H373.19V504.392H370.765V524.804ZM373.134 517.135C373.134 513.738 374.656 511.468 377.475 511.468C380.436 511.468 381.887 513.935 381.902 517.135C381.887 520.391 380.393 522.943 377.475 522.943C374.684 522.943 373.134 520.575 373.134 517.135Z" fill="#A484FF"/>
<path d="M386.779 520.462C386.779 523.45 389.091 525.156 391.995 525.17C394.659 525.156 396.054 523.746 396.562 522.717H396.675V524.804H399.071V514.71C399.085 509.889 395.321 509.297 393.32 509.297C389.937 509.297 387.54 511.003 387.23 513.47H389.767C390.106 512.3 391.276 511.412 393.207 511.412C395.519 511.412 396.675 512.54 396.675 514.485V515.725C395.984 515.74 393.517 515.88 392.53 515.951C389.88 516.148 386.779 516.952 386.779 520.462ZM389.204 520.575C389.218 518.897 390.613 518.122 392.812 517.981C393.545 517.939 395.956 517.755 396.675 517.713V519.25C396.675 521.181 395.152 523.013 392.418 522.999C390.557 523.013 389.218 522.196 389.204 520.575Z" fill="#A484FF"/>
<path d="M409.221 525.114C412.618 525.128 414.873 523.027 415.254 520.293H412.829C412.406 521.97 411.025 522.943 409.221 522.943C406.444 522.943 404.667 520.673 404.653 517.135C404.667 513.696 406.486 511.44 409.221 511.44C411.265 511.44 412.477 512.723 412.829 514.118H415.254C414.873 511.229 412.42 509.297 409.164 509.297C405.006 509.297 402.229 512.568 402.229 517.22C402.229 521.815 404.879 525.128 409.221 525.114Z" fill="#A484FF"/>
<path d="M418.242 524.804H420.667V519.094L422.288 517.586L427.969 524.804H431.042L424.106 516.05L430.563 509.495H427.574L420.949 516.261H420.667V504.392H418.242V524.804Z" fill="#A484FF"/>
<path d="M723.625 510.82H726.162C725.401 506.577 722.06 504.11 717.93 504.11C712.686 504.11 708.894 508.141 708.908 514.598C708.894 521.054 712.686 525.085 717.93 525.085C722.074 525.085 725.429 522.576 726.162 518.404H723.625C723.018 521.195 720.622 522.703 717.93 522.717C714.236 522.703 711.375 519.856 711.361 514.598C711.375 509.326 714.236 506.478 717.93 506.478C720.622 506.478 723.033 508.001 723.625 510.82Z" fill="#A484FF"/>
<path d="M735.663 525.114C739.821 525.128 742.613 521.97 742.598 517.22C742.613 512.441 739.821 509.297 735.663 509.297C731.49 509.297 728.671 512.441 728.671 517.22C728.671 521.97 731.49 525.128 735.663 525.114ZM731.096 517.22C731.11 514.175 732.548 511.44 735.663 511.44C738.75 511.44 740.174 514.175 740.174 517.22C740.174 520.279 738.75 522.971 735.663 522.971C732.548 522.971 731.11 520.279 731.096 517.22Z" fill="#A484FF"/>
<path d="M748.209 515.613C748.209 512.962 749.844 511.468 752.071 511.468C754.242 511.468 755.539 512.878 755.539 515.246V524.804H757.964V515.077C757.978 511.186 755.906 509.297 752.804 509.297C750.478 509.297 749.041 510.326 748.322 511.891H748.124V509.495H745.784V524.804H748.209V515.613Z" fill="#A484FF"/>
<path d="M770.369 513.47H772.737C772.427 510.989 770.439 509.297 767.267 509.297C763.898 509.297 761.601 511.186 761.601 513.808C761.601 515.852 763.024 517.304 765.689 517.924L768 518.46C769.734 518.869 770.51 519.574 770.51 520.659C770.51 522.097 769.142 523.013 766.957 522.999C765.026 523.013 763.941 522.294 763.659 520.8H761.121C761.53 523.591 763.574 525.128 767.014 525.114C770.848 525.128 773.005 523.168 773.019 520.518C773.005 518.39 771.665 517.022 768.931 516.374L766.647 515.81C764.857 515.373 764.039 514.682 764.025 513.667C764.039 512.385 765.378 511.37 767.267 511.355C769.058 511.37 770.03 512.201 770.369 513.47Z" fill="#A484FF"/>
<path d="M782.604 525.114C785.762 525.128 788.031 523.549 788.75 521.223H786.157C785.593 522.167 784.437 522.971 782.604 522.971C779.884 522.971 777.995 521.195 777.868 517.953H788.976V516.938C788.99 511.271 785.593 509.297 782.379 509.297C778.22 509.297 775.443 512.568 775.443 517.276C775.443 521.97 778.178 525.128 782.604 525.114ZM777.882 515.895C778.051 513.526 779.729 511.44 782.379 511.44C784.902 511.44 786.509 513.343 786.523 515.895H777.882Z" fill="#A484FF"/>
<path d="M794.558 515.613C794.558 512.962 796.193 511.468 798.421 511.468C800.591 511.468 801.888 512.878 801.888 515.246V524.804H804.313V515.077C804.327 511.186 802.255 509.297 799.154 509.297C796.828 509.297 795.39 510.326 794.671 511.891H794.474V509.495H792.134V524.804H794.558V515.613Z" fill="#A484FF"/>
<path d="M816.718 513.47H819.086C818.776 510.989 816.788 509.297 813.617 509.297C810.248 509.297 807.95 511.186 807.95 513.808C807.95 515.852 809.374 517.304 812.038 517.924L814.35 518.46C816.083 518.869 816.859 519.574 816.859 520.659C816.859 522.097 815.491 523.013 813.306 522.999C811.375 523.013 810.29 522.294 810.008 520.8H807.47C807.879 523.591 809.923 525.128 813.363 525.114C817.197 525.128 819.354 523.168 819.368 520.518C819.354 518.39 818.015 517.022 815.28 516.374L812.996 515.81C811.206 515.373 810.388 514.682 810.374 513.667C810.388 512.385 811.728 511.37 813.617 511.355C815.407 511.37 816.379 512.201 816.718 513.47Z" fill="#A484FF"/>
<path d="M832.196 518.516C832.182 521.378 830.011 522.675 828.277 522.661C826.318 522.675 824.95 521.251 824.95 519.052V509.495H822.526V519.221C822.511 523.112 824.584 525.001 827.487 525.001C829.785 525.001 831.308 523.76 832.027 522.21H832.196V524.804H834.592V509.495H832.196V518.516Z" fill="#A484FF"/>
<path d="M846.997 513.47H849.365C849.055 510.989 847.067 509.297 843.896 509.297C840.527 509.297 838.229 511.186 838.229 513.808C838.229 515.852 839.653 517.304 842.317 517.924L844.629 518.46C846.363 518.869 847.138 519.574 847.138 520.659C847.138 522.097 845.771 523.013 843.586 522.999C841.654 523.013 840.569 522.294 840.287 520.8H837.75C838.159 523.591 840.203 525.128 843.642 525.114C847.476 525.128 849.633 523.168 849.647 520.518C849.633 518.39 848.294 517.022 845.559 516.374L843.276 515.81C841.485 515.373 840.668 514.682 840.654 513.667C840.668 512.385 842.007 511.37 843.896 511.355C845.686 511.37 846.659 512.201 846.997 513.47Z" fill="#A484FF"/>
<path d="M501.587 826.135L503.631 820.383H511.835L513.879 826.135H516.558L509.087 805.723H506.408L498.937 826.135H501.587ZM504.407 818.156L507.649 809.022H507.818L511.06 818.156H504.407Z" fill="#A484FF"/>
<path d="M527.497 814.801H529.865C529.555 812.32 527.567 810.629 524.395 810.629C521.026 810.629 518.729 812.518 518.729 815.139C518.729 817.183 520.152 818.635 522.817 819.256L525.128 819.791C526.862 820.2 527.638 820.905 527.638 821.99C527.638 823.428 526.27 824.345 524.085 824.33C522.154 824.345 521.069 823.626 520.787 822.131H518.249C518.658 824.922 520.702 826.459 524.142 826.445C527.976 826.459 530.133 824.5 530.147 821.849C530.133 819.721 528.793 818.353 526.059 817.705L523.775 817.141C521.985 816.704 521.167 816.013 521.153 814.998C521.167 813.716 522.506 812.701 524.395 812.687C526.186 812.701 527.158 813.532 527.497 814.801Z" fill="#A484FF"/>
<path d="M541.819 814.801H544.187C543.877 812.32 541.889 810.629 538.717 810.629C535.348 810.629 533.051 812.518 533.051 815.139C533.051 817.183 534.474 818.635 537.139 819.256L539.45 819.791C541.184 820.2 541.96 820.905 541.96 821.99C541.96 823.428 540.592 824.345 538.407 824.33C536.476 824.345 535.391 823.626 535.109 822.131H532.571C532.98 824.922 535.024 826.459 538.464 826.445C542.298 826.459 544.455 824.5 544.469 821.849C544.455 819.721 543.115 818.353 540.381 817.705L538.097 817.141C536.307 816.704 535.489 816.013 535.475 814.998C535.489 813.716 536.828 812.701 538.717 812.687C540.508 812.701 541.48 813.532 541.819 814.801Z" fill="#A484FF"/>
<path d="M554.054 826.445C557.212 826.459 559.482 824.88 560.2 822.554H557.607C557.043 823.499 555.887 824.302 554.054 824.302C551.334 824.302 549.445 822.526 549.318 819.284H560.426V818.269C560.44 812.602 557.043 810.629 553.829 810.629C549.67 810.629 546.893 813.899 546.893 818.607C546.893 823.301 549.628 826.459 554.054 826.445ZM549.332 817.226C549.501 814.858 551.179 812.771 553.829 812.771C556.352 812.771 557.959 814.674 557.973 817.226H549.332Z" fill="#A484FF"/>
<path d="M572.098 814.801H574.466C574.156 812.32 572.168 810.629 568.997 810.629C565.628 810.629 563.33 812.518 563.33 815.139C563.33 817.183 564.754 818.635 567.418 819.256L569.73 819.791C571.464 820.2 572.239 820.905 572.239 821.99C572.239 823.428 570.871 824.345 568.687 824.33C566.755 824.345 565.67 823.626 565.388 822.131H562.851C563.259 824.922 565.303 826.459 568.743 826.445C572.577 826.459 574.734 824.5 574.748 821.849C574.734 819.721 573.395 818.353 570.66 817.705L568.376 817.141C566.586 816.704 565.769 816.013 565.754 814.998C565.769 813.716 567.108 812.701 568.997 812.687C570.787 812.701 571.76 813.532 572.098 814.801Z" fill="#A484FF"/>
<path d="M586.42 814.801H588.788C588.478 812.32 586.49 810.629 583.319 810.629C579.95 810.629 577.652 812.518 577.652 815.139C577.652 817.183 579.076 818.635 581.74 819.256L584.052 819.791C585.786 820.2 586.561 820.905 586.561 821.99C586.561 823.428 585.194 824.345 583.009 824.33C581.077 824.345 579.992 823.626 579.71 822.131H577.173C577.581 824.922 579.625 826.459 583.065 826.445C586.899 826.459 589.056 824.5 589.07 821.849C589.056 819.721 587.717 818.353 584.982 817.705L582.698 817.141C580.908 816.704 580.091 816.013 580.077 814.998C580.091 813.716 581.43 812.701 583.319 812.687C585.109 812.701 586.082 813.532 586.42 814.801Z" fill="#A484FF"/>
<path d="M592.228 826.135H594.652V816.577C594.652 814.35 596.259 812.799 598.092 812.799C599.854 812.799 601.094 813.955 601.08 815.675V826.135H603.533V816.183C603.547 814.237 604.759 812.799 606.888 812.799C608.566 812.799 609.975 813.673 609.989 815.929V826.135H612.414V815.901C612.414 812.292 610.454 810.629 607.734 810.629C605.535 810.629 603.914 811.644 603.138 813.222H602.969C602.25 811.587 600.883 810.629 598.881 810.629C596.88 810.629 595.399 811.587 594.765 813.222H594.568V810.826H592.228V826.135Z" fill="#A484FF"/>
<path d="M622.732 826.445C625.89 826.459 628.16 824.88 628.879 822.554H626.285C625.721 823.499 624.565 824.302 622.732 824.302C620.012 824.302 618.123 822.526 617.996 819.284H629.104V818.269C629.118 812.602 625.721 810.629 622.507 810.629C618.348 810.629 615.571 813.899 615.571 818.607C615.571 823.301 618.306 826.459 622.732 826.445ZM618.01 817.226C618.179 814.858 619.857 812.771 622.507 812.771C625.03 812.771 626.637 814.674 626.651 817.226H618.01Z" fill="#A484FF"/>
<path d="M634.686 816.944C634.686 814.294 636.321 812.799 638.549 812.799C640.72 812.799 642.016 814.209 642.016 816.577V826.135H644.441V816.408C644.455 812.518 642.383 810.629 639.282 810.629C636.956 810.629 635.518 811.658 634.799 813.222H634.602V810.826H632.262V826.135H634.686V816.944Z" fill="#A484FF"/>
<path d="M655.013 810.826H651.799V807.161H649.347V810.826H647.035V812.856H649.347V822.357C649.361 825.063 651.503 826.332 653.547 826.332C654.266 826.332 654.858 826.276 655.239 826.219V823.964C654.887 823.978 654.238 824.02 653.801 824.02C652.772 824.02 651.785 823.696 651.799 821.737V812.856H655.013V810.826Z" fill="#A484FF"/>
<path d="M471.022 609.11H466.441V634.625H471.022V609.11Z" fill="url(#paint1_linear_2173_107080)"/>
<path d="M496.749 609.11H492.202V626.555H491.956L479.938 609.11H475.78V634.625H480.361V617.18H480.573L492.661 634.625H496.749V609.11Z" fill="url(#paint2_linear_2173_107080)"/>
<path d="M504.854 609.11H499.815L508.801 634.625H514.44L523.461 609.11H518.422L511.761 629.233H511.479L504.854 609.11Z" fill="url(#paint3_linear_2173_107080)"/>
<path d="M526.492 634.625H543.161V630.748H531.074V623.771H542.21V619.929H531.074V612.951H543.091V609.11H526.492V634.625Z" fill="url(#paint4_linear_2173_107080)"/>
<path d="M561.381 616.123H565.786C565.716 611.806 562.033 608.758 556.623 608.758C551.249 608.758 547.249 611.753 547.249 616.264C547.249 619.929 549.857 622.044 554.051 623.136L556.941 623.876C559.707 624.581 561.54 625.427 561.557 627.436C561.54 629.621 559.46 631.083 556.447 631.101C553.54 631.083 551.302 629.779 551.091 627.118H546.58C546.773 632.158 550.544 635.013 556.482 635.013C562.597 635.013 566.139 631.947 566.139 627.471C566.139 623.03 562.473 621.022 558.667 620.141L556.271 619.506C554.157 619.013 551.883 618.132 551.901 615.982C551.919 614.062 553.646 612.652 556.553 612.67C559.302 612.652 561.152 613.921 561.381 616.123Z" fill="url(#paint5_linear_2173_107080)"/>
<path d="M568.817 612.951H576.711V634.625H581.292V612.951H589.151V609.11H568.817V612.951Z" fill="url(#paint6_linear_2173_107080)"/>
<path d="M592.746 609.11V634.625H597.186V617.004H597.397L604.481 634.554H607.758L614.842 617.075H615.089V634.625H619.494V609.11H613.855L606.278 627.647H605.961L598.384 609.11H592.746Z" fill="url(#paint7_linear_2173_107080)"/>
<path d="M624.216 634.625H640.885V630.748H628.797V623.771H639.934V619.929H628.797V612.951H640.815V609.11H624.216V634.625Z" fill="url(#paint8_linear_2173_107080)"/>
<path d="M666.188 609.11H661.642V626.555H661.396L649.378 609.11H645.22V634.625H649.801V617.18H650.013L662.1 634.625H666.188V609.11Z" fill="url(#paint9_linear_2173_107080)"/>
<path d="M669.783 612.951H677.677V634.625H682.258V612.951H690.117V609.11H669.783V612.951Z" fill="url(#paint10_linear_2173_107080)"/>
<path d="M235.732 777.264H243.626V798.937H248.208V777.264H256.067V773.422H235.732V777.264Z" fill="#A484FF"/>
<path d="M259.661 798.937H276.33V795.061H264.243V788.083H275.379V784.242H264.243V777.264H276.26V773.422H259.661V798.937Z" fill="#A484FF"/>
<path d="M283.907 798.937L286.022 792.629H295.625L297.757 798.937H302.656L293.634 773.422H287.995L279.009 798.937H283.907ZM287.255 788.929L290.709 778.638H290.92L294.391 788.929H287.255Z" fill="#A484FF"/>
<path d="M305.686 773.422V798.937H310.127V781.317H310.338L317.422 798.867H320.699L327.783 781.387H328.029V798.937H332.434V773.422H326.796L319.219 791.959H318.902L311.325 773.422H305.686Z" fill="#A484FF"/>
<path d="M231.013 845.872H233.55V838.458H237.976C242.727 838.458 244.912 835.568 244.912 831.945C244.912 828.308 242.727 825.461 237.948 825.461H231.013V845.872ZM233.55 836.202V827.716H237.835C241.12 827.716 242.389 829.506 242.403 831.945C242.389 834.37 241.12 836.202 237.864 836.202H233.55Z" fill="#A484FF"/>
<path d="M248.154 845.872H250.579V836.23C250.579 834.172 252.214 832.65 254.413 832.65C255.047 832.65 255.696 832.777 255.879 832.819V830.366C255.597 830.338 254.977 830.324 254.61 830.31C252.806 830.324 251.213 831.353 250.663 832.904H250.494V830.564H248.154V845.872Z" fill="#A484FF"/>
<path d="M263.998 846.183C268.157 846.197 270.948 843.039 270.934 838.289C270.948 833.51 268.157 830.366 263.998 830.366C259.826 830.366 257.007 833.51 257.007 838.289C257.007 843.039 259.826 846.197 263.998 846.183ZM259.431 838.289C259.445 835.244 260.883 832.509 263.998 832.509C267.086 832.509 268.509 835.244 268.509 838.289C268.509 841.347 267.086 844.04 263.998 844.04C260.883 844.04 259.445 841.347 259.431 838.289Z" fill="#A484FF"/>
<path d="M274.12 851.624H276.544V843.532H276.742C277.263 844.378 278.278 846.197 281.196 846.183C285.016 846.197 287.681 843.124 287.681 838.26C287.681 833.411 285.016 830.366 281.168 830.366C278.194 830.366 277.263 832.171 276.742 832.988H276.46V830.564H274.12V851.624ZM276.488 838.204C276.502 834.807 277.996 832.537 280.858 832.537C283.804 832.537 285.256 835.004 285.256 838.204C285.256 841.46 283.762 844.012 280.858 844.012C278.039 844.012 276.502 841.644 276.488 838.204Z" fill="#A484FF"/>
<path d="M297.097 846.183C301.255 846.197 304.047 843.039 304.033 838.289C304.047 833.51 301.255 830.366 297.097 830.366C292.924 830.366 290.105 833.51 290.105 838.289C290.105 843.039 292.924 846.197 297.097 846.183ZM292.53 838.289C292.544 835.244 293.982 832.509 297.097 832.509C300.184 832.509 301.608 835.244 301.608 838.289C301.608 841.347 300.184 844.04 297.097 844.04C293.982 844.04 292.544 841.347 292.53 838.289Z" fill="#A484FF"/>
<path d="M315.733 834.539H318.101C317.791 832.058 315.803 830.366 312.631 830.366C309.262 830.366 306.965 832.255 306.965 834.877C306.965 836.921 308.388 838.373 311.053 838.993L313.364 839.529C315.098 839.938 315.874 840.643 315.874 841.728C315.874 843.166 314.506 844.082 312.321 844.068C310.39 844.082 309.305 843.363 309.023 841.869H306.485C306.894 844.66 308.938 846.197 312.378 846.183C316.212 846.197 318.369 844.237 318.383 841.587C318.369 839.459 317.029 838.091 314.295 837.443L312.011 836.879C310.221 836.442 309.403 835.751 309.389 834.736C309.403 833.453 310.742 832.438 312.631 832.424C314.422 832.438 315.394 833.27 315.733 834.539Z" fill="#A484FF"/>
<path d="M320.807 841.531C320.807 844.519 323.119 846.225 326.023 846.239C328.687 846.225 330.083 844.815 330.59 843.786H330.703V845.872H333.099V835.779C333.114 830.958 329.35 830.366 327.348 830.366C323.965 830.366 321.569 832.072 321.258 834.539H323.796C324.134 833.369 325.304 832.481 327.235 832.481C329.547 832.481 330.703 833.609 330.703 835.554V836.794C330.012 836.808 327.545 836.949 326.559 837.02C323.909 837.217 320.807 838.021 320.807 841.531ZM323.232 841.644C323.246 839.966 324.642 839.191 326.841 839.05C327.574 839.007 329.984 838.824 330.703 838.782V840.318C330.703 842.25 329.181 844.082 326.446 844.068C324.585 844.082 323.246 843.265 323.232 841.644Z" fill="#A484FF"/>
<path d="M339.415 825.461H336.99V845.872H339.415V825.461Z" fill="#A484FF"/>
<path d="M788.142 782.021H792.759C791.966 776.348 787.614 773.07 781.975 773.07C775.297 773.07 770.293 777.933 770.31 786.18C770.293 794.409 775.244 799.29 781.975 799.29C788.019 799.29 792.054 795.378 792.759 790.479H788.142C787.525 793.475 785.076 795.166 782.045 795.166C777.887 795.166 774.909 792.048 774.927 786.18C774.909 780.4 777.869 777.193 782.045 777.193C785.147 777.193 787.596 778.955 788.142 782.021Z" fill="#A484FF"/>
<path d="M819.472 786.18C819.489 777.933 814.45 773.07 807.772 773.07C801.058 773.07 796.054 777.933 796.071 786.18C796.054 794.409 801.058 799.29 807.772 799.29C814.45 799.29 819.489 794.426 819.472 786.18ZM800.688 786.18C800.67 780.347 803.613 777.193 807.772 777.193C811.948 777.193 814.873 780.347 814.855 786.18C814.873 792.012 811.948 795.166 807.772 795.166C803.613 795.166 800.67 792.012 800.688 786.18Z" fill="#A484FF"/>
<path d="M823.56 773.422V798.937H828V781.317H828.211L835.295 798.867H838.572L845.656 781.387H845.903V798.937H850.308V773.422H844.669L837.092 791.959H836.775L829.198 773.422H823.56Z" fill="#A484FF"/>
<path d="M855.03 773.422V798.937H859.47V781.317H859.682L866.765 798.867H870.043L877.126 781.387H877.373V798.937H881.778V773.422H876.14L868.563 791.959H868.245L860.669 773.422H855.03Z" fill="#A484FF"/>
<path d="M891.082 773.422H886.5V798.937H891.082V773.422Z" fill="#A484FF"/>
<path d="M894.712 777.264H902.606V798.937H907.187V777.264H915.046V773.422H894.712V777.264Z" fill="#A484FF"/>
<path d="M917.513 777.264H925.407V798.937H929.988V777.264H937.847V773.422H917.513V777.264Z" fill="#A484FF"/>
<path d="M941.442 798.937H958.111V795.061H946.023V788.083H957.159V784.242H946.023V777.264H958.04V773.422H941.442V798.937Z" fill="#A484FF"/>
<path d="M962.445 798.937H979.114V795.061H967.027V788.083H978.163V784.242H967.027V777.264H979.044V773.422H962.445V798.937Z" fill="#A484FF"/>
<path d="M830.926 845.872H833.463V837.95H837.889C838.059 837.95 838.228 837.95 838.383 837.936L842.654 845.872H845.614L841.019 837.471C843.613 836.569 844.825 834.454 844.825 831.748C844.825 828.111 842.64 825.461 837.861 825.461H830.926V845.872ZM833.463 835.638V827.716H837.748C841.033 827.716 842.302 829.309 842.316 831.748C842.302 834.172 841.033 835.638 837.777 835.638H833.463Z" fill="#A484FF"/>
<path d="M854.439 846.183C857.596 846.197 859.866 844.618 860.585 842.292H857.991C857.427 843.236 856.271 844.04 854.439 844.04C851.718 844.04 849.829 842.264 849.702 839.022H860.81V838.007C860.824 832.34 857.427 830.366 854.213 830.366C850.055 830.366 847.278 833.637 847.278 838.345C847.278 843.039 850.012 846.197 854.439 846.183ZM849.716 836.963C849.885 834.595 851.563 832.509 854.213 832.509C856.736 832.509 858.343 834.412 858.357 836.963H849.716Z" fill="#A484FF"/>
<path d="M876.091 830.564H873.441L869.268 842.715H869.099L864.926 830.564H862.276L867.915 845.872H870.424L876.091 830.564Z" fill="#A484FF"/>
<path d="M878.769 845.872H881.194V830.564H878.769V845.872ZM878.29 826.419C878.276 827.307 879.051 828.026 879.981 828.026C880.912 828.026 881.687 827.307 881.701 826.419C881.687 825.517 880.912 824.798 879.981 824.812C879.051 824.798 878.276 825.517 878.29 826.419Z" fill="#A484FF"/>
<path d="M891.484 846.183C894.642 846.197 896.911 844.618 897.63 842.292H895.037C894.473 843.236 893.317 844.04 891.484 844.04C888.764 844.04 886.875 842.264 886.748 839.022H897.856V838.007C897.87 832.34 894.473 830.366 891.259 830.366C887.1 830.366 884.323 833.637 884.323 838.345C884.323 843.039 887.058 846.197 891.484 846.183ZM886.762 836.963C886.931 834.595 888.609 832.509 891.259 832.509C893.782 832.509 895.389 834.412 895.403 836.963H886.762Z" fill="#A484FF"/>
<path d="M904.453 845.872H906.878L910.176 834.201H910.402L913.728 845.872H916.125L920.777 830.564H918.239L914.969 842.179H914.8L911.614 830.564H909.02L905.778 842.236H905.637L902.367 830.564H899.801L904.453 845.872Z" fill="#A484FF"/>
<path d="M484.67 250.107H489.286C488.494 244.434 484.141 241.156 478.503 241.156C471.824 241.156 466.82 246.019 466.838 254.266C466.82 262.495 471.772 267.376 478.503 267.376C484.547 267.376 488.582 263.464 489.286 258.565H484.67C484.053 261.561 481.604 263.252 478.573 263.252C474.415 263.252 471.437 260.134 471.454 254.266C471.437 248.486 474.397 245.279 478.573 245.279C481.674 245.279 484.124 247.041 484.67 250.107Z" fill="#A484FF"/>
<path d="M515.999 254.266C516.017 246.019 510.977 241.156 504.299 241.156C497.586 241.156 492.582 246.019 492.599 254.266C492.582 262.495 497.586 267.376 504.299 267.376C510.977 267.376 516.017 262.512 515.999 254.266ZM497.216 254.266C497.198 248.433 500.141 245.279 504.299 245.279C508.475 245.279 511.4 248.433 511.383 254.266C511.4 260.098 508.475 263.252 504.299 263.252C500.141 263.252 497.198 260.098 497.216 254.266Z" fill="#A484FF"/>
<path d="M520.087 241.508V267.023H524.528V249.403H524.739L531.823 266.953H535.1L542.184 249.473H542.43V267.023H546.835V241.508H541.197L533.62 260.045H533.303L525.726 241.508H520.087Z" fill="#A484FF"/>
<path d="M551.558 241.508V267.023H555.998V249.403H556.21L563.293 266.953H566.57L573.654 249.473H573.901V267.023H578.306V241.508H572.667L565.09 260.045H564.773L557.196 241.508H551.558Z" fill="#A484FF"/>
<path d="M599.133 241.508V257.79C599.133 261.015 596.913 263.305 593.389 263.323C589.865 263.305 587.627 261.015 587.609 257.79V241.508H583.028V258.178C583.046 263.658 587.134 267.411 593.389 267.411C599.609 267.411 603.732 263.658 603.75 258.178V241.508H599.133Z" fill="#A484FF"/>
<path d="M629.441 241.508H624.895V258.953H624.648L612.631 241.508H608.472V267.023H613.054V249.579H613.265L625.353 267.023H629.441V241.508Z" fill="#A484FF"/>
<path d="M638.744 241.508H634.163V267.023H638.744V241.508Z" fill="#A484FF"/>
<path d="M642.374 245.35H650.268V267.023H654.85V245.35H662.709V241.508H642.374V245.35Z" fill="#A484FF"/>
<path d="M664.541 241.508L673.845 257.473V267.023H678.426V257.473L687.695 241.508H682.514L676.241 252.786H675.994L669.722 241.508H664.541Z" fill="#A484FF"/>
<path d="M514.515 299.745H517.169C516.398 295.749 513.03 293.009 508.664 293.009C503.355 293.009 499.602 297.091 499.616 303.627C499.602 310.162 503.312 314.244 508.835 314.244C513.758 314.244 517.283 310.947 517.283 305.824V303.598H509.377V305.853H514.771C514.729 309.52 512.317 311.832 508.835 311.846C505.01 311.832 502.114 308.95 502.099 303.627C502.114 298.289 505.01 295.407 508.664 295.407C511.618 295.407 513.63 297.091 514.515 299.745Z" fill="#A484FF"/>
<path d="M527.158 314.272C531.368 314.287 534.193 311.09 534.179 306.281C534.193 301.443 531.368 298.261 527.158 298.261C522.934 298.261 520.08 301.443 520.08 306.281C520.08 311.09 522.934 314.287 527.158 314.272ZM522.535 306.281C522.549 303.199 524.004 300.43 527.158 300.43C530.283 300.43 531.725 303.199 531.725 306.281C531.725 309.378 530.283 312.103 527.158 312.103C524.004 312.103 522.549 309.378 522.535 306.281Z" fill="#A484FF"/>
<path d="M549.591 298.461H546.908L542.684 310.762H542.513L538.289 298.461H535.606L541.314 313.958H543.855L549.591 298.461Z" fill="#A484FF"/>
<path d="M558.239 314.272C561.436 314.287 563.733 312.688 564.461 310.334H561.835C561.264 311.29 560.094 312.103 558.239 312.103C555.485 312.103 553.573 310.305 553.444 307.023H564.689V305.996C564.704 300.259 561.264 298.261 558.011 298.261C553.801 298.261 550.99 301.572 550.99 306.338C550.99 311.09 553.758 314.287 558.239 314.272ZM553.459 304.94C553.63 302.542 555.328 300.43 558.011 300.43C560.565 300.43 562.192 302.357 562.206 304.94H553.459Z" fill="#A484FF"/>
<path d="M567.886 313.958H570.34V304.197C570.34 302.114 571.996 300.573 574.222 300.573C574.864 300.573 575.521 300.701 575.706 300.744V298.261C575.421 298.232 574.793 298.218 574.422 298.204C572.595 298.218 570.983 299.26 570.426 300.83H570.255V298.461H567.886V313.958Z" fill="#A484FF"/>
<path d="M580.558 304.654C580.558 301.971 582.213 300.459 584.468 300.459C586.666 300.459 587.979 301.886 587.979 304.283V313.958H590.433V304.112C590.447 300.173 588.35 298.261 585.21 298.261C582.856 298.261 581.4 299.303 580.672 300.887H580.472V298.461H578.104V313.958H580.558V304.654Z" fill="#A484FF"/>
<path d="M593.63 309.563C593.63 312.588 595.97 314.315 598.91 314.329C601.607 314.315 603.02 312.888 603.533 311.846H603.648V313.958H606.074V303.741C606.088 298.86 602.278 298.261 600.251 298.261C596.826 298.261 594.4 299.988 594.086 302.485H596.655C596.998 301.301 598.182 300.402 600.137 300.402C602.477 300.402 603.648 301.543 603.648 303.512V304.768C602.948 304.783 600.451 304.925 599.452 304.997C596.769 305.196 593.63 306.01 593.63 309.563ZM596.084 309.677C596.099 307.979 597.511 307.194 599.737 307.052C600.48 307.009 602.92 306.823 603.648 306.78V308.336C603.648 310.291 602.106 312.146 599.338 312.132C597.454 312.146 596.099 311.318 596.084 309.677Z" fill="#A484FF"/>
<path d="M612.467 304.654C612.467 301.971 614.122 300.459 616.377 300.459C618.574 300.459 619.887 301.886 619.887 304.283V313.958H622.342V304.112C622.356 300.173 620.258 298.261 617.119 298.261C614.764 298.261 613.309 299.303 612.581 300.887H612.381V298.461H610.012V313.958H612.467V304.654Z" fill="#A484FF"/>
<path d="M632.616 314.272C636.056 314.287 638.339 312.16 638.724 309.392H636.27C635.842 311.09 634.443 312.075 632.616 312.075C629.805 312.075 628.007 309.777 627.993 306.195C628.007 302.713 629.848 300.43 632.616 300.43C634.686 300.43 635.913 301.729 636.27 303.141H638.724C638.339 300.216 635.856 298.261 632.559 298.261C628.35 298.261 625.538 301.572 625.538 306.281C625.538 310.933 628.221 314.287 632.616 314.272Z" fill="#A484FF"/>
<path d="M648.257 314.272C651.453 314.287 653.751 312.688 654.479 310.334H651.853C651.282 311.29 650.112 312.103 648.257 312.103C645.503 312.103 643.59 310.305 643.462 307.023H654.707V305.996C654.721 300.259 651.282 298.261 648.029 298.261C643.819 298.261 641.007 301.572 641.007 306.338C641.007 311.09 643.776 314.287 648.257 314.272ZM643.476 304.94C643.647 302.542 645.346 300.43 648.029 300.43C650.583 300.43 652.21 302.357 652.224 304.94H643.476Z" fill="#A484FF"/>
<defs>
<linearGradient id="paint0_linear_2173_107080" x1="1064.73" y1="971.705" x2="178.906" y2="75.918" gradientUnits="userSpaceOnUse">
<stop stop-color="#5456F8"/>
<stop offset="1" stop-color="#BB4CCE"/>
</linearGradient>
<linearGradient id="paint1_linear_2173_107080" x1="325.846" y1="-527.581" x2="1270.04" y2="-302.583" gradientUnits="userSpaceOnUse">
<stop stop-color="#5456F8"/>
<stop offset="1" stop-color="#BB4CCE"/>
</linearGradient>
<linearGradient id="paint2_linear_2173_107080" x1="325.846" y1="-527.581" x2="1270.04" y2="-302.583" gradientUnits="userSpaceOnUse">
<stop stop-color="#5456F8"/>
<stop offset="1" stop-color="#BB4CCE"/>
</linearGradient>
<linearGradient id="paint3_linear_2173_107080" x1="325.846" y1="-527.581" x2="1270.04" y2="-302.583" gradientUnits="userSpaceOnUse">
<stop stop-color="#5456F8"/>
<stop offset="1" stop-color="#BB4CCE"/>
</linearGradient>
<linearGradient id="paint4_linear_2173_107080" x1="325.846" y1="-527.581" x2="1270.04" y2="-302.583" gradientUnits="userSpaceOnUse">
<stop stop-color="#5456F8"/>
<stop offset="1" stop-color="#BB4CCE"/>
</linearGradient>
<linearGradient id="paint5_linear_2173_107080" x1="325.846" y1="-527.581" x2="1270.04" y2="-302.583" gradientUnits="userSpaceOnUse">
<stop stop-color="#5456F8"/>
<stop offset="1" stop-color="#BB4CCE"/>
</linearGradient>
<linearGradient id="paint6_linear_2173_107080" x1="325.846" y1="-527.581" x2="1270.04" y2="-302.583" gradientUnits="userSpaceOnUse">
<stop stop-color="#5456F8"/>
<stop offset="1" stop-color="#BB4CCE"/>
</linearGradient>
<linearGradient id="paint7_linear_2173_107080" x1="325.846" y1="-527.581" x2="1270.04" y2="-302.583" gradientUnits="userSpaceOnUse">
<stop stop-color="#5456F8"/>
<stop offset="1" stop-color="#BB4CCE"/>
</linearGradient>
<linearGradient id="paint8_linear_2173_107080" x1="325.846" y1="-527.581" x2="1270.04" y2="-302.583" gradientUnits="userSpaceOnUse">
<stop stop-color="#5456F8"/>
<stop offset="1" stop-color="#BB4CCE"/>
</linearGradient>
<linearGradient id="paint9_linear_2173_107080" x1="325.846" y1="-527.581" x2="1270.04" y2="-302.583" gradientUnits="userSpaceOnUse">
<stop stop-color="#5456F8"/>
<stop offset="1" stop-color="#BB4CCE"/>
</linearGradient>
<linearGradient id="paint10_linear_2173_107080" x1="325.846" y1="-527.581" x2="1270.04" y2="-302.583" gradientUnits="userSpaceOnUse">
<stop stop-color="#5456F8"/>
<stop offset="1" stop-color="#BB4CCE"/>
</linearGradient>
</defs>
</svg>
