<svg width="200" height="201" viewBox="0 0 200 201" fill="none" xmlns="http://www.w3.org/2000/svg">
<path fill-rule="evenodd" clip-rule="evenodd" d="M33.3204 115.91C33.8737 116.161 34.5254 115.916 34.7761 115.362L57.568 65.0387C57.8186 64.4854 57.5732 63.8337 57.0199 63.5831C56.4666 63.3325 55.8149 63.5779 55.5643 64.1312L32.7723 114.455C32.5217 115.008 32.7671 115.66 33.3204 115.91Z" fill="url(#paint0_linear_863_53142)"/>
<path fill-rule="evenodd" clip-rule="evenodd" d="M101.033 42.0025C101.465 42.4288 101.47 43.1251 101.044 43.5578L52.4296 92.8952C52.0033 93.3278 51.307 93.333 50.8743 92.9066C50.4416 92.4803 50.4365 91.784 50.8628 91.3513L99.4773 42.0139C99.9036 41.5813 100.6 41.5761 101.033 42.0025Z" fill="url(#paint1_linear_863_53142)"/>
<path fill-rule="evenodd" clip-rule="evenodd" d="M98.7112 87.1062C98.8152 87.7047 98.4142 88.2741 97.8158 88.378C97.2173 88.4819 49.537 96.7612 49.537 96.7612C48.9385 96.8651 48.3691 96.4642 48.2652 95.8658C48.1613 95.2673 48.5622 94.6979 49.1606 94.594L97.4394 86.2107C98.0379 86.1068 98.6073 86.5077 98.7112 87.1062Z" fill="url(#paint2_linear_863_53142)"/>
<path fill-rule="evenodd" clip-rule="evenodd" d="M56.7805 63.54C57.3725 63.6764 57.7419 64.2669 57.6055 64.8589L50.3299 96.4379C50.1935 97.0299 49.603 97.3993 49.011 97.2629C48.419 97.1265 48.0496 96.536 48.186 95.944L55.4616 64.365C55.598 63.773 56.1885 63.4036 56.7805 63.54Z" fill="url(#paint3_linear_863_53142)"/>
<path fill-rule="evenodd" clip-rule="evenodd" d="M101.16 42.2661C101.431 42.8098 101.21 43.4701 100.666 43.741L57.0564 65.4704C56.5127 65.7413 55.8524 65.5202 55.5815 64.9765C55.3106 64.4328 55.5317 63.7725 56.0754 63.5016L99.6855 41.7722C100.229 41.5013 100.889 41.7224 101.16 42.2661Z" fill="url(#paint4_linear_863_53142)"/>
<path fill-rule="evenodd" clip-rule="evenodd" d="M51.0765 140.033C51.6836 140.014 52.1604 139.506 52.1415 138.899L50.7885 95.5641C50.7696 94.9569 50.262 94.4801 49.6549 94.4991C49.0478 94.518 48.5709 95.0256 48.5899 95.6327L49.9429 138.968C49.9618 139.575 50.4694 140.052 51.0765 140.033Z" fill="url(#paint5_linear_863_53142)"/>
<path fill-rule="evenodd" clip-rule="evenodd" d="M50.4307 139.579C50.8326 140.034 51.5276 140.078 51.983 139.676L68.3662 125.22C68.8217 124.818 68.8651 124.123 68.4632 123.668C68.0613 123.212 67.3663 123.169 66.9108 123.571L50.5277 138.027C50.0722 138.429 50.0288 139.124 50.4307 139.579Z" fill="url(#paint6_linear_863_53142)"/>
<path fill-rule="evenodd" clip-rule="evenodd" d="M66.6542 125.347C67.1253 125.73 67.818 125.659 68.2015 125.188L98.2688 88.26C98.6524 87.789 98.5814 87.0963 98.1104 86.7127C97.6393 86.3292 96.9466 86.4002 96.5631 86.8712L66.4958 123.799C66.1122 124.27 66.1832 124.963 66.6542 125.347Z" fill="url(#paint7_linear_863_53142)"/>
<path fill-rule="evenodd" clip-rule="evenodd" d="M90.6184 159.161C91.1254 158.827 91.2652 158.145 90.9306 157.638L68.4044 123.5C68.0699 122.993 67.3877 122.854 66.8807 123.188C66.3737 123.523 66.2339 124.205 66.5684 124.712L89.0946 158.849C89.4292 159.356 90.1114 159.496 90.6184 159.161Z" fill="url(#paint8_linear_863_53142)"/>
<path fill-rule="evenodd" clip-rule="evenodd" d="M90.4705 158.519C90.7422 157.975 90.522 157.315 89.9787 157.043L51.7501 137.929C51.2068 137.657 50.5462 137.877 50.2746 138.421C50.0029 138.964 50.2231 139.625 50.7664 139.896L88.995 159.011C89.5382 159.282 90.1989 159.062 90.4705 158.519Z" fill="url(#paint9_linear_863_53142)"/>
<path fill-rule="evenodd" clip-rule="evenodd" d="M66.2648 124.617C66.3682 125.216 66.9372 125.617 67.5358 125.514L117.129 116.947C117.728 116.844 118.129 116.275 118.026 115.676C117.922 115.077 117.353 114.676 116.755 114.779L67.1613 123.346C66.5628 123.45 66.1614 124.019 66.2648 124.617Z" fill="url(#paint10_linear_863_53142)"/>
<path fill-rule="evenodd" clip-rule="evenodd" d="M89.0807 158.509C89.3886 159.032 90.0627 159.207 90.5863 158.899L128.753 136.452C129.276 136.144 129.451 135.47 129.143 134.946C128.835 134.422 128.161 134.248 127.637 134.556L89.4711 157.003C88.9476 157.311 88.7728 157.985 89.0807 158.509Z" fill="url(#paint11_linear_863_53142)"/>
<path fill-rule="evenodd" clip-rule="evenodd" d="M89.5065 158.891C90.0178 159.219 90.6981 159.071 91.026 158.559L117.813 116.793C118.141 116.282 117.992 115.601 117.481 115.273C116.97 114.945 116.289 115.094 115.961 115.605L89.1744 157.372C88.8465 157.883 88.9952 158.563 89.5065 158.891Z" fill="url(#paint12_linear_863_53142)"/>
<path fill-rule="evenodd" clip-rule="evenodd" d="M116.337 116.547C116.705 117.03 117.395 117.124 117.878 116.756L166.63 79.6391C167.113 79.2711 167.206 78.5811 166.838 78.0978C166.471 77.6145 165.78 77.521 165.297 77.8889L116.545 115.006C116.062 115.374 115.969 116.064 116.337 116.547Z" fill="url(#paint13_linear_863_53142)"/>
<path fill-rule="evenodd" clip-rule="evenodd" d="M51.7727 139.688C52.2674 139.335 52.3827 138.649 52.0302 138.154L34.8245 114.009C34.472 113.515 33.7852 113.399 33.2905 113.752C32.7958 114.104 32.6806 114.791 33.0331 115.286L50.2388 139.43C50.5913 139.925 51.2781 140.04 51.7727 139.688Z" fill="url(#paint14_linear_863_53142)"/>
<path fill-rule="evenodd" clip-rule="evenodd" d="M96.6226 87.7201C96.8286 88.2916 97.4588 88.5878 98.0303 88.3818L138.011 73.9683C138.583 73.7623 138.879 73.1321 138.673 72.5606C138.467 71.9892 137.837 71.693 137.265 71.899L97.2843 86.3125C96.7128 86.5185 96.4166 87.1487 96.6226 87.7201Z" fill="url(#paint15_linear_863_53142)"/>
<path fill-rule="evenodd" clip-rule="evenodd" d="M138.76 73.1963C139.137 72.7198 139.056 72.0281 138.58 71.6514L100.943 41.8938C100.466 41.5171 99.7745 41.5979 99.3978 42.0744C99.021 42.5509 99.1019 43.2426 99.5784 43.6193L137.215 73.3769C137.692 73.7536 138.384 73.6727 138.76 73.1963Z" fill="url(#paint16_linear_863_53142)"/>
<path fill-rule="evenodd" clip-rule="evenodd" d="M50.3921 94.7521C50.8593 95.1402 50.9235 95.8336 50.5354 96.3009L34.6205 115.461C34.2324 115.928 33.5389 115.992 33.0717 115.604C32.6044 115.216 32.5403 114.523 32.9284 114.055L48.8433 94.8954C49.2314 94.4282 49.9248 94.364 50.3921 94.7521Z" fill="url(#paint17_linear_863_53142)"/>
<path fill-rule="evenodd" clip-rule="evenodd" d="M49.0708 94.6899C49.5874 94.3702 50.2652 94.5299 50.5848 95.0464L68.4479 123.916C68.7675 124.433 68.6078 125.11 68.0913 125.43C67.5747 125.75 66.8969 125.59 66.5773 125.073L48.7143 96.2038C48.3947 95.6873 48.5543 95.0095 49.0708 94.6899Z" fill="url(#paint18_linear_863_53142)"/>
<path fill-rule="evenodd" clip-rule="evenodd" d="M96.8073 86.2085C97.3085 85.8654 97.993 85.9935 98.3361 86.4948L117.755 114.861C118.098 115.362 117.97 116.047 117.468 116.39C116.967 116.733 116.283 116.605 115.94 116.104L96.521 87.7373C96.1779 87.2361 96.306 86.5516 96.8073 86.2085Z" fill="url(#paint19_linear_863_53142)"/>
<path fill-rule="evenodd" clip-rule="evenodd" d="M137.185 72.4378C137.311 71.8435 137.895 71.4636 138.489 71.5892L166.454 77.5C167.048 77.6256 167.428 78.2092 167.302 78.8035C167.177 79.3978 166.593 79.7778 165.999 79.6521L138.034 73.7413C137.44 73.6157 137.06 73.0321 137.185 72.4378Z" fill="url(#paint20_linear_863_53142)"/>
<path fill-rule="evenodd" clip-rule="evenodd" d="M100.147 42.1732C100.753 42.2077 101.217 42.7273 101.182 43.3338L98.6874 87.1608C98.6529 87.7673 98.1333 88.2309 97.5269 88.1964C96.9204 88.1619 96.4568 87.6423 96.4913 87.0358L98.986 43.2088C99.0205 42.6023 99.5401 42.1387 100.147 42.1732Z" fill="url(#paint21_linear_863_53142)"/>
<path fill-rule="evenodd" clip-rule="evenodd" d="M116.681 114.77C117.213 114.477 117.882 114.67 118.175 115.202L129.087 134.998C129.38 135.53 129.186 136.199 128.654 136.492C128.123 136.785 127.454 136.591 127.16 136.06L116.249 116.264C115.955 115.732 116.149 115.063 116.681 114.77Z" fill="url(#paint22_linear_863_53142)"/>
<path fill-rule="evenodd" clip-rule="evenodd" d="M149.821 132.88C149.896 133.483 149.467 134.032 148.864 134.106L128.264 136.64C127.661 136.714 127.113 136.285 127.038 135.682C126.964 135.08 127.393 134.531 127.996 134.457L148.596 131.923C149.198 131.848 149.747 132.277 149.821 132.88Z" fill="url(#paint23_linear_863_53142)"/>
<path fill-rule="evenodd" clip-rule="evenodd" d="M149.351 131.999C149.902 132.254 150.142 132.908 149.886 133.459L138.967 157.033C138.712 157.584 138.058 157.824 137.507 157.569C136.956 157.313 136.716 156.66 136.971 156.108L147.89 132.535C148.146 131.983 148.799 131.744 149.351 131.999Z" fill="url(#paint24_linear_863_53142)"/>
<path fill-rule="evenodd" clip-rule="evenodd" d="M127.882 134.499C128.436 134.252 129.087 134.501 129.334 135.056L138.76 156.192C139.008 156.747 138.759 157.397 138.204 157.645C137.649 157.892 136.999 157.643 136.751 157.088L127.325 135.952C127.078 135.397 127.327 134.747 127.882 134.499Z" fill="url(#paint25_linear_863_53142)"/>
<path fill-rule="evenodd" clip-rule="evenodd" d="M138.558 71.3269C139.106 71.5904 139.336 72.2477 139.072 72.795L118.136 116.274C117.873 116.821 117.216 117.051 116.668 116.788C116.121 116.524 115.891 115.867 116.155 115.32L137.09 71.8407C137.354 71.2934 138.011 71.0634 138.558 71.3269Z" fill="url(#paint26_linear_863_53142)"/>
<path opacity="0.5" fill-rule="evenodd" clip-rule="evenodd" d="M138.764 156.928C138.779 157.535 138.299 158.04 137.691 158.055L90.1705 159.239C89.5632 159.255 89.0587 158.775 89.0436 158.167C89.0284 157.56 89.5084 157.056 90.1156 157.04L137.637 155.856C138.244 155.841 138.748 156.321 138.764 156.928Z" fill="url(#paint27_linear_863_53142)"/>
<path fill-rule="evenodd" clip-rule="evenodd" d="M166.51 77.0108C167.09 77.1929 167.412 77.8102 167.23 78.3897L150.02 133.174C149.838 133.754 149.221 134.076 148.641 133.894C148.062 133.712 147.739 133.094 147.921 132.515L165.131 77.7305C165.313 77.151 165.931 76.8288 166.51 77.0108Z" fill="url(#paint28_linear_863_53142)"/>
<path d="M50.7822 95.6946C50.7822 96.3016 50.2901 96.7937 49.6831 96.7937C49.0761 96.7937 48.584 96.3016 48.584 95.6946C48.584 95.0875 49.0761 94.5955 49.6831 94.5955C50.2901 94.5955 50.7822 95.0875 50.7822 95.6946Z" fill="white"/>
<path d="M57.7785 64.6584C57.7785 65.2655 57.2865 65.7575 56.6794 65.7575C56.0724 65.7575 55.5803 65.2655 55.5803 64.6584C55.5803 64.0514 56.0724 63.5593 56.6794 63.5593C57.2865 63.5593 57.7785 64.0514 57.7785 64.6584Z" fill="white"/>
<path d="M167.237 78.5246C167.237 79.1317 166.744 79.6238 166.137 79.6238C165.53 79.6238 165.038 79.1317 165.038 78.5246C165.038 77.9176 165.53 77.4255 166.137 77.4255C166.744 77.4255 167.237 77.9176 167.237 78.5246Z" fill="white"/>
<path d="M101.354 42.7563C101.354 43.3634 100.862 43.8554 100.255 43.8554C99.6476 43.8554 99.1555 43.3634 99.1555 42.7563C99.1555 42.1493 99.6476 41.6572 100.255 41.6572C100.862 41.6572 101.354 42.1493 101.354 42.7563Z" fill="white"/>
<path d="M139.046 72.5918C139.046 73.1988 138.554 73.6909 137.947 73.6909C137.34 73.6909 136.847 73.1988 136.847 72.5918C136.847 71.9848 137.34 71.4927 137.947 71.4927C138.554 71.4927 139.046 71.9848 139.046 72.5918Z" fill="white"/>
<path d="M68.6054 124.465C68.6054 125.072 68.1134 125.564 67.5063 125.564C66.8993 125.564 66.4072 125.072 66.4072 124.465C66.4072 123.858 66.8993 123.366 67.5063 123.366C68.1134 123.366 68.6054 123.858 68.6054 124.465Z" fill="white"/>
<path d="M52.3174 138.95C52.3174 139.557 51.8253 140.049 51.2183 140.049C50.6112 140.049 50.1191 139.557 50.1191 138.95C50.1191 138.343 50.6112 137.851 51.2183 137.851C51.8253 137.851 52.3174 138.343 52.3174 138.95Z" fill="white"/>
<path d="M91.1057 158.045C91.1057 158.652 90.6136 159.144 90.0066 159.144C89.3996 159.144 88.9075 158.652 88.9075 158.045C88.9075 157.438 89.3996 156.946 90.0066 156.946C90.6136 156.946 91.1057 157.438 91.1057 158.045Z" fill="white"/>
<path d="M129.27 135.474C129.27 136.081 128.778 136.573 128.171 136.573C127.564 136.573 127.072 136.081 127.072 135.474C127.072 134.867 127.564 134.375 128.171 134.375C128.778 134.375 129.27 134.867 129.27 135.474Z" fill="white"/>
<path d="M139.075 156.837C139.075 157.444 138.583 157.937 137.976 157.937C137.369 157.937 136.877 157.444 136.877 156.837C136.877 156.23 137.369 155.738 137.976 155.738C138.583 155.738 139.075 156.23 139.075 156.837Z" fill="white"/>
<path d="M149.987 132.829C149.987 133.436 149.495 133.928 148.888 133.928C148.281 133.928 147.789 133.436 147.789 132.829C147.789 132.222 148.281 131.73 148.888 131.73C149.495 131.73 149.987 132.222 149.987 132.829Z" fill="white"/>
<path d="M118.245 115.797C118.245 116.404 117.753 116.896 117.146 116.896C116.539 116.896 116.047 116.404 116.047 115.797C116.047 115.19 116.539 114.698 117.146 114.698C117.753 114.698 118.245 115.19 118.245 115.797Z" fill="white"/>
<path d="M35.0039 114.846C35.0039 115.453 34.5118 115.945 33.9048 115.945C33.2978 115.945 32.8057 115.453 32.8057 114.846C32.8057 114.239 33.2978 113.747 33.9048 113.747C34.5118 113.747 35.0039 114.239 35.0039 114.846Z" fill="white"/>
<path d="M98.7287 87.3176C98.7287 87.9246 98.2367 88.4167 97.6296 88.4167C97.0226 88.4167 96.5305 87.9246 96.5305 87.3176C96.5305 86.7106 97.0226 86.2185 97.6296 86.2185C98.2367 86.2185 98.7287 86.7106 98.7287 87.3176Z" fill="white"/>
<defs>
<linearGradient id="paint0_linear_863_53142" x1="33.7743" y1="114.908" x2="56.5665" y2="64.9574" gradientUnits="userSpaceOnUse">
<stop stop-color="#5E5FF5" stop-opacity="0.44"/>
<stop offset="1" stop-color="#8569FE" stop-opacity="0"/>
</linearGradient>
<linearGradient id="paint1_linear_863_53142" x1="51.6462" y1="92.1232" x2="100.261" y2="42.7859" gradientUnits="userSpaceOnUse">
<stop stop-color="#8569FE" stop-opacity="0"/>
<stop offset="1" stop-color="#B250FF"/>
</linearGradient>
<linearGradient id="paint2_linear_863_53142" x1="50.2668" y1="95.5312" x2="96.8972" y2="87.7917" gradientUnits="userSpaceOnUse">
<stop stop-color="#5E5FF5"/>
<stop offset="1" stop-color="#8569FE"/>
</linearGradient>
<linearGradient id="paint3_linear_863_53142" x1="50.3397" y1="95.9999" x2="56.3397" y2="64.4999" gradientUnits="userSpaceOnUse">
<stop stop-color="#5E5FF5"/>
<stop offset="1" stop-color="#8569FE" stop-opacity="0"/>
</linearGradient>
<linearGradient id="paint4_linear_863_53142" x1="56.7246" y1="64.0422" x2="100.292" y2="41.6565" gradientUnits="userSpaceOnUse">
<stop stop-color="#8569FE"/>
<stop offset="1" stop-color="#B250FF" stop-opacity="0"/>
</linearGradient>
<linearGradient id="paint5_linear_863_53142" x1="72.1442" y1="108.43" x2="49.6892" y2="95.9709" gradientUnits="userSpaceOnUse">
<stop stop-color="#5E5FF5" stop-opacity="0"/>
<stop offset="1" stop-color="#5E5FF5"/>
</linearGradient>
<linearGradient id="paint6_linear_863_53142" x1="51.2554" y1="139.333" x2="66.1929" y2="125.745" gradientUnits="userSpaceOnUse">
<stop stop-color="#5E5FF5" stop-opacity="0"/>
<stop offset="1" stop-color="#5E5FF5"/>
</linearGradient>
<linearGradient id="paint7_linear_863_53142" x1="67.3487" y1="124.494" x2="97.4158" y2="87.5656" gradientUnits="userSpaceOnUse">
<stop stop-color="#5E5FF5"/>
<stop offset="1" stop-color="#8569FE" stop-opacity="0"/>
</linearGradient>
<linearGradient id="paint8_linear_863_53142" x1="90.0125" y1="158.243" x2="67.4866" y2="124.106" gradientUnits="userSpaceOnUse">
<stop stop-color="#5E5FF5" stop-opacity="0"/>
<stop offset="1" stop-color="#5E5FF5"/>
</linearGradient>
<linearGradient id="paint9_linear_863_53142" x1="87.216" y1="159.893" x2="64.6901" y2="125.756" gradientUnits="userSpaceOnUse">
<stop stop-color="#5E5FF5" stop-opacity="0"/>
<stop offset="1" stop-color="#5E5FF5"/>
</linearGradient>
<linearGradient id="paint10_linear_863_53142" x1="67.7547" y1="124.071" x2="117.081" y2="114.763" gradientUnits="userSpaceOnUse">
<stop stop-color="#5E5FF5"/>
<stop offset="1" stop-color="#8569FE" stop-opacity="0"/>
</linearGradient>
<linearGradient id="paint11_linear_863_53142" x1="88.9287" y1="157.806" x2="128.149" y2="135.34" gradientUnits="userSpaceOnUse">
<stop stop-color="#5E5FF5" stop-opacity="0.71"/>
<stop offset="1" stop-color="#8569FE" stop-opacity="0"/>
</linearGradient>
<linearGradient id="paint12_linear_863_53142" x1="89.0002" y1="158.216" x2="117.987" y2="115.815" gradientUnits="userSpaceOnUse">
<stop stop-color="#5E5FF5" stop-opacity="0.45"/>
<stop offset="1" stop-color="#8569FE"/>
</linearGradient>
<linearGradient id="paint13_linear_863_53142" x1="116.112" y1="115.829" x2="166.389" y2="77.6641" gradientUnits="userSpaceOnUse">
<stop stop-color="#8569FE" stop-opacity="0"/>
<stop offset="0.515625" stop-color="#8569FE"/>
<stop offset="1" stop-color="#BE69FF" stop-opacity="0"/>
</linearGradient>
<linearGradient id="paint14_linear_863_53142" x1="51.1346" y1="138.792" x2="33.9288" y2="114.648" gradientUnits="userSpaceOnUse">
<stop stop-color="#5E5FF5"/>
<stop offset="1" stop-color="#5E5FF5" stop-opacity="0"/>
<stop offset="1" stop-color="#5E5FF5" stop-opacity="0"/>
</linearGradient>
<linearGradient id="paint15_linear_863_53142" x1="97.6573" y1="87.3471" x2="137.638" y2="72.4595" gradientUnits="userSpaceOnUse">
<stop stop-color="#8569FE"/>
<stop offset="1" stop-color="#BE69FF" stop-opacity="0"/>
</linearGradient>
<linearGradient id="paint16_linear_863_53142" x1="137.898" y1="72.5141" x2="100.261" y2="43.129" gradientUnits="userSpaceOnUse">
<stop stop-color="#8569FE"/>
<stop offset="1" stop-color="#BE69FF" stop-opacity="0"/>
</linearGradient>
<linearGradient id="paint17_linear_863_53142" x1="33.4637" y1="114.923" x2="49.9224" y2="95.5204" gradientUnits="userSpaceOnUse">
<stop stop-color="#5E5FF5" stop-opacity="0"/>
<stop offset="1" stop-color="#5E5FF5"/>
</linearGradient>
<linearGradient id="paint18_linear_863_53142" x1="49.8001" y1="95.777" x2="67.5127" y2="124.495" gradientUnits="userSpaceOnUse">
<stop stop-color="#5E5FF5"/>
<stop offset="1" stop-color="#8569FE" stop-opacity="0"/>
</linearGradient>
<linearGradient id="paint19_linear_863_53142" x1="97.6355" y1="87.3471" x2="117.947" y2="117.485" gradientUnits="userSpaceOnUse">
<stop stop-color="#8569FE"/>
<stop offset="1" stop-color="#8569FE"/>
</linearGradient>
<linearGradient id="paint20_linear_863_53142" x1="138.261" y1="72.6652" x2="166.226" y2="78.576" gradientUnits="userSpaceOnUse">
<stop stop-color="#8569FE" stop-opacity="0"/>
<stop offset="1" stop-color="#BE69FF"/>
</linearGradient>
<linearGradient id="paint21_linear_863_53142" x1="97.7614" y1="87.041" x2="100.307" y2="42.1714" gradientUnits="userSpaceOnUse">
<stop stop-color="#8569FE"/>
<stop offset="1" stop-color="#BE69FF" stop-opacity="0"/>
</linearGradient>
<linearGradient id="paint22_linear_863_53142" x1="117.212" y1="115.733" x2="128.087" y2="135.65" gradientUnits="userSpaceOnUse">
<stop stop-color="#8569FE"/>
<stop offset="1" stop-color="#8569FE" stop-opacity="0"/>
</linearGradient>
<linearGradient id="paint23_linear_863_53142" x1="128.13" y1="135.548" x2="148.828" y2="132.98" gradientUnits="userSpaceOnUse">
<stop stop-color="#8569FE"/>
<stop offset="1" stop-color="#BE69FF" stop-opacity="0"/>
</linearGradient>
<linearGradient id="paint24_linear_863_53142" x1="148.888" y1="132.997" x2="137.969" y2="157.005" gradientUnits="userSpaceOnUse">
<stop stop-color="#8569FE"/>
<stop offset="1" stop-color="#BE69FF" stop-opacity="0"/>
</linearGradient>
<linearGradient id="paint25_linear_863_53142" x1="128.33" y1="135.504" x2="137.756" y2="157.164" gradientUnits="userSpaceOnUse">
<stop offset="0.473958" stop-color="#8569FE" stop-opacity="0.7"/>
<stop offset="1" stop-color="#BE69FF" stop-opacity="0"/>
</linearGradient>
<linearGradient id="paint26_linear_863_53142" x1="117.272" y1="115.492" x2="137.625" y2="72.5991" gradientUnits="userSpaceOnUse">
<stop stop-color="#8569FE"/>
<stop offset="1" stop-color="#BE69FF" stop-opacity="0"/>
</linearGradient>
<linearGradient id="paint27_linear_863_53142" x1="90.1431" y1="158.14" x2="138.187" y2="156.955" gradientUnits="userSpaceOnUse">
<stop stop-color="#5E5FF5"/>
<stop offset="1" stop-color="#8569FE" stop-opacity="0"/>
</linearGradient>
<linearGradient id="paint28_linear_863_53142" x1="149.231" y1="133.945" x2="165.884" y2="78.6548" gradientUnits="userSpaceOnUse">
<stop stop-color="#8569FE"/>
<stop offset="1" stop-color="#B250FF" stop-opacity="0"/>
</linearGradient>
</defs>
</svg>
