<svg width="24" height="24" viewBox="0 0 24 24" fill="none" xmlns="http://www.w3.org/2000/svg">
<path d="M4 12.5H20V11.5H4V12.5ZM12 19.5C7.85786 19.5 4.5 16.1421 4.5 12H3.5C3.5 16.6944 7.30558 20.5 12 20.5V19.5ZM4.5 12C4.5 7.85786 7.85786 4.5 12 4.5V3.5C7.30558 3.5 3.5 7.30558 3.5 12H4.5ZM12 4.5C16.1421 4.5 19.5 7.85786 19.5 12H20.5C20.5 7.30558 16.6944 3.5 12 3.5V4.5ZM19.5 12C19.5 16.1421 16.1421 19.5 12 19.5V20.5C16.6944 20.5 20.5 16.6944 20.5 12H19.5ZM12 19.5C11.6718 19.5 11.3214 19.3524 10.9607 19.0091C10.5974 18.6634 10.2475 18.1395 9.94275 17.4538C9.33383 16.0837 8.94444 14.1559 8.94444 12H7.94444C7.94444 14.2624 8.351 16.3346 9.02894 17.8599C9.36762 18.622 9.78386 19.2696 10.2713 19.7335C10.7614 20.1999 11.3464 20.5 12 20.5V19.5ZM8.94444 12C8.94444 9.84407 9.33383 7.91629 9.94275 6.54621C10.2475 5.86055 10.5974 5.33662 10.9607 4.99088C11.3214 4.64759 11.6718 4.5 12 4.5V3.5C11.3464 3.5 10.7614 3.80013 10.2713 4.26648C9.78386 4.73038 9.36762 5.37803 9.02894 6.14008C8.351 7.66543 7.94444 9.73765 7.94444 12H8.94444ZM12 4.5C12.3282 4.5 12.6786 4.64759 13.0393 4.99088C13.4026 5.33662 13.7525 5.86055 14.0573 6.54621C14.6662 7.91629 15.0556 9.84407 15.0556 12H16.0556C16.0556 9.73765 15.649 7.66543 14.9711 6.14008C14.6324 5.37803 14.2161 4.73038 13.7287 4.26648C13.2386 3.80013 12.6536 3.5 12 3.5V4.5ZM15.0556 12C15.0556 14.1559 14.6662 16.0837 14.0573 17.4538C13.7525 18.1395 13.4026 18.6634 13.0393 19.0091C12.6786 19.3524 12.3282 19.5 12 19.5V20.5C12.6536 20.5 13.2386 20.1999 13.7287 19.7335C14.2161 19.2696 14.6324 18.622 14.9711 17.8599C15.649 16.3346 16.0556 14.2624 16.0556 12H15.0556Z" fill="#464646"/>
</svg>
