<svg width="100" height="100" viewBox="0 0 100 100" fill="none" xmlns="http://www.w3.org/2000/svg">
<path d="M66.0683 33.5312C67.333 33.5312 68.5222 34.0139 69.4168 34.89L74.4974 39.8671C75.1826 40.5384 76.1292 40.9233 77.0941 40.9232C77.9405 40.9232 78.7521 40.628 79.3798 40.092C80.1526 39.4317 80.5958 38.4786 80.5958 37.4769C80.5958 36.5512 80.228 35.6812 79.5602 35.0271L74.555 30.1239C72.2875 27.9027 69.2732 26.6794 66.067 26.6794C62.8621 26.6794 59.8485 27.9017 57.5813 30.1216L23.7853 63.2282C22.2701 64.7124 20.2584 65.5297 18.1201 65.5297H18.1196C16.1313 65.5295 14.2558 64.8009 12.8394 63.4782C11.2874 62.0291 10.4326 60.0762 10.4326 57.9791C10.4326 55.9525 11.2387 54.0468 12.7026 52.6129L14.2166 51.1297L17.0934 53.9477V43.1725H6.09377L9.21494 46.23L7.85136 47.5657C2.00861 53.2892 1.92641 62.5516 7.66843 68.2132C10.472 70.9775 14.2071 72.5 18.1853 72.5C22.1455 72.5 25.8683 70.9897 28.6675 68.2475L62.7198 34.89C63.6141 34.0138 64.8032 33.5312 66.0683 33.5312Z" fill="url(#paint0_linear_755_77169)"/>
<path d="M92.1471 47.5653L89.6315 45.1012L92.754 42.0425H81.7544V52.8177L84.6298 50.0009L87.2958 52.6126C88.7595 54.0468 89.5658 55.9524 89.5658 57.9787C89.5658 60.0759 88.711 62.0289 87.1593 63.478C85.7426 64.8007 83.8674 65.5292 81.8791 65.5293C79.7405 65.5295 77.7283 64.7121 76.2129 63.228L58.1553 45.5384L53.1523 50.4394L71.331 68.247C74.1302 70.9894 77.8529 72.4996 81.8131 72.4996C85.7913 72.4996 89.5265 70.9772 92.33 68.2129C98.072 62.5514 97.9898 53.289 92.1471 47.5653V47.5653Z" fill="#524DFB"/>
<path d="M19.551 41.1396C20.1787 41.6755 20.9903 41.9708 21.8367 41.9708C22.8018 41.9708 23.7482 41.5858 24.4334 40.9145L30.5834 34.89C31.478 34.0138 32.6672 33.5312 33.9319 33.5312C35.1967 33.5312 36.3859 34.0138 37.2804 34.8899L41.8227 39.3395L46.8259 34.4386L42.4186 30.1214C40.1515 27.9019 37.1379 26.6794 33.933 26.6794C30.727 26.6794 27.7124 27.9027 25.445 30.1239L19.3706 36.0745C18.7028 36.7285 18.335 37.5987 18.335 38.5245C18.335 39.5262 18.7782 40.4793 19.551 41.1396H19.551Z" fill="#6E4CE6"/>
<defs>
<linearGradient id="paint0_linear_755_77169" x1="3.41504" y1="49.5897" x2="80.5958" y2="49.5897" gradientUnits="userSpaceOnUse">
<stop stop-color="#734CE2"/>
<stop offset="0.62501" stop-color="#5F4CF0"/>
<stop offset="1" stop-color="#524DFB"/>
</linearGradient>
</defs>
</svg>