<svg width="24" height="24" viewBox="0 0 24 24" fill="none" xmlns="http://www.w3.org/2000/svg">
<circle cx="12" cy="12" r="11.5937" fill="white" stroke="#DEE2E9" stroke-width="0.812565"/>
<path d="M18.424 5.4541L12.9082 9.54621L13.9326 7.13196L18.424 5.4541Z" fill="#E17726" stroke="#E17726" stroke-width="0.712817" stroke-linecap="round" stroke-linejoin="round"/>
<path d="M5.70361 5.4541L11.1692 9.58494L10.195 7.13196L5.70361 5.4541Z" fill="#E27625" stroke="#E27625" stroke-width="0.712817" stroke-linecap="round" stroke-linejoin="round"/>
<path d="M16.4409 14.9399L14.9736 17.1884L18.1134 18.0518L19.0106 14.9896L16.4409 14.9399Z" fill="#E27625" stroke="#E27625" stroke-width="0.712817" stroke-linecap="round" stroke-linejoin="round"/>
<path d="M5.12207 14.9896L6.01391 18.0518L9.15363 17.1884L7.69177 14.9399L5.12207 14.9896Z" fill="#E27625" stroke="#E27625" stroke-width="0.712817" stroke-linecap="round" stroke-linejoin="round"/>
<path d="M8.98187 11.1416L8.10693 12.4654L11.2194 12.604L11.1141 9.25317L8.98187 11.1416Z" fill="#E27625" stroke="#E27625" stroke-width="0.712817" stroke-linecap="round" stroke-linejoin="round"/>
<path d="M15.1457 11.1408L12.9802 9.21362L12.9082 12.6032L16.0206 12.4646L15.1457 11.1408Z" fill="#E27625" stroke="#E27625" stroke-width="0.712817" stroke-linecap="round" stroke-linejoin="round"/>
<path d="M9.15381 17.1889L11.0313 16.2747L9.414 15.0125L9.15381 17.1889Z" fill="#E27625" stroke="#E27625" stroke-width="0.712817" stroke-linecap="round" stroke-linejoin="round"/>
<path d="M13.0962 16.2747L14.9737 17.1889L14.7135 15.0125L13.0962 16.2747Z" fill="#E27625" stroke="#E27625" stroke-width="0.712817" stroke-linecap="round" stroke-linejoin="round"/>
<path d="M14.9737 17.1884L13.0962 16.2742L13.2457 17.4982L13.2293 18.0131L14.9737 17.1884Z" fill="#D5BFB2" stroke="#D5BFB2" stroke-width="0.712817" stroke-linecap="round" stroke-linejoin="round"/>
<path d="M9.15381 17.1884L10.8982 18.0131L10.8873 17.4982L11.0313 16.2742L9.15381 17.1884Z" fill="#D5BFB2" stroke="#D5BFB2" stroke-width="0.712817" stroke-linecap="round" stroke-linejoin="round"/>
<path d="M10.9313 14.203L9.36963 13.7438L10.4715 13.2397L10.9313 14.203Z" fill="#233447" stroke="#233447" stroke-width="0.712817" stroke-linecap="round" stroke-linejoin="round"/>
<path d="M13.1958 14.203L13.6556 13.2397L14.7629 13.7438L13.1958 14.203Z" fill="#233447" stroke="#233447" stroke-width="0.712817" stroke-linecap="round" stroke-linejoin="round"/>
<path d="M9.15375 17.1884L9.42485 14.9399L7.69189 14.9896L9.15375 17.1884Z" fill="#CC6228" stroke="#CC6228" stroke-width="0.712817" stroke-linecap="round" stroke-linejoin="round"/>
<path d="M14.7026 14.9399L14.9737 17.1884L16.441 14.9896L14.7026 14.9399Z" fill="#CC6228" stroke="#CC6228" stroke-width="0.712817" stroke-linecap="round" stroke-linejoin="round"/>
<path d="M16.0206 12.4651L12.9082 12.6036L13.1962 14.2035L13.656 13.2402L14.7633 13.7442L16.0206 12.4651Z" fill="#CC6228" stroke="#CC6228" stroke-width="0.712817" stroke-linecap="round" stroke-linejoin="round"/>
<path d="M9.36969 13.7442L10.4715 13.2402L10.9314 14.2035L11.2194 12.6036L8.10693 12.4651L9.36969 13.7442Z" fill="#CC6228" stroke="#CC6228" stroke-width="0.712817" stroke-linecap="round" stroke-linejoin="round"/>
<path d="M8.10693 12.4651L9.41388 15.0124L9.3697 13.7442L8.10693 12.4651Z" fill="#E27525" stroke="#E27525" stroke-width="0.712817" stroke-linecap="round" stroke-linejoin="round"/>
<path d="M14.763 13.7442L14.7134 15.0124L16.0203 12.4651L14.763 13.7442Z" fill="#E27525" stroke="#E27525" stroke-width="0.712817" stroke-linecap="round" stroke-linejoin="round"/>
<path d="M11.2192 12.6038L10.9312 14.2036L11.2966 16.092L11.3741 13.6058L11.2192 12.6038Z" fill="#E27525" stroke="#E27525" stroke-width="0.712817" stroke-linecap="round" stroke-linejoin="round"/>
<path d="M12.9082 12.6038L12.7588 13.6003L12.8308 16.092L13.1963 14.2036L12.9082 12.6038Z" fill="#E27525" stroke="#E27525" stroke-width="0.712817" stroke-linecap="round" stroke-linejoin="round"/>
<path d="M13.196 14.2037L12.8306 16.0921L13.0962 16.2748L14.7135 15.0126L14.7632 13.7444L13.196 14.2037Z" fill="#F5841F" stroke="#F5841F" stroke-width="0.712817" stroke-linecap="round" stroke-linejoin="round"/>
<path d="M9.36963 13.7444L9.41381 15.0126L11.0311 16.2748L11.2968 16.0921L10.9313 14.2037L9.36963 13.7444Z" fill="#F5841F" stroke="#F5841F" stroke-width="0.712817" stroke-linecap="round" stroke-linejoin="round"/>
<path d="M13.2296 18.0135L13.2459 17.4985L13.1079 17.3769H11.0199L10.8873 17.4985L10.8982 18.0135L9.15381 17.1887L9.7631 17.6867L11.0035 18.5453H13.1243L14.3647 17.6867L14.974 17.1887L13.2296 18.0135Z" fill="#C0AC9D" stroke="#C0AC9D" stroke-width="0.712817" stroke-linecap="round" stroke-linejoin="round"/>
<path d="M13.0964 16.275L12.8307 16.0923H11.2969L11.0312 16.275L10.8872 17.499L11.0198 17.3774H13.1078L13.2458 17.499L13.0964 16.275Z" fill="#161616" stroke="#161616" stroke-width="0.712817" stroke-linecap="round" stroke-linejoin="round"/>
<path d="M18.6562 9.8124L19.1214 7.55307L18.4238 5.4541L13.0962 9.4082L15.1455 11.1412L18.0414 11.9888L18.6785 11.241L18.4014 11.0419L18.8443 10.6371L18.5067 10.3715L18.9496 10.0339L18.6562 9.8124Z" fill="#763E1A" stroke="#763E1A" stroke-width="0.712817" stroke-linecap="round" stroke-linejoin="round"/>
<path d="M5.00586 7.55307L5.4766 9.8124L5.17768 10.0339L5.6206 10.3715L5.28296 10.6371L5.72588 11.0419L5.44878 11.241L6.08589 11.9888L8.98178 11.1412L11.0311 9.4082L5.70351 5.4541L5.00586 7.55307Z" fill="#763E1A" stroke="#763E1A" stroke-width="0.712817" stroke-linecap="round" stroke-linejoin="round"/>
<path d="M18.0413 11.9885L15.1454 11.1409L16.0203 12.4647L14.7134 15.0121L16.4409 14.9897H19.0106L18.0413 11.9885Z" fill="#F5841F" stroke="#F5841F" stroke-width="0.712817" stroke-linecap="round" stroke-linejoin="round"/>
<path d="M8.98181 11.1409L6.08591 11.9885L5.12207 14.9897H7.69177L9.41382 15.0121L8.10687 12.4647L8.98181 11.1409Z" fill="#F5841F" stroke="#F5841F" stroke-width="0.712817" stroke-linecap="round" stroke-linejoin="round"/>
<path d="M12.908 12.6037L13.0962 9.40832L13.9324 7.13208H10.1948L11.031 9.40832L11.2192 12.6037L11.2912 13.6112L11.2967 16.092H12.8305L12.836 13.6112L12.908 12.6037Z" fill="#F5841F" stroke="#F5841F" stroke-width="0.712817" stroke-linecap="round" stroke-linejoin="round"/>
</svg>
