<svg width="200" height="201" viewBox="0 0 200 201" fill="none" xmlns="http://www.w3.org/2000/svg">
<path opacity="0.3" fill-rule="evenodd" clip-rule="evenodd" d="M49.3199 99.8368C49.6079 100.341 49.4328 100.983 48.9288 101.271L28.2434 113.092C27.7394 113.38 27.0973 113.205 26.8093 112.701C26.5213 112.197 26.6964 111.555 27.2004 111.267L47.8858 99.4458C48.3898 99.1578 49.0319 99.3329 49.3199 99.8368Z" fill="url(#paint0_linear_863_53043)"/>
<path fill-rule="evenodd" clip-rule="evenodd" d="M121.957 117.36C122.245 117.864 122.07 118.506 121.566 118.794L100.107 131.056C99.6031 131.344 98.9611 131.169 98.6731 130.665C98.3851 130.161 98.5602 129.519 99.0642 129.231L120.523 116.969C121.027 116.681 121.669 116.856 121.957 117.36Z" fill="url(#paint1_linear_863_53043)"/>
<path fill-rule="evenodd" clip-rule="evenodd" d="M173.496 87.6274C173.784 88.1314 173.609 88.7734 173.105 89.0614L151.646 101.323C151.142 101.611 150.5 101.436 150.212 100.932C149.924 100.428 150.099 99.7863 150.603 99.4983L172.062 87.2363C172.566 86.9483 173.208 87.1234 173.496 87.6274Z" fill="url(#paint2_linear_863_53043)"/>
<path fill-rule="evenodd" clip-rule="evenodd" d="M122.854 58.7624C123.142 59.2664 122.967 59.9084 122.463 60.1964L101.004 72.4584C100.5 72.7464 99.8583 72.5713 99.5703 72.0673C99.2823 71.5634 99.4574 70.9213 99.9614 70.6333L121.42 58.3713C121.924 58.0833 122.566 58.2584 122.854 58.7624Z" fill="url(#paint3_linear_863_53043)"/>
<path fill-rule="evenodd" clip-rule="evenodd" d="M71.0119 87.7219C71.2999 88.2259 71.1248 88.8679 70.6208 89.1559L49.1623 101.418C48.6583 101.706 48.0163 101.531 47.7283 101.027C47.4403 100.523 47.6154 99.8808 48.1194 99.5928L69.5779 87.3308C70.0819 87.0428 70.7239 87.2179 71.0119 87.7219Z" fill="url(#paint4_linear_863_53043)"/>
<path fill-rule="evenodd" clip-rule="evenodd" d="M121.957 141.468C122.245 141.972 122.07 142.614 121.566 142.902L100.107 155.164C99.6031 155.452 98.9611 155.277 98.6731 154.773C98.3851 154.269 98.5602 153.627 99.0642 153.339L120.523 141.077C121.027 140.789 121.669 140.964 121.957 141.468Z" fill="url(#paint5_linear_863_53043)"/>
<path fill-rule="evenodd" clip-rule="evenodd" d="M173.496 111.735C173.784 112.239 173.609 112.881 173.105 113.169L151.646 125.431C151.142 125.719 150.5 125.544 150.212 125.04C149.924 124.536 150.099 123.894 150.603 123.606L172.062 111.344C172.566 111.056 173.208 111.231 173.496 111.735Z" fill="url(#paint6_linear_863_53043)"/>
<path fill-rule="evenodd" clip-rule="evenodd" d="M122.854 82.8701C123.142 83.3741 122.967 84.0161 122.463 84.3041L101.004 96.5661C100.5 96.8541 99.8583 96.679 99.5703 96.175C99.2823 95.671 99.4574 95.029 99.9614 94.741L121.42 82.479C121.924 82.191 122.566 82.3661 122.854 82.8701Z" fill="url(#paint7_linear_863_53043)"/>
<path fill-rule="evenodd" clip-rule="evenodd" d="M71.1447 111.735C71.4327 112.239 71.2576 112.881 70.7536 113.169L49.2951 125.431C48.7911 125.719 48.1491 125.544 47.8611 125.04C47.5731 124.536 47.7482 123.894 48.2522 123.606L69.7107 111.344C70.2147 111.056 70.8567 111.231 71.1447 111.735Z" fill="url(#paint8_linear_863_53043)"/>
<path fill-rule="evenodd" clip-rule="evenodd" d="M100.498 105.004C100.786 105.508 100.611 106.15 100.107 106.438L78.6486 118.7C78.1446 118.988 77.5026 118.813 77.2146 118.309C76.9266 117.805 77.1017 117.163 77.6057 116.875L99.0642 104.613C99.5682 104.325 100.21 104.5 100.498 105.004Z" fill="url(#paint9_linear_863_53043)"/>
<path fill-rule="evenodd" clip-rule="evenodd" d="M152.038 75.271C152.325 75.775 152.15 76.417 151.646 76.705L130.188 88.967C129.684 89.255 129.042 89.0799 128.754 88.5759C128.466 88.0719 128.641 87.4299 129.145 87.1419L150.603 74.8799C151.107 74.5919 151.75 74.767 152.038 75.271Z" fill="url(#paint10_linear_863_53043)"/>
<path fill-rule="evenodd" clip-rule="evenodd" d="M101.395 46.406C101.683 46.91 101.508 47.552 101.004 47.84L79.5458 60.102C79.0418 60.39 78.3998 60.2149 78.1118 59.7109C77.8238 59.2069 77.9989 58.5649 78.5029 58.2769L99.9614 46.0149C100.465 45.7269 101.107 45.902 101.395 46.406Z" fill="url(#paint11_linear_863_53043)"/>
<path fill-rule="evenodd" clip-rule="evenodd" d="M49.6862 75.2707C49.9742 75.7747 49.7991 76.4167 49.2951 76.7047L27.8366 88.9667C27.3326 89.2547 26.6906 89.0796 26.4026 88.5756C26.1146 88.0717 26.2897 87.4296 26.7937 87.1416L48.2522 74.8796C48.7562 74.5916 49.3982 74.7667 49.6862 75.2707Z" fill="url(#paint12_linear_863_53043)"/>
<path fill-rule="evenodd" clip-rule="evenodd" d="M100.498 154.773C100.786 154.269 100.611 153.627 100.107 153.339L78.6486 141.077C78.1446 140.789 77.5026 140.964 77.2146 141.468C76.9266 141.972 77.1017 142.614 77.6057 142.902L99.0642 155.164C99.5682 155.452 100.21 155.277 100.498 154.773Z" fill="url(#paint13_linear_863_53043)"/>
<path fill-rule="evenodd" clip-rule="evenodd" d="M152.038 125.04C152.325 124.536 152.15 123.894 151.646 123.606L130.188 111.344C129.684 111.056 129.042 111.231 128.754 111.735C128.466 112.239 128.641 112.881 129.145 113.169L150.603 125.431C151.107 125.719 151.75 125.544 152.038 125.04Z" fill="url(#paint14_linear_863_53043)"/>
<path fill-rule="evenodd" clip-rule="evenodd" d="M101.395 96.1751C101.683 95.6711 101.508 95.0291 101.004 94.7411L79.5458 82.4791C79.0418 82.1911 78.3998 82.3662 78.1118 82.8702C77.8238 83.3741 77.9989 84.0162 78.5029 84.3042L99.9614 96.5662C100.465 96.8542 101.107 96.6791 101.395 96.1751Z" fill="url(#paint15_linear_863_53043)"/>
<path fill-rule="evenodd" clip-rule="evenodd" d="M49.6862 125.04C49.9742 124.536 49.7991 123.894 49.2951 123.606L27.8366 111.344C27.3326 111.056 26.6906 111.231 26.4026 111.735C26.1146 112.239 26.2897 112.881 26.7937 113.169L48.2522 125.431C48.7562 125.719 49.3982 125.544 49.6862 125.04Z" fill="url(#paint16_linear_863_53043)"/>
<path fill-rule="evenodd" clip-rule="evenodd" d="M100.498 130.665C100.786 130.161 100.611 129.519 100.107 129.231L78.6486 116.969C78.1446 116.681 77.5026 116.856 77.2146 117.36C76.9266 117.864 77.1017 118.506 77.6057 118.794L99.0642 131.056C99.5682 131.344 100.21 131.169 100.498 130.665Z" fill="url(#paint17_linear_863_53043)"/>
<path fill-rule="evenodd" clip-rule="evenodd" d="M152.038 100.932C152.325 100.428 152.15 99.7864 151.646 99.4984L130.188 87.2364C129.684 86.9484 129.042 87.1235 128.754 87.6275C128.466 88.1315 128.641 88.7735 129.145 89.0615L150.603 101.323C151.107 101.611 151.75 101.436 152.038 100.932Z" fill="url(#paint18_linear_863_53043)"/>
<path fill-rule="evenodd" clip-rule="evenodd" d="M101.395 72.0674C101.683 71.5634 101.508 70.9214 101.004 70.6334L79.5458 58.3714C79.0418 58.0834 78.3998 58.2585 78.1118 58.7625C77.8238 59.2665 77.9989 59.9085 78.5029 60.1965L99.9614 72.4585C100.465 72.7465 101.107 72.5714 101.395 72.0674Z" fill="url(#paint19_linear_863_53043)"/>
<path fill-rule="evenodd" clip-rule="evenodd" d="M49.6862 100.932C49.9742 100.428 49.7991 99.7861 49.2951 99.4982L27.8366 87.2361C27.3326 86.9482 26.6906 87.1233 26.4026 87.6272C26.1146 88.1312 26.2897 88.7733 26.7937 89.0612L48.2522 101.323C48.7562 101.611 49.3982 101.436 49.6862 100.932Z" fill="url(#paint20_linear_863_53043)"/>
<path fill-rule="evenodd" clip-rule="evenodd" d="M121.936 118.309C122.224 117.805 122.049 117.163 121.545 116.875L100.087 104.613C99.5826 104.325 98.9406 104.5 98.6526 105.004C98.3646 105.508 98.5397 106.15 99.0437 106.438L120.502 118.7C121.006 118.988 121.648 118.813 121.936 118.309Z" fill="url(#paint21_linear_863_53043)"/>
<path fill-rule="evenodd" clip-rule="evenodd" d="M173.475 88.576C173.763 88.072 173.588 87.4299 173.084 87.142L151.626 74.8799C151.122 74.592 150.48 74.7671 150.192 75.271C149.904 75.775 150.079 76.4171 150.583 76.705L172.041 88.9671C172.545 89.255 173.187 89.0799 173.475 88.576Z" fill="url(#paint22_linear_863_53043)"/>
<path fill-rule="evenodd" clip-rule="evenodd" d="M122.833 59.711C123.121 59.207 122.946 58.565 122.442 58.277L100.984 46.015C100.48 45.727 99.8378 45.9021 99.5498 46.4061C99.2618 46.91 99.4369 47.5521 99.9409 47.8401L121.399 60.1021C121.903 60.3901 122.545 60.215 122.833 59.711Z" fill="url(#paint23_linear_863_53043)"/>
<path fill-rule="evenodd" clip-rule="evenodd" d="M71.1242 88.5757C71.4122 88.0717 71.2371 87.4297 70.7331 87.1417L49.2746 74.8797C48.7706 74.5917 48.1286 74.7668 47.8406 75.2708C47.5526 75.7748 47.7277 76.4168 48.2317 76.7048L69.6902 88.9668C70.1942 89.2548 70.8362 89.0797 71.1242 88.5757Z" fill="url(#paint24_linear_863_53043)"/>
<path fill-rule="evenodd" clip-rule="evenodd" d="M78.1272 116.831C78.7077 116.831 79.1782 117.301 79.1782 117.882V142.007C79.1782 142.588 78.7077 143.058 78.1272 143.058C77.5467 143.058 77.0762 142.588 77.0762 142.007V117.882C77.0762 117.301 77.5467 116.831 78.1272 116.831Z" fill="url(#paint25_linear_863_53043)"/>
<path fill-rule="evenodd" clip-rule="evenodd" d="M129.667 87.0979C130.247 87.0979 130.718 87.5685 130.718 88.1489V112.274C130.718 112.855 130.247 113.325 129.667 113.325C129.086 113.325 128.615 112.855 128.615 112.274V88.1489C128.615 87.5685 129.086 87.0979 129.667 87.0979Z" fill="url(#paint26_linear_863_53043)"/>
<path fill-rule="evenodd" clip-rule="evenodd" d="M79.0244 58.2329C79.6049 58.2329 80.0754 58.7035 80.0754 59.2839V83.4092C80.0754 83.9896 79.6049 84.4602 79.0244 84.4602C78.444 84.4602 77.9734 83.9896 77.9734 83.4092V59.2839C77.9734 58.7035 78.444 58.2329 79.0244 58.2329Z" fill="url(#paint27_linear_863_53043)"/>
<path fill-rule="evenodd" clip-rule="evenodd" d="M27.3152 87.0977C27.8957 87.0977 28.3662 87.5682 28.3662 88.1487V112.274C28.3662 112.854 27.8957 113.325 27.3152 113.325C26.7347 113.325 26.2642 112.854 26.2642 112.274V88.1487C26.2642 87.5682 26.7347 87.0977 27.3152 87.0977Z" fill="url(#paint28_linear_863_53043)"/>
<path fill-rule="evenodd" clip-rule="evenodd" d="M99.5857 128.893C100.166 128.893 100.637 129.364 100.637 129.944V154.07C100.637 154.65 100.166 155.121 99.5857 155.121C99.0052 155.121 98.5347 154.65 98.5347 154.07V129.944C98.5347 129.364 99.0052 128.893 99.5857 128.893Z" fill="url(#paint29_linear_863_53043)"/>
<path fill-rule="evenodd" clip-rule="evenodd" d="M151.125 99.1604C151.705 99.1604 152.176 99.631 152.176 100.211V124.337C152.176 124.917 151.705 125.388 151.125 125.388C150.545 125.388 150.074 124.917 150.074 124.337V100.211C150.074 99.631 150.545 99.1604 151.125 99.1604Z" fill="url(#paint30_linear_863_53043)"/>
<path fill-rule="evenodd" clip-rule="evenodd" d="M100.483 70.2954C101.063 70.2954 101.534 70.766 101.534 71.3464V95.4717C101.534 96.0521 101.063 96.5227 100.483 96.5227C99.9024 96.5227 99.4319 96.0521 99.4319 95.4717V71.3464C99.4319 70.766 99.9024 70.2954 100.483 70.2954Z" fill="url(#paint31_linear_863_53043)"/>
<path fill-rule="evenodd" clip-rule="evenodd" d="M48.7737 99.1604C49.3542 99.1604 49.8247 99.631 49.8247 100.211V124.337C49.8247 124.917 49.3542 125.388 48.7737 125.388C48.1932 125.388 47.7227 124.917 47.7227 124.337V100.211C47.7227 99.631 48.1932 99.1604 48.7737 99.1604Z" fill="url(#paint32_linear_863_53043)"/>
<path fill-rule="evenodd" clip-rule="evenodd" d="M121.024 116.736C121.604 116.736 122.075 117.207 122.075 117.787V141.912C122.075 142.493 121.604 142.963 121.024 142.963C120.443 142.963 119.973 142.493 119.973 141.912V117.787C119.973 117.207 120.443 116.736 121.024 116.736Z" fill="url(#paint33_linear_863_53043)"/>
<path fill-rule="evenodd" clip-rule="evenodd" d="M172.563 87.0034C173.143 87.0034 173.614 87.474 173.614 88.0544V112.18C173.614 112.76 173.143 113.231 172.563 113.231C171.983 113.231 171.512 112.76 171.512 112.18V88.0544C171.512 87.474 171.983 87.0034 172.563 87.0034Z" fill="url(#paint34_linear_863_53043)"/>
<path fill-rule="evenodd" clip-rule="evenodd" d="M121.921 58.1384C122.501 58.1384 122.972 58.609 122.972 59.1895V83.3147C122.972 83.8951 122.501 84.3657 121.921 84.3657C121.34 84.3657 120.87 83.8951 120.87 83.3147V59.1895C120.87 58.609 121.34 58.1384 121.921 58.1384Z" fill="url(#paint35_linear_863_53043)"/>
<path fill-rule="evenodd" clip-rule="evenodd" d="M70.2524 87.3862C70.8329 87.3862 71.3035 87.8568 71.3035 88.4373V112.562C71.3035 113.143 70.8329 113.614 70.2524 113.614C69.672 113.614 69.2014 113.143 69.2014 112.562V88.4373C69.2014 87.8568 69.672 87.3862 70.2524 87.3862Z" fill="url(#paint36_linear_863_53043)"/>
<path opacity="0.3" fill-rule="evenodd" clip-rule="evenodd" d="M173.501 112.786C173.784 112.279 173.603 111.639 173.096 111.356L151.697 99.4165C151.19 99.1337 150.55 99.3153 150.267 99.8222C149.984 100.329 150.166 100.969 150.673 101.252L172.071 113.192C172.578 113.475 173.219 113.293 173.501 112.786Z" fill="url(#paint37_linear_863_53043)"/>
<path opacity="0.3" fill-rule="evenodd" clip-rule="evenodd" d="M101.03 70.7966C101.318 71.3005 101.143 71.9426 100.639 72.2306L79.9531 84.0518C79.4491 84.3398 78.8071 84.1647 78.519 83.6608C78.231 83.1568 78.4061 82.5147 78.9101 82.2267L99.5956 70.4055C100.1 70.1175 100.742 70.2926 101.03 70.7966Z" fill="url(#paint38_linear_863_53043)"/>
<path opacity="0.3" fill-rule="evenodd" clip-rule="evenodd" d="M122.721 83.637C123.009 83.1331 122.834 82.491 122.33 82.203L101.645 70.3818C101.141 70.0938 100.499 70.2689 100.211 70.7728C99.9229 71.2768 100.098 71.9188 100.602 72.2069L121.287 84.0281C121.791 84.3161 122.433 84.141 122.721 83.637Z" fill="url(#paint39_linear_863_53043)"/>
<path d="M49.8247 100.331C49.8247 100.911 49.3542 101.382 48.7737 101.382C48.1932 101.382 47.7227 100.911 47.7227 100.331C47.7227 99.7503 48.1932 99.2798 48.7737 99.2798C49.3542 99.2798 49.8247 99.7503 49.8247 100.331Z" fill="white"/>
<path d="M28.5005 88.2432C28.5005 88.8236 28.0299 89.2942 27.4495 89.2942C26.869 89.2942 26.3984 88.8236 26.3984 88.2432C26.3984 87.6627 26.869 87.1921 27.4495 87.1921C28.0299 87.1921 28.5005 87.6627 28.5005 88.2432Z" fill="white"/>
<path d="M71.1506 88.2432C71.1506 88.8236 70.6801 89.2942 70.0996 89.2942C69.5191 89.2942 69.0486 88.8236 69.0486 88.2432C69.0486 87.6627 69.5191 87.1921 70.0996 87.1921C70.6801 87.1921 71.1506 87.6627 71.1506 88.2432Z" fill="white"/>
<path d="M49.8247 75.7883C49.8247 76.3688 49.3542 76.8394 48.7737 76.8394C48.1932 76.8394 47.7227 76.3688 47.7227 75.7883C47.7227 75.2079 48.1932 74.7373 48.7737 74.7373C49.3542 74.7373 49.8247 75.2079 49.8247 75.7883Z" fill="white"/>
<path d="M49.8247 124.333C49.8247 124.913 49.3542 125.384 48.7737 125.384C48.1932 125.384 47.7227 124.913 47.7227 124.333C47.7227 123.752 48.1932 123.282 48.7737 123.282C49.3542 123.282 49.8247 123.752 49.8247 124.333Z" fill="white"/>
<path d="M28.5005 112.245C28.5005 112.826 28.0299 113.296 27.4495 113.296C26.869 113.296 26.3984 112.826 26.3984 112.245C26.3984 111.665 26.869 111.194 27.4495 111.194C28.0299 111.194 28.5005 111.665 28.5005 112.245Z" fill="white"/>
<path d="M71.1506 112.245C71.1506 112.826 70.6801 113.296 70.0996 113.296C69.5191 113.296 69.0486 112.826 69.0486 112.245C69.0486 111.665 69.5191 111.194 70.0996 111.194C70.6801 111.194 71.1506 111.665 71.1506 112.245Z" fill="white"/>
<path d="M100.616 130.064C100.616 130.644 100.146 131.115 99.5652 131.115C98.9847 131.115 98.5142 130.644 98.5142 130.064C98.5142 129.483 98.9847 129.013 99.5652 129.013C100.146 129.013 100.616 129.483 100.616 130.064Z" fill="white"/>
<path d="M79.2922 117.976C79.2922 118.557 78.8217 119.027 78.2412 119.027C77.6607 119.027 77.1902 118.557 77.1902 117.976C77.1902 117.396 77.6607 116.925 78.2412 116.925C78.8217 116.925 79.2922 117.396 79.2922 117.976Z" fill="white"/>
<path d="M121.942 117.976C121.942 118.557 121.472 119.027 120.891 119.027C120.311 119.027 119.84 118.557 119.84 117.976C119.84 117.396 120.311 116.925 120.891 116.925C121.472 116.925 121.942 117.396 121.942 117.976Z" fill="white"/>
<path d="M100.616 105.521C100.616 106.102 100.146 106.573 99.5652 106.573C98.9847 106.573 98.5142 106.102 98.5142 105.521C98.5142 104.941 98.9847 104.47 99.5652 104.47C100.146 104.47 100.616 104.941 100.616 105.521Z" fill="white"/>
<path d="M100.616 154.066C100.616 154.646 100.146 155.117 99.5652 155.117C98.9847 155.117 98.5142 154.646 98.5142 154.066C98.5142 153.485 98.9847 153.015 99.5652 153.015C100.146 153.015 100.616 153.485 100.616 154.066Z" fill="white"/>
<path d="M79.2922 141.978C79.2922 142.559 78.8217 143.029 78.2412 143.029C77.6607 143.029 77.1902 142.559 77.1902 141.978C77.1902 141.398 77.6607 140.927 78.2412 140.927C78.8217 140.927 79.2922 141.398 79.2922 141.978Z" fill="white"/>
<path d="M121.942 141.978C121.942 142.559 121.472 143.029 120.891 143.029C120.311 143.029 119.84 142.559 119.84 141.978C119.84 141.398 120.311 140.927 120.891 140.927C121.472 140.927 121.942 141.398 121.942 141.978Z" fill="white"/>
<path d="M152.236 100.331C152.236 100.911 151.766 101.382 151.185 101.382C150.605 101.382 150.134 100.911 150.134 100.331C150.134 99.7503 150.605 99.2798 151.185 99.2798C151.766 99.2798 152.236 99.7503 152.236 100.331Z" fill="white"/>
<path d="M130.912 88.2432C130.912 88.8236 130.442 89.2942 129.861 89.2942C129.281 89.2942 128.81 88.8236 128.81 88.2432C128.81 87.6627 129.281 87.1921 129.861 87.1921C130.442 87.1921 130.912 87.6627 130.912 88.2432Z" fill="white"/>
<path d="M173.562 88.2432C173.562 88.8236 173.092 89.2942 172.511 89.2942C171.931 89.2942 171.46 88.8236 171.46 88.2432C171.46 87.6627 171.931 87.1921 172.511 87.1921C173.092 87.1921 173.562 87.6627 173.562 88.2432Z" fill="white"/>
<path d="M152.236 75.7883C152.236 76.3688 151.766 76.8394 151.185 76.8394C150.605 76.8394 150.134 76.3688 150.134 75.7883C150.134 75.2079 150.605 74.7373 151.185 74.7373C151.766 74.7373 152.236 75.2079 152.236 75.7883Z" fill="white"/>
<path d="M152.236 124.333C152.236 124.913 151.766 125.384 151.185 125.384C150.605 125.384 150.134 124.913 150.134 124.333C150.134 123.752 150.605 123.282 151.185 123.282C151.766 123.282 152.236 123.752 152.236 124.333Z" fill="white"/>
<path d="M130.912 112.245C130.912 112.826 130.442 113.296 129.861 113.296C129.281 113.296 128.81 112.826 128.81 112.245C128.81 111.665 129.281 111.194 129.861 111.194C130.442 111.194 130.912 111.665 130.912 112.245Z" fill="white"/>
<path d="M173.562 112.245C173.562 112.826 173.092 113.296 172.511 113.296C171.931 113.296 171.46 112.826 171.46 112.245C171.46 111.665 171.931 111.194 172.511 111.194C173.092 111.194 173.562 111.665 173.562 112.245Z" fill="white"/>
<path d="M101.534 71.2905C101.534 71.871 101.063 72.3416 100.483 72.3416C99.9024 72.3416 99.4319 71.871 99.4319 71.2905C99.4319 70.7101 99.9024 70.2395 100.483 70.2395C101.063 70.2395 101.534 70.7101 101.534 71.2905Z" fill="white"/>
<path d="M80.21 59.2031C80.21 59.7836 79.7394 60.2542 79.1589 60.2542C78.5785 60.2542 78.1079 59.7836 78.1079 59.2031C78.1079 58.6227 78.5785 58.1521 79.1589 58.1521C79.7394 58.1521 80.21 58.6227 80.21 59.2031Z" fill="white"/>
<path d="M122.86 59.2031C122.86 59.7836 122.39 60.2542 121.809 60.2542C121.229 60.2542 120.758 59.7836 120.758 59.2031C120.758 58.6227 121.229 58.1521 121.809 58.1521C122.39 58.1521 122.86 58.6227 122.86 59.2031Z" fill="white"/>
<path d="M101.534 46.7483C101.534 47.3288 101.063 47.7993 100.483 47.7993C99.9024 47.7993 99.4319 47.3288 99.4319 46.7483C99.4319 46.1678 99.9024 45.6973 100.483 45.6973C101.063 45.6973 101.534 46.1678 101.534 46.7483Z" fill="white"/>
<path d="M101.534 95.2927C101.534 95.8732 101.063 96.3438 100.483 96.3438C99.9024 96.3438 99.4319 95.8732 99.4319 95.2927C99.4319 94.7123 99.9024 94.2417 100.483 94.2417C101.063 94.2417 101.534 94.7123 101.534 95.2927Z" fill="white"/>
<path d="M80.21 83.2051C80.21 83.7855 79.7394 84.2561 79.1589 84.2561C78.5785 84.2561 78.1079 83.7855 78.1079 83.2051C78.1079 82.6246 78.5785 82.1541 79.1589 82.1541C79.7394 82.1541 80.21 82.6246 80.21 83.2051Z" fill="white"/>
<path d="M122.86 83.2051C122.86 83.7855 122.39 84.2561 121.809 84.2561C121.229 84.2561 120.758 83.7855 120.758 83.2051C120.758 82.6246 121.229 82.1541 121.809 82.1541C122.39 82.1541 122.86 82.6246 122.86 83.2051Z" fill="white"/>
<defs>
<linearGradient id="paint0_linear_863_53043" x1="27.7219" y1="112.18" x2="48.8292" y2="100.36" gradientUnits="userSpaceOnUse">
<stop stop-color="#5E5FF5"/>
<stop offset="0.473958" stop-color="#8569FE"/>
<stop offset="1" stop-color="#B250FF" stop-opacity="0"/>
</linearGradient>
<linearGradient id="paint1_linear_863_53043" x1="99.5856" y1="130.144" x2="121.044" y2="117.882" gradientUnits="userSpaceOnUse">
<stop stop-color="#8569FE"/>
<stop offset="1" stop-color="#BE69FF"/>
</linearGradient>
<linearGradient id="paint2_linear_863_53043" x1="151.125" y1="100.411" x2="172.583" y2="88.1489" gradientUnits="userSpaceOnUse">
<stop stop-color="#8569FE"/>
<stop offset="1" stop-color="#BE69FF"/>
</linearGradient>
<linearGradient id="paint3_linear_863_53043" x1="100.483" y1="71.5459" x2="121.941" y2="59.2839" gradientUnits="userSpaceOnUse">
<stop stop-color="#8569FE"/>
<stop offset="1" stop-color="#BE69FF"/>
</linearGradient>
<linearGradient id="paint4_linear_863_53043" x1="48.6408" y1="100.505" x2="70.0993" y2="88.2433" gradientUnits="userSpaceOnUse">
<stop stop-color="#8569FE"/>
<stop offset="1" stop-color="#BE69FF"/>
</linearGradient>
<linearGradient id="paint5_linear_863_53043" x1="99.6609" y1="154.286" x2="121.153" y2="142.22" gradientUnits="userSpaceOnUse">
<stop stop-color="#5E5FF5"/>
<stop offset="0.671875" stop-color="#8569FE" stop-opacity="0.54"/>
</linearGradient>
<linearGradient id="paint6_linear_863_53043" x1="151.2" y1="124.553" x2="172.692" y2="112.487" gradientUnits="userSpaceOnUse">
<stop stop-color="#5E5FF5"/>
<stop offset="0.671875" stop-color="#8569FE" stop-opacity="0.54"/>
</linearGradient>
<linearGradient id="paint7_linear_863_53043" x1="100.558" y1="95.6881" x2="122.05" y2="83.6224" gradientUnits="userSpaceOnUse">
<stop stop-color="#5E5FF5"/>
<stop offset="0.671875" stop-color="#8569FE" stop-opacity="0.54"/>
</linearGradient>
<linearGradient id="paint8_linear_863_53043" x1="48.8489" y1="124.553" x2="70.3408" y2="112.487" gradientUnits="userSpaceOnUse">
<stop stop-color="#5E5FF5"/>
<stop offset="0.671875" stop-color="#8569FE" stop-opacity="0.54"/>
</linearGradient>
<linearGradient id="paint9_linear_863_53043" x1="78.4429" y1="118.156" x2="99.9842" y2="105.517" gradientUnits="userSpaceOnUse">
<stop stop-color="#8569FE"/>
<stop offset="1" stop-color="#BE69FF" stop-opacity="0"/>
</linearGradient>
<linearGradient id="paint10_linear_863_53043" x1="129.982" y1="88.423" x2="151.523" y2="75.784" gradientUnits="userSpaceOnUse">
<stop stop-color="#8569FE"/>
<stop offset="1" stop-color="#BE69FF" stop-opacity="0"/>
</linearGradient>
<linearGradient id="paint11_linear_863_53043" x1="79.3401" y1="59.558" x2="100.881" y2="46.919" gradientUnits="userSpaceOnUse">
<stop stop-color="#8569FE"/>
<stop offset="1" stop-color="#BE69FF" stop-opacity="0"/>
</linearGradient>
<linearGradient id="paint12_linear_863_53043" x1="27.6309" y1="88.4227" x2="49.1722" y2="75.7837" gradientUnits="userSpaceOnUse">
<stop stop-color="#8569FE"/>
<stop offset="1" stop-color="#BE69FF" stop-opacity="0"/>
</linearGradient>
<linearGradient id="paint13_linear_863_53043" x1="99.5856" y1="154.252" x2="78.1271" y2="142.345" gradientUnits="userSpaceOnUse">
<stop stop-color="#5E5FF5"/>
<stop offset="1" stop-color="#5E5FF5" stop-opacity="0.56"/>
</linearGradient>
<linearGradient id="paint14_linear_863_53043" x1="151.125" y1="124.519" x2="129.666" y2="112.613" gradientUnits="userSpaceOnUse">
<stop stop-color="#5E5FF5"/>
<stop offset="1" stop-color="#5E5FF5" stop-opacity="0.56"/>
</linearGradient>
<linearGradient id="paint15_linear_863_53043" x1="100.483" y1="95.6536" x2="79.0244" y2="83.7476" gradientUnits="userSpaceOnUse">
<stop stop-color="#5E5FF5"/>
<stop offset="1" stop-color="#5E5FF5" stop-opacity="0.56"/>
</linearGradient>
<linearGradient id="paint16_linear_863_53043" x1="48.7736" y1="124.518" x2="27.3151" y2="112.612" gradientUnits="userSpaceOnUse">
<stop stop-color="#5E5FF5"/>
<stop offset="1" stop-color="#5E5FF5" stop-opacity="0.56"/>
</linearGradient>
<linearGradient id="paint17_linear_863_53043" x1="99.5856" y1="130.144" x2="78.1271" y2="118.238" gradientUnits="userSpaceOnUse">
<stop stop-color="#8569FE"/>
<stop offset="0.9999" stop-color="#8569FE"/>
<stop offset="1" stop-color="#8569FE" stop-opacity="0"/>
</linearGradient>
<linearGradient id="paint18_linear_863_53043" x1="151.125" y1="100.411" x2="129.666" y2="88.5049" gradientUnits="userSpaceOnUse">
<stop stop-color="#8569FE"/>
<stop offset="0.9999" stop-color="#8569FE"/>
<stop offset="1" stop-color="#8569FE" stop-opacity="0"/>
</linearGradient>
<linearGradient id="paint19_linear_863_53043" x1="100.483" y1="71.546" x2="79.0244" y2="59.6399" gradientUnits="userSpaceOnUse">
<stop stop-color="#8569FE"/>
<stop offset="0.9999" stop-color="#8569FE"/>
<stop offset="1" stop-color="#8569FE" stop-opacity="0"/>
</linearGradient>
<linearGradient id="paint20_linear_863_53043" x1="48.7736" y1="100.411" x2="27.3151" y2="88.5047" gradientUnits="userSpaceOnUse">
<stop stop-color="#8569FE"/>
<stop offset="0.9999" stop-color="#8569FE"/>
<stop offset="1" stop-color="#8569FE" stop-opacity="0"/>
</linearGradient>
<linearGradient id="paint21_linear_863_53043" x1="121.024" y1="117.787" x2="99.5651" y2="105.881" gradientUnits="userSpaceOnUse">
<stop stop-color="#BE69FF"/>
<stop offset="1" stop-color="#8569FE" stop-opacity="0"/>
</linearGradient>
<linearGradient id="paint22_linear_863_53043" x1="172.563" y1="88.0545" x2="151.104" y2="76.1485" gradientUnits="userSpaceOnUse">
<stop stop-color="#BE69FF"/>
<stop offset="1" stop-color="#8569FE" stop-opacity="0"/>
</linearGradient>
<linearGradient id="paint23_linear_863_53043" x1="121.921" y1="59.1895" x2="100.462" y2="47.2835" gradientUnits="userSpaceOnUse">
<stop stop-color="#BE69FF"/>
<stop offset="1" stop-color="#8569FE" stop-opacity="0"/>
</linearGradient>
<linearGradient id="paint24_linear_863_53043" x1="70.2116" y1="88.0543" x2="48.7531" y2="76.1482" gradientUnits="userSpaceOnUse">
<stop stop-color="#BE69FF"/>
<stop offset="1" stop-color="#8569FE" stop-opacity="0"/>
</linearGradient>
<linearGradient id="paint25_linear_863_53043" x1="78.1272" y1="141.424" x2="78.1272" y2="117.509" gradientUnits="userSpaceOnUse">
<stop stop-color="#5E5FF5" stop-opacity="0.15"/>
<stop offset="1" stop-color="#8569FE"/>
</linearGradient>
<linearGradient id="paint26_linear_863_53043" x1="129.667" y1="111.691" x2="129.667" y2="87.7759" gradientUnits="userSpaceOnUse">
<stop stop-color="#5E5FF5" stop-opacity="0.15"/>
<stop offset="1" stop-color="#8569FE"/>
</linearGradient>
<linearGradient id="paint27_linear_863_53043" x1="79.0244" y1="82.8259" x2="79.0244" y2="58.9109" gradientUnits="userSpaceOnUse">
<stop stop-color="#5E5FF5" stop-opacity="0.15"/>
<stop offset="1" stop-color="#8569FE"/>
</linearGradient>
<linearGradient id="paint28_linear_863_53043" x1="27.3152" y1="111.691" x2="27.3152" y2="87.7756" gradientUnits="userSpaceOnUse">
<stop stop-color="#5E5FF5" stop-opacity="0.15"/>
<stop offset="1" stop-color="#8569FE"/>
</linearGradient>
<linearGradient id="paint29_linear_863_53043" x1="99.5857" y1="153.868" x2="99.5857" y2="130.463" gradientUnits="userSpaceOnUse">
<stop stop-color="#5E5FF5"/>
<stop offset="1" stop-color="#8569FE" stop-opacity="0.6"/>
</linearGradient>
<linearGradient id="paint30_linear_863_53043" x1="151.125" y1="124.135" x2="151.125" y2="100.73" gradientUnits="userSpaceOnUse">
<stop stop-color="#5E5FF5"/>
<stop offset="1" stop-color="#8569FE" stop-opacity="0.6"/>
</linearGradient>
<linearGradient id="paint31_linear_863_53043" x1="100.483" y1="95.2699" x2="100.483" y2="71.8655" gradientUnits="userSpaceOnUse">
<stop stop-color="#5E5FF5"/>
<stop offset="1" stop-color="#8569FE" stop-opacity="0.6"/>
</linearGradient>
<linearGradient id="paint32_linear_863_53043" x1="48.7737" y1="124.135" x2="48.7737" y2="100.73" gradientUnits="userSpaceOnUse">
<stop stop-color="#5E5FF5"/>
<stop offset="1" stop-color="#8569FE" stop-opacity="0.6"/>
</linearGradient>
<linearGradient id="paint33_linear_863_53043" x1="121.024" y1="142.02" x2="121.024" y2="117.517" gradientUnits="userSpaceOnUse">
<stop stop-color="#5E5FF5" stop-opacity="0"/>
<stop offset="0.473958" stop-color="#8569FE" stop-opacity="0.65"/>
<stop offset="1" stop-color="#BE69FF" stop-opacity="0.45"/>
</linearGradient>
<linearGradient id="paint34_linear_863_53043" x1="172.563" y1="112.288" x2="172.563" y2="87.7842" gradientUnits="userSpaceOnUse">
<stop stop-color="#5E5FF5" stop-opacity="0"/>
<stop offset="0.473958" stop-color="#8569FE" stop-opacity="0.65"/>
<stop offset="1" stop-color="#BE69FF" stop-opacity="0.45"/>
</linearGradient>
<linearGradient id="paint35_linear_863_53043" x1="121.921" y1="83.4228" x2="121.921" y2="58.9192" gradientUnits="userSpaceOnUse">
<stop stop-color="#5E5FF5" stop-opacity="0"/>
<stop offset="0.473958" stop-color="#8569FE" stop-opacity="0.65"/>
<stop offset="1" stop-color="#BE69FF" stop-opacity="0.45"/>
</linearGradient>
<linearGradient id="paint36_linear_863_53043" x1="70.2524" y1="112.671" x2="70.2524" y2="88.167" gradientUnits="userSpaceOnUse">
<stop stop-color="#5E5FF5" stop-opacity="0"/>
<stop offset="0.473958" stop-color="#8569FE" stop-opacity="0.65"/>
<stop offset="1" stop-color="#BE69FF" stop-opacity="0.45"/>
</linearGradient>
<linearGradient id="paint37_linear_863_53043" x1="172.663" y1="112.156" x2="151.185" y2="100.334" gradientUnits="userSpaceOnUse">
<stop stop-color="#5E5FF5"/>
<stop offset="0.473958" stop-color="#8569FE"/>
<stop offset="1" stop-color="#B250FF" stop-opacity="0"/>
</linearGradient>
<linearGradient id="paint38_linear_863_53043" x1="79.4316" y1="83.1392" x2="100.539" y2="71.3195" gradientUnits="userSpaceOnUse">
<stop stop-color="#5E5FF5"/>
<stop offset="0.213542" stop-color="#8569FE"/>
<stop offset="0.677083" stop-color="#B250FF" stop-opacity="0"/>
</linearGradient>
<linearGradient id="paint39_linear_863_53043" x1="122.467" y1="83.484" x2="100.698" y2="71.2959" gradientUnits="userSpaceOnUse">
<stop stop-color="#5E5FF5"/>
<stop offset="0.151042" stop-color="#8569FE"/>
<stop offset="0.677083" stop-color="#B250FF" stop-opacity="0"/>
</linearGradient>
</defs>
</svg>
