<svg width="100" height="100" viewBox="0 0 100 100" fill="none" xmlns="http://www.w3.org/2000/svg">
<path d="M95.864 61.5716H95.837C95.5884 61.5552 95.3565 61.4404 95.1926 61.2525C95.0277 61.0645 94.9449 60.8186 94.9607 60.569C94.9607 60.5615 94.9607 60.5541 94.9607 60.5466C94.957 60.4235 94.9765 60.3009 95.0203 60.1857C95.0631 60.0704 95.1283 59.9649 95.2121 59.8751C95.2969 59.7854 95.3975 59.7131 95.5092 59.6626C95.621 59.612 95.7411 59.5842 95.864 59.5805C96.0428 59.5837 96.217 59.6419 96.3623 59.7472C96.5076 59.8525 96.6175 60 96.6771 60.1697H97.5767C97.505 59.8 97.3038 59.4683 97.0095 59.2345C96.6845 58.9534 96.2654 58.8052 95.837 58.8193C95.3854 58.8206 94.9514 58.999 94.6282 59.3165C94.3051 59.634 94.1179 60.0656 94.1067 60.5195C94.0976 60.7598 94.1393 60.9994 94.2278 61.2227C94.3172 61.446 94.4522 61.648 94.6236 61.8156C94.9504 62.141 95.3928 62.3235 95.8529 62.3234H95.892C96.2803 62.3235 96.6575 62.1928 96.963 61.9523C97.2684 61.7116 97.4845 61.3751 97.5767 60.9964H96.6771C96.6156 61.1635 96.5048 61.3078 96.3595 61.4105C96.2142 61.5132 96.0419 61.5693 95.864 61.5716Z" fill="white"/>
<path d="M99.0531 59.2151C98.8789 58.7991 98.6256 58.4209 98.308 58.1013C97.9905 57.782 97.6133 57.5279 97.1989 57.3531C96.7695 57.1697 96.3086 57.0762 95.842 57.0782C95.3754 57.0768 94.9135 57.1704 94.4842 57.3531C94.0698 57.5284 93.6932 57.7824 93.375 58.1013C93.0574 58.4208 92.8045 58.799 92.63 59.2151C92.4469 59.6466 92.3519 60.1105 92.3506 60.5795C92.352 61.0479 92.447 61.5112 92.63 61.9421C92.8045 62.3582 93.0574 62.7363 93.375 63.0559C93.6935 63.3744 94.07 63.6284 94.4842 63.804C94.9135 63.9883 95.3754 64.0837 95.842 64.0846H95.8485C96.3132 64.0828 96.7723 63.9874 97.1989 63.804C97.6133 63.6293 97.9905 63.3752 98.308 63.0559C98.6256 62.7362 98.8789 62.3581 99.0531 61.9421C99.2347 61.511 99.3278 61.0476 99.3269 60.5795C99.3278 60.1108 99.2347 59.6468 99.0531 59.2151ZM98.3555 61.6466C98.2177 61.9717 98.0193 62.2673 97.7707 62.5172C97.522 62.768 97.2268 62.9677 96.9018 63.1055C96.5656 63.2485 96.2043 63.3217 95.8392 63.3206C95.4741 63.3221 95.1119 63.2489 94.7757 63.1055C94.4516 62.9676 94.1564 62.7679 93.9077 62.5172C93.6584 62.2676 93.4595 61.972 93.3219 61.6466C93.1805 61.3088 93.1076 60.946 93.1077 60.5795C93.1077 60.2124 93.1806 59.849 93.3219 59.5106C93.4591 59.1847 93.6581 58.8887 93.9077 58.639C94.1564 58.3889 94.4516 58.1894 94.7757 58.0517C95.1109 57.9096 95.4704 57.8365 95.8345 57.8366H95.8401C96.2052 57.836 96.5665 57.9092 96.9027 58.0517C97.2277 58.1893 97.522 58.3886 97.7716 58.639C98.0203 58.8894 98.2186 59.1852 98.3565 59.5106C98.498 59.8489 98.5716 60.2124 98.5707 60.5795C98.5707 60.9457 98.498 61.3083 98.3555 61.6456V61.6466Z" fill="white"/>
<path d="M18.0646 38.6255C16.1732 37.5659 13.5171 36.9814 10.1701 36.9814H8.66699V43.0452H11.0073C14.9727 43.0452 17.4099 45.7124 17.4099 50.5342C17.4099 55.4655 14.9364 57.9503 10.971 57.9503H8.66699V64.0141H10.6432C19.0471 64.0141 24.2856 59.4111 24.2856 50.4978C24.2856 44.9811 21.8848 40.8167 18.0646 38.6255Z" fill="white"/>
<path d="M1.00098 64.0326H7.88132V57.9689H7.87667V43.0638H7.88132V37H1.00098V64.0326Z" fill="white"/>
<path d="M38.5085 47.9777L38.2132 47.8486L36.6254 53.3158C38.013 54.0097 39.0905 54.8691 39.0905 56.1644C39.0923 56.5054 39.0266 56.8434 38.8975 57.1588C38.7683 57.4742 38.5781 57.7608 38.338 58.0019C38.0979 58.2431 37.8125 58.4341 37.4984 58.5638C37.1843 58.6935 36.8477 58.7593 36.5081 58.7576C34.7982 58.7576 33.7067 57.2969 33.6704 55.0683H26.8311V55.6537C26.8311 61.4622 30.6875 64.5306 36.5444 64.5306C42.3649 64.5306 45.9299 61.4622 45.9299 56.2382C45.9299 52.6901 44.438 50.5345 38.5085 47.9777Z" fill="white"/>
<path d="M33.6682 52.0691C34.3964 52.3637 35.1722 52.6546 35.9033 52.9763L37.4865 47.5278C35.2234 46.5057 34.104 45.7706 34.104 44.3604C34.104 43.1549 35.1946 42.2422 36.4686 42.2422C37.8143 42.2422 38.6105 42.9361 38.9057 44.8719H45.7088C45.6725 41.2555 44.2895 39.0999 41.4156 37.6027C39.9417 36.8436 38.3065 36.455 36.6502 36.4702C31.7032 36.4702 27.2646 39.8312 27.2646 44.4342C27.2656 47.9412 29.266 50.2792 33.6682 52.0691Z" fill="white"/>
<path d="M62.7339 46.6988C62.7339 48.6721 61.7654 49.8785 60.1002 50.3461L63.4771 54.6078C67.1175 53.5744 69.3191 50.2657 69.3191 46.293C69.3191 42.4587 67.2814 39.279 64.3711 37.9632C62.9528 37.3423 60.8062 36.9775 58.0049 36.9775H56.4375V43.0413H58.4053C60.9878 43.046 62.7339 44.3609 62.7339 46.6988Z" fill="white"/>
<path d="M66.317 59.4615L64.9257 57.7052L62.6254 54.8062H62.631L59.2327 50.5183C58.9341 50.5531 58.6337 50.5702 58.3331 50.5697H55.786V50.551H55.6538V36.9805H48.7734V64.015H55.6538V55.2803H55.8587L62.0797 64.0112H69.9379L66.3189 59.4559L66.317 59.4615Z" fill="white"/>
<path d="M88.7986 36.9814L83.8954 53.8495L83.2938 55.9406H83.2873L80.9404 64.0141H86.8224L95.8438 36.9814H88.7986Z" fill="white"/>
<path d="M77.7985 36.9814H70.7412L79.7272 64.0141H80.1221L82.847 54.6397L77.7985 36.9814Z" fill="white"/>
</svg>
