<svg width="28" height="28" viewBox="0 0 28 28" fill="none" xmlns="http://www.w3.org/2000/svg">
<path d="M3 8C3 7.44772 3.44772 7 4 7H24C24.5523 7 25 7.44772 25 8C25 8.55228 24.5523 9 24 9H4C3.44772 9 3 8.55228 3 8Z" fill="white"/>
<path d="M3 14C3 13.4477 3.44772 13 4 13H24C24.5523 13 25 13.4477 25 14C25 14.5523 24.5523 15 24 15H4C3.44772 15 3 14.5523 3 14Z" fill="white"/>
<path d="M4 19C3.44772 19 3 19.4477 3 20C3 20.5523 3.44772 21 4 21H24C24.5523 21 25 20.5523 25 20C25 19.4477 24.5523 19 24 19H4Z" fill="white"/>
</svg>
