<svg width="89" height="16" viewBox="0 0 89 16" fill="none" xmlns="http://www.w3.org/2000/svg">
<path d="M6.67319 0.307617H9.86117V12.2236C9.86117 12.808 10.0126 13.251 10.3184 13.5497C10.6228 13.8498 11.0515 13.9984 11.6045 13.9984C12.1989 13.9984 12.639 13.8355 12.922 13.5097C13.2049 13.1839 13.3464 12.748 13.3464 12.2036V0.307617H16.5343V12.0979C16.5343 12.6694 16.45 13.1939 16.2786 13.6711C16.1085 14.1484 15.8356 14.5599 15.4598 14.9072C15.084 15.2544 14.5996 15.5231 14.0037 15.7145C13.4092 15.9046 12.6862 16.0003 11.836 16.0003C10.8443 16.0003 10.0612 15.8674 9.48821 15.6016C8.9152 15.3359 8.50653 15.0401 8.26646 14.7128C8.02497 15.0401 7.61772 15.3359 7.04471 15.6016C6.4717 15.8674 5.68721 16.0003 4.69695 16.0003C3.84673 16.0003 3.12368 15.9046 2.52924 15.7145C1.9348 15.5245 1.44895 15.2544 1.07314 14.9072C0.697328 14.5599 0.424397 14.1484 0.254352 13.6711C0.0843077 13.1939 0 12.6694 0 12.0979V0.307617H3.18798V12.2022C3.18798 12.7466 3.32945 13.1824 3.61238 13.5082C3.89531 13.834 4.33543 13.9969 4.92987 13.9969C5.48287 13.9969 5.91013 13.8469 6.21592 13.5482C6.52029 13.2496 6.67319 12.8066 6.67319 12.2222V0.307617Z" fill="white"/>
<path d="M19.5723 0.307617H28.0731V2.30957H22.7602V6.64214H27.7544V8.6441H22.7602V13.6911H28.286V15.6931H19.5737V0.307617H19.5723Z" fill="white"/>
<path d="M37.3607 3.77814C37.3607 3.1937 37.2078 2.75072 36.9034 2.45207C36.5991 2.15342 36.1704 2.00338 35.6174 2.00338C35.0229 2.00338 34.5828 2.16628 34.2999 2.49351C34.0169 2.81931 33.8755 3.25514 33.8755 3.79957V15.6941H30.6875V3.90246C30.6875 3.33088 30.7718 2.80645 30.9419 2.32919C31.1119 1.85192 31.3848 1.44038 31.7606 1.09315C32.1365 0.745911 32.6209 0.477269 33.2167 0.28579C33.8112 0.0957395 34.5342 0 35.3844 0C36.3761 0 37.1592 0.132892 37.7322 0.398677C38.3066 0.664461 38.7125 0.960253 38.954 1.28748C39.1955 0.960253 39.6027 0.664461 40.1757 0.398677C40.7502 0.132892 41.5318 0 42.5235 0C43.3737 0 44.0953 0.0957395 44.6912 0.28579C45.2871 0.477269 45.7715 0.745911 46.1473 1.09315C46.5231 1.44038 46.796 1.85335 46.9661 2.32919C47.1361 2.80645 47.2219 3.33088 47.2219 3.90246V15.6927H44.0339V3.79814C44.0339 3.25371 43.8924 2.81931 43.6095 2.49208C43.3265 2.16628 42.8864 2.00196 42.292 2.00196C41.739 2.00196 41.3103 2.152 41.0059 2.45065C40.7016 2.75072 40.5487 3.19227 40.5487 3.77671V15.6927H37.3607V3.77814Z" fill="white"/>
<path d="M53.4478 15.6931H50.2598V0.307617H53.4478V15.6945V15.6931Z" fill="white"/>
<path d="M55.7415 0.307617H58.9509L61.1829 5.08888L63.3935 0.307617H66.6243L62.7776 7.90962L66.7729 15.6945H63.4578L61.1843 10.606L58.9109 15.6945H55.5957L59.591 7.90962L55.7443 0.307617H55.7415Z" fill="white"/>
<path d="M68.4922 15.6922V12.75H71.553V15.6922H68.4922Z" fill="white"/>
<path d="M82.4107 8.6441H77.4165V15.6931H74.2285V0.307617H82.7293V2.30957H77.4165V6.64214H82.4107V8.6441Z" fill="white"/>
<path d="M85.0254 3.08528V0.163086H88.1705V3.08528H85.0254ZM88.1062 4.94434V15.6929H85.0883V4.94577H88.1062V4.94434Z" fill="white"/>
</svg>
