<svg width="32" height="32" viewBox="0 0 32 32" fill="none" xmlns="http://www.w3.org/2000/svg">
<path d="M11.8 9.69995C15.2794 9.69995 18.1 12.4265 18.1 15.79C18.1 19.1534 15.2794 21.88 11.8 21.88C8.3206 21.88 5.5 19.1534 5.5 15.79C5.5 12.4265 8.3206 9.69995 11.8 9.69995ZM21.25 10.715C22.825 10.715 23.875 12.9871 23.875 15.79C23.875 18.5928 22.825 20.865 21.25 20.865C19.675 20.865 18.625 18.5928 18.625 15.79C18.625 12.9871 19.675 10.715 21.25 10.715ZM25.45 11.2225C25.8499 11.2225 26.1976 12.0618 26.3749 13.5021L26.4229 13.952C26.43 14.0299 26.4366 14.1092 26.4428 14.19L26.4741 14.6913C26.4783 14.7776 26.4821 14.8653 26.4853 14.9542L26.4983 15.5037C26.4994 15.5979 26.5 15.6933 26.5 15.79L26.4983 16.0762L26.4853 16.6257C26.4821 16.7146 26.4783 16.8023 26.4741 16.8886L26.4428 17.3899C26.4366 17.4706 26.43 17.55 26.4229 17.6279L26.3749 18.0778C26.1976 19.5181 25.8499 20.3575 25.45 20.3575C25.0501 20.3575 24.7024 19.5181 24.5251 18.0778L24.4771 17.6279C24.47 17.55 24.4634 17.4706 24.4572 17.3899L24.4259 16.8886C24.4216 16.8023 24.4179 16.7146 24.4147 16.6257L24.4017 16.0762V15.5037L24.4147 14.9542C24.4179 14.8653 24.4216 14.7776 24.4259 14.6913L24.4572 14.19C24.4634 14.1092 24.47 14.0299 24.4771 13.952L24.5251 13.5021C24.7024 12.0618 25.0501 11.2225 25.45 11.2225Z" fill="white"/>
</svg>
