<svg width="72" height="72" viewBox="0 0 72 72" fill="none" xmlns="http://www.w3.org/2000/svg">
<path d="M36 0C16.1208 0 0 16.1208 0 36C0 38.1528 0.2016 40.2552 0.5616 42.3H8.5536C9.576 42.3 10.188 41.9688 10.584 41.328L13.392 36.6768L16.9848 47.8296C17.3376 48.9528 18.1728 49.536 19.296 49.5432C20.448 49.5504 21.3984 48.8448 21.6216 47.6928L24.228 35.4096L27.0648 54.9936C27.2376 56.2824 27.864 56.9304 29.16 56.9304H29.1744C30.4632 56.9304 31.0824 56.232 31.2624 54.9504L37.044 16.8336C37.2096 15.6528 36.3816 14.5584 35.2008 14.3928C34.0272 14.2344 32.9256 15.0552 32.76 16.236L29.196 40.6728L26.7984 24.3648C26.64 23.112 25.6896 22.3344 24.6528 22.3128C23.4792 22.284 22.608 23.0184 22.3632 24.264L18.9216 40.2192L16.1712 31.6584C15.9552 30.7296 15.1272 30.0384 14.22 29.9304C12.9672 29.7792 12.2544 30.4272 11.7288 31.284L7.4736 37.98H4.932C4.8888 37.3248 4.86 36.6624 4.86 36C4.86 18.7992 18.7992 4.86 36 4.86C49.8672 4.86 61.6176 13.932 65.6424 26.46H70.7112C66.528 11.2104 52.5816 0 36 0Z" fill="#1A1A1A"/>
<path d="M71.4384 29.7H63.432C62.4096 29.7 61.7976 30.0312 61.4016 30.672L58.5936 35.3232L55.0008 24.1704C54.648 23.0472 53.8128 22.464 52.6896 22.4568C51.5376 22.4496 50.5872 23.1552 50.364 24.3072L47.7576 36.5904L44.9208 17.0064C44.748 15.7176 44.1216 15.0696 42.8256 15.0696H42.8112C41.5224 15.0696 40.9032 15.768 40.7232 17.0496L34.9416 55.1664C34.776 56.3472 35.604 57.4416 36.7848 57.6072C37.9584 57.7656 39.06 56.9448 39.2256 55.764L42.7896 31.3272L45.1872 47.6352C45.3456 48.888 46.296 49.6656 47.3328 49.6872C48.5064 49.716 49.3776 48.9816 49.6224 47.736L53.064 31.7808L55.8144 40.3416C56.0304 41.2704 56.8584 41.9616 57.7656 42.0696C59.0184 42.2208 59.7312 41.5728 60.2568 40.716L64.512 34.02H67.068C67.1112 34.6752 67.14 35.3376 67.14 36C67.14 53.2008 53.2008 67.14 36 67.14C22.1328 67.14 10.3824 58.068 6.3576 45.54H1.2888C5.472 60.7896 19.4256 72 36 72C55.8792 72 72 55.8792 72 36C72 33.8472 71.7984 31.7448 71.4384 29.7Z" fill="#1A1A1A"/>
</svg>
