<svg width="16" height="16" viewBox="0 0 16 16" fill="none" xmlns="http://www.w3.org/2000/svg">
<path d="M4.5 4C4.22386 4 4 4.22386 4 4.5C4 4.77614 4.22386 5 4.5 5V4ZM7.5 5C7.77614 5 8 4.77614 8 4.5C8 4.22386 7.77614 4 7.5 4V5ZM10.5 8C10.2239 8 10 8.22386 10 8.5C10 8.77614 10.2239 9 10.5 9V8ZM11.5 9C11.7761 9 12 8.77614 12 8.5C12 8.22386 11.7761 8 11.5 8V9ZM10.5 10.5H14V9.5H10.5V10.5ZM14 6.5H10.5V7.5H14V6.5ZM8.5 8.5C8.5 9.60457 9.39543 10.5 10.5 10.5V9.5C9.94772 9.5 9.5 9.05228 9.5 8.5H8.5ZM9.5 8.5C9.5 7.94772 9.94772 7.5 10.5 7.5V6.5C9.39543 6.5 8.5 7.39543 8.5 8.5H9.5ZM4.5 5H7.5V4H4.5V5ZM10.5 9H11.5V8H10.5V9ZM2.5 2.5H13.5V1.5H2.5V2.5ZM13.5 2.5V13.5H14.5V2.5H13.5ZM13.5 13.5H2.5V14.5H13.5V13.5ZM2.5 13.5V2.5H1.5V13.5H2.5ZM2.5 13.5H2.5H1.5C1.5 14.0523 1.94772 14.5 2.5 14.5V13.5ZM13.5 13.5V14.5C14.0523 14.5 14.5 14.0523 14.5 13.5H13.5ZM13.5 2.5H14.5C14.5 1.94772 14.0523 1.5 13.5 1.5V2.5ZM2.5 1.5C1.94771 1.5 1.5 1.94772 1.5 2.5H2.5V2.5V1.5Z" fill="#1A1A1A"/>
</svg>
