<svg width="14" height="14" viewBox="0 0 14 14" fill="none" xmlns="http://www.w3.org/2000/svg">
<path d="M6.99992 10.3335C7.18881 10.3335 7.34725 10.2695 7.47525 10.1415C7.60281 10.0139 7.66658 9.85572 7.66658 9.66683V6.9835C7.66658 6.79461 7.60281 6.63905 7.47525 6.51683C7.34725 6.39461 7.18881 6.3335 6.99992 6.3335C6.81103 6.3335 6.65281 6.39727 6.52525 6.52483C6.39725 6.65283 6.33325 6.81127 6.33325 7.00016V9.6835C6.33325 9.87238 6.39725 10.0279 6.52525 10.1502C6.65281 10.2724 6.81103 10.3335 6.99992 10.3335ZM6.99992 5.00016C7.18881 5.00016 7.34725 4.93616 7.47525 4.80816C7.60281 4.68061 7.66658 4.52238 7.66658 4.3335C7.66658 4.14461 7.60281 3.98616 7.47525 3.85816C7.34725 3.73061 7.18881 3.66683 6.99992 3.66683C6.81103 3.66683 6.65281 3.73061 6.52525 3.85816C6.39725 3.98616 6.33325 4.14461 6.33325 4.3335C6.33325 4.52238 6.39725 4.68061 6.52525 4.80816C6.65281 4.93616 6.81103 5.00016 6.99992 5.00016ZM6.99992 13.6668C6.0777 13.6668 5.21103 13.4917 4.39992 13.1415C3.58881 12.7917 2.88325 12.3168 2.28325 11.7168C1.68325 11.1168 1.20836 10.4113 0.858585 9.60016C0.508363 8.78905 0.333252 7.92238 0.333252 7.00016C0.333252 6.07794 0.508363 5.21127 0.858585 4.40016C1.20836 3.58905 1.68325 2.8835 2.28325 2.2835C2.88325 1.6835 3.58881 1.20838 4.39992 0.858163C5.21103 0.508385 6.0777 0.333496 6.99992 0.333496C7.92214 0.333496 8.78881 0.508385 9.59992 0.858163C10.411 1.20838 11.1166 1.6835 11.7166 2.2835C12.3166 2.8835 12.7915 3.58905 13.1413 4.40016C13.4915 5.21127 13.6666 6.07794 13.6666 7.00016C13.6666 7.92238 13.4915 8.78905 13.1413 9.60016C12.7915 10.4113 12.3166 11.1168 11.7166 11.7168C11.1166 12.3168 10.411 12.7917 9.59992 13.1415C8.78881 13.4917 7.92214 13.6668 6.99992 13.6668Z" fill="#B3B7CF"/>
</svg>
