<svg width="72" height="72" viewBox="0 0 72 72" fill="none" xmlns="http://www.w3.org/2000/svg">
<path d="M26.5683 36.5366C17.6227 36.5366 10.2604 29.2535 10.2604 20.2287C10.3396 11.2831 17.6227 4 26.5683 4C28.6266 4 30.6057 4.39582 32.5057 5.1083C32.7432 5.18747 32.9807 5.26663 33.139 5.3458C33.139 5.3458 32.4265 5.82078 32.0307 6.21661C31.4765 6.77076 31.0015 7.24575 31.0015 7.24575C29.5766 6.77076 28.0725 6.53326 26.5683 6.53326C19.0477 6.53326 12.952 12.6289 12.952 20.1496C12.952 27.6702 19.0477 33.7659 26.5683 33.7659" fill="#F39600"/>
<path d="M26.6476 31.4702C20.4728 31.4702 15.4062 26.4036 15.4062 20.2288C15.4062 14.054 20.4728 8.98743 26.6476 8.98743C27.4393 8.98743 28.1517 9.06659 28.9434 9.22492C29.1017 9.22492 29.3392 9.30408 29.4975 9.38325C29.4975 9.38325 29.0226 10.0166 28.7851 10.4916C28.5476 10.9665 28.1517 11.7582 28.1517 11.7582C27.6768 11.679 27.2018 11.5999 26.7268 11.5999C21.9769 11.5999 18.177 15.4789 18.177 20.1496C18.177 24.8203 22.0561 28.6994 26.7268 28.6994" fill="#F39600"/>
<path d="M26.5684 26.2453C23.2435 26.2453 20.5519 23.5537 20.5519 20.2288C20.5519 16.9039 23.2435 14.2123 26.5684 14.2123H27.2017C27.2017 14.2123 27.0434 15.0831 26.9642 15.4789C26.885 16.0331 26.8059 16.8247 26.8059 16.8247H26.6476C24.8268 16.8247 23.3226 18.3288 23.3226 20.1496C23.3226 21.9704 24.8268 23.4745 26.6476 23.4745" fill="#F39600"/>
<path d="M32.11 44.8489H29.735V20.3079C29.735 11.2831 37.0973 4 46.0429 4C54.9885 4 62.2717 11.2831 62.2717 20.3079C62.2717 29.3327 54.9885 36.6158 45.9638 36.6158V34.0034C53.7219 34.0034 59.6592 27.9077 59.6592 20.3871C59.6592 12.8664 53.4052 6.77076 45.8846 6.77076C38.364 6.77076 32.11 12.8664 32.11 20.3871V44.8489Z" fill="#F39600"/>
<path d="M37.3347 44.849H34.8015V20.2288C34.8015 14.054 39.9471 8.98743 46.122 8.98743C52.2968 8.98743 57.2842 14.054 57.2842 20.2288C57.2842 26.4036 52.2968 31.4702 45.9637 31.4702V28.8577C50.8719 28.8577 54.6718 24.9787 54.6718 20.308C54.6718 15.6372 50.7135 11.7582 45.9637 11.7582C41.2138 11.7582 37.3347 15.6372 37.3347 20.308V44.849Z" fill="#F39600"/>
<path d="M42.7179 44.8488H40.0263V20.3078C40.0263 16.9829 42.7971 14.2913 46.122 14.2913C49.4469 14.2913 52.0593 16.9829 52.0593 20.3078C52.0593 23.6327 49.4469 26.3243 46.0428 26.3243V23.7118C47.9428 23.7118 49.5261 22.2077 49.5261 20.3869C49.5261 18.5661 48.0219 17.062 46.2011 17.062C44.3804 17.062 42.8762 18.5661 42.8762 20.3869V44.8488H42.7179Z" fill="#F39600"/>
<path d="M9.7618 64.1096C9.64305 64.165 9.46889 64.1651 9.35806 64.2284C9.24723 64.2917 9.12848 64.2838 9.00974 64.2838C8.89099 64.2838 8.78016 64.3392 8.606 64.3392H8.08351C7.4502 64.3392 6.92771 64.2205 6.34981 63.9909C5.82732 63.7613 5.36817 63.413 4.96443 63.0092C4.56069 62.6055 4.26778 62.1384 4.0382 61.5605C3.80863 61.038 3.68988 60.4601 3.68988 59.8268C3.68988 59.2489 3.80863 58.671 4.0382 58.0931C4.26778 57.5706 4.56069 57.0561 4.96443 56.6444C5.36817 56.2328 5.83524 55.8924 6.34981 55.6628C6.86438 55.4332 7.4502 55.3145 8.08351 55.3145C8.43184 55.3145 8.78016 55.3699 9.12057 55.4332C9.41348 55.4886 9.69847 55.6074 9.92805 55.7261C10.1576 55.8449 10.3872 55.9557 10.6247 56.1298L9.87263 57.2856C9.75388 57.1669 9.57972 57.1115 9.41348 56.9927C9.29473 56.9373 9.06515 56.874 8.89099 56.8186C8.66141 56.7632 8.43184 56.6998 8.13893 56.6998C7.7906 56.6998 7.38686 56.7552 7.03854 56.9294C6.69022 57.1036 6.40522 57.3332 6.16773 57.5627C5.93815 57.8556 5.70858 58.1406 5.58983 58.5444C5.41567 58.8927 5.36025 59.2964 5.36025 59.7002C5.36025 60.1039 5.41567 60.5076 5.58983 60.9114C5.76399 61.2597 5.93815 61.608 6.16773 61.893C6.39731 62.178 6.69022 62.4155 7.03854 62.5897C7.38686 62.7638 7.73519 62.8193 8.13893 62.8193C8.48725 62.8193 8.77224 62.8193 9.00974 62.7638C9.24723 62.7084 9.53222 62.6451 9.81722 62.5897L9.7618 64.0938V64.1096Z" fill="white"/>
<path d="M16.2374 64.3392C15.6041 64.3392 15.0816 64.2205 14.5591 63.9909C14.0366 63.7613 13.5775 63.413 13.2291 63.0093C12.8254 62.6055 12.5325 62.1385 12.3029 61.6239C12.0733 61.1093 11.9546 60.5235 11.9546 59.8902C11.9546 59.3123 12.0733 58.7344 12.3029 58.1565C12.5325 57.634 12.8254 57.1194 13.2291 56.7078C13.6329 56.2961 14.0999 55.9557 14.5591 55.7261C15.0816 55.4966 15.6595 55.3778 16.2374 55.3778C16.8153 55.3778 17.3932 55.4966 17.9157 55.7261C18.4382 55.9557 18.8973 56.304 19.3011 56.7078C19.7048 57.1115 19.9977 57.5786 20.2273 58.1565C20.4569 58.679 20.5756 59.2569 20.5756 59.8902C20.5756 60.5235 20.4569 61.046 20.2273 61.6239C19.9977 62.1464 19.7048 62.6055 19.3011 63.0093C18.8973 63.413 18.4302 63.7613 17.9157 63.9909C17.4011 64.2205 16.8786 64.3392 16.2374 64.3392ZM16.2374 62.9539C16.6411 62.9539 16.9895 62.8984 17.3378 62.7243C17.6861 62.5501 17.9711 62.3205 18.2086 62.0276C18.4461 61.7347 18.6123 61.4497 18.7865 61.046C18.9052 60.6977 18.9607 60.2939 18.9607 59.8902C18.9607 59.4864 18.9052 59.0827 18.7865 58.7344C18.6677 58.3861 18.4936 58.0377 18.2086 57.7527C17.979 57.4598 17.6861 57.2303 17.3378 57.0561C16.9895 56.8819 16.6411 56.8265 16.2374 56.8265C15.8337 56.8265 15.4853 56.8819 15.137 57.0561C14.7887 57.2303 14.5037 57.4598 14.2662 57.7527C14.0287 58.0457 13.8625 58.3861 13.6883 58.7344C13.5695 59.0827 13.5141 59.4864 13.5141 59.8902C13.5141 60.2939 13.5695 60.6977 13.6883 61.046C13.807 61.3943 13.9812 61.7426 14.2662 62.0276C14.4958 62.3205 14.7887 62.5501 15.137 62.7243C15.4853 62.843 15.8891 62.9539 16.2374 62.9539Z" fill="white"/>
<path d="M24.5577 52.4328C24.5577 52.5515 24.5023 52.6624 24.439 52.7811C24.3836 52.8999 24.2648 53.0107 24.2094 53.1294C24.0906 53.2482 23.9798 53.3036 23.8611 53.359C23.7423 53.4144 23.6315 53.4778 23.5127 53.4778C23.394 53.4778 23.2832 53.4223 23.109 53.359C22.9903 53.3036 22.8794 53.2403 22.7607 53.1294C22.6419 53.0186 22.5865 52.8999 22.5311 52.7811C22.4757 52.6624 22.4124 52.5515 22.4124 52.4328C22.4124 52.314 22.4678 52.2032 22.5311 52.0845C22.5944 51.9657 22.6498 51.8549 22.7607 51.7361C22.8794 51.6174 22.9903 51.562 23.109 51.5066C23.2277 51.4511 23.3386 51.3878 23.4573 51.3878C23.5761 51.3878 23.6869 51.4432 23.8611 51.5066C23.9798 51.562 24.0906 51.6807 24.2094 51.7361C24.3281 51.8549 24.3836 51.9657 24.439 52.0845C24.5577 52.2032 24.5577 52.314 24.5577 52.4328ZM22.7053 64.1096V55.6706H24.3202V64.1096H22.7053Z" fill="white"/>
<path d="M32.9412 64.1097V59.3123C32.9412 58.5603 32.767 57.9824 32.4187 57.5232C32.0704 57.0641 31.5479 56.8899 30.9146 56.8899C30.5663 56.8899 30.2813 56.9453 30.0438 57.0087C29.8142 57.1274 29.5846 57.1828 29.4105 57.3016C29.1809 57.4203 29.0067 57.5945 28.888 57.7053V64.1255H27.273V55.6866H28.7771V56.3832C28.9513 56.2091 29.1255 56.0349 29.355 55.9241C29.5292 55.8053 29.7588 55.6945 30.0517 55.5758C30.3446 55.457 30.6296 55.4016 30.9779 55.4016C31.5558 55.4016 32.015 55.5204 32.482 55.6945C32.9491 55.8687 33.2895 56.0983 33.5824 56.4466C33.8753 56.7395 34.1049 57.1432 34.2791 57.547C34.4532 57.9507 34.5086 58.4178 34.5086 58.8769V64.1414H32.9491L32.9412 64.1097Z" fill="white"/>
<path d="M37.3902 68.5032V55.6706C37.6198 55.6706 37.9127 55.6152 38.1977 55.6152C38.4273 55.6152 38.7202 55.5598 39.0052 55.5598H40.5647C40.8576 55.5598 41.1426 55.6152 41.4909 55.6786C41.8393 55.7419 42.243 55.8527 42.6467 56.0269C43.0505 56.2011 43.3988 56.4306 43.8025 56.7789C44.0321 57.0085 44.2617 57.2381 44.4359 57.531C44.61 57.8239 44.7842 58.0535 44.895 58.3385C45.0059 58.6235 45.0692 58.9164 45.1246 59.146C45.18 59.4389 45.18 59.6685 45.18 59.898C45.18 60.5314 45.0613 61.0538 44.8317 61.6317C44.6021 62.1542 44.3092 62.6134 43.9055 63.0171C43.5017 63.4209 43.0347 63.7138 42.5201 63.9988C41.9976 64.2283 41.483 64.3471 40.9051 64.3471C40.3826 64.3471 39.9789 64.2917 39.6306 64.1729C39.3377 64.0542 39.1081 63.9433 38.9339 63.88V68.5032H37.3744H37.3902ZM39.0052 62.4946C39.0606 62.55 39.2981 62.6134 39.5831 62.7242C39.8681 62.835 40.2797 62.8984 40.8576 62.8984C41.1505 62.8984 41.4355 62.843 41.7839 62.6688C42.1322 62.55 42.4172 62.3205 42.7101 62.0909C43.003 61.8613 43.2326 61.513 43.4067 61.1647C43.5809 60.8163 43.6996 60.3572 43.6996 59.8901C43.6996 59.5972 43.6442 59.3122 43.5809 59.0826C43.5255 58.8531 43.4067 58.6235 43.288 58.4493C43.1692 58.2752 43.0584 58.101 42.9397 57.9902C42.8209 57.8714 42.7655 57.816 42.7101 57.7606C42.4805 57.531 42.1322 57.3014 41.673 57.1273C41.2693 56.9531 40.7468 56.8977 40.0581 56.8977C39.9393 56.8977 39.7097 56.8977 39.4802 56.9531C39.2506 56.9531 39.0764 57.0085 38.9577 57.0085L39.0131 62.5025L39.0052 62.4946Z" fill="white"/>
<path d="M47.5074 64.1097V50.6992H49.1223V64.1097H47.5074Z" fill="white"/>
<path d="M57.688 64.1098V63.4131C57.5139 63.5873 57.3397 63.7615 57.1101 63.8723C56.936 63.991 56.7064 64.1019 56.4135 64.2206C56.1206 64.3394 55.8356 64.3948 55.4872 64.3948C54.3869 64.3948 53.524 64.1019 52.9461 63.4686C52.3127 62.8352 52.0198 62.0198 52.0198 60.9828V55.7183H53.6348V60.5157C53.6348 61.2678 53.809 61.8457 54.1573 62.3048C54.5056 62.764 54.9648 62.9381 55.606 62.9381C55.8989 62.9381 56.1839 62.8827 56.4135 62.8194C56.643 62.7007 56.8726 62.6452 57.0468 62.5265C57.2209 62.4077 57.3951 62.2336 57.5693 62.1228V55.6471H59.1842V64.086H57.6801L57.688 64.1098Z" fill="white"/>
<path d="M62.43 67.1178H64.2825C64.4567 67.1178 64.5754 67.1178 64.6862 67.0624C65.09 67.0624 65.4937 67.007 65.842 66.8883C66.1904 66.7695 66.5387 66.5399 66.8237 66.2549C67.1087 65.97 67.2828 65.6216 67.457 65.2179C67.6312 64.8142 67.6866 64.2917 67.6866 63.6583C67.5678 63.7138 67.3383 63.8325 66.9899 63.9513C66.697 64.07 66.2379 64.1254 65.7154 64.1254C65.1375 64.1254 64.615 64.0067 64.1004 63.7771C63.5779 63.5475 63.1188 63.2546 62.715 62.8509C62.3113 62.4471 62.0184 61.9801 61.7888 61.4655C61.5592 60.943 61.4405 60.3651 61.4405 59.7872C61.4405 59.328 61.5592 58.8056 61.7888 58.2831C62.0184 57.7052 62.3667 57.246 62.8892 56.7789C63.2375 56.4306 63.6413 56.2011 64.045 56.0269C64.4487 55.8527 64.7971 55.734 65.2008 55.6786C65.5491 55.6231 65.8975 55.5598 66.127 55.5598H67.6866C67.9795 55.5598 68.2645 55.6152 68.4941 55.6152C68.787 55.6152 69.0165 55.6706 69.3015 55.6706V63.6504C69.3015 64.6321 69.1828 65.4395 68.8978 66.0174C68.6049 66.6508 68.2645 67.1178 67.7974 67.5216C67.3383 67.8699 66.8158 68.1549 66.2379 68.2736C65.66 68.3924 65.0821 68.5032 64.4487 68.5032H62.4221V67.1178H62.43ZM67.6312 57.0006C67.5124 57.0006 67.3383 56.9452 67.1087 56.9452C66.8791 56.9452 66.7049 56.8898 66.5308 56.8898C65.8975 56.8898 65.375 56.9452 64.9158 57.1194C64.5121 57.2935 64.1638 57.4677 63.8788 57.6973C63.8233 57.7527 63.76 57.816 63.6492 57.9268C63.5304 58.0456 63.4196 58.1564 63.3009 58.3306C63.1821 58.5047 63.1267 58.6789 63.008 58.9085C62.9525 59.1381 62.8892 59.431 62.8892 59.716C62.8892 60.1751 63.008 60.5868 63.1821 60.9272C63.3563 61.2676 63.5859 61.5605 63.8788 61.798C64.1717 62.0355 64.4567 62.2017 64.805 62.3759C65.1533 62.4946 65.4383 62.55 65.7312 62.55C66.2537 62.55 66.6574 62.4946 67.0058 62.3759C67.2987 62.2571 67.5282 62.2017 67.5837 62.1463L67.6391 57.0006H67.6312Z" fill="white"/>
</svg>
