<svg width="59" height="16" viewBox="0 0 59 16" fill="none" xmlns="http://www.w3.org/2000/svg">
<path d="M5.79123 1.85183e-06L13.846 9.70151V2.97621C13.846 2.03803 13.7055 1.40356 13.4246 1.07282C13.0393 0.626879 12.3931 0.411494 11.4862 0.426821V0H16.8801V0.426821C16.1897 0.511522 15.726 0.621189 15.4895 0.755668C15.2525 0.890303 15.068 1.10948 14.9357 1.41304C14.8031 1.71708 14.7369 2.23793 14.7369 2.97621V16H14.3276L3.28692 2.97621V12.92C3.28692 13.8198 3.50149 14.4274 3.93114 14.7426C4.36029 15.058 4.85211 15.2156 5.40595 15.2156H5.79123V15.6424H0V15.2156C0.898877 15.208 1.52496 15.031 1.87824 14.6849C2.23136 14.3389 2.408 13.7505 2.408 12.92V1.88032L2.05884 1.46503C1.71364 1.04975 1.40868 0.776843 1.1438 0.646C0.878919 0.515315 0.497598 0.442309 0 0.426823V1.85183e-06H5.79123Z" fill="white"/>
<path d="M26.2414 15.2156V15.6424H17.7051V15.2156H18.2469C18.7204 15.2156 19.1017 15.1348 19.3907 14.9733C19.5993 14.8657 19.7598 14.6811 19.8723 14.4196C19.9605 14.235 20.0047 13.7505 20.0047 12.9661V2.67628C20.0047 1.87653 19.9605 1.3767 19.8723 1.17664C19.7839 0.976742 19.6053 0.80181 19.3364 0.651688C19.0674 0.501883 18.7044 0.426821 18.2469 0.426821H17.7051V0H26.2414V0.426821H25.6996C25.2259 0.426821 24.8448 0.50757 24.5558 0.66907C24.347 0.776843 24.1826 0.961413 24.0622 1.22278C23.9738 1.40735 23.9298 1.89185 23.9298 2.67628V12.9661C23.9298 13.766 23.9758 14.2659 24.0683 14.4658C24.1603 14.6658 24.3409 14.8406 24.6099 14.9907C24.8788 15.1405 25.2421 15.2156 25.6996 15.2156H26.2414Z" fill="white"/>
<path d="M42.1278 10.1514L41.5137 15.6424H27.0176V15.2156H27.5594C28.0329 15.2156 28.4142 15.1348 28.7032 14.9733C28.9118 14.8657 29.0723 14.6811 29.1848 14.4196C29.273 14.235 29.3172 13.7505 29.3172 12.9661V2.67628C29.3172 1.87653 29.273 1.3767 29.1848 1.17664C29.0964 0.976742 28.9178 0.80181 28.6491 0.651688C28.3799 0.501883 28.0169 0.426821 27.5594 0.426821H27.0176V0H35.7225V0.426821H35.0121C34.5385 0.426821 34.1573 0.50757 33.8683 0.66907C33.6595 0.776843 33.4951 0.961413 33.3747 1.22278C33.2863 1.40735 33.2423 1.89185 33.2423 2.67628V12.6431C33.2423 13.443 33.2904 13.9525 33.3867 14.1715C33.4831 14.3908 33.6716 14.5542 33.9526 14.6619C34.1532 14.7311 34.6389 14.7657 35.4095 14.7657H36.77C37.6369 14.7657 38.3593 14.6197 38.9372 14.3273C39.5151 14.0351 40.0148 13.5737 40.4361 12.943C40.8576 12.3125 41.2568 11.3819 41.6341 10.1514H42.1278V10.1514Z" fill="white"/>
<path d="M49.4786 0.899784V7.26748H49.8037C50.8391 7.26748 51.5895 6.95602 52.0551 6.33309C52.5206 5.71017 52.8176 4.79126 52.9461 3.57606H53.4036V11.7664H52.9461C52.8498 10.8744 52.6469 10.1438 52.3382 9.57462C52.0289 9.00558 51.6699 8.623 51.2605 8.42674C50.8511 8.23079 50.2571 8.13266 49.4786 8.13266V12.5393C49.4786 13.4007 49.5165 13.9275 49.593 14.1197C49.6691 14.312 49.8116 14.4697 50.0204 14.5926C50.229 14.7157 50.5661 14.7772 51.0317 14.7772H52.007C53.5319 14.7772 54.7539 14.4389 55.6731 13.7621C56.5921 13.0854 57.2523 12.0548 57.6537 10.6705H58.0992L57.3648 15.6424H43.2539V15.2156H43.7957C44.2692 15.2156 44.6505 15.1348 44.9395 14.9733C45.1481 14.8657 45.3086 14.6811 45.4211 14.4196C45.5093 14.235 45.5535 13.7505 45.5535 12.9661V2.67628C45.5535 1.96881 45.5334 1.53425 45.4933 1.37275C45.413 1.10363 45.2646 0.895991 45.0479 0.74982C44.7427 0.534592 44.3255 0.426821 43.7957 0.426821H43.2539V0H56.9193V4.62581H56.4618C56.2289 3.49531 55.902 2.68402 55.4804 2.19178C55.0592 1.6997 54.4631 1.33814 53.6926 1.10743C53.243 0.968997 52.4002 0.899784 51.1642 0.899784H49.4786Z" fill="white"/>
</svg>
