<svg width="72" height="72" viewBox="0 0 72 72" fill="none" xmlns="http://www.w3.org/2000/svg">
<g clip-path="url(#clip0_1256_88181)">
<path d="M26.9325 51.0636L16.3184 32.7771C15.7806 31.8503 15.7806 30.7038 16.3184 29.7771L26.9325 11.5C27.4704 10.5732 28.4694 10 29.5452 10H50.7733C51.8492 10 52.8482 10.5732 53.3861 11.5L63.9999 29.7866L58.7842 32.7866L49.0249 16H31.2742L22.3987 31.2866L32.1387 48.0734L26.9229 51.0732L26.9325 51.0636Z" fill="#9C6CFF"/>
<path d="M42.4453 60.9999H21.2267C20.1509 60.9999 19.1519 60.4268 18.614 59.5L8 41.2134L13.2158 38.2134L22.9557 55H40.6968L49.5725 39.7134L39.8326 22.9268L45.0484 19.9268L55.6622 38.2134C56.2001 39.1401 56.2001 40.2866 55.6622 41.2134L45.0484 59.5C44.5104 60.4268 43.5115 60.9999 42.4356 60.9999H42.4453Z" fill="#05D2DD"/>
</g>
<defs>
<clipPath id="clip0_1256_88181">
<rect width="56" height="51" fill="white" transform="translate(8 10)"/>
</clipPath>
</defs>
</svg>
