<svg width="72" height="72" viewBox="0 0 72 72" fill="none" xmlns="http://www.w3.org/2000/svg">
<g clip-path="url(#clip0_2265_94582)">
<path d="M1.97853 39.6333C1.80659 39.6304 1.63133 39.6297 1.45273 39.6314C1.4265 39.632 1.40527 39.6108 1.40527 39.5846L1.40902 30.347C1.40902 30.3282 1.42151 30.312 1.43899 30.307C1.76121 30.2212 2.08822 30.1613 2.42002 30.1271C2.43813 30.1253 2.45436 30.1371 2.45811 30.1546C2.48101 30.2708 2.48392 30.4219 2.46685 30.608C2.45103 30.7828 2.45145 31.2824 2.4681 32.1067C2.47726 32.5475 2.48038 32.9639 2.47747 33.3556C2.46165 35.4138 2.46352 37.4835 2.48309 39.5646C2.48371 39.6027 2.45561 39.6351 2.41814 39.6414C2.3507 39.6522 2.27722 39.6545 2.19771 39.6483C2.06866 39.6383 1.99559 39.6333 1.97853 39.6333Z" fill="#FDD000"/>
<path d="M14.5306 31.6817C14.5335 31.0747 14.5312 30.6297 14.5237 30.3466C14.5231 30.3278 14.5356 30.3116 14.5531 30.3085L15.5653 30.1193C15.6053 30.1118 15.6427 30.1436 15.6427 30.1861C15.6427 33.0694 15.6405 35.9473 15.6359 38.8198C15.6359 39.0646 15.6442 39.3221 15.6609 39.5923C15.6621 39.6135 15.6452 39.6316 15.624 39.6316H14.5543C14.535 39.6316 14.5187 39.6154 14.5187 39.596C14.5129 36.9438 14.5168 34.3056 14.5306 31.6817Z" fill="#FDD000"/>
<path d="M35.461 36.7822C35.4934 36.7373 35.4847 36.6748 35.4404 36.6411C35.156 36.4263 34.9587 36.1834 34.8484 35.9124C34.7847 35.755 34.7393 35.5697 34.7122 35.3566C34.6881 35.1642 34.6896 34.9755 34.7166 34.7902C34.8494 33.8843 35.3696 33.2957 36.2771 33.0242C37.183 32.7532 38.0891 32.7961 38.9954 33.1529C39.0141 33.1604 39.0347 33.1566 39.0479 33.1435L40.0382 32.1806C40.067 32.1525 40.1132 32.1581 40.1319 32.1918L40.8407 33.4632C40.8532 33.4851 40.8413 33.5126 40.8169 33.5188L39.7216 33.7986C39.6973 33.8048 39.6867 33.8335 39.7023 33.8535C40.0786 34.3418 40.2225 34.8662 40.1338 35.4265C40.0826 35.7487 39.9619 36.0377 39.7716 36.2933C39.5764 36.5555 39.3274 36.7616 39.0248 36.9115C38.882 36.9818 38.7252 37.0437 38.5545 37.0969C38.3992 37.1457 38.2346 37.181 38.0606 37.2031C37.5186 37.2718 36.9761 37.2537 36.4332 37.1488C36.3933 37.1407 36.3521 37.16 36.3321 37.1962C36.2351 37.3723 36.2024 37.5701 36.234 37.7895C36.2515 37.9106 36.34 38.0043 36.4994 38.0705C36.6081 38.1154 36.811 38.136 37.1083 38.1323C37.5925 38.1256 38.0764 38.1377 38.5602 38.1685C38.9948 38.196 39.3953 38.3259 39.7616 38.5582C40.21 38.8429 40.4587 39.253 40.5078 39.7884C40.589 40.668 40.2768 41.3378 39.5712 41.7979C39.3226 41.9594 39.0447 42.0841 38.7375 42.1719C38.4886 42.2435 38.1901 42.2864 37.842 42.3006C37.5036 42.3147 37.1029 42.3149 36.6399 42.3012C36.1216 42.2858 35.6493 42.133 35.223 41.8428C34.8996 41.623 34.6852 41.3239 34.5799 40.9455C34.4833 40.5995 34.5055 40.2619 34.6467 39.9326C34.7716 39.6404 34.94 39.376 35.1519 39.1395C35.1631 39.1264 35.1619 39.1071 35.1494 39.0952C34.9279 38.8896 34.8055 38.6521 34.7822 38.3827C34.7356 37.839 34.901 37.3748 35.2786 36.9902C35.359 36.9082 35.4198 36.8388 35.461 36.7822ZM38.5698 34.9608C38.5714 34.5029 38.2017 34.1301 37.7435 34.1287L37.1652 34.1266C36.7074 34.1252 36.3346 34.4948 36.3331 34.953L36.3324 35.1479C36.3308 35.6057 36.7005 35.9785 37.1588 35.98L37.737 35.982C38.1948 35.9835 38.5676 35.6139 38.5692 35.1557L38.5698 34.9608ZM36.1803 39.5411C35.8835 40.2122 35.9909 40.663 36.5026 40.8937C36.734 40.9981 37.0296 41.0516 37.3893 41.0541C37.7024 41.0566 38.0042 41.0144 38.2948 40.9274C38.634 40.8258 38.826 40.6212 38.8705 40.3135C38.9013 40.1016 38.8605 39.9166 38.7481 39.7584C38.622 39.5815 38.4332 39.4884 38.1817 39.4793C37.5793 39.4572 36.9526 39.4512 36.3015 39.4611C36.249 39.4618 36.2016 39.493 36.1803 39.5411Z" fill="white"/>
<path d="M45.4454 39.09C45.1777 39.2569 44.9002 39.4047 44.613 39.5334C43.8815 39.8606 43.1557 39.8608 42.4355 39.534C42.219 39.4358 42.0411 39.2819 41.9016 39.0725C41.5207 38.5009 41.4018 37.8736 41.545 37.1904C41.6308 36.7828 41.8235 36.4529 42.1233 36.2006C42.3918 35.975 42.7132 35.8178 43.0874 35.7292C43.4517 35.6426 43.8212 35.5978 44.1958 35.5949C44.538 35.5924 44.8507 35.5893 45.1338 35.5856C45.185 35.5849 45.2262 35.5437 45.2275 35.4925C45.2379 35.0217 45.1038 34.6947 44.8253 34.5115C44.6326 34.3849 44.3278 34.3333 43.9111 34.3566C43.3745 34.3866 42.8599 34.5121 42.3674 34.7332C42.335 34.7475 42.2975 34.7332 42.285 34.7013L41.8641 33.6048C41.8541 33.5785 41.8654 33.5486 41.891 33.5336C42.6124 33.1027 43.3911 32.8764 44.2271 32.8548C44.548 32.8465 44.8617 32.8787 45.1681 32.9516C45.5074 33.0328 45.7915 33.1583 46.0205 33.3281C46.3357 33.5621 46.564 33.8691 46.7055 34.2492C46.8442 34.6222 46.9131 35.0321 46.9122 35.4788C46.9093 36.8372 46.8991 38.1954 46.8816 39.5534C46.881 39.5708 46.8673 39.5852 46.8498 39.5865C46.4526 39.6135 46.0557 39.61 45.659 39.5758C45.6408 39.574 45.6252 39.5609 45.6202 39.5434L45.4822 39.1025C45.4772 39.0875 45.4591 39.0813 45.4454 39.09ZM43.2398 37.1611C43.0937 37.3663 43.045 37.5919 43.0937 37.838C43.1282 38.0103 43.1969 38.145 43.2998 38.242C43.418 38.3536 43.571 38.4093 43.7587 38.4093C44.2854 38.4085 44.7574 38.2616 45.175 37.9685C45.2175 37.9385 45.2431 37.8879 45.2437 37.833L45.2524 36.7627C45.2524 36.7452 45.2387 36.7308 45.2218 36.7302C44.6373 36.7081 44.1965 36.7229 43.8992 36.7745C43.6066 36.8253 43.3868 36.9542 43.2398 37.1611Z" fill="white"/>
<path d="M50.0892 33.6459C50.7748 33.016 51.5891 32.7654 52.532 32.8941C53.027 32.9615 53.4325 33.2098 53.7485 33.639C53.7678 33.6653 53.8059 33.669 53.8303 33.6478C54.5184 33.0487 55.2876 32.7943 56.1377 32.8847C57.0261 32.9788 57.5677 33.4584 57.7625 34.3234C57.8374 34.6561 57.8747 35.0099 57.8743 35.385C57.8726 36.7796 57.8718 38.1743 57.8718 39.5689C57.8718 39.5864 57.858 39.6001 57.8406 39.6001H56.1245C56.0977 39.6001 56.0758 39.5783 56.0758 39.5514C56.0833 38.1214 56.0796 36.7137 56.0646 35.3282C56.0613 35.0505 56.0282 34.8549 55.9653 34.7412C55.8904 34.6055 55.7784 34.5066 55.6294 34.4446C55.5257 34.4013 55.3839 34.3773 55.2041 34.3728C54.8352 34.3624 54.4739 34.4175 54.12 34.5383C54.1044 34.5439 54.0938 34.5589 54.0938 34.5751V39.5452C54.0938 39.5758 54.0695 39.6001 54.0389 39.6001H52.3722C52.3403 39.6001 52.3141 39.5745 52.3135 39.5427C52.2964 38.1709 52.2914 36.7903 52.2985 35.4006C52.2993 35.2441 52.2945 35.1175 52.2841 35.021C52.2625 34.8182 52.1832 34.6619 52.0462 34.552C51.943 34.4687 51.7896 34.4148 51.586 34.3903C51.2022 34.3432 50.8096 34.389 50.4083 34.5276C50.3714 34.5401 50.3471 34.5745 50.3471 34.6132V39.5533C50.3471 39.5789 50.3265 39.5995 50.3015 39.5995L48.5836 39.5851C48.5574 39.5845 48.5361 39.5633 48.5361 39.5364V33.0627C48.5361 33.0433 48.5517 33.0277 48.5711 33.0277H49.7476C49.7776 33.0277 49.8038 33.0477 49.8119 33.0764C49.871 33.2783 49.9505 33.4665 50.0504 33.6409C50.0586 33.6546 50.0773 33.6571 50.0892 33.6459Z" fill="white"/>
<path d="M59.9581 33.8183C60.339 33.3525 60.8259 33.0579 61.4187 32.9347C61.9432 32.8261 62.4676 32.8271 62.9917 32.9378C63.276 32.9982 63.5368 33.1037 63.7741 33.2544C63.9994 33.3977 64.1996 33.5877 64.3749 33.8246C64.6067 34.1376 64.7639 34.4821 64.8463 34.8581C64.9875 35.5021 65.0131 36.164 64.9231 36.8438C64.9188 36.8757 64.8919 36.8994 64.8601 36.8994H61.049C61.0234 36.8994 61.0034 36.9206 61.0053 36.9462C61.0498 37.609 61.3583 38.0513 61.9307 38.2732C62.0427 38.3165 62.2015 38.3477 62.4072 38.3669C62.5641 38.3815 62.7255 38.3821 62.8912 38.3688C63.402 38.328 63.8928 38.2151 64.3636 38.0303C64.393 38.0191 64.4261 38.0334 64.4354 38.0621L64.8007 39.1706C64.8101 39.1987 64.7957 39.2293 64.767 39.243C64.4694 39.382 64.169 39.4926 63.8659 39.5746C63.5454 39.6612 63.2319 39.7209 62.9255 39.7538C62.254 39.8258 61.6048 39.7413 60.9778 39.5003C60.6702 39.382 60.41 39.2288 60.1972 39.0407C59.9579 38.8292 59.7668 38.5877 59.624 38.3163C59.4092 37.9067 59.278 37.44 59.2306 36.9163C59.1698 36.2448 59.2177 35.5951 59.3742 34.9673C59.4787 34.5498 59.6733 34.1668 59.9581 33.8183ZM61.2969 34.5489C61.2178 34.6372 61.1585 34.7442 61.1189 34.8699C61.0361 35.1343 60.9932 35.3957 60.9903 35.6542C60.9897 35.6717 61.004 35.6861 61.0209 35.6861L63.2309 35.7011C63.2477 35.7017 63.2621 35.6873 63.2633 35.6698C63.2758 35.4201 63.2542 35.173 63.1984 34.9286C63.1068 34.531 62.8624 34.2865 62.4653 34.1949C61.9948 34.0858 61.6054 34.2038 61.2969 34.5489Z" fill="white"/>
<path d="M66.5796 33.5868C66.8898 33.2517 67.2701 33.0364 67.7205 32.9411C68.1143 32.8578 68.5088 32.832 68.9039 32.8637C69.209 32.8882 69.5256 32.9417 69.8536 33.0241C70.163 33.1016 70.4675 33.21 70.7672 33.3495C70.7841 33.357 70.7922 33.3757 70.786 33.3926L70.3407 34.5909C70.3351 34.6071 70.317 34.6146 70.3008 34.6078C69.79 34.393 69.2583 34.266 68.7059 34.2268C68.5156 34.2131 68.3373 34.2406 68.1707 34.3093C67.998 34.38 67.8797 34.4804 67.816 34.6103C67.7378 34.7701 67.7546 34.9439 67.8666 35.1317C67.9095 35.2033 68.0136 35.2813 68.1789 35.3659C68.2559 35.405 68.4116 35.4703 68.646 35.5619C68.6484 35.5628 68.8041 35.619 69.113 35.7305C69.5393 35.8846 69.9123 36.0725 70.2321 36.2944C70.5609 36.523 70.7599 36.8496 70.8291 37.2742C70.8461 37.3787 70.8501 37.5696 70.8409 37.8468C70.8338 38.0787 70.8089 38.2669 70.766 38.4113C70.5895 39.0092 70.1786 39.4055 69.5333 39.6003C69.3705 39.6494 69.2188 39.6884 69.0781 39.7171C68.9394 39.7454 68.7842 39.7618 68.6122 39.7664C67.7113 39.7914 66.8232 39.6496 65.9477 39.3412C65.9096 39.3274 65.8883 39.2875 65.8977 39.2487L66.2006 37.9917C66.2049 37.9748 66.2218 37.9649 66.238 37.9698C66.7772 38.1335 67.3242 38.265 67.8791 38.3645C68.2255 38.4265 68.5375 38.417 68.8152 38.3358C69.0008 38.2817 69.1147 38.1474 69.1568 37.933C69.2021 37.6999 69.1287 37.5179 68.9363 37.3872C68.6836 37.2157 68.3522 37.0623 67.9422 36.927C67.4089 36.7505 66.9778 36.5371 66.6489 36.2869C66.42 36.1125 66.2616 35.886 66.1737 35.6075C66.0979 35.3673 66.0632 35.1025 66.0694 34.8132C66.079 34.3524 66.2491 33.9435 66.5796 33.5868Z" fill="white"/>
<path d="M6.30266 33.4786C6.30683 33.4802 6.31057 33.4825 6.31391 33.4855C6.31953 33.4904 6.31953 33.4998 6.31453 33.5067L4.21385 36.1413C4.19824 36.1606 4.19824 36.1887 4.21448 36.2081C4.86017 36.9957 5.50627 37.7719 6.15279 38.5367C6.306 38.7182 6.45649 38.9103 6.60428 39.1131C6.62301 39.1387 6.61739 39.1749 6.59179 39.1942L5.81996 39.795C5.80622 39.8056 5.78686 39.8037 5.77562 39.7906L2.95307 36.3292C2.90603 36.2718 2.90499 36.2137 2.94995 36.155L5.40657 32.9191C5.42593 32.8935 5.46214 32.8878 5.48837 32.9066L6.26083 33.463C6.26249 33.4642 6.27644 33.4694 6.30266 33.4786Z" fill="#FDD000"/>
<path d="M17.398 36.1171C17.3674 36.1558 17.368 36.2101 17.3998 36.2476L19.759 39.092C19.7859 39.1238 19.7797 39.1725 19.7453 39.1981L18.981 39.7845C18.9591 39.8014 18.9279 39.7982 18.9104 39.777L16.0516 36.2844C16.0354 36.2644 16.0348 36.2351 16.0504 36.2145L18.557 32.9142C18.5745 32.8911 18.6069 32.8855 18.63 32.9023L19.4218 33.47C19.4468 33.4875 19.4512 33.5231 19.4318 33.5474L17.398 36.1171Z" fill="#FDD000"/>
<path d="M11.4869 35.7712C11.4911 35.596 11.4929 35.4205 11.4925 35.2448C11.4917 34.9763 11.4299 34.7238 11.3071 34.4873C11.1822 34.2476 11.0067 34.0779 10.7806 33.9784C10.6166 33.906 10.3877 33.8731 10.0937 33.8797C9.51966 33.8927 8.96868 34.0238 8.44081 34.2732C8.40521 34.2906 8.36212 34.2738 8.34776 34.2376L8.07487 33.555C8.06301 33.5244 8.07612 33.4895 8.10547 33.4739C8.84608 33.0821 9.61666 32.9048 10.4172 32.9418C10.9068 32.9647 11.3044 33.0692 11.6099 33.2553C12.065 33.5321 12.3539 33.9661 12.4767 34.5573C12.5379 34.8508 12.5685 35.1476 12.5685 35.4478C12.5676 36.8216 12.5672 38.2006 12.5672 39.5848C12.5672 39.6179 12.5404 39.6441 12.5085 39.6429L11.7829 39.621C11.7635 39.6204 11.7467 39.6079 11.7436 39.5898L11.6362 38.9866C11.6293 38.9497 11.5868 38.9322 11.5587 38.9547C11.1374 39.2894 10.6832 39.5221 10.1962 39.6529C9.75404 39.7719 9.31172 39.7726 8.86918 39.6547C8.24473 39.489 7.85382 39.1015 7.69645 38.492C7.62943 38.2335 7.60924 37.9421 7.63588 37.6178C7.66585 37.2506 7.78367 36.9265 7.98932 36.6455C8.12088 36.466 8.30426 36.3101 8.53947 36.1778C8.78218 36.0412 9.01114 35.954 9.22637 35.9161C9.62395 35.8462 10.0246 35.8149 10.4285 35.8224C10.7711 35.8287 11.1133 35.8226 11.4551 35.8043C11.4725 35.8037 11.4863 35.7893 11.4869 35.7712ZM9.00407 38.6362C9.15893 38.7603 9.3317 38.8298 9.52237 38.8448C9.70554 38.859 9.88518 38.8484 10.0613 38.813C10.2145 38.7817 10.386 38.7318 10.5758 38.6631C10.8668 38.5574 11.1387 38.4019 11.3914 38.1966C11.4538 38.1463 11.4855 38.0799 11.4863 37.9974L11.5013 36.6068C11.5013 36.5893 11.4875 36.5755 11.4701 36.5749C10.714 36.5591 10.2107 36.5633 9.96011 36.5874C9.6483 36.6174 9.39977 36.6863 9.21451 36.7941C8.98013 36.9306 8.82797 37.1063 8.75803 37.3211C8.66228 37.6142 8.66478 37.936 8.76552 38.2865C8.80507 38.4243 8.88459 38.5409 9.00407 38.6362Z" fill="#FDD000"/>
<path d="M24.7044 38.9745C24.3489 39.2613 23.9303 39.4751 23.4486 39.6158C23.0889 39.7211 22.7394 39.7584 22.4001 39.7276C22.0221 39.693 21.7007 39.5775 21.436 39.381C21.0983 39.1308 20.8898 38.7772 20.8103 38.3201C20.777 38.1269 20.7665 37.9215 20.779 37.7037C20.7919 37.4798 20.8298 37.2797 20.8927 37.1036C21.0309 36.7148 21.2701 36.419 21.6102 36.2163C21.9811 35.9952 22.4326 35.8691 22.9646 35.8378C23.266 35.8199 23.806 35.8133 24.5845 35.8179C24.6026 35.8185 24.6176 35.8054 24.6201 35.7879C24.6675 35.4603 24.6553 35.1399 24.5832 34.8269C24.5258 34.5775 24.4344 34.3837 24.3091 34.2455C24.1571 34.0785 23.96 33.9688 23.7177 33.9164C23.5366 33.8773 23.3535 33.8637 23.1682 33.8758C22.6141 33.9129 22.0921 34.0479 21.6021 34.2811C21.5677 34.2973 21.5271 34.2817 21.5134 34.2467L21.2261 33.5267C21.2193 33.5099 21.2261 33.4905 21.2424 33.4818C21.9434 33.1071 22.684 32.9233 23.4642 32.9304C23.6836 32.9325 23.8999 32.9551 24.113 32.9984C24.3441 33.0455 24.5468 33.1188 24.7212 33.2182C24.9669 33.3585 25.1606 33.5357 25.3026 33.7497C25.564 34.1447 25.6989 34.617 25.7073 35.1666C25.7285 36.582 25.7351 38.042 25.7272 39.5465C25.7266 39.5915 25.691 39.6277 25.6467 39.6283L24.9098 39.6314C24.8873 39.6314 24.8686 39.6152 24.8661 39.5933L24.7993 39.0151C24.791 38.9435 24.7593 38.93 24.7044 38.9745ZM22.0554 37.0674C21.8793 37.3497 21.8119 37.6565 21.8531 37.9879C21.881 38.2139 21.9474 38.3975 22.0523 38.5386C22.1851 38.7181 22.3695 38.8169 22.6056 38.8352C23.3116 38.8898 23.9609 38.6752 24.5533 38.1914C24.6178 38.1386 24.6486 38.0609 24.6457 37.9585C24.6419 37.8415 24.6403 37.7807 24.6407 37.7762C24.6619 37.3865 24.6594 36.9968 24.6332 36.6072C24.6319 36.5891 24.6176 36.5753 24.5995 36.5747C24.122 36.5643 23.6447 36.5695 23.1676 36.5903C22.9007 36.6024 22.647 36.6648 22.4064 36.7777C22.2453 36.8534 22.1283 36.95 22.0554 37.0674Z" fill="#FDD000"/>
<path d="M27.9878 33.8671C28.1693 33.6385 28.3974 33.4477 28.6722 33.2945C28.9149 33.1592 29.1911 33.0628 29.5009 33.0053C29.8722 32.9371 30.2446 32.9252 30.618 32.9697C31.0143 33.0172 31.3638 33.1263 31.6665 33.297C32.1407 33.5638 32.4976 33.958 32.7374 34.4797C32.906 34.8464 33.0168 35.2417 33.0696 35.6655C33.1517 36.3233 33.1229 36.9571 32.9835 37.567C32.9239 37.8268 32.8211 38.0992 32.675 38.3844C32.3807 38.9593 31.9371 39.3582 31.3443 39.5809C31.0216 39.7016 30.6867 39.7676 30.3395 39.7788C29.9915 39.7897 29.6559 39.757 29.3329 39.6808C28.7755 39.5501 28.319 39.2689 27.9634 38.8371C27.7207 38.5424 27.5353 38.1736 27.4071 37.7306C27.3084 37.388 27.2512 37.0375 27.2353 36.679C27.2191 36.306 27.2299 35.9536 27.2678 35.6218C27.3436 34.9611 27.5836 34.3762 27.9878 33.8671ZM28.9182 34.3929C28.7451 34.6102 28.6287 34.8213 28.5692 35.0261C28.3872 35.6505 28.336 36.2927 28.4156 36.9525C28.4768 37.4592 28.5948 37.8547 28.7696 38.139C29.0606 38.6136 29.5163 38.8625 30.1366 38.8859C30.3335 38.8933 30.5142 38.8721 30.6786 38.8222C30.8589 38.7672 31.0248 38.6854 31.1763 38.5767C31.3674 38.4402 31.5229 38.2524 31.6428 38.0135C31.7539 37.7912 31.8316 37.5549 31.8757 37.3047C31.9635 36.8027 31.9802 36.2981 31.9256 35.791C31.8944 35.5021 31.837 35.2369 31.7533 34.9955C31.6575 34.7195 31.521 34.4899 31.3436 34.3067C30.9344 33.8837 30.3997 33.743 29.7394 33.8846C29.4043 33.9562 29.1306 34.1256 28.9182 34.3929Z" fill="#FDD000"/>
</g>
<defs>
<clipPath id="clip0_2265_94582">
<rect width="72" height="13.863" fill="white" transform="translate(0 29)"/>
</clipPath>
</defs>
</svg>
