<svg width="67" height="16" viewBox="0 0 67 16" fill="none" xmlns="http://www.w3.org/2000/svg">
<g clip-path="url(#clip0_781_45612)">
<path d="M6.67846 0.308594H9.8602V12.2275C9.8602 12.8183 10.0143 13.255 10.3193 13.5536C10.4895 13.711 10.6918 13.8298 10.9133 13.9068C11.1348 13.9839 11.3692 14.016 11.6036 14.0032C12.1943 14.0032 12.631 13.8394 12.9199 13.5151C13.2185 13.1426 13.3662 12.677 13.3437 12.2083V0.308594H16.5255V12.0959C16.5319 12.6321 16.4452 13.1619 16.2686 13.6692C16.1017 14.138 15.8224 14.5651 15.4467 14.9054C15.0325 15.2747 14.5349 15.5508 13.9955 15.7114C13.2956 15.9169 12.5636 16.0132 11.8283 15.9971C10.8394 15.9971 10.0561 15.8655 9.48456 15.6022C9.00617 15.4095 8.58558 15.1013 8.26452 14.7128C7.94024 15.1013 7.52286 15.4063 7.04447 15.6022C6.47298 15.8655 5.69279 15.9971 4.70071 15.9971C3.96868 16.0132 3.23666 15.9169 2.53674 15.7114C1.99414 15.5508 1.49649 15.2747 1.08232 14.9054C0.706673 14.5619 0.427347 14.138 0.260394 13.6692C0.0805981 13.1619 -0.00608914 12.6289 0.000332135 12.0959V0.308594H3.19492V12.2083C3.16923 12.677 3.32013 13.1426 3.61872 13.5151C3.90126 13.8394 4.34112 14.0032 4.93508 14.0064C5.16946 14.0192 5.40384 13.9871 5.62537 13.91C5.84691 13.833 6.04918 13.711 6.21934 13.5568C6.52435 13.2582 6.67525 12.8151 6.67525 12.2307V0.308594H6.67846Z" fill="white"/>
<path d="M19.6399 0.308594H28.1256V2.31221H22.8185V6.64052H27.8046V8.65056H22.8185V13.6981H28.3376V15.7017H19.6367V0.308594H19.6399Z" fill="white"/>
<path d="M37.4827 3.78292C37.4827 3.19211 37.3318 2.75543 37.0268 2.45682C36.8566 2.30269 36.6544 2.18068 36.4328 2.10361C36.2113 2.02655 35.9769 1.99444 35.7426 2.00729C35.1486 2.00729 34.7152 2.17104 34.4262 2.49856C34.1276 2.87102 33.9767 3.3334 34.0024 3.8054V15.7018H30.8206V3.90494C30.8142 3.37193 30.9009 2.83891 31.0743 2.33159C31.2412 1.8628 31.5238 1.43895 31.8962 1.09539C32.3104 0.726131 32.808 0.449992 33.3474 0.289446C34.0473 0.0839473 34.7794 -0.0123802 35.5114 0.00367443C36.5003 0.00367443 37.2837 0.135322 37.8552 0.398617C38.3303 0.594483 38.7477 0.902731 39.0688 1.29446C39.3963 0.902731 39.8201 0.597694 40.3017 0.405039C40.8732 0.141744 41.6533 0.0100963 42.6454 0.0100963C43.3742 -0.00595832 44.0998 0.0871583 44.7998 0.292657C45.3424 0.453203 45.8432 0.729342 46.2606 1.0986C46.6363 1.43895 46.9188 1.86601 47.0825 2.3348C47.2559 2.84212 47.3426 3.37514 47.3362 3.90815V15.6986H44.1416V3.80219C44.1673 3.3334 44.0164 2.86781 43.7178 2.49535C43.4352 2.16783 42.9986 2.00408 42.4014 2.00408C42.167 1.99123 41.9327 2.02334 41.7143 2.1004C41.496 2.17747 41.2937 2.29627 41.1236 2.4536C40.8186 2.75222 40.6677 3.19211 40.6677 3.77971V15.6986H37.4795V3.78292H37.4827Z" fill="white"/>
<path d="M53.629 15.7017H50.4473V0.308594H53.629V15.7017Z" fill="white"/>
<path d="M56.0079 0.308594H59.2121L61.4403 5.09286L63.646 0.308594H66.8727L63.0328 7.91204L67.0204 15.6985H63.7102L61.4403 10.6092L59.18 15.6985H55.873L59.851 7.91204L56.0079 0.308594Z" fill="white"/>
</g>
<defs>
<clipPath id="clip0_781_45612">
<rect width="67" height="16" fill="white"/>
</clipPath>
</defs>
</svg>
