<svg width="415" height="52" viewBox="0 0 415 52" fill="none" xmlns="http://www.w3.org/2000/svg">
<path fill-rule="evenodd" clip-rule="evenodd" d="M2.45594 0H13.9183C15.2747 0 16.3742 1.09956 16.3742 2.45594V13.8407C16.3742 15.1971 15.2747 16.2966 13.9183 16.2966H2.45594C1.09956 16.2966 0 15.1971 0 13.8407V2.45594C0 1.09956 1.09956 0 2.45594 0ZM66.3166 17.7347H57.2218C54.0441 17.7347 51.4681 15.1586 51.4681 11.9809V2.45594C51.4681 1.09955 50.3685 0 49.0122 0H37.5497C36.1933 0 35.0938 1.09955 35.0938 2.45594V13.8407C35.0938 15.1971 36.1933 16.2966 37.5497 16.2966H46.6444C49.8222 16.2966 52.3982 18.8727 52.3982 22.0504V47.8461C52.3982 49.2024 53.4978 50.302 54.8542 50.302H66.3166C67.673 50.302 68.7725 49.2024 68.7725 47.8461V20.1905C68.7725 18.8342 67.673 17.7347 66.3166 17.7347ZM99.9963 17.7347H90.9015C87.7238 17.7347 85.1477 15.1586 85.1477 11.9809V2.45594C85.1477 1.09955 84.0482 0 82.6919 0H71.2294C69.873 0 68.7734 1.09955 68.7734 2.45594V13.8407C68.7734 15.1971 69.873 16.2966 71.2294 16.2966H80.3241C83.5019 16.2966 86.0779 18.8727 86.0779 22.0504V47.8461C86.0779 49.2024 87.1775 50.302 88.5338 50.302H99.9963C101.353 50.302 102.452 49.2024 102.452 47.8461V20.1905C102.452 18.8342 101.353 17.7347 99.9963 17.7347ZM32.6381 17.7346H21.1756C19.8193 17.7346 18.7197 18.8342 18.7197 20.1905V47.8461C18.7197 49.2024 19.8193 50.3019 21.1756 50.3019H32.6381C33.9945 50.3019 35.094 49.2024 35.094 47.8461V20.1905C35.094 18.8342 33.9945 17.7346 32.6381 17.7346ZM146.506 23.1478C148.681 18.6658 152.042 16.4248 156.524 16.4248C162.851 16.4248 166.542 20.9728 166.542 28.6838V49.5137C166.542 49.9496 166.189 50.3017 165.754 50.3017H161.728C161.293 50.3017 160.94 49.9496 160.94 49.5137V29.1448C160.94 24.0048 158.831 21.3678 154.679 21.3678C149.999 21.3678 147.297 24.7958 147.297 30.7928V49.5137C147.297 49.9496 146.945 50.3017 146.509 50.3017H142.483C142.048 50.3017 141.695 49.9496 141.695 49.5137V28.8818C141.695 24.0708 139.454 21.3678 135.5 21.3678C130.887 21.3678 128.052 25.0588 128.052 31.0568V49.5137C128.052 49.9496 127.7 50.3017 127.265 50.3017H123.239C122.803 50.3017 122.451 49.9496 122.451 49.5137V18.1358C122.451 17.7008 122.803 17.3478 123.239 17.3478H126.935C127.37 17.3478 127.723 17.7008 127.723 18.1358V21.6758C127.723 22.0078 128.163 22.1098 128.319 21.8158C130.217 18.2378 133.176 16.4248 137.148 16.4248C141.695 16.4248 144.991 18.7978 146.506 23.1478ZM190.67 16.5566C181.245 16.5566 175.709 23.2136 175.709 34.2196C175.709 45.0936 181.311 51.0916 190.736 51.0916C197.125 51.0916 201.814 48.1776 204.22 42.6396C204.39 42.2486 204.2 41.7926 203.809 41.6206L200.643 40.2177C200.249 40.0436 199.782 40.2146 199.61 40.6096C198.061 44.1746 195.089 46.1486 191.131 46.1486C185.529 46.1486 181.73 42.3016 181.343 36.3286C181.313 35.8676 181.667 35.4716 182.129 35.4716H203.92C204.355 35.4716 204.708 35.1187 204.708 34.6837V31.5176C204.708 21.6317 199.567 16.5566 190.67 16.5566ZM199.04 30.9246H181.311C181.443 24.7286 184.738 20.9727 190.538 20.9727C195.942 20.9727 199.04 24.1356 199.04 30.1986V30.9246ZM264.863 30.2656V39.1626C264.863 43.6226 265.118 46.8616 265.717 49.3256C265.838 49.8236 265.466 50.3006 264.954 50.3006H260.8C260.404 50.3006 260.072 50.0056 260.019 49.6126C259.858 48.4146 259.729 47.0466 259.651 45.6586C259.632 45.3426 259.205 45.2376 259.058 45.5186C257.232 49.0096 253.382 51.0916 248.518 51.0916C241.796 51.0916 237.38 47.2696 237.38 41.4036C237.38 38.1086 239.028 35.2746 241.994 33.6266C244.498 32.3746 247.662 31.5836 253.066 30.9246L259.195 30.1996V29.6726C259.195 23.6086 257.02 21.1706 251.946 21.1706C247.708 21.1706 245.002 23.2916 244.497 27.0336C244.446 27.4156 244.108 27.6956 243.722 27.6956H239.311C238.829 27.6956 238.462 27.2656 238.528 26.7886C239.383 20.5786 244.521 16.5566 251.88 16.5566C260.909 16.5566 264.863 20.6436 264.863 30.2656ZM249.771 46.4786C255.505 46.4786 259.261 42.3266 259.261 35.9336V34.2856L250.298 35.6036C245.421 36.3286 243.312 38.0426 243.312 41.2716C243.312 44.5016 245.75 46.4786 249.771 46.4786ZM302.701 4.6377H298.675C298.24 4.6377 297.887 4.99066 297.887 5.42566V21.0897C297.887 21.4037 297.482 21.5187 297.31 21.2567C295.206 18.0397 292.169 16.5567 288.199 16.5567C279.96 16.5567 274.16 23.6747 274.16 33.8246C274.16 44.1717 279.565 51.0917 287.539 51.0917C292.205 51.0917 295.568 49.0287 297.628 45.3457C297.787 45.0607 298.216 45.1667 298.216 45.4927V49.5131C298.216 49.9481 298.569 50.3011 299.004 50.3011H302.701C303.136 50.3011 303.489 49.9481 303.489 49.5131V5.42566C303.489 4.99066 303.136 4.6377 302.701 4.6377ZM298.018 34.6157C298.018 41.6677 294.525 46.1497 289.055 46.1497C283.453 46.1497 280.092 41.5357 280.092 33.8246C280.092 26.0477 283.453 21.5007 289.055 21.5007C294.591 21.5007 298.018 25.9156 298.018 33.0997V34.6157ZM316.468 17.348H320.494C320.929 17.348 321.282 17.7008 321.282 18.136V49.5137C321.282 49.9489 320.929 50.3017 320.494 50.3017H316.468C316.032 50.3017 315.68 49.9489 315.68 49.5137V18.136C315.68 17.7008 316.032 17.348 316.468 17.348ZM358.124 17.3481H354.098C353.663 17.3481 353.31 17.7011 353.31 18.1361V35.0771C353.31 41.7991 349.751 46.2811 344.478 46.2811C340.129 46.2811 337.757 43.2491 337.757 37.7131V18.1361C337.757 17.7011 337.404 17.3481 336.969 17.3481H332.942C332.507 17.3481 332.154 17.7011 332.154 18.1361V38.3721C332.154 46.0831 335.12 51.0921 343.425 51.0921C347.533 51.0921 351.225 48.7391 353.054 45.3831C353.208 45.1001 353.64 45.2151 353.64 45.5381V49.5137C353.64 49.9487 353.993 50.3017 354.428 50.3017H358.124C358.559 50.3017 358.912 49.9487 358.912 49.5137V18.1361C358.912 17.7011 358.559 17.3481 358.124 17.3481ZM320.889 4.6377H316.071C315.636 4.6377 315.283 4.9908 315.283 5.42572V10.2427C315.283 10.6776 315.636 11.0307 316.071 11.0307H320.889C321.324 11.0307 321.676 10.6781 321.676 10.2437V5.42468C321.676 4.99033 321.324 4.6377 320.889 4.6377ZM229.43 17.5456H222.295C222.121 17.5456 221.98 17.4036 221.98 17.2296V5.62262C221.98 5.18762 221.627 4.83459 221.192 4.83459H217.166C216.731 4.83459 216.378 5.18762 216.378 5.62262V13.4686H216.366C216.366 15.7146 214.545 17.5366 212.299 17.5366V17.5456H211.036C210.601 17.5456 210.249 17.8976 210.249 18.3326V21.3706C210.249 21.8056 210.601 22.1586 211.036 22.1586H216.063C216.237 22.1586 216.378 22.2996 216.378 22.4736V40.6126C216.378 46.7416 218.223 51.0916 225.341 51.0916C227.153 51.0916 228.381 50.9456 229.61 50.6536C229.966 50.5696 230.218 50.2506 230.218 49.8856V46.1476C230.218 45.7476 229.85 45.4466 229.459 45.5306C228.661 45.7036 227.9 45.8186 226.791 45.8186C223.43 45.8186 221.98 44.1716 221.98 40.4146V22.4736C221.98 22.2996 222.121 22.1586 222.295 22.1586H229.43C229.866 22.1586 230.218 21.8056 230.218 21.3706V18.3326C230.218 17.8976 229.866 17.5456 229.43 17.5456ZM394.828 23.1478C397.004 18.6658 400.365 16.4248 404.848 16.4248C411.173 16.4248 414.865 20.9728 414.865 28.6838V49.5137C414.865 49.9496 414.511 50.3017 414.077 50.3017H410.051C409.615 50.3017 409.262 49.9496 409.262 49.5137V29.1448C409.262 24.0048 407.153 21.3678 403.001 21.3678C398.322 21.3678 395.62 24.7958 395.62 30.7928V49.5137C395.62 49.9496 395.267 50.3017 394.833 50.3017H390.806C390.37 50.3017 390.017 49.9496 390.017 49.5137V28.8818C390.017 24.0708 387.776 21.3678 383.823 21.3678C379.209 21.3678 376.375 25.0588 376.375 31.0568V49.5137C376.375 49.9496 376.022 50.3017 375.588 50.3017H371.562C371.126 50.3017 370.773 49.9496 370.773 49.5137V18.1358C370.773 17.7008 371.126 17.3478 371.562 17.3478H375.257C375.693 17.3478 376.046 17.7008 376.046 18.1358V21.6758C376.046 22.0078 376.485 22.1098 376.641 21.8158C378.539 18.2378 381.499 16.4248 385.47 16.4248C390.017 16.4248 393.313 18.7978 394.828 23.1478Z" fill="white"/>
</svg>
