<svg width="256" height="360" viewBox="0 0 256 360" fill="none" xmlns="http://www.w3.org/2000/svg">
<g clip-path="url(#clip0_1318_87698)">
<g clip-path="url(#clip1_1318_87698)">
<path d="M110.857 61.4189L112.076 71.4669C112.734 76.8975 110.412 79.8465 105.95 80.3861C101.382 80.941 98.6386 78.581 97.9887 73.2492L96.7422 62.9694C96.1114 57.7668 98.6804 54.89 102.944 54.3731C107.375 53.8373 110.241 56.3151 110.857 61.4189ZM101.143 62.3841L102.416 72.8692C102.701 75.2025 103.636 76.7113 105.559 76.4756C107.353 76.259 108.014 74.8757 107.687 72.1585L106.418 61.7077C106.156 59.5415 105.316 58.0442 103.332 58.2874C101.489 58.5116 100.847 59.9368 101.143 62.3841Z" fill="white"/>
<path d="M114.326 76.031L121.623 57.3411L114.247 57.6641L114.072 53.632L126.332 53.0962L126.468 56.1972L119.407 74.7807L127.35 74.431L127.141 78.4784L114.467 79.0332L114.334 76.031H114.326Z" fill="white"/>
<path d="M133.278 53.1722C134.502 61.9129 135.661 70.1292 135.779 73.2796H135.897C136.501 69.0385 137.991 62.7376 139.849 53.3737L144.288 53.5105L137.801 79.9947C136.026 87.1545 133.582 87.4775 130.736 87.3901C129.961 87.3673 129.197 87.2457 128.593 87.1279L128.783 83.1566C128.885 83.1908 129.683 83.3124 130.234 83.3276C131.929 83.3808 132.758 82.7461 133.411 79.5615L128.536 53.0278L133.282 53.1722H133.278Z" fill="white"/>
<path d="M149.384 71.7215L149.258 72.8578C149.049 74.7845 149.562 76.1906 151.253 76.3731C152.85 76.5479 153.613 75.632 153.826 73.6862C154.043 71.7177 153.598 70.513 150.828 68.2442C147.639 65.6372 146.207 63.6535 146.594 60.0888C147.039 56.0453 149.418 53.6131 153.701 54.0805C158.349 54.5898 159.732 57.4932 159.261 61.7723L159.143 62.844L154.883 62.3766L155.046 60.8869C155.255 58.9677 154.754 57.9758 153.298 57.8162C151.873 57.6604 151.189 58.6067 151.018 60.199C150.839 61.8445 151.288 62.6388 153.507 64.4553C157.338 67.5602 158.786 69.5135 158.33 73.6558C157.813 78.3796 155.267 80.5914 150.695 80.0935C145.325 79.5045 144.421 75.917 144.808 72.3675L144.934 71.2389L149.384 71.7253V71.7215Z" fill="white"/>
<path d="M127.544 210.782C110.18 210.691 101.056 200.658 101.155 181.767L101.212 170.947C101.269 159.706 105.092 154.188 109.534 150.597C104.875 146.124 102.853 139.971 102.899 130.9L102.926 125.918C103.017 108.356 112.438 98.2856 128.779 98.2856H128.988C136.562 98.3236 142.555 100.577 146.808 104.974C151.455 109.785 153.789 116.998 153.739 126.415L153.716 130.873C153.659 141.613 150.707 147.199 147.043 150.616C152.394 155.028 154.898 161.694 154.849 171.19L154.8 181.098C154.746 191.332 152.424 198.724 147.704 203.691C143.171 208.46 136.661 210.782 127.81 210.782H127.551H127.544ZM127.905 160.314C125.803 160.314 121.893 160.314 121.847 169.347L121.779 182.576C121.729 192.054 126.187 192.077 127.863 192.085C127.863 192.085 127.928 192.085 127.931 192.085C131.154 192.085 134.05 191.362 134.096 182.671L134.164 169.347C134.206 161.036 131.257 160.333 127.966 160.314H127.909H127.905ZM128.3 116.873C126.571 116.873 122.976 116.873 122.934 125.177L122.892 133.526C122.866 138.877 124.694 141.598 128.331 141.617H128.403C130.333 141.617 133.541 141.586 133.583 133.309L133.624 125.18C133.64 122.182 133.24 119.997 132.439 118.686C131.926 117.846 130.998 116.88 128.346 116.869H128.3V116.873Z" stroke="white" stroke-width="0.8"/>
<path d="M104.385 181.786L104.442 170.966C104.51 157.947 109.998 153.831 114.969 150.749C109.344 147.18 106.072 141.921 106.129 130.923L106.156 125.94C106.239 109.63 114.638 101.451 128.969 101.524C141.529 101.588 150.6 108.375 150.509 126.408L150.486 130.866C150.422 143.695 146.207 147.963 141.362 150.775C147.56 153.914 151.676 159.307 151.615 171.183L151.565 181.09C151.467 200.255 142.943 207.635 127.563 207.556C114.448 207.487 104.286 201.418 104.389 181.79L104.385 181.786ZM137.326 182.69L137.394 169.366C137.44 160.478 134.141 157.118 127.981 157.084C121.821 157.05 118.659 160.907 118.617 169.332L118.548 182.561C118.51 190.112 121.209 195.284 127.848 195.319C134.647 195.353 137.284 191.055 137.326 182.69ZM119.7 125.161L119.658 133.511C119.624 140.442 122.565 144.82 128.311 144.851C133.822 144.877 136.771 141.503 136.813 133.328L136.854 125.203C136.889 118.72 135.224 113.677 128.361 113.643C121.893 113.608 119.734 118.617 119.7 125.161Z" fill="white"/>
</g>
<g clip-path="url(#clip2_1318_87698)">
<path fill-rule="evenodd" clip-rule="evenodd" d="M125.439 268.191L122.724 266.022L129.937 259.894L129.946 259.894C130.518 257.472 131.245 255.715 132.124 254.617C134.335 251.848 136.292 250.971 138.618 250.826C139.874 250.131 140.835 249.911 141.135 249.842C141.162 249.836 141.184 249.831 141.2 249.827C142.503 249.5 145.39 249.37 147.589 250.557C148.377 250.984 149.395 251.618 150.288 252.929C150.734 253.605 151.224 254.68 151.624 256.046C151.158 255.356 150.552 254.695 149.81 254.071C148.007 252.56 146.744 252.287 145.369 252.287C144.592 252.287 143.909 252.398 143.307 252.585C143.914 253.189 144.485 253.948 145.005 254.868H145.002C144.299 254.18 143.651 253.759 142.912 253.617C142.411 253.521 141.928 253.496 141.476 253.517C140.488 254.248 139.836 255.162 139.352 255.839L139.349 255.843C138.719 256.728 138.01 258.079 137.229 259.903C137.491 260.095 137.735 260.277 137.961 260.449C138.622 260.363 139.118 260.229 139.449 260.051C139.819 259.848 140.328 259.333 140.982 258.497C141.264 259.448 141.264 260.278 140.982 260.981C140.808 261.416 140.514 261.876 140.098 262.364C141.745 264.344 142.451 265.908 142.922 267.183C144.847 271.599 144.881 275.794 143.033 279.766C142.811 280.242 142.592 280.697 142.374 281.13L149.661 285.976C149.873 286.422 149.873 286.77 149.661 287.028C149.452 287.285 146.908 290.257 142.03 295.943C141.358 295.319 140.373 295.319 139.08 295.943C137.789 296.567 136.771 296.649 136.032 296.188L136.986 292.85L140.855 293.689L148.349 287.028C143.018 287.424 139.834 287.424 138.798 287.028C138.648 286.97 138.501 286.908 138.356 286.839C138.154 286.998 137.954 287.133 137.756 287.246C137.496 287.431 137.23 287.606 136.956 287.772L130.204 300.708L132.409 302.223C133.418 302.177 134.042 302.262 134.284 302.474C134.59 302.744 134.848 303.135 135.051 303.65L131.618 304.683L129.362 300.956L130.607 289.789C128.966 289.955 127.186 289.925 125.266 289.699C123.632 289.506 122.183 289.186 120.918 288.74C121.303 289.526 121.357 290.484 120.704 291.817L120.701 291.82L113.497 301.877C116.144 302.892 117.965 303.677 118.959 304.234C119.212 304.375 119.657 304.402 120.183 304.434C120.915 304.479 121.804 304.533 122.555 304.916C123.106 305.198 123.769 305.958 124.545 307.2H120.104C120.095 306.582 119.943 306.122 119.646 305.819C119.353 305.516 118.762 305.216 117.871 304.916L111.803 302.75L112.946 295.404C112.964 295.289 112.897 295.176 112.788 295.134C112.689 295.096 112.592 295.057 112.495 295.016L107.278 298.918C107.346 302.71 107.297 304.621 107.135 304.655C107.267 304.654 108.926 304.666 110.068 305.628C110.365 305.876 110.773 306.361 111.301 307.085H107.462C107.232 307.045 107.044 306.827 106.899 306.427C106.754 306.028 106.475 305.637 106.06 305.255C106.136 304.234 106.136 303.274 106.06 302.374C105.984 301.478 105.769 300.178 105.412 298.472L108.767 291.958C108.674 291.818 108.585 291.674 108.498 291.526C107.752 290.247 107.78 288.582 108.312 286.982C107.469 287.1 106.852 287.096 106.454 286.97C106.045 286.843 105.354 286.422 104.375 285.713C105.184 285.743 105.781 285.634 106.169 285.383C106.762 285 107.171 284.551 107.503 284.185C107.789 283.871 108.018 283.619 108.259 283.526V283.529C108.965 283.251 109.72 283.209 110.524 283.396C110.78 283.141 111.049 282.907 111.328 282.699C113.015 281.438 115.502 280.402 118.789 279.603C118.836 279.592 118.889 279.596 118.932 279.61C124.565 277.345 128.688 275.54 131.294 274.195C132.118 273.77 132.989 273.289 133.908 272.752C135.08 271.405 135.666 269.884 135.666 268.191C135.666 265.958 132.258 265.955 125.439 268.191Z" fill="white"/>
</g>
</g>
<defs>
<clipPath id="clip0_1318_87698">
<rect width="256" height="360" fill="white"/>
</clipPath>
<clipPath id="clip1_1318_87698">
<rect width="62.8797" height="160" fill="white" transform="translate(96.5601 51.2)"/>
</clipPath>
<clipPath id="clip2_1318_87698">
<rect width="47.2548" height="57.6" fill="white" transform="translate(104.373 249.6)"/>
</clipPath>
</defs>
</svg>
