<svg width="256" height="360" viewBox="0 0 256 360" fill="none" xmlns="http://www.w3.org/2000/svg">
<g clip-path="url(#clip0_1256_88165)">
<path d="M62 63.2387L67.0981 61.7341C70.9275 60.6046 73.3915 61.9545 74.637 66.1746L75.0741 67.6561C76.2345 71.5938 75.7278 74.7115 71.1132 76.073L69.5389 76.5372L72.6411 87.0351L69.3184 88.0176L62 63.2387ZM68.7305 73.7947L69.9566 73.4311C72.5173 72.673 72.4748 71.0213 71.7398 68.538L71.3646 67.2731C70.8076 65.3855 69.9605 63.8963 67.659 64.5771L66.1388 65.0258L68.7266 73.7909L68.7305 73.7947Z" fill="white"/>
<path d="M79.3949 71.5396C78.6561 68.3639 78.3234 66.8283 77.8245 64.9755L81.0272 64.2289C81.1665 64.6506 81.5804 66.1475 81.8511 67.2925C82.0097 64.5964 83.5028 63.378 85.255 62.9486L86.2259 67.1107C83.9438 67.6561 82.354 68.9751 83.2359 72.7464L85.754 83.5384L82.3811 84.3275L79.3988 71.5396H79.3949Z" fill="white"/>
<path d="M92.782 72.793L93.308 75.8062C93.6059 77.5004 94.2596 79.0902 95.9267 78.7962C97.6055 78.5022 97.6093 77.0169 97.3308 75.4155L97.3115 75.2956L100.646 74.7115L100.665 74.8237C101.04 76.9666 101.23 80.8618 96.4953 81.6857C91.8807 82.4902 90.5617 79.7129 89.8693 75.7482L88.6818 68.9636C88.1944 66.1631 88.4691 62.2757 92.9715 61.4904C96.9866 60.7903 98.7311 63.3819 99.377 67.0798C99.5704 68.1938 99.9534 70.387 100.151 71.5088L92.7858 72.7968L92.782 72.793ZM96.3948 69.3658L96.0118 67.1765C95.6946 65.3585 95.0989 64.1014 93.4628 64.3876C91.9581 64.6507 91.6061 65.9039 91.9542 67.896L92.3333 70.0737L96.3948 69.3658Z" fill="white"/>
<path d="M105.961 73.8103L106.061 74.7C106.231 76.2085 106.862 77.1949 108.185 77.044C109.434 76.9048 109.864 76.077 109.693 74.5491C109.523 73.0096 108.978 72.1625 106.471 70.9054C103.59 69.4587 102.155 68.1861 101.845 65.3972C101.493 62.2332 102.893 59.9665 106.247 59.5951C109.883 59.189 111.438 61.1733 111.809 64.5231L111.902 65.3624L108.568 65.7338L108.436 64.5695C108.27 63.0687 107.717 62.3956 106.576 62.5233C105.462 62.647 105.102 63.4903 105.237 64.7319C105.38 66.02 105.86 66.5499 107.868 67.5595C111.326 69.2769 112.765 70.5224 113.124 73.7639C113.538 77.4618 111.972 79.5853 108.39 79.9876C104.185 80.4557 102.882 77.8679 102.572 75.0906L102.476 74.2048L105.957 73.818L105.961 73.8103Z" fill="white"/>
<path d="M113.136 59.2005L115.314 59.069L115.024 54.2571L118.47 54.0482L118.76 58.8601L121.379 58.7015L121.561 61.7457L118.942 61.9043L119.692 74.3015C119.75 75.2724 119.952 76.1117 121.174 76.0382C121.534 76.015 122.079 75.9454 122.315 75.8526L122.474 78.4829C121.855 78.8116 120.907 78.9354 120.191 78.978C117.944 79.1134 116.482 78.4016 116.285 75.1331L115.499 62.1132L113.322 62.2447L113.136 59.2005Z" fill="white"/>
<path d="M134.848 64.4226L134.898 72.3444C134.925 76.6264 132.856 78.7152 129.336 78.7384C125.735 78.7616 123.808 76.6806 123.781 72.476L123.727 64.3685C123.7 60.2644 125.955 58.2569 129.316 58.2337C132.809 58.2105 134.817 60.396 134.844 64.4188L134.848 64.4226ZM127.208 64.3066L127.262 72.5765C127.274 74.4177 127.87 75.671 129.386 75.6633C130.802 75.6555 131.44 74.6382 131.425 72.4953L131.37 64.2524C131.359 62.5427 130.84 61.305 129.274 61.3166C127.819 61.3243 127.193 62.3764 127.204 64.3066H127.208Z" fill="white"/>
<path d="M144.97 53L148.424 53.2824L146.583 75.9416L153.062 76.4676L152.486 79.535L142.881 78.7537L144.97 53Z" fill="white"/>
<path d="M164.651 77.4037C164.465 78.6879 164.218 80.4982 164.183 81.1828L161.034 80.7302C161.007 80.3048 161.004 79.4963 161.019 79.1869C160.176 80.4015 158.977 80.7457 157.522 80.5368C154.613 80.1191 153.824 77.2993 154.258 74.3015L154.308 73.9572C154.985 69.273 158.242 68.306 161.773 68.8127C161.951 68.8398 162.152 68.8669 162.392 68.9017L162.791 66.1399C163.027 64.4959 162.934 63.4902 161.595 63.2968C160.284 63.1073 159.804 64.0743 159.607 65.4281L159.549 65.8343L156.172 65.3469L156.223 64.9949C156.629 62.1867 158.068 59.9007 162.121 60.4847C165.769 61.0108 166.686 63.3046 166.241 66.3681L164.651 77.4037ZM162.075 71.5552C161.878 71.5281 161.464 71.4662 161.294 71.443C159.325 71.1606 157.971 71.764 157.592 74.3789L157.545 74.696C157.321 76.2394 157.677 77.4811 159.031 77.6745C160.551 77.8949 161.309 76.8467 161.711 74.0733L162.075 71.5552Z" fill="white"/>
<path d="M172.96 55.3596L176.348 56.0868L174.499 64.7242C175.362 63.6257 176.689 63.0919 178.387 63.4555C181.234 64.0667 181.914 66.6467 181.176 70.0931L179.667 77.1369C178.758 81.3802 177.335 84.1729 173.644 83.3838C171.784 82.9854 171.092 81.8714 170.867 80.6336C170.681 81.3802 170.546 81.8675 170.357 82.3859L167.278 81.7283C167.606 80.5137 167.947 78.777 168.399 76.6727L172.96 55.3596ZM176.139 77.0247L177.663 69.8997C178.093 67.8999 177.973 66.5654 176.476 66.2444C174.646 65.8537 173.923 67.37 173.405 69.7798L172.066 76.0306C171.532 78.5178 171.892 79.8059 173.385 80.1269C174.685 80.4054 175.613 79.4616 176.135 77.0208L176.139 77.0247Z" fill="white"/>
<path d="M184.715 79.5349L184.471 80.3937C184.057 81.8558 184.274 83.0046 185.554 83.3682C186.765 83.7086 187.473 83.1013 187.89 81.6276C188.312 80.1345 188.126 79.1481 186.281 77.04C184.158 74.6148 183.307 72.8973 184.069 70.1935C184.935 67.13 187.086 65.5596 190.335 66.4763C193.859 67.4704 194.547 69.8918 193.634 73.1372L193.406 73.9494L190.176 73.0366L190.494 71.9071C190.904 70.4527 190.644 69.6211 189.542 69.3078C188.463 69.0022 187.813 69.6481 187.473 70.8511C187.121 72.0966 187.364 72.7697 188.846 74.46C191.403 77.3534 192.265 79.0476 191.379 82.1884C190.366 85.7703 188.119 87.1473 184.649 86.1687C180.58 85.0199 180.344 82.1304 181.106 79.4382L181.346 78.5834L184.719 79.5349H184.715Z" fill="white"/>
<path d="M101.056 209.461L101.082 204.443C101.3 185.011 109.813 171.351 120.919 155.511C129.422 143.511 131.645 139.945 131.699 129.519C131.764 116.758 129.634 116.746 126.937 116.733H126.894C125.009 116.733 121.855 116.733 121.804 126.617L121.761 134.998L102.074 134.898L102.119 126.086C102.237 103.088 115.97 98.2612 127.469 98.2612L127.686 98.2616C136.838 98.3084 143.548 101.386 147.632 107.408C150.982 112.349 152.587 119.346 152.539 128.796C152.45 146.095 146.903 153.655 138.506 165.098L138.296 165.385C132.703 173.102 126.297 182.671 124.16 190.769L154.877 190.927L151.792 209.721L101.056 209.461V209.461Z" stroke="white" stroke-width="0.8"/>
<path d="M104.304 206.246L104.313 204.46C104.519 186.188 112.203 173.572 123.565 157.366C132.139 145.266 134.871 141.058 134.931 129.536C134.988 118.273 133.532 113.535 126.954 113.501C120.933 113.47 118.616 118.061 118.572 126.601L118.546 131.75L105.322 131.683L105.351 126.103C105.411 114.419 109.176 101.399 127.669 101.493C144.837 101.581 149.388 112.919 149.307 128.78C149.223 145.164 144.23 151.834 135.69 163.473C127.365 174.96 121.128 185.429 120.287 193.981L151.075 194.14L149.05 206.476L104.304 206.246Z" fill="white"/>
<g clip-path="url(#clip1_1256_88165)">
<path d="M176.766 268.924C175.608 267.766 173.808 267.685 172.545 268.655L170.359 266.469C171.072 265.463 170.99 264.06 170.09 263.16C169.084 262.155 167.447 262.155 166.442 263.16C165.436 264.165 165.436 265.802 166.442 266.808C167.342 267.708 168.745 267.802 169.751 267.077L171.937 269.263C171.06 270.409 171.06 271.999 171.937 273.145L166.781 278.301C166.243 277.891 165.565 277.634 164.828 277.634C163.051 277.634 161.602 279.072 161.602 280.861C161.602 282.638 163.04 284.088 164.828 284.088C166.606 284.088 168.055 282.65 168.055 280.861C168.055 280.125 167.81 279.446 167.389 278.909L172.545 273.753C173.808 274.711 175.608 274.629 176.766 273.484C178.028 272.221 178.028 270.187 176.766 268.924Z" fill="white"/>
<path d="M164.828 272.279C160.093 272.279 156.235 276.138 156.235 280.873C156.235 285.608 160.093 289.466 164.828 289.466C169.564 289.466 173.422 285.608 173.422 280.873C173.422 276.138 169.564 272.279 164.828 272.279ZM164.828 286.017C161.987 286.017 159.672 283.702 159.672 280.861C159.672 278.02 161.987 275.705 164.828 275.705C167.67 275.705 169.984 278.02 169.984 280.861C169.984 283.702 167.67 286.017 164.828 286.017Z" fill="white"/>
<path d="M151.301 275.927H154.517V272.923H151.29V267.989H147.852V272.923H145.28V275.927H147.852V285.164C147.852 287.537 149.77 289.454 152.143 289.454H152.786C153.64 289.454 154.505 289.244 154.505 289.244V285.807C154.505 285.807 153.651 286.017 152.786 286.017H152.576C151.863 286.017 151.29 285.444 151.29 284.731V275.927H151.301Z" fill="white"/>
<path d="M140.136 284.415C140.136 283.106 138.85 282.381 136.699 282.381H135.623C130.899 282.381 128.748 280.347 128.748 277.225C128.748 274.536 131.11 272.291 135.833 272.291C140.557 272.291 142.918 274.548 142.918 277.447H139.481V277.342C139.481 276.032 138.195 275.308 136.044 275.308H135.611C133.46 275.308 132.174 276.044 132.174 277.342C132.174 278.64 133.46 279.376 135.611 279.376H136.897C141.621 279.376 143.55 281.411 143.55 284.532C143.55 287.221 140.756 289.466 136.032 289.466C131.309 289.466 128.514 287.642 128.514 284.532V283.889H131.952V284.427C131.952 285.737 133.238 286.461 135.389 286.461H136.675C138.85 286.45 140.136 285.713 140.136 284.415Z" fill="white"/>
<path d="M89.3474 267.334C93.1939 267.334 96.3273 270.467 96.3273 274.314C96.3273 278.16 93.1939 281.294 89.3474 281.294H82.157V288.811H78.2871V267.334H89.3474ZM82.157 270.771V277.856V270.771ZM82.157 277.856H88.9265C90.879 277.856 92.4691 276.266 92.4691 274.314C92.4691 272.361 90.879 270.771 88.9265 270.771H82.157V277.856Z" fill="white"/>
<path d="M106.85 272.49C104.652 272.49 103.214 273.495 102.337 275.214V272.922H98.8994V288.811H102.337V280.218C102.337 277.845 103.412 275.705 106.417 275.705C107.271 275.705 108.136 275.916 108.136 275.916V272.712C108.136 272.712 107.493 272.49 106.85 272.49Z" fill="white"/>
<path d="M124.352 282.159H126.293C126.351 281.738 126.386 281.305 126.386 280.873C126.386 276.149 122.949 272.279 117.793 272.279C112.637 272.279 109.2 276.149 109.2 280.873C109.2 285.596 112.637 289.466 117.793 289.466C121.616 289.466 124.492 287.338 125.72 284.31H122.189C121.406 285.69 119.979 286.461 117.793 286.461C114.66 286.461 113.081 284.871 112.719 282.171H122.867H124.352V282.159ZM117.805 275.284C120.774 275.284 122.341 276.699 122.809 279.154H112.801C113.257 276.699 114.835 275.284 117.805 275.284Z" fill="white"/>
</g>
</g>
<defs>
<clipPath id="clip0_1256_88165">
<rect width="256" height="360" fill="white"/>
</clipPath>
<clipPath id="clip1_1256_88165">
<rect width="99.4256" height="32" fill="white" transform="translate(78.2871 262.4)"/>
</clipPath>
</defs>
</svg>
