<svg width="48" height="48" viewBox="0 0 48 48" fill="none" xmlns="http://www.w3.org/2000/svg">
<mask id="mask0_2234_173987" style="mask-type:alpha" maskUnits="userSpaceOnUse" x="6" y="5" width="36" height="39">
<path d="M37.4838 22.7693C36.7365 22.5628 36.1205 22.0274 35.7845 21.3291C35.7757 21.3134 35.7687 21.2958 35.76 21.2801C35.2927 20.3158 35.4677 19.1801 36.1765 18.3751C37.3665 17.0206 38.0892 15.2443 38.0892 13.3001C38.0892 9.0476 34.6417 5.6001 30.3892 5.6001C26.989 5.6001 24.105 7.8051 23.0848 10.8623C22.7488 11.8686 21.8195 12.5458 20.7625 12.6421C12.7895 13.2248 6.5 19.8784 6.5 28.0001C6.5 36.1218 13.395 43.4001 21.9 43.4001C28.0145 43.4001 33.2942 39.8353 35.781 34.6711C36.1065 33.9956 36.7295 33.5196 37.454 33.3236C39.7832 32.6953 41.5 30.5708 41.5 28.0421C41.5 25.5133 39.7972 23.4046 37.482 22.7693H37.4838Z" fill="black"/>
</mask>
<g mask="url(#mask0_2234_173987)">
<path d="M41.5 5.6001H6.5V43.4001H41.5V5.6001Z" fill="url(#paint0_radial_2234_173987)"/>
<path d="M41.5 5.6001H6.5V43.4001H41.5V5.6001Z" fill="url(#paint1_radial_2234_173987)"/>
</g>
<defs>
<radialGradient id="paint0_radial_2234_173987" cx="0" cy="0" r="1" gradientUnits="userSpaceOnUse" gradientTransform="translate(10.8169 17.4393) scale(39.7065)">
<stop offset="0.05" stop-color="#26B0FF"/>
<stop offset="0.5" stop-color="#3463F9"/>
<stop offset="0.75" stop-color="#6938F4"/>
</radialGradient>
<radialGradient id="paint1_radial_2234_173987" cx="0" cy="0" r="1" gradientUnits="userSpaceOnUse" gradientTransform="translate(24.9748 6.0866) scale(13.517)">
<stop stop-color="#26B0FF" stop-opacity="0.7"/>
<stop offset="0.4" stop-color="#26B0FF" stop-opacity="0.4"/>
<stop offset="0.51" stop-color="#26B0FF" stop-opacity="0.28"/>
<stop offset="0.68" stop-color="#26B0FF" stop-opacity="0.13"/>
<stop offset="0.82" stop-color="#26B0FF" stop-opacity="0.04"/>
<stop offset="0.9" stop-color="#26B0FF" stop-opacity="0"/>
</radialGradient>
</defs>
</svg>
