<svg width="256" height="360" viewBox="0 0 256 360" fill="none" xmlns="http://www.w3.org/2000/svg">
<g clip-path="url(#clip0_2444_39746)">
<path d="M113.92 78.472L111.24 78.752C111.104 78.328 110.92 77.288 110.832 76.736C110.336 78.584 108.928 79.352 107.28 79.528C103.624 79.904 102.16 77.36 101.72 73.136L100.456 60.824C100.024 56.648 101.384 53.624 105.536 53.2C110.512 52.688 111.552 56.224 111.856 59.176L111.936 59.928L108.512 60.28L108.424 59.392C108.264 57.864 107.88 56.112 105.848 56.328C104.272 56.488 103.648 57.608 103.896 60.016L105.24 73.112C105.472 75.352 106.224 76.584 107.832 76.416C109.808 76.216 110.032 74.432 109.736 71.544L109.336 67.68L106.848 67.936L106.544 64.976L112.464 64.368L113.92 78.504V78.472Z" fill="white"/>
<path d="M118.976 52.552L119.624 72.232C119.688 74.208 120.4 75.408 122.088 75.352C123.824 75.296 124.352 74.008 124.296 72.088L123.648 52.4L127.096 52.288L127.736 71.888C127.872 75.896 126.136 78.344 122.12 78.472C118.264 78.6 116.312 76.544 116.176 72.296L115.536 52.656L118.976 52.544V52.552Z" fill="white"/>
<path d="M143.808 68.464C144.032 63.968 144.344 58.696 144.568 55.848H144.528C143.704 60.2 141.528 70.88 139.944 78.32L136.664 78.16C136.072 71.488 134.952 60 134.584 55.336H134.504C134.432 58.312 134.28 64.128 134.064 68.528L133.6 78.016L130.464 77.864L131.72 52.24L136.832 52.488C137.664 59.504 138.56 67.744 138.736 71.216H138.776C139.352 67.792 141.408 59.28 142.912 52.784L147.872 53.024L146.616 78.648L143.328 78.488L143.816 68.472L143.808 68.464Z" fill="white"/>
<path d="M155.624 53.952L152.752 79.44L149.336 79.056L152.208 53.568L155.624 53.952Z" fill="white"/>
<path d="M98.3042 206.632V119.24C95.4242 120.024 89.6962 120.752 87.1682 120.832V109.832C93.5682 108.968 99.3442 105.4 102.192 102.056H112.632V206.632H98.2962H98.3042Z" fill="white"/>
<path d="M168.824 102.632V113.456C156.36 137.64 146.52 169.304 142.2 206.632H127.592C131.24 172.632 142.376 137.704 154.232 115.296H123.656V102.632H168.816H168.824Z" fill="white"/>
<path d="M115.24 99.456V209.232H95.7042V122.456L94.7762 122.608C92.0642 123.048 89.0402 123.376 87.2562 123.432L84.5762 123.512V107.552L86.8322 107.248C92.6722 106.464 97.8722 103.128 100.224 100.368L101 99.456H115.248M116.048 98.656H100.632L99.6162 99.856C97.3602 102.504 92.3602 105.704 86.7282 106.464L83.7842 106.864V124.344L87.2882 124.232C89.1042 124.176 92.1442 123.84 94.9122 123.392V210.032H116.048V98.656Z" fill="white"/>
<path d="M98.3042 206.632V119.24C95.4242 120.024 89.6962 120.752 87.1682 120.832V109.832C93.5682 108.968 99.3442 105.4 102.192 102.056H112.632V206.632H98.2962H98.3042Z" fill="white"/>
<path d="M171.432 100.032V114.088L171.144 114.648C157.928 140.304 148.816 172.216 144.792 206.928L144.528 209.232H124.712L125.024 206.352C128.24 176.416 137.36 143.776 149.424 119.048L149.984 117.896H121.072V100.024H171.44M172.24 99.224H120.272V118.696H148.704C136.712 143.28 127.448 176.24 124.224 206.264L123.824 210.032H145.248L145.6 207.024C149.608 172.408 158.688 140.592 171.864 115.016L172.24 114.28V99.224Z" fill="white"/>
<path d="M168.824 102.632V113.456C156.36 137.64 146.52 169.304 142.2 206.632H127.592C131.24 172.632 142.376 137.704 154.232 115.296H123.656V102.632H168.816H168.824Z" fill="white"/>
<g clip-path="url(#clip1_2444_39746)">
<path d="M66.2399 264.19H158.604V259.2H60.3508V261.831V264.19V284.574V286.271V289.565H102.066L109.481 284.745V278.799L100.583 284.574H66.2399V264.19Z" fill="white"/>
<path d="M190.573 289.565H195.642V270.8H190.573V289.565ZM193.054 269.359C193.566 269.361 194.067 269.21 194.494 268.927C194.92 268.643 195.253 268.24 195.45 267.767C195.647 267.294 195.699 266.773 195.6 266.271C195.501 265.768 195.255 265.307 194.894 264.944C194.532 264.581 194.071 264.334 193.569 264.234C193.066 264.133 192.546 264.184 192.072 264.38C191.599 264.575 191.194 264.907 190.91 265.333C190.625 265.759 190.473 266.259 190.473 266.771C190.473 267.457 190.745 268.114 191.229 268.599C191.712 269.084 192.369 269.358 193.054 269.359ZM179.928 270.457C178.766 270.448 177.62 270.737 176.601 271.298C175.583 271.858 174.725 272.671 174.111 273.659C173.602 272.804 172.906 272.075 172.075 271.529C171.243 270.984 170.298 270.634 169.311 270.508C168.325 270.381 167.322 270.481 166.38 270.8C165.437 271.118 164.58 271.647 163.873 272.347V270.8H159.131V289.565H164.193V278.222C164.223 277.356 164.589 276.536 165.213 275.936C165.837 275.335 166.671 275.002 167.537 275.006C167.957 275.009 168.372 275.095 168.758 275.261C169.144 275.426 169.493 275.667 169.785 275.969C170.077 276.271 170.305 276.629 170.456 277.021C170.608 277.412 170.679 277.83 170.667 278.25V289.565H175.736V278.222C175.768 277.355 176.135 276.535 176.76 275.935C177.386 275.335 178.22 275.002 179.087 275.006C179.505 275.009 179.917 275.094 180.301 275.258C180.686 275.422 181.033 275.66 181.325 275.959C181.616 276.258 181.845 276.612 181.998 277.001C182.151 277.389 182.226 277.804 182.217 278.222V289.565H187.258V277.922C187.289 276.945 187.121 275.972 186.766 275.061C186.41 274.15 185.873 273.321 185.188 272.623C184.503 271.926 183.684 271.374 182.78 271.002C181.876 270.63 180.906 270.444 179.928 270.457ZM150.626 282.35C150.602 283.23 150.233 284.065 149.6 284.677C148.967 285.289 148.12 285.628 147.239 285.622C146.816 285.619 146.397 285.532 146.007 285.365C145.618 285.198 145.266 284.955 144.971 284.651C144.677 284.346 144.447 283.985 144.294 283.59C144.141 283.195 144.068 282.773 144.081 282.35V270.8H139.019V282.571C139.019 287.675 142.705 290.142 146.484 290.142C147.341 290.156 148.19 289.969 148.964 289.598C149.737 289.227 150.413 288.681 150.94 288.003V289.558H155.688V270.8H150.626V282.35ZM130.827 272.09C129.334 271.017 127.539 270.445 125.701 270.457C124.386 270.422 123.077 270.65 121.852 271.129C120.627 271.608 119.51 272.327 118.568 273.245C117.625 274.162 116.876 275.259 116.365 276.471C115.853 277.683 115.59 278.985 115.59 280.3C115.59 281.615 115.853 282.917 116.365 284.129C116.876 285.341 117.625 286.438 118.568 287.355C119.51 288.272 120.627 288.992 121.852 289.47C123.077 289.949 124.386 290.178 125.701 290.142C127.526 290.167 129.311 289.61 130.798 288.552C130.73 289.812 130.168 290.994 129.233 291.842C128.299 292.689 127.068 293.134 125.808 293.08C124.875 293.087 123.956 292.861 123.133 292.423C122.31 291.985 121.609 291.348 121.095 290.57L117.188 293.108C118.614 296.003 121.922 297.6 125.744 297.6C132.795 297.6 135.647 292.752 135.647 287.319V270.8H130.827V272.09ZM125.708 285.579C124.336 285.529 123.036 284.948 122.083 283.96C121.13 282.971 120.598 281.652 120.598 280.278C120.598 278.905 121.13 277.586 122.083 276.597C123.036 275.608 124.336 275.028 125.708 274.978C127.07 275.024 128.359 275.607 129.294 276.599C130.228 277.591 130.733 278.912 130.699 280.275C130.731 281.638 130.226 282.958 129.292 283.951C128.358 284.944 127.07 285.529 125.708 285.579Z" fill="white"/>
</g>
</g>
<defs>
<clipPath id="clip0_2444_39746">
<rect width="256" height="360" fill="white"/>
</clipPath>
<clipPath id="clip1_2444_39746">
<rect width="135.298" height="57.6" fill="white" transform="translate(60.3508 249.6)"/>
</clipPath>
</defs>
</svg>
