<svg width="73" height="72" viewBox="0 0 73 72" fill="none" xmlns="http://www.w3.org/2000/svg">
<g clip-path="url(#clip0_2127_48491)">
<path d="M36.5938 0C16.7146 0 0.59375 16.1208 0.59375 36C0.59375 38.1528 0.79535 40.2552 1.15535 42.3H9.14735C10.1698 42.3 10.7818 41.9688 11.1778 41.328L13.9858 36.6768L17.5786 47.8296C17.9314 48.9528 18.7666 49.536 19.8897 49.5432C21.0417 49.5504 21.9922 48.8448 22.2154 47.6928L24.8218 35.4096L27.6586 54.9936C27.8314 56.2824 28.4578 56.9304 29.7538 56.9304H29.7682C31.057 56.9304 31.6761 56.232 31.8561 54.9504L37.6378 16.8336C37.8034 15.6528 36.9753 14.5584 35.7946 14.3928C34.621 14.2344 33.5194 15.0552 33.3538 16.236L29.7898 40.6728L27.3922 24.3648C27.2338 23.112 26.2834 22.3344 25.2466 22.3128C24.073 22.284 23.2017 23.0184 22.957 24.264L19.5154 40.2192L16.7649 31.6584C16.549 30.7296 15.721 30.0384 14.8138 29.9304C13.561 29.7792 12.8482 30.4272 12.3226 31.284L8.06735 37.98H5.52575C5.48255 37.3248 5.45375 36.6624 5.45375 36C5.45375 18.7992 19.393 4.86 36.5938 4.86C50.461 4.86 62.2113 13.932 66.2362 26.46H71.305C67.1217 11.2104 53.1754 0 36.5938 0Z" fill="#1A1A1A"/>
<path d="M72.0322 29.7H64.0258C63.0034 29.7 62.3913 30.0312 61.9953 30.672L59.1874 35.3232L55.5946 24.1704C55.2418 23.0472 54.4066 22.464 53.2834 22.4568C52.1314 22.4496 51.181 23.1552 50.9577 24.3072L48.3514 36.5904L45.5146 17.0064C45.3418 15.7176 44.7154 15.0696 43.4193 15.0696H43.4049C42.1161 15.0696 41.497 15.768 41.317 17.0496L35.5354 55.1664C35.3698 56.3472 36.1978 57.4416 37.3786 57.6072C38.5522 57.7656 39.6538 56.9448 39.8194 55.764L43.3834 31.3272L45.781 47.6352C45.9394 48.888 46.8898 49.6656 47.9266 49.6872C49.1002 49.716 49.9714 48.9816 50.2162 47.736L53.6577 31.7808L56.4081 40.3416C56.6241 41.2704 57.4522 41.9616 58.3594 42.0696C59.6122 42.2208 60.325 41.5728 60.8506 40.716L65.1058 34.02H67.6618C67.705 34.6752 67.7337 35.3376 67.7337 36C67.7337 53.2008 53.7946 67.14 36.5938 67.14C22.7266 67.14 10.9762 58.068 6.95135 45.54H1.88255C6.06575 60.7896 20.0194 72 36.5938 72C56.473 72 72.5938 55.8792 72.5938 36C72.5938 33.8472 72.3922 31.7448 72.0322 29.7Z" fill="#1A1A1A"/>
</g>
<defs>
<clipPath id="clip0_2127_48491">
<rect width="72" height="72" fill="white" transform="translate(0.59375)"/>
</clipPath>
</defs>
</svg>
