<svg width="256" height="360" viewBox="0 0 256 360" fill="none" xmlns="http://www.w3.org/2000/svg">
<g clip-path="url(#clip0_1256_88159)">
<g clip-path="url(#clip1_1256_88159)">
<path d="M86.933 83.272L78.7539 58.9874L82.3144 58.3112C84.0483 63.8557 86.766 72.8758 87.7959 77.2191L87.8597 77.2072C87.4367 72.3718 87.07 63.2627 86.7579 57.4673L90.0642 56.839C91.9487 62.464 94.822 70.4706 96.2114 75.4618L96.2975 75.4458C95.7082 70.7749 95.0491 61.9404 94.5971 55.978L97.9895 55.3333L99.0015 80.9793L95.5197 81.6406C93.6878 76.0905 90.9556 68.3174 89.5676 63.7006L89.5045 63.7125C89.8875 68.7438 90.1343 76.9207 90.3885 82.6152L86.933 83.272Z" fill="white"/>
<path d="M112.309 67.4382L106.713 68.0383L107.648 76.747L114.056 76.0597L113.951 79.2194L104.597 80.2229L101.889 54.9822L111.183 53.9854L111.52 57.1244L105.61 57.7582L106.379 64.9261L111.975 64.3256L112.309 67.4382Z" fill="white"/>
<path d="M128.632 68.6766C128.507 64.2213 128.42 58.9993 128.416 56.1702L128.378 56.1713C127.897 60.5305 126.569 71.2299 125.572 78.6939L122.321 78.7859C121.228 72.2472 119.247 60.9992 118.525 56.4229L118.449 56.4252C118.608 59.3748 118.896 65.1187 119.018 69.476L119.284 78.8717L116.174 78.9596L115.458 53.5839L120.518 53.4406C121.87 60.3004 123.389 68.3656 123.827 71.7755L123.866 71.7744C124.176 68.3467 125.549 59.7972 126.538 53.2706L131.45 53.1318L132.167 78.5076L128.913 78.5996L128.632 68.6766Z" fill="white"/>
<path d="M138.813 71.5027L137.385 78.7781L133.933 78.5877L139.448 53.4662L144.264 53.7315L147.146 79.3166L143.591 79.1207L142.869 71.7265L138.813 71.5027ZM142.628 68.5779C142.186 63.6961 141.829 59.4824 141.706 56.7985L141.577 56.7914C141.362 58.8203 140.234 64.3181 139.426 68.4012L142.628 68.5779Z" fill="white"/>
<path d="M152.209 54.3439L157.252 54.9845C162.635 55.6681 163.293 58.8189 162.735 63.2085L161.493 72.9868C161.003 76.8428 159.844 80.9021 153.977 80.1569L149.01 79.526L152.209 54.3439ZM152.754 77.061L154.115 77.2339C156.877 77.585 157.617 75.9743 157.985 73.0774L159.334 62.4581C159.66 59.8926 159.409 58.2259 156.572 57.8651L155.215 57.6929L152.754 77.061Z" fill="white"/>
<path d="M174.351 71.5461L168.827 70.4673L167.149 79.0635L173.474 80.299L172.442 83.2869L163.208 81.4836L168.073 56.5688L177.247 58.3602L176.642 61.4587L170.809 60.3197L169.427 67.3948L174.951 68.4736L174.351 71.5461Z" fill="white"/>
<path d="M101.06 209.623L101.197 182.869L71.9358 182.719L72.0096 168.372L96.7638 99.5401L121.248 99.6655L120.914 164.719L129.175 164.761L127.329 183.003L120.82 182.97L120.683 209.724L101.06 209.623ZM101.291 164.618L101.383 146.701C101.395 144.305 101.429 141.893 101.477 139.481C98.8885 147.656 96.1856 155.936 93.3417 164.577L101.291 164.618Z" stroke="white" stroke-width="0.8"/>
<path d="M104.308 206.408L104.446 179.654L75.1843 179.504L75.2385 168.944L99.0318 102.783L117.999 102.881L117.666 167.934L125.602 167.975L124.409 179.756L117.605 179.722L117.468 206.475L104.308 206.408ZM104.615 146.717C104.667 136.58 105.102 126.332 105.361 116.243L105.202 116.242C100.111 133.618 94.5628 150.556 88.8824 167.786L104.507 167.866L104.615 146.717Z" fill="white"/>
<path d="M156.656 210.988C147.605 210.942 140.799 207.871 136.426 201.863C132.657 196.686 130.771 189.27 130.819 179.822L131.077 129.452C131.18 109.417 140.685 98.3835 157.84 98.3835L158.048 98.3839C166.497 98.4273 173.052 101.129 177.53 106.415C181.916 111.591 184.114 119.117 184.064 128.783L183.802 179.887C183.753 189.57 181.869 196.775 178.044 201.914C173.562 207.935 166.446 210.989 156.892 210.989L156.656 210.988ZM157.575 117.893C155.378 117.893 151.701 117.893 151.65 127.993L151.376 181.349C151.356 185.169 151.886 187.924 152.951 189.539C153.542 190.435 154.571 191.466 157.299 191.48H157.373C159.649 191.48 163.066 191.448 163.12 180.978L163.393 127.767C163.444 117.923 159.516 117.903 157.628 117.893H157.575Z" stroke="white" stroke-width="0.8"/>
<path d="M180.833 128.766L180.571 179.87C180.486 196.393 174.854 207.849 156.673 207.756C139.895 207.67 133.966 196.362 134.051 179.839L134.309 129.469C134.405 110.842 142.785 101.537 158.031 101.616C172.958 101.692 180.925 110.857 180.833 128.766ZM148.418 127.977L148.144 181.332C148.099 190.155 150.767 194.678 157.282 194.712C163.48 194.743 166.303 190.581 166.352 180.995L166.625 127.783C166.67 118.963 163.7 114.692 157.645 114.661C151.766 114.631 148.467 118.344 148.418 127.977Z" fill="white"/>
</g>
<g clip-path="url(#clip2_1256_88159)">
<path d="M87.5663 283.423C87.5663 284.114 87.3936 284.632 87.0484 284.977C86.7026 285.323 86.217 285.496 85.5905 285.496C84.9158 285.496 84.4219 285.307 84.1084 284.929C83.7951 284.552 83.6387 284.042 83.6387 283.399V269.329H80V283.231C80 283.89 80.0923 284.5 80.2771 285.062C80.4617 285.624 80.767 286.11 81.1929 286.519C81.6182 286.929 82.1686 287.25 82.8433 287.483C83.5183 287.716 84.3533 287.833 85.3495 287.833C86.5062 287.833 87.3977 287.676 88.0242 287.363C88.6506 287.05 89.1002 286.708 89.3735 286.339C89.6465 286.708 90.1044 287.05 90.7471 287.363C91.3892 287.676 92.2893 287.833 93.4458 287.833C94.4097 287.833 95.229 287.72 95.9037 287.495C96.5784 287.271 97.1285 286.957 97.5542 286.556C97.9798 286.154 98.2892 285.668 98.482 285.098C98.6749 284.528 98.7713 283.905 98.7713 283.231V269.329H95.1808V283.399C95.1808 284.026 95.0199 284.532 94.6987 284.917C94.3772 285.303 93.8797 285.496 93.2047 285.496C92.5623 285.496 92.0684 285.323 91.7229 284.977C91.3774 284.632 91.205 284.114 91.205 283.423V269.329H87.5663V283.423ZM101.783 287.471H111.663V285.158H105.398V279.159H111.036V276.798H105.398V271.642H111.422V269.329H101.783V287.471ZM121.904 287.471H125.494V273.377C125.494 272.702 125.666 272.188 126.012 271.835C126.357 271.482 126.851 271.304 127.494 271.304C128.169 271.304 128.667 271.493 128.988 271.871C129.309 272.248 129.47 272.767 129.47 273.425V287.471H133.084V273.569C133.084 272.927 132.996 272.325 132.819 271.762C132.642 271.2 132.345 270.714 131.928 270.305C131.51 269.895 130.964 269.57 130.289 269.329C129.614 269.088 128.771 268.968 127.759 268.968C126.618 268.968 125.731 269.12 125.096 269.425C124.462 269.731 124 270.092 123.711 270.509C123.437 270.108 122.98 269.75 122.337 269.437C121.695 269.124 120.803 268.968 119.663 268.968C118.699 268.968 117.879 269.08 117.205 269.305C116.53 269.53 115.976 269.843 115.542 270.244C115.109 270.646 114.795 271.132 114.603 271.702C114.41 272.273 114.313 272.895 114.313 273.569V287.471H117.928V273.425C117.928 272.767 118.088 272.248 118.41 271.871C118.731 271.493 119.237 271.304 119.928 271.304C121.245 271.304 121.904 271.995 121.904 273.377V287.471ZM140.265 279.545L141.518 271.642H142.819L144.072 279.545H140.265ZM144.41 281.882L145.277 287.471H149.06L145.928 269.329H138.41L135.325 287.471H139.084L139.928 281.882H144.41ZM163.253 273.931C163.253 272.485 162.815 271.357 161.94 270.546C161.064 269.735 159.639 269.329 157.663 269.329H151.325V287.471H157.663C159.639 287.471 161.064 287.094 161.94 286.339C162.815 285.584 163.253 284.516 163.253 283.134V273.931ZM154.94 271.642H157.398C158.281 271.642 158.875 271.843 159.181 272.244C159.486 272.646 159.639 273.232 159.639 274.003V282.797C159.639 283.616 159.446 284.215 159.06 284.592C158.675 284.969 158.048 285.158 157.181 285.158H154.94V271.642ZM166.096 287.471H176V285.158H169.711V279.159H175.397V276.798H169.711V271.642H175.735V269.329H166.096V287.471Z" fill="white"/>
</g>
</g>
<defs>
<clipPath id="clip0_1256_88159">
<rect width="256" height="360" fill="white"/>
</clipPath>
<clipPath id="clip1_1256_88159">
<rect width="112.51" height="160" fill="white" transform="translate(71.7449 51.2)"/>
</clipPath>
<clipPath id="clip2_1256_88159">
<rect width="96" height="18.8651" fill="white" transform="translate(80 268.967)"/>
</clipPath>
</defs>
</svg>
