<svg width="256" height="360" viewBox="0 0 256 360" fill="none" xmlns="http://www.w3.org/2000/svg">
<g clip-path="url(#clip0_2191_98294)">
<g clip-path="url(#clip1_2191_98294)">
<path d="M65.9277 76.92L65.9917 76.904C66.1997 74.544 66.7677 69.984 67.0397 67.344L70.4957 66.256L69.1677 74.296L76.7837 84.976L73.1997 86.096L67.9037 78.2L67.3437 81.424L69.1997 87.344L65.9437 88.368L57.9277 62.816L61.1837 61.792L65.9277 76.92Z" fill="white"/>
<path d="M86.0955 78.832C86.3995 80.08 86.8475 81.84 87.0715 82.488L84.0075 83.24C83.8235 82.856 83.5195 82.112 83.4235 81.824C83.0955 83.256 82.1195 84.016 80.7035 84.36C77.8715 85.056 76.0955 82.752 75.3835 79.832L75.3035 79.496C74.1835 74.936 76.8235 72.832 80.2635 71.992C80.4395 71.952 80.6315 71.904 80.8635 71.848L80.1995 69.16C79.8075 67.56 79.3435 66.664 78.0395 66.984C76.7595 67.296 76.6795 68.368 76.9995 69.688L77.0955 70.08L73.8075 70.888L73.7275 70.544C73.0555 67.808 73.5355 65.168 77.4795 64.2C81.0315 63.328 82.7275 65.096 83.4555 68.08L86.0875 78.832H86.0955ZM81.5515 74.408C81.3595 74.456 80.9515 74.552 80.7915 74.592C78.8715 75.064 77.8555 76.12 78.4795 78.672L78.5515 78.984C78.9195 80.488 79.7035 81.496 81.0235 81.176C82.5035 80.816 82.8155 79.568 82.1515 76.864L81.5515 74.408Z" fill="white"/>
<path d="M90.6478 70.672H90.7118C91.2078 68.344 92.3358 63.888 92.9278 61.296L96.4958 60.648L94.1918 68.464L100.44 80L96.7438 80.672L92.4558 72.184L91.5038 75.32L92.6158 81.424L89.2558 82.04L84.4478 55.696L87.8078 55.08L90.6558 70.672H90.6478Z" fill="white"/>
<path d="M110.432 75.0479C110.584 76.3279 110.808 78.1279 110.952 78.7919L107.816 79.1599C107.68 78.7599 107.472 77.9839 107.408 77.6879C106.912 79.0719 105.848 79.7039 104.4 79.8799C101.504 80.2239 100.024 77.7199 99.6718 74.7359L99.6318 74.3919C99.0798 69.7279 101.96 67.9679 105.472 67.5519C105.648 67.5279 105.848 67.5039 106.088 67.4799L105.76 64.7279C105.568 63.0959 105.216 62.1439 103.888 62.3039C102.584 62.4559 102.368 63.5039 102.528 64.8559L102.576 65.2559L99.2158 65.6559L99.1758 65.3039C98.8478 62.5119 99.6398 59.9439 103.68 59.4719C107.312 59.0399 108.776 61.0079 109.136 64.0559L110.432 75.0479ZM106.464 70.0959C106.264 70.1199 105.856 70.1679 105.688 70.1839C103.728 70.4159 102.584 71.3439 102.888 73.9439L102.928 74.2639C103.112 75.7999 103.768 76.9039 105.112 76.7439C106.624 76.5679 107.088 75.3679 106.76 72.5999L106.464 70.0959Z" fill="white"/>
<path d="M123.072 64.152L123.504 72.008C123.736 76.256 121.784 78.424 118.296 78.616C114.728 78.816 112.712 76.84 112.488 72.672L112.04 64.64C111.816 60.568 113.952 58.472 117.288 58.288C120.752 58.096 122.848 60.168 123.072 64.152ZM115.488 64.408L115.944 72.608C116.048 74.432 116.696 75.648 118.2 75.568C119.6 75.488 120.184 74.448 120.072 72.328L119.616 64.16C119.52 62.464 118.952 61.264 117.392 61.352C115.952 61.432 115.384 62.504 115.488 64.416V64.408Z" fill="white"/>
<path d="M136.696 77.2879C136.632 81.5119 136.136 85.0319 130.8 84.9439C126.344 84.8719 125.608 81.9839 125.64 79.8159V79.7279L129.088 79.7839V79.8799C129.072 80.5999 129.32 82.0479 131.024 82.0799C132.824 82.1119 133.192 80.7519 133.232 78.1119L133.272 75.7999C132.744 76.9919 131.648 77.6879 129.952 77.6639C126.6 77.6079 125.696 75.0479 125.752 71.4719L125.88 63.8239C125.928 60.8159 127.192 57.9039 130.68 57.9599C132.736 57.9919 133.6 58.9999 133.888 60.0479C133.896 59.4719 134.016 58.6799 134.088 58.3199L137.064 58.3679C137.008 59.5279 136.944 61.2239 136.904 63.4079L136.68 77.2879H136.696ZM129.336 64.0799L129.216 71.2719C129.184 73.4959 129.712 74.6159 131.08 74.6399C132.992 74.6719 133.336 72.9679 133.376 70.4479L133.472 64.6479C133.504 62.7199 133.328 61.1039 131.528 61.0799C130.088 61.0559 129.368 62.0319 129.336 64.0879V64.0799Z" fill="white"/>
<path d="M149.328 75.144C149.232 76.424 149.112 78.24 149.128 78.92L145.976 78.688C145.92 78.272 145.856 77.464 145.856 77.16C145.104 78.424 143.944 78.84 142.488 78.736C139.576 78.52 138.608 75.784 138.824 72.784L138.848 72.44C139.192 67.752 142.352 66.576 145.888 66.832C146.064 66.848 146.264 66.864 146.504 66.88L146.712 64.12C146.832 62.48 146.672 61.488 145.336 61.384C144.024 61.288 143.616 62.28 143.512 63.632L143.48 64.04L140.104 63.792L140.128 63.44C140.336 60.632 141.6 58.272 145.656 58.568C149.304 58.84 150.368 61.048 150.144 64.112L149.328 75.152V75.144ZM146.376 69.528C146.176 69.512 145.76 69.48 145.592 69.472C143.624 69.328 142.32 70.016 142.128 72.632L142.104 72.952C141.992 74.496 142.424 75.696 143.776 75.8C145.296 75.912 145.976 74.824 146.184 72.048L146.368 69.528H146.376Z" fill="white"/>
<path d="M153.32 65.128C153.896 61.392 154.056 60.392 154.152 59.48L157.392 59.984C157.4 60.584 157.32 61.104 157.248 61.768C158.096 60.552 159.344 59.976 160.96 60.224C162.512 60.464 163.48 61.296 163.712 62.872C164.544 61.84 165.712 60.96 167.736 61.272C169.768 61.584 171.36 62.84 170.776 66.632L168.448 81.672L165.048 81.144L167.272 66.752C167.496 65.32 167.304 64.352 166.032 64.152C164.472 63.912 163.912 65.152 163.6 67.152L161.52 80.6L158.096 80.072L160.304 65.8C160.6 63.888 160.152 63.248 159.056 63.08C157.504 62.84 156.96 64.104 156.648 66.12L154.576 79.536L151.176 79.008L153.32 65.144V65.128Z" fill="white"/>
<path d="M175.744 74.2L175.04 77.152C174.64 78.816 174.616 80.52 176.248 80.912C177.896 81.304 178.48 79.952 178.856 78.384L178.888 78.264L182.152 79.048L182.128 79.152C181.624 81.256 180.264 84.872 175.624 83.76C171.104 82.68 170.992 79.624 171.928 75.736L173.52 69.088C174.176 66.344 175.96 62.912 180.376 63.968C184.312 64.912 184.88 67.96 184.008 71.584C183.744 72.672 183.232 74.824 182.968 75.92L175.752 74.192L175.744 74.2ZM180.384 72.504L180.896 70.36C181.32 68.576 181.272 67.2 179.672 66.816C178.2 66.464 177.384 67.464 176.912 69.416L176.4 71.552L180.376 72.504H180.384Z" fill="white"/>
<path d="M187.144 80.264L186.888 81.112C186.448 82.552 186.64 83.696 187.896 84.088C189.088 84.456 189.808 83.864 190.248 82.408C190.696 80.936 190.536 79.952 188.752 77.816C186.696 75.36 185.888 73.64 186.704 70.976C187.632 67.952 189.8 66.44 193 67.424C196.472 68.488 197.112 70.904 196.128 74.104L195.88 74.904L192.696 73.928L193.04 72.816C193.48 71.384 193.24 70.552 192.152 70.216C191.088 69.888 190.424 70.512 190.064 71.704C189.688 72.936 189.92 73.608 191.352 75.312C193.824 78.24 194.648 79.936 193.696 83.04C192.616 86.576 190.352 87.896 186.936 86.848C182.92 85.616 182.752 82.752 183.56 80.096L183.816 79.248L187.144 80.264Z" fill="white"/>
<path d="M85.8237 206.632V204.84C85.9357 186.496 93.5837 173.792 104.912 157.464C113.456 145.272 116.176 141.032 116.176 129.464C116.176 117.896 114.688 113.408 108.088 113.408C102.048 113.408 99.7437 118.024 99.7437 126.6V131.768H86.4717V126.168C86.4717 114.44 90.1837 101.352 108.752 101.352C125.984 101.352 130.616 112.712 130.616 128.632C130.616 144.552 125.64 151.8 117.128 163.528C108.832 175.104 102.624 185.64 101.824 194.232H132.728L130.76 206.624H85.8397L85.8237 206.632Z" fill="white"/>
<path d="M149.792 206.632V119.24C146.912 120.024 141.184 120.752 138.656 120.832V109.832C145.056 108.968 150.832 105.4 153.68 102.056H164.12V206.632H149.784H149.792Z" fill="white"/>
<path d="M82.4238 210.032V204.84C82.5438 185.288 91.0318 171.504 102.112 155.528C110.56 143.472 112.768 139.888 112.768 129.472C112.768 116.816 110.696 116.816 108.08 116.816C106.232 116.816 103.136 116.816 103.136 126.608V135.176H83.0558V126.176C83.0558 102.848 97.0238 97.9519 108.736 97.9519C134 97.9519 134 121.048 134 128.632C134 146.048 128.456 153.68 120.072 165.24L119.864 165.528C114.344 173.232 108.024 182.76 105.88 190.832H136.696L133.648 210.032H82.4238Z" stroke="white" stroke-width="0.8" stroke-miterlimit="10"/>
<path d="M146.384 210.032V123.392C143.616 123.84 140.576 124.168 138.76 124.232L135.256 124.344V106.864L138.2 106.464C143.832 105.704 148.832 102.504 151.088 99.8559L152.104 98.6559H167.52V210.032H146.384Z" stroke="white" stroke-width="0.8" stroke-miterlimit="10"/>
</g>
<path fill-rule="evenodd" clip-rule="evenodd" d="M74.4017 261.716V262.517C74.4017 264.253 74.4013 265.989 74.401 267.726V267.726V267.726C74.3996 274.092 74.3982 280.458 74.4154 286.822C74.4182 287.49 74.2152 287.699 73.601 287.637C73.3774 287.614 73.1284 287.625 72.8814 287.635C72.3892 287.655 71.905 287.674 71.6458 287.433C71.3947 287.201 71.4364 286.625 71.4767 286.067C71.4914 285.863 71.5059 285.662 71.5059 285.481C71.5041 283.008 71.5041 280.534 71.5041 278.061C71.5041 273.114 71.5041 268.166 71.4895 263.218C71.4867 262.551 71.6485 262.239 72.3258 262.163C72.7818 262.112 73.2326 262 73.7164 261.88L73.7164 261.88C73.9368 261.825 74.164 261.769 74.4017 261.716ZM37.0114 263.08C37.0271 269.442 37.0263 275.804 37.0255 282.164V282.164V282.164V282.164C37.0253 283.577 37.0251 284.99 37.0251 286.404C37.0251 286.477 37.019 286.552 37.0129 286.627C36.9994 286.795 36.9859 286.962 37.0388 287.102C37.1156 287.306 37.324 287.595 37.4913 287.606C38.0527 287.645 38.6156 287.639 39.1969 287.633C39.4134 287.631 39.6325 287.629 39.8551 287.629V261.724C39.6242 261.777 39.401 261.831 39.1828 261.885C38.6756 262.008 38.1958 262.125 37.7107 262.2C37.1732 262.282 37.0114 262.517 37.0114 263.08ZM137.789 267.95C137.999 267.735 138.214 267.515 138.435 267.287V267.284C139.124 268.529 139.765 269.687 140.47 270.957C139.412 271.256 138.449 271.53 137.486 271.804L137.483 271.804L137.478 271.806C137.59 272.059 137.709 272.301 137.826 272.538C138.073 273.04 138.309 273.519 138.435 274.027C139.124 276.797 137.736 279.42 135.095 280.476C133.302 281.194 131.446 281.316 129.573 280.968C128.714 280.809 128.528 280.809 128.317 281.822C128.136 282.691 128.47 283.282 129.227 283.424C129.721 283.517 130.23 283.536 130.735 283.555H130.735L130.793 283.557C131.283 283.576 131.774 283.582 132.264 283.589H132.265C133.19 283.602 134.115 283.614 135.032 283.707C137.273 283.936 138.992 285.419 139.436 287.348C140.037 289.963 138.984 292.538 136.595 293.743C133.439 295.333 130.11 295.523 126.825 294.238C123.701 293.016 122.901 289.717 124.963 287.003C125.38 286.454 125.492 286.149 125.015 285.506C124.157 284.352 124.338 283.005 124.938 281.774C125.178 281.286 125.499 280.841 125.837 280.373L125.837 280.373L125.837 280.373C125.999 280.15 126.164 279.922 126.326 279.68C126.315 279.667 126.303 279.65 126.29 279.63C126.26 279.587 126.225 279.534 126.178 279.499C123.32 277.346 123.452 271.58 127.979 269.854C130.368 268.942 132.767 268.968 135.137 269.919C135.559 270.088 135.792 270.037 136.083 269.723C136.629 269.137 137.189 268.564 137.789 267.95L137.789 267.95ZM129.731 287.122C129.395 287.126 129.059 287.131 128.723 287.133C128.544 287.136 128.281 287.238 128.204 287.38C127.535 288.599 127.42 290.469 129.213 291.109C129.692 291.281 130.2 291.363 130.63 291.432C130.808 291.46 130.973 291.487 131.116 291.516C131.381 291.489 131.62 291.469 131.842 291.45L131.842 291.45C132.296 291.411 132.677 291.378 133.052 291.31C133.829 291.171 134.569 290.902 135.008 290.164C135.839 288.772 135.019 287.272 133.297 287.165C132.112 287.09 130.921 287.106 129.731 287.122ZM131.363 277.731C132.52 277.751 133.7 277.666 134.273 276.376H134.27C135.03 274.667 134.215 273.065 132.438 272.711C132.21 272.666 131.977 272.647 131.822 272.635C131.766 272.631 131.721 272.627 131.69 272.624C128.956 272.649 128.108 273.982 128.739 276.282C129.09 277.561 130.266 277.711 131.363 277.731ZM181.284 269.409C183.192 269.89 184.259 271.248 184.687 273.144L184.692 273.138C184.881 273.976 184.969 274.856 184.977 275.716C184.993 277.634 184.992 279.552 184.992 281.471C184.991 283.216 184.99 284.961 185.002 286.706C185.008 287.314 184.848 287.544 184.234 287.518C183.184 287.476 182.131 287.476 181.083 287.518C180.483 287.544 180.296 287.334 180.302 286.715C180.32 284.379 180.317 282.043 180.315 279.707C180.314 278.873 180.313 278.038 180.313 277.204V276.429C180.302 273.798 179.52 273.071 176.973 273.334C175.744 273.46 175.13 274.159 175.13 275.43C175.13 276.364 175.129 277.298 175.128 278.232V278.232V278.233V278.233V278.233V278.234V278.234V278.234V278.234V278.235V278.235C175.126 281.034 175.123 283.832 175.144 286.632C175.146 287.292 175.001 287.558 174.316 287.521C173.29 287.467 172.259 287.481 171.233 287.518C170.619 287.541 170.402 287.348 170.408 286.681C170.432 283.92 170.428 281.159 170.424 278.398V278.394C170.423 277.704 170.422 277.014 170.422 276.325C170.419 273.832 169.689 273.141 167.268 273.322C165.34 273.47 165.283 273.532 165.283 275.501C165.283 276.44 165.282 277.379 165.281 278.319V278.324C165.278 281.141 165.276 283.957 165.296 286.774C165.302 287.377 165.11 287.538 164.556 287.521C163.437 287.484 162.318 287.495 161.199 287.515C160.706 287.521 160.533 287.348 160.533 286.816C160.55 281.347 160.55 275.875 160.533 270.402C160.53 269.856 160.736 269.701 161.216 269.718L161.319 269.722C161.856 269.743 162.396 269.765 162.927 269.712C163.613 269.647 164.01 269.89 164.153 270.595C164.186 270.759 164.256 270.915 164.334 271.091L164.334 271.091C164.373 271.178 164.414 271.27 164.454 271.37C167.767 268.945 171.028 267.994 174.337 271.291C174.52 271.172 174.705 271.046 174.894 270.917L174.894 270.917L174.894 270.917C175.339 270.613 175.802 270.296 176.295 270.04C177.875 269.222 179.55 268.971 181.284 269.409ZM203.439 275.725C203.027 272.309 201.146 269.607 197.269 269.254C193.789 268.934 190.542 270.337 189.215 274.115C188.296 276.735 188.282 279.411 188.888 282.088C189.322 284.001 190.249 285.659 191.954 286.647C195.577 288.746 199.24 288.197 202.876 286.627C203 286.573 203.156 286.313 203.123 286.202C202.891 285.429 202.636 284.664 202.373 283.88C202.304 283.672 202.234 283.462 202.163 283.251L201.926 283.329L201.925 283.33C201.678 283.411 201.464 283.481 201.25 283.548C199.759 284.024 198.245 284.326 196.668 284.151C194.546 283.916 193.273 282.521 193.224 280.204H194.071C194.796 280.204 195.52 280.203 196.245 280.202C198.419 280.199 200.593 280.197 202.767 280.218C203.302 280.224 203.554 280.023 203.548 279.513C203.545 279.201 203.546 278.888 203.546 278.575V278.575C203.548 277.622 203.55 276.667 203.439 275.727V275.725ZM197.828 276.961H196.117C195.882 276.961 195.647 276.96 195.413 276.959C194.85 276.956 194.286 276.953 193.723 276.967C193.29 276.975 193.062 276.834 193.155 276.353C193.186 276.196 193.211 276.037 193.237 275.878L193.237 275.877C193.297 275.503 193.358 275.128 193.479 274.777C194.126 272.921 196.114 272.168 197.795 273.127C198.686 273.636 198.955 274.536 199.07 275.49C199.249 276.961 199.235 276.961 197.828 276.961ZM151.948 269.544C154.493 270.291 156.04 272.213 156.177 274.957L156.182 274.954C156.261 276.517 156.258 278.084 156.255 279.651C156.255 280.221 156.254 280.791 156.256 281.36C156.261 282.166 156.26 282.971 156.259 283.777C156.258 284.802 156.257 285.827 156.267 286.852C156.273 287.339 156.108 287.532 155.634 287.512C155.042 287.486 154.444 287.472 153.854 287.515C153.243 287.56 152.829 287.41 152.741 286.705C152.724 286.571 152.654 286.447 152.585 286.324C152.554 286.268 152.523 286.212 152.497 286.156C152.229 286.296 151.966 286.438 151.705 286.579L151.705 286.579C151.106 286.904 150.519 287.221 149.911 287.483C148.545 288.075 147.106 288.16 145.68 287.778C143.417 287.172 142.194 285.387 142.093 282.662C141.969 279.422 143.958 277.156 147.317 276.811C148.453 276.693 149.603 276.686 150.75 276.678L150.75 276.678C150.927 276.677 151.103 276.676 151.279 276.675C151.792 276.672 151.951 276.485 151.937 275.97C151.896 274.323 151.074 273.387 149.48 273.271C147.83 273.149 146.264 273.534 144.747 274.171C144.672 274.203 144.597 274.232 144.498 274.27L144.498 274.27L144.496 274.271C144.43 274.296 144.353 274.326 144.259 274.363C144.096 273.958 143.936 273.561 143.774 273.159L143.742 273.079L143.732 273.056C143.481 272.432 143.224 271.794 142.94 271.092C143.265 270.951 143.584 270.803 143.901 270.656C144.605 270.33 145.299 270.009 146.02 269.771C147.961 269.128 149.955 268.959 151.948 269.544ZM148.482 284.283C149.088 284.224 149.703 284.088 150.278 283.884L150.276 283.887C151.866 283.324 151.929 283.2 151.929 281.488C151.929 280.305 151.358 279.721 150.215 279.736C150.109 279.736 150.002 279.731 149.894 279.725C149.657 279.713 149.419 279.701 149.192 279.748C149.113 279.764 149.033 279.78 148.952 279.796L148.952 279.796C148.409 279.905 147.854 280.016 147.369 280.263C146.412 280.746 146.028 281.991 146.368 283.137C146.607 283.935 147.374 284.391 148.482 284.283ZM217.255 278.515C216.527 278.026 215.724 277.655 214.924 277.284L214.923 277.284L214.923 277.284C214.726 277.193 214.53 277.102 214.335 277.009C214.007 276.853 213.67 276.715 213.333 276.576C212.758 276.341 212.185 276.105 211.661 275.784C211.285 275.555 210.981 274.955 210.921 274.485C210.841 273.86 211.299 273.356 211.889 273.198C212.495 273.034 213.161 272.889 213.764 272.986C214.834 273.157 215.886 273.468 216.933 273.777L217.069 273.818C217.483 273.939 217.68 273.917 217.825 273.455C218.072 272.677 218.371 271.916 218.678 271.161C218.857 270.728 218.722 270.527 218.327 270.357C216.556 269.602 214.716 269.188 212.802 269.205C211.442 269.217 210.125 269.494 208.946 270.247C207.227 271.345 206.429 272.926 206.484 275.02C206.538 277.038 207.421 278.452 209.176 279.304C209.57 279.494 209.972 279.667 210.373 279.84C210.664 279.966 210.956 280.091 211.244 280.224C211.456 280.32 211.669 280.415 211.882 280.511L211.883 280.511L211.884 280.511C212.568 280.817 213.251 281.122 213.91 281.48C214.472 281.785 214.773 282.334 214.623 283.016C214.474 283.684 213.992 284.052 213.367 284.151C212.854 284.233 212.305 284.307 211.803 284.216C210.347 283.95 208.902 283.619 207.463 283.265C207.007 283.152 206.81 283.186 206.708 283.707C206.576 284.393 206.39 285.067 206.203 285.741L206.202 285.744L206.201 285.747C206.163 285.883 206.126 286.019 206.089 286.154C205.974 286.573 206.083 286.791 206.508 286.935C208.362 287.566 210.251 287.96 212.209 288.027C212.42 288.01 212.631 287.997 212.842 287.984C213.315 287.955 213.788 287.927 214.252 287.846C216.158 287.524 217.853 286.768 218.599 284.782C218.852 284.105 218.9 283.34 218.948 282.586C218.959 282.401 218.971 282.217 218.985 282.034C219.109 280.509 218.44 279.315 217.247 278.517L217.255 278.515ZM105.678 273.69C107.052 270.612 110.115 268.993 113.537 269.511H113.534C117.061 270.046 119.065 271.998 119.866 275.895C120.373 278.362 120.272 280.852 119.452 283.257C118.372 286.42 115.476 288.248 112.007 288.008C107.976 287.731 105.409 285.212 104.899 281.016C104.837 280.507 104.806 279.993 104.775 279.478L104.775 279.477L104.775 279.477L104.775 279.477L104.775 279.476L104.775 279.476L104.775 279.475L104.774 279.475C104.76 279.241 104.746 279.006 104.729 278.772C104.756 277.018 104.959 275.3 105.678 273.69ZM112.383 285.594C114.324 285.623 115.901 284.638 116.521 282.753H116.523C116.552 282.667 116.58 282.581 116.609 282.495L116.609 282.493L116.61 282.492L116.61 282.491L116.611 282.489C116.995 281.327 117.39 280.133 117.316 278.86C117.239 277.49 116.94 276.197 116.581 274.952C116.03 273.045 114.511 271.93 112.673 271.88C110.641 271.823 109.18 272.734 108.447 274.681C107.471 277.27 107.493 279.93 108.308 282.547C108.925 284.528 110.43 285.566 112.383 285.594ZM100.528 273.71C100.128 271.823 99.0992 270.425 97.2454 269.817C94.7884 269.01 92.4164 269.463 90.0992 270.414C88.9259 270.897 88.9365 270.923 89.4405 272.147L89.441 272.148C89.4849 272.256 89.5233 272.366 89.5562 272.479C89.707 272.977 89.9401 273.093 90.4612 272.872C91.9941 272.227 93.59 271.828 95.2683 272.055C96.4858 272.219 97.3716 272.884 97.6924 274.12C97.8223 274.619 97.8679 275.141 97.9136 275.664L97.9136 275.664L97.9136 275.664L97.9137 275.664L97.9137 275.665L97.9137 275.665C97.9374 275.936 97.9612 276.208 97.9968 276.477C98.0791 277.1 97.8378 277.267 97.2345 277.275C96.9632 277.279 96.6914 277.282 96.4195 277.285C95.0477 277.299 93.6711 277.313 92.3231 277.516C89.112 277.999 87.4173 280.473 87.8917 283.78C88.1741 285.764 89.1696 287.176 91.1275 287.696C93.5242 288.333 95.6193 287.529 97.5937 286.205L98.282 285.738C98.3005 285.814 98.3158 285.874 98.3287 285.924L98.3288 285.925L98.3288 285.925C98.3558 286.031 98.3714 286.093 98.3807 286.154C98.5987 287.626 98.6028 287.626 100.013 287.647L100.095 287.648C100.698 287.657 100.808 287.419 100.805 286.862C100.794 285.204 100.795 283.546 100.796 281.888V281.888V281.888V281.888V281.888V281.888C100.797 280.046 100.797 278.205 100.783 276.364C100.775 275.478 100.709 274.573 100.525 273.71H100.528ZM98.0407 282.617C98.0489 282.804 98.0325 282.974 97.9913 283.129V283.132C97.8487 283.676 97.4237 284.049 96.867 284.36C95.5617 285.087 94.2125 285.605 92.6933 285.435C91.5635 285.308 90.8259 284.558 90.6888 283.395C90.4118 281.002 91.2454 279.771 93.5736 279.44C94.6363 279.289 95.7247 279.3 96.8072 279.31H96.8072C97.0488 279.312 97.29 279.315 97.5306 279.315C97.6595 279.315 97.8652 279.539 97.942 279.728C97.9584 279.765 97.9694 279.802 97.9721 279.833C97.9886 279.966 97.9968 280.099 98.0023 280.235C98.0041 280.286 98.0036 280.35 98.003 280.426L98.0024 280.513L98.0023 280.563V280.716C98.0352 281.319 98.0599 282.071 98.0407 282.614V282.617ZM66.3257 277.443V277.443V277.443V277.443V277.443C66.3251 277.634 66.3244 277.824 66.3244 278.014H66.3217C66.3236 279.041 66.3228 280.069 66.3221 281.097V281.097V281.097V281.098V281.1C66.3207 283.029 66.3193 284.959 66.3354 286.887C66.3409 287.476 66.1626 287.654 65.595 287.643L65.5142 287.641C64.2758 287.618 64.2691 287.618 63.9469 286.31C63.9228 286.212 63.8912 286.117 63.8535 286.003L63.8534 286.003L63.8534 286.003L63.8531 286.002C63.8307 285.935 63.8061 285.86 63.7796 285.775C63.5164 285.956 63.2915 286.109 63.0694 286.259C61.5529 287.286 59.924 287.962 58.073 287.911C55.3774 287.838 53.6937 286.231 53.4112 283.478C53.0904 280.343 54.7823 277.957 57.8235 277.521C59.1172 277.336 60.4341 277.314 61.7484 277.292C62.1224 277.286 62.4962 277.28 62.8692 277.27C63.3847 277.256 63.6589 277.142 63.5739 276.559C63.5326 276.278 63.5017 275.994 63.4708 275.71L63.4708 275.71C63.4054 275.11 63.3402 274.51 63.1763 273.939C62.85 272.796 61.9697 272.213 60.8427 272.055C59.1398 271.814 57.5273 272.239 55.9697 272.878C55.4734 273.082 55.3143 272.966 55.1224 272.502L55.1021 272.453C54.4585 270.886 54.4535 270.874 56.0657 270.244C57.6836 269.61 59.3564 269.276 61.0922 269.446C64.243 269.752 66.0639 271.664 66.2778 274.915C66.3315 275.756 66.3286 276.6 66.3257 277.443ZM62.1891 284.488C62.9734 284.077 63.563 283.577 63.626 282.745V282.742C63.6343 282.632 63.6315 282.51 63.6206 282.385L63.5794 279.839C63.5931 279.443 63.4231 279.27 63.0557 279.284C62.6353 279.301 62.214 279.31 61.7925 279.319H61.7925H61.7925H61.7925H61.7924H61.7924C60.8252 279.34 59.8572 279.362 58.8984 279.468C56.2769 279.762 55.8216 282.139 56.3783 283.947C56.658 284.856 57.3079 285.305 58.1937 285.422C59.6334 285.608 60.9277 285.147 62.1891 284.488ZM44.7715 278.747C44.4699 278.376 44.4315 278.147 44.7469 277.748C45.955 276.214 47.143 274.663 48.3306 273.112L48.3313 273.111C48.7231 272.599 49.1149 272.088 49.5074 271.577C49.5995 271.457 49.6854 271.331 49.7809 271.191L49.7809 271.191C49.8276 271.122 49.8766 271.05 49.9297 270.974C49.1865 270.414 48.49 269.89 47.7606 269.344C47.7204 269.373 47.6862 269.396 47.6571 269.415C47.601 269.451 47.5637 269.476 47.5384 269.511L46.799 270.511L46.799 270.511C44.9336 273.032 43.0684 275.554 41.2203 278.09C41.1189 278.232 41.1408 278.608 41.2532 278.755C42.719 280.639 44.1946 282.514 45.6703 284.389L45.6706 284.389C46.5333 285.485 47.396 286.581 48.2569 287.68C48.4955 287.985 48.7066 288.016 49.0001 287.77L49.1006 287.685L49.1007 287.685C49.4896 287.356 49.8804 287.026 50.2944 286.732C50.7304 286.423 50.7798 286.174 50.415 285.73C49.4139 284.509 48.4235 283.277 47.4328 282.045C46.5485 280.945 45.664 279.845 44.7715 278.752V278.747ZM79.2572 277.677C78.9172 278.107 78.9227 278.379 79.2737 278.806C80.6894 280.53 82.0849 282.272 83.4801 284.014C83.9416 284.59 84.403 285.166 84.8651 285.741C84.9506 285.848 85.0298 285.962 85.1215 286.094C85.1651 286.157 85.2115 286.223 85.2627 286.296C85.0904 286.435 84.9214 286.574 84.7542 286.712C84.2668 287.113 83.794 287.503 83.2938 287.855C83.1869 287.928 82.8002 287.753 82.6686 287.589C81.6311 286.297 80.6086 284.996 79.5856 283.693C79.2186 283.226 78.8517 282.759 78.4839 282.292C78.2599 282.006 78.0365 281.72 77.813 281.434C77.1369 280.569 76.4603 279.702 75.7636 278.854C75.4839 278.514 75.4976 278.288 75.7527 277.946C77.7737 275.226 79.7837 272.496 81.7801 269.754C82.0461 269.386 82.249 269.318 82.6 269.618C83.0223 269.975 83.4693 270.303 83.9245 270.614C84.3249 270.886 84.3386 271.118 84.0315 271.511C83.2586 272.497 82.4952 273.49 81.7319 274.483C80.9109 275.55 80.09 276.618 79.2572 277.677Z" fill="white"/>
</g>
<defs>
<clipPath id="clip0_2191_98294">
<rect width="256" height="360" fill="white"/>
</clipPath>
<clipPath id="clip1_2191_98294">
<rect width="163.984" height="160" fill="white" transform="translate(46.0078 51.2)"/>
</clipPath>
</defs>
</svg>
