<svg width="48" height="48" viewBox="0 0 48 48" fill="none" xmlns="http://www.w3.org/2000/svg">
<path d="M24 4C12.956 4 4 12.956 4 24C4 25.196 4.112 26.364 4.312 27.5H8.752C9.32 27.5 9.66 27.316 9.88 26.96L11.44 24.376L13.436 30.572C13.632 31.196 14.096 31.52 14.72 31.524C15.36 31.528 15.888 31.136 16.012 30.496L17.46 23.672L19.036 34.552C19.132 35.268 19.48 35.628 20.2 35.628H20.208C20.924 35.628 21.268 35.24 21.368 34.528L24.58 13.352C24.672 12.696 24.212 12.088 23.556 11.996C22.904 11.908 22.292 12.364 22.2 13.02L20.22 26.596L18.888 17.536C18.8 16.84 18.272 16.408 17.696 16.396C17.044 16.38 16.56 16.788 16.424 17.48L14.512 26.344L12.984 21.588C12.864 21.072 12.404 20.688 11.9 20.628C11.204 20.544 10.808 20.904 10.516 21.38L8.152 25.1H6.74C6.716 24.736 6.7 24.368 6.7 24C6.7 14.444 14.444 6.7 24 6.7C31.704 6.7 38.232 11.74 40.468 18.7H43.284C40.96 10.228 33.212 4 24 4Z" fill="url(#paint0_linear_2234_173964)"/>
<path d="M43.688 20.5H39.24C38.672 20.5 38.332 20.684 38.112 21.04L36.552 23.624L34.556 17.428C34.36 16.804 33.896 16.48 33.272 16.476C32.632 16.472 32.104 16.864 31.98 17.504L30.532 24.328L28.956 13.448C28.86 12.732 28.512 12.372 27.792 12.372H27.784C27.068 12.372 26.724 12.76 26.624 13.472L23.412 34.648C23.32 35.304 23.78 35.912 24.436 36.004C25.088 36.092 25.7 35.636 25.792 34.98L27.772 21.404L29.104 30.464C29.192 31.16 29.72 31.592 30.296 31.604C30.948 31.62 31.432 31.212 31.568 30.52L33.48 21.656L35.008 26.412C35.128 26.928 35.588 27.312 36.092 27.372C36.788 27.456 37.184 27.096 37.476 26.62L39.84 22.9H41.26C41.284 23.264 41.3 23.632 41.3 24C41.3 33.556 33.556 41.3 24 41.3C16.296 41.3 9.768 36.26 7.532 29.3H4.716C7.04 37.772 14.792 44 24 44C35.044 44 44 35.044 44 24C44 22.804 43.888 21.636 43.688 20.5Z" fill="url(#paint1_linear_2234_173964)"/>
<defs>
<linearGradient id="paint0_linear_2234_173964" x1="4" y1="4" x2="44" y2="44" gradientUnits="userSpaceOnUse">
<stop stop-color="#FC829F"/>
<stop offset="0.336804" stop-color="#FF1C53"/>
<stop offset="0.435763" stop-color="#EA49F8"/>
<stop offset="0.529514" stop-color="#B250FF"/>
<stop offset="0.633681" stop-color="#5E5FF5"/>
<stop offset="1" stop-color="#323CFF"/>
</linearGradient>
<linearGradient id="paint1_linear_2234_173964" x1="4" y1="4" x2="44" y2="44" gradientUnits="userSpaceOnUse">
<stop stop-color="#FC829F"/>
<stop offset="0.336804" stop-color="#FF1C53"/>
<stop offset="0.435763" stop-color="#EA49F8"/>
<stop offset="0.529514" stop-color="#B250FF"/>
<stop offset="0.633681" stop-color="#5E5FF5"/>
<stop offset="1" stop-color="#323CFF"/>
</linearGradient>
</defs>
</svg>
