<svg width="84" height="20" viewBox="0 0 84 20" fill="none" xmlns="http://www.w3.org/2000/svg">
<g clip-path="url(#clip0_870_37040)">
<path d="M8.31819 0.307983H12.2841V15.3179C12.2841 16.0541 12.4725 16.6121 12.853 16.9883C13.2316 17.3663 13.7649 17.5535 14.4528 17.5535C15.1923 17.5535 15.7398 17.3483 16.0918 16.9379C16.4438 16.5275 16.6198 15.9785 16.6198 15.2927V0.309785H20.5857V15.1613C20.5857 15.8813 20.4808 16.5419 20.2675 17.1431C20.056 17.7443 19.7164 18.2627 19.2489 18.7C18.7814 19.1374 18.1788 19.4758 17.4375 19.717C16.698 19.9564 15.7985 20.077 14.7408 20.077C13.5071 20.077 12.533 19.9096 11.8201 19.5748C11.1073 19.24 10.5989 18.8674 10.3003 18.4553C9.99984 18.8674 9.49321 19.24 8.78038 19.5748C8.06754 19.9096 7.09162 20.077 5.85971 20.077C4.80201 20.077 3.90253 19.9564 3.16303 19.717C2.42353 19.4776 1.81913 19.1374 1.35161 18.7C0.88409 18.2627 0.544561 17.7443 0.333022 17.1431C0.121482 16.5419 0.0166016 15.8813 0.0166016 15.1613V0.309785H3.98252V15.2927C3.98252 15.9785 4.15851 16.5275 4.51048 16.9379C4.86245 17.3483 5.40997 17.5535 6.14947 17.5535C6.83741 17.5535 7.36893 17.3645 7.74934 16.9883C8.12798 16.6121 8.31819 16.0541 8.31819 15.3179V0.307983Z" fill="white"/>
<path d="M24.3647 0.308073H34.9399V2.82983H28.3307V8.28733H34.5435V10.8091H28.3307V17.1666H35.2048V19.6883H24.3665V0.306274L24.3647 0.308073Z" fill="white"/>
<path d="M46.493 4.68017C46.493 3.94398 46.3028 3.38599 45.9241 3.0098C45.5455 2.6336 45.0122 2.4446 44.3243 2.4446C43.5848 2.4446 43.0373 2.64981 42.6853 3.062C42.3333 3.47239 42.1573 4.02138 42.1573 4.70716V19.6901H38.1914V4.83856C38.1914 4.11858 38.2963 3.45799 38.5078 2.8568C38.7194 2.25561 39.0589 1.73722 39.5264 1.29983C39.9939 0.862436 40.5966 0.524041 41.3378 0.282845C42.0773 0.0434494 42.9768 -0.0771484 44.0345 -0.0771484C45.2682 -0.0771484 46.2423 0.0902501 46.9552 0.425044C47.6698 0.759838 48.1746 1.13243 48.4751 1.54462C48.7755 1.13243 49.2821 0.759838 49.9949 0.425044C50.7096 0.0902501 51.6819 -0.0771484 52.9156 -0.0771484C53.9733 -0.0771484 54.871 0.0434494 55.6123 0.282845C56.3536 0.524041 56.9562 0.862436 57.4237 1.29983C57.8912 1.73722 58.2308 2.25741 58.4423 2.8568C58.6538 3.45799 58.7605 4.11858 58.7605 4.83856V19.6901H54.7946V4.70716C54.7946 4.02138 54.6186 3.47419 54.2666 3.062C53.9146 2.65161 53.3671 2.4446 52.6276 2.4446C51.9397 2.4446 51.4064 2.6336 51.0278 3.0098C50.6491 3.38779 50.4589 3.94398 50.4589 4.68017V19.6901H46.493V4.68017Z" fill="white"/>
<path d="M66.506 19.6883H62.54V0.306274H66.506V19.6883Z" fill="white"/>
<path d="M69.3605 0.307983H73.3531L76.1298 6.33067L78.8798 0.307983H82.899L78.1136 9.88381L83.0839 19.69H78.9598L76.1316 13.2803L73.3033 19.69H69.1792L74.1495 9.88381L69.3641 0.307983H69.3605Z" fill="white"/>
</g>
<defs>
<clipPath id="clip0_870_37040">
<rect width="84" height="20" fill="white"/>
</clipPath>
</defs>
</svg>
