<svg width="256" height="360" viewBox="0 0 256 360" fill="none" xmlns="http://www.w3.org/2000/svg">
<g clip-path="url(#clip0_1256_88164)">
<g clip-path="url(#clip1_1256_88164)">
<path d="M39.7362 92.475L42.0277 99.5246L38.9191 101.037L31.5161 76.4074L35.8522 74.2982L50.8178 95.2492L47.618 96.8074L43.392 90.6965L39.74 92.475H39.7362ZM41.6477 88.0629C38.8849 84.0118 36.5249 80.5041 35.1112 78.2201L34.9972 78.2771C35.7952 80.1545 37.4826 85.5053 38.7671 89.4652L41.6515 88.0629H41.6477Z" fill="white"/>
<path d="M42.9814 71.0453L46.1319 69.757L54.5951 90.4268L60.5046 88.006L61.3635 90.9513L52.6 94.5387L42.9814 71.0453Z" fill="white"/>
<path d="M73.418 86.8506L70.887 87.698C70.6628 87.318 70.26 86.3527 70.0586 85.8359C69.9788 87.7284 68.7931 88.7773 67.2312 89.3018C63.7805 90.4608 61.8157 88.3175 60.478 84.3348L56.5827 72.7211C55.2602 68.784 55.9139 65.5689 59.832 64.254C64.5254 62.6807 66.2963 65.8691 67.2274 68.6509L67.4668 69.3616L64.2403 70.4447L63.9591 69.6048C63.4765 68.1607 62.724 66.557 60.8087 67.1992C59.3228 67.6971 58.9655 68.917 59.7256 71.1781L63.8679 83.5291C64.5786 85.6421 65.5704 86.6681 67.0868 86.1589C68.9489 85.5357 68.7855 83.7685 67.8696 81.0437L66.6459 77.3954L64.3011 78.1821L63.3663 75.3927L68.9489 73.5191L73.4218 86.8506H73.418Z" fill="white"/>
<path d="M82.4857 64.9381L85.5412 76.8026C86.7117 81.3477 85.3702 84.0422 81.4179 85.0568C77.4998 86.0639 75.269 84.141 74.1517 79.7896L71.0811 67.8605C69.9258 63.3762 71.5409 60.6513 75.1284 59.7279C78.8147 58.7778 81.3647 60.5677 82.4933 64.9419L82.4857 64.9381ZM74.3721 66.7432L77.5986 79.2728C78.2028 81.6176 79.3125 82.4194 80.8022 82.0356C82.3869 81.629 82.9038 80.4623 82.2653 77.9845L79.0579 65.5195C78.484 63.2887 77.4618 62.3273 75.8276 62.7453C74.2885 63.1405 73.7755 64.406 74.3759 66.7394L74.3721 66.7432Z" fill="white"/>
<path d="M91.1617 70.6461L93.2519 82.0204L89.9038 82.6361L85.3169 57.6681L90.2421 56.7636C94.0234 56.0682 96.3833 57.2501 97.1814 61.59L97.3714 62.6199C98.0403 66.2682 96.8394 67.6781 95.7905 68.3165C97.417 68.6814 98.4165 69.6466 99.0322 73.0137C99.4198 75.1305 100.123 79.1664 100.678 80.6561L97.4322 81.2527C96.8242 79.782 96.1287 75.6321 95.8019 73.8422C95.2281 70.7183 94.6656 70.0039 92.3284 70.4333L91.1617 70.6461ZM90.6487 67.8567L91.8458 67.6363C94.0234 67.2373 94.5326 66.0858 94.0348 63.3914L93.8562 62.4261C93.4761 60.3473 92.7503 59.1844 90.4359 59.6101L89.1742 59.8419L90.6487 67.8567Z" fill="white"/>
<path d="M103.459 54.7305L106.731 79.9036L103.357 80.3407L100.085 55.1675L103.459 54.7267V54.7305Z" fill="white"/>
<path d="M110.604 57.1437L106.53 57.4819L106.268 54.3352L117.813 53.3776L118.075 56.5242L113.998 56.8624L115.837 79.0144L112.443 79.2956L110.604 57.1437Z" fill="white"/>
<path d="M121.013 53.2218L124.418 53.1647L124.585 63.3951L129.248 63.3191L129.081 53.0887L132.486 53.0317L132.9 78.4139L129.495 78.4709L129.298 66.4506L124.635 66.5266L124.832 78.5469L121.427 78.6039L121.013 53.2218Z" fill="white"/>
<path d="M152.328 72.1244L152.252 73.0555C152.012 76.0843 151.184 79.877 146.16 79.4742C141.603 79.1132 140.95 76.0387 141.25 72.2384L142.268 59.4314C142.584 55.4639 144.533 53.1647 148.28 53.4612C152.818 53.8222 153.414 56.9802 153.145 60.4043L153.061 61.476L149.645 61.2062L149.759 59.7849C149.903 57.9683 149.645 56.6838 148.014 56.5546C146.445 56.4292 145.901 57.5579 145.745 59.4998L144.689 72.7781C144.529 74.8036 144.837 76.2819 146.494 76.415C148.14 76.5442 148.619 75.2103 148.782 73.1163L148.881 71.8508L152.324 72.1244H152.328Z" fill="white"/>
<path d="M157.975 73.0061L155.888 80.1202L152.468 79.6148L160.251 55.1029L165.02 55.806L165.556 81.5454L162.033 81.0247L161.988 73.5951L157.971 73.0023L157.975 73.0061ZM162.041 70.4409C162.045 65.5385 162.075 61.3126 162.197 58.6296L162.068 58.6106C161.669 60.6095 160.042 65.9831 158.868 69.9735L162.041 70.4409Z" fill="white"/>
<path d="M172.841 57.1437L177.945 58.261C181.776 59.1008 183.262 61.4266 182.335 65.6525L182.011 67.1347C181.149 71.0756 179.237 73.5191 174.616 72.5083L173.039 72.1624L170.74 82.6703L167.415 81.9444L172.841 57.1475V57.1437ZM173.639 69.4148L174.867 69.6846C177.432 70.2471 178.177 68.803 178.72 66.3176L178.998 65.0521C179.412 63.1633 179.385 61.4836 177.083 60.9782L175.562 60.6437L173.643 69.4186L173.639 69.4148Z" fill="white"/>
<path d="M190.513 61.4038L183.809 85.8891L180.526 84.9884L187.229 60.5031L190.513 61.4038Z" fill="white"/>
<path d="M196.172 66.3898L192.284 65.1243L193.261 62.1221L204.281 65.7057L203.305 68.708L199.413 67.4425L192.542 88.5835L189.304 87.5308L196.175 66.3898H196.172Z" fill="white"/>
<path d="M203.384 84.6806L199.717 91.1259L196.506 89.849L209.719 67.7807L214.2 69.563L208.8 94.7362L205.49 93.4213L207.154 86.1817L203.381 84.6806H203.384ZM207.93 83.1187C209.062 78.3493 210.062 74.2412 210.799 71.657L210.677 71.6114C209.83 73.4659 207.01 78.3189 204.95 81.9368L207.93 83.1225V83.1187Z" fill="white"/>
<path d="M221.409 72.6451L224.484 74.1044L214.911 94.284L220.68 97.0202L219.084 99.6386L210.529 95.5799L221.409 72.6451Z" fill="white"/>
<path d="M79.1454 128.452L79.1606 125.454C79.2176 114.612 82.6189 101.257 100.997 101.352C116.78 101.432 122.07 111.438 121.998 125.64L121.979 129.638C121.918 141.529 118.049 147.07 111.961 149.495V149.654C119.486 152.307 124.27 157.988 124.205 170.753L124.16 179.312C124.076 195.854 118.881 207.704 100.294 207.609C83.4929 207.521 77.4353 198.04 77.5075 183.503L77.5227 180.285L90.7933 180.353L90.7781 183.462C90.7439 189.88 92.8493 195.786 100.286 195.824C107.663 195.862 109.886 190.374 109.935 181.124L109.989 170.955C110.046 160.139 106.337 156.297 97.4134 156.252L92.9975 156.229L93.0621 143.931L97.364 143.954C105.094 143.992 108.085 140.898 108.138 131.056L108.168 125.446C108.202 118.678 106.956 113.285 100.332 113.251C93.7233 113.217 92.0854 118.545 92.055 124.709L92.036 128.521L79.1454 128.456V128.452Z" fill="white"/>
<path d="M147.06 183.237L147.053 184.739C147.015 191.872 149.542 195.851 155.121 195.881C161.874 195.915 163.858 191.051 163.934 176.043L164.017 159.991C161.524 164.327 157.861 166.889 150.595 166.851C137.256 166.782 132.186 156.765 132.266 141.86L132.342 127.328C132.425 111.29 140.11 101.558 155.527 101.638C170.816 101.717 178.28 110.922 178.189 128.327L177.961 172.752C177.866 191.522 175.965 207.89 154.904 207.784C136.917 207.692 132.95 195.649 133.007 183.823V183.169L147.064 183.241L147.06 183.237ZM146.509 125.895L146.426 142.122C146.392 148.864 147.972 154.443 154.87 154.477C162.163 154.515 164.029 148.377 164.078 138.595L164.143 126.066C164.184 117.846 161.882 113.456 155.417 113.422C149.284 113.392 146.559 117.394 146.513 125.899L146.509 125.895Z" fill="white"/>
<path d="M100.279 210.843C91.2871 210.797 84.5036 208.186 80.1219 203.083C76.2 198.518 74.2352 191.925 74.277 183.488L74.3112 177.035L94.0462 177.138L94.012 183.477C93.9663 192.56 98.4089 192.582 100.305 192.59H100.366C103.676 192.59 106.652 191.712 106.705 181.105L106.758 170.936C106.808 161.177 103.912 159.512 97.398 159.478L89.7518 159.44L89.8468 140.678L97.512 140.716C102.62 140.716 104.862 139.8 104.907 131.033L104.938 125.424C104.983 116.5 102.395 116.489 100.317 116.478H100.271C98.4241 116.478 95.3307 116.478 95.2889 124.72L95.2509 131.762L75.8997 131.664L75.9302 125.431C75.9682 118.032 77.5035 112.016 80.4905 107.547C84.6784 101.288 91.5152 98.1146 100.807 98.1146H101.016C109.525 98.1602 115.917 100.889 120.01 106.232C123.567 110.872 125.273 117.226 125.231 125.655L125.212 129.653C125.167 138.785 122.932 145.272 118.417 149.297C124.528 153.504 127.493 160.584 127.439 170.769L127.394 179.327C127.344 189.124 125.524 196.383 121.834 201.524C117.395 207.708 110.224 210.843 100.514 210.843H100.275H100.279Z" stroke="white" stroke-width="0.8"/>
<path d="M154.881 211.01C145.616 210.961 138.779 207.958 134.557 202.083C131.342 197.606 129.731 191.457 129.769 183.8L129.788 179.916L150.306 180.022L150.283 184.754C150.268 187.642 150.731 189.842 151.628 191.119C152.122 191.826 152.97 192.639 155.136 192.647C155.136 192.647 155.208 192.647 155.216 192.647C157.997 192.647 160.616 192.601 160.703 176.024L160.745 167.82C158.032 169.344 154.737 170.077 150.75 170.077H150.579C143.074 170.039 137.396 167.223 133.714 161.709C130.567 156.996 128.99 150.312 129.035 141.837L129.111 127.305C129.206 108.934 138.768 98.3997 155.341 98.3997H155.542C164.101 98.4453 170.679 101.136 175.099 106.403C179.34 111.457 181.468 118.838 181.419 128.338L181.191 172.764C181.134 183.503 180.442 192.02 177.235 198.678C173.294 206.86 165.849 211.006 155.109 211.006H154.885L154.881 211.01ZM155.341 116.652C153.129 116.652 149.789 116.652 149.739 125.914L149.656 142.141C149.614 150.521 152.213 151.235 154.885 151.247C154.885 151.247 154.953 151.247 154.961 151.247C157.287 151.247 160.779 151.197 160.844 138.58L160.908 126.051C160.927 122.463 160.456 119.898 159.506 118.431C158.944 117.561 158.013 116.668 155.398 116.652H155.345H155.341Z" stroke="white" stroke-width="0.8"/>
</g>
<path fill-rule="evenodd" clip-rule="evenodd" d="M101.333 304L128 252.8L154.667 304H137.299L134.225 298.098H144.766L128 265.907L111.234 298.098H121.775L118.701 304H101.333Z" fill="white"/>
</g>
<defs>
<clipPath id="clip0_1256_88164">
<rect width="256" height="360" fill="white"/>
</clipPath>
<clipPath id="clip1_1256_88164">
<rect width="193.348" height="160" fill="white" transform="translate(31.3262 51.2)"/>
</clipPath>
</defs>
</svg>
