<svg width="256" height="360" viewBox="0 0 256 360" fill="none" xmlns="http://www.w3.org/2000/svg">
<g clip-path="url(#clip0_1609_75021)">
<g clip-path="url(#clip1_1609_75021)">
<path d="M66.7258 61.8256L71.4382 60.5677C75.5007 59.4846 77.5795 61.0655 78.5067 64.5504L78.769 65.5385C79.6924 69.0044 78.826 70.3345 77.8113 71.0869C79.1186 71.1971 80.9465 71.8052 81.8738 75.2748L82.364 77.1142C83.4851 81.3135 82.4362 83.9053 78.2065 85.034L73.2661 86.3527L66.7258 61.8256ZM73.8514 70.7981C75.9985 70.2243 76.447 69.3008 75.7477 66.69L75.4779 65.6715C74.9155 63.5585 73.9046 62.8441 71.9702 63.3609L70.6401 63.7144L72.6163 71.1249L73.8476 70.7981H73.8514ZM75.7287 82.788L77.1234 82.4156C79.4986 81.781 79.7988 80.5345 79.0958 77.9047L78.655 76.2439C77.9861 73.7319 76.9524 72.8541 74.562 73.4887L73.3383 73.8155L75.7287 82.7842V82.788Z" fill="white"/>
<path d="M89.8581 70.4865L90.4928 73.5457L83.9677 74.8986L83.333 71.8356L89.8581 70.4827V70.4865Z" fill="white"/>
<path d="M90.9414 56.2012L94.3085 55.7071L95.7906 65.8311L100.404 65.1546L98.922 55.0307L102.289 54.5366L105.968 79.6528L102.601 80.1468L100.856 68.2519L96.2428 68.9283L97.9872 80.8233L94.6201 81.3173L90.9414 56.2012Z" fill="white"/>
<path d="M111.721 71.771L111.235 79.1701L107.788 79.4248L110.045 53.807L114.857 53.4536L120.987 78.4595L117.437 78.7179L115.776 71.4783L111.725 71.7748L111.721 71.771ZM115.13 68.3811C114.066 63.5965 113.173 59.4618 112.709 56.8168L112.58 56.8282C112.626 58.869 112.212 64.463 111.93 68.6167L115.126 68.3811H115.13Z" fill="white"/>
<path d="M126.242 66.8572L126.288 78.4215L122.883 78.4367L122.784 53.0507L127.793 53.0317C131.635 53.0165 133.752 54.5974 133.771 59.0096V60.0585C133.79 63.7676 132.357 64.9457 131.213 65.3865C132.752 66.0363 133.562 67.1612 133.573 70.5853C133.581 72.7363 133.558 76.833 133.843 78.3987L130.544 78.4101C130.206 76.8558 130.255 72.645 130.248 70.8285C130.236 67.6515 129.807 66.8496 127.432 66.8572H126.242ZM126.231 64.026H127.451C129.666 64.0108 130.369 62.9695 130.358 60.2295V59.249C130.347 57.136 129.837 55.8629 127.485 55.8705H126.2L126.231 64.026Z" fill="white"/>
<path d="M139.346 78.6875L136.556 53.0697L140.227 53.3053L141.021 64.1514C141.272 67.6476 141.649 71.5847 141.698 74.3932H141.763C142.15 71.752 143.07 67.8719 143.743 64.4174L145.897 53.6739L149.53 53.9096L143.53 78.9611L139.346 78.6913V78.6875Z" fill="white"/>
<path d="M160.186 68.8485L154.604 68.1303L153.483 76.8177L159.875 77.6424L159.039 80.6902L149.709 79.4855L152.954 54.3086L162.227 55.5057L161.824 58.6371L155.93 57.8771L155.007 65.0292L160.589 65.7475L160.19 68.8523L160.186 68.8485Z" fill="white"/>
<path d="M164.83 74.2792L164.542 75.7803C164.146 77.8439 164.591 79.098 166.176 79.402C167.795 79.7136 168.578 78.4481 168.98 76.358C169.516 73.5799 169.094 72.5045 166.841 69.9127C164.568 67.2943 163.421 65.7095 164.131 62.027C164.751 58.7968 166.339 55.787 170.592 56.6154C174.818 57.4401 175.076 60.5373 174.521 63.4332L174.278 64.6911L170.96 64.0526L171.185 62.8821C171.546 61.0048 171.432 59.7697 169.972 59.4884C168.528 59.211 167.909 60.4005 167.567 62.1791C167.183 64.1742 167.403 65.1167 169.319 67.203C172.416 70.5967 173.244 72.3524 172.446 76.51C171.77 80.0328 169.999 83.0997 165.534 82.2408C161.171 81.4009 160.578 78.3759 161.209 75.0887L161.49 73.6293L164.834 74.2716L164.83 74.2792Z" fill="white"/>
<path d="M181.229 62.5667L177.269 61.552L178.052 58.4927L189.278 61.3658L188.495 64.425L184.531 63.4103L179.021 84.9466L175.722 84.1029L181.233 62.5667H181.229Z" fill="white"/>
<path d="M97.3868 210.831C88.3953 210.786 81.6118 208.175 77.23 203.071C73.3081 198.507 71.3434 191.914 71.3852 183.477L71.4194 177.024L91.1543 177.127L91.1201 183.465C91.1049 186.414 91.6065 188.774 92.568 190.287C93.1875 191.264 94.3656 192.563 97.4134 192.579H97.4742C100.784 192.579 103.76 191.701 103.813 181.094L103.866 170.924C103.916 161.165 101.02 159.501 94.5062 159.467L86.86 159.429L86.955 140.667L94.6164 140.705C99.724 140.705 101.966 139.789 102.012 131.021L102.042 125.412C102.057 122.034 101.712 119.704 100.982 118.29C100.495 117.352 99.7278 116.481 97.421 116.466H97.3754C95.5284 116.466 92.435 116.466 92.3932 124.709L92.359 131.755L73.0079 131.656L73.0383 125.427C73.0763 118.028 74.6116 112.009 77.5987 107.543C81.7866 101.284 88.6233 98.1108 97.915 98.1108H98.1241C106.633 98.1564 113.025 100.885 117.118 106.228C120.675 110.868 122.381 117.223 122.34 125.652L122.321 129.649C122.275 138.782 120.04 145.269 115.526 149.293C121.636 153.5 124.601 160.58 124.547 170.765L124.502 179.323C124.452 189.12 122.632 196.379 118.946 201.517C114.507 207.7 107.336 210.835 97.6262 210.835H97.3868V210.831Z" stroke="white" stroke-width="0.8"/>
<path d="M76.2572 128.441L76.2724 125.443C76.3294 114.6 79.7307 101.246 98.1089 101.341C113.892 101.421 119.182 111.431 119.109 125.633L119.09 129.63C119.03 141.522 115.161 147.062 109.073 149.487V149.647C116.597 152.299 121.382 157.981 121.317 170.746L121.272 179.304C121.188 195.847 115.993 207.696 97.4059 207.601C80.6048 207.514 74.5471 198.032 74.6193 183.496L74.6345 180.277L87.9051 180.345L87.8899 183.454C87.8557 189.873 89.9611 195.778 97.3983 195.816C104.775 195.854 106.998 190.367 107.047 181.117L107.1 170.947C107.157 160.132 103.448 156.29 94.5252 156.244L90.1093 156.221L90.1739 143.923L94.4758 143.946C102.206 143.984 105.196 140.891 105.25 131.048L105.28 125.439C105.314 118.67 104.068 113.278 97.4439 113.244C90.8351 113.209 89.1972 118.537 89.1668 124.701L89.1478 128.513L76.261 128.449L76.2572 128.441Z" fill="white"/>
<path d="M154.236 211.01C136.872 210.919 127.747 200.886 127.846 181.995L127.903 171.175C127.96 159.934 131.783 154.416 136.226 150.825C131.567 146.352 129.545 140.199 129.591 131.128L129.617 126.146C129.708 108.584 139.129 98.5137 155.471 98.5137H155.68C163.254 98.5517 169.247 100.805 173.499 105.202C178.147 110.013 180.48 117.226 180.431 126.643L180.408 131.101C180.355 141.841 177.398 147.423 173.735 150.844C179.086 155.256 181.59 161.922 181.541 171.419L181.491 181.326C181.438 191.56 179.116 198.952 174.396 203.919C169.862 208.688 163.352 211.01 154.502 211.01H154.243H154.236ZM154.597 160.542C152.495 160.542 148.584 160.542 148.539 169.575L148.47 182.804C148.421 192.282 152.879 192.305 154.555 192.313C154.555 192.313 154.619 192.313 154.623 192.313C157.846 192.313 160.742 191.59 160.787 182.899L160.856 169.575C160.897 161.264 157.948 160.561 154.657 160.542H154.6H154.597ZM154.988 117.101C153.259 117.101 149.664 117.101 149.622 125.405L149.58 133.754C149.554 139.105 151.381 141.826 155.018 141.845H155.091C157.021 141.845 160.229 141.814 160.27 133.537L160.312 125.412C160.327 122.414 159.928 120.229 159.126 118.917C158.613 118.078 157.682 117.112 155.034 117.101H154.988Z" stroke="white" stroke-width="0.8"/>
<path d="M131.076 182.014L131.133 171.194C131.202 158.174 136.689 154.059 141.66 150.977C136.036 147.408 132.764 142.149 132.821 131.151L132.847 126.168C132.931 109.858 141.33 101.679 155.661 101.752C168.22 101.816 177.292 108.603 177.201 126.636L177.178 131.094C177.113 143.923 172.899 148.191 168.053 151.003C174.252 154.142 178.371 159.535 178.31 171.411L178.261 181.318C178.162 200.483 169.638 207.863 154.258 207.784C141.143 207.715 130.981 201.646 131.084 182.018L131.076 182.014ZM164.017 182.918L164.086 169.594C164.131 160.705 160.833 157.346 154.672 157.312C148.508 157.281 145.35 161.135 145.309 169.56L145.24 182.789C145.202 190.34 147.9 195.512 154.539 195.547C161.338 195.581 163.976 191.283 164.017 182.918ZM146.392 125.389L146.35 133.739C146.316 140.67 149.257 145.048 155.003 145.079C160.513 145.105 163.463 141.731 163.504 133.556L163.546 125.431C163.58 118.948 161.916 113.905 155.052 113.871C148.584 113.836 146.426 118.845 146.392 125.389Z" fill="white"/>
</g>
<path fill-rule="evenodd" clip-rule="evenodd" d="M111.635 256.733V257.889C111.635 258.139 111.765 258.369 111.961 258.523C112.76 259.149 113.898 260.422 113.834 261.955V294.845C113.834 297.076 112.748 298.314 111.963 298.92C111.765 299.073 111.635 299.302 111.635 299.552V300.067C111.635 300.472 111.963 300.8 112.368 300.8H138.342C141.668 300.8 144.365 298.104 144.365 294.778V284.348C144.365 282.909 143.825 281.386 142.853 280.326L141.651 279.15C141.462 278.944 141.353 278.678 141.342 278.4C141.353 278.122 141.462 277.856 141.651 277.65L142.853 276.339C143.825 275.278 144.365 273.891 144.365 272.452V262.022C144.365 258.696 141.668 256 138.342 256H112.368C111.963 256 111.635 256.328 111.635 256.733ZM130.758 275.642C130.758 275.238 131.086 274.909 131.491 274.909H135.087C136.099 274.909 136.919 274.089 136.919 273.077L136.864 263.787C136.864 262.775 136.044 261.955 135.032 261.955H123.293C122.281 261.955 121.461 262.775 121.461 263.787L121.516 273.077C121.516 274.089 122.335 274.909 123.347 274.909H126.739C127.144 274.909 127.471 275.238 127.471 275.642V281.103C127.471 281.507 127.089 281.836 126.684 281.836H123.292C122.28 281.836 121.461 282.656 121.461 283.668V292.803C121.461 293.815 122.281 294.635 123.293 294.635H135.032C136.044 294.635 136.864 293.815 136.864 292.803V283.668C136.864 282.656 136.044 281.836 135.032 281.836H131.436C131.031 281.836 130.703 281.507 130.703 281.103L130.758 275.642Z" fill="white"/>
</g>
<defs>
<clipPath id="clip0_1609_75021">
<rect width="256" height="360" fill="white"/>
</clipPath>
<clipPath id="clip1_1609_75021">
<rect width="122.928" height="160" fill="white" transform="translate(66.5359 51.2)"/>
</clipPath>
</defs>
</svg>
