<svg width="48" height="48" viewBox="0 0 48 48" fill="none" xmlns="http://www.w3.org/2000/svg">
<path d="M41.71 19.2541C42.4702 22.1801 42.2677 24.556 41.3701 26.3532C40.7379 27.6213 39.4144 28.3986 38.0278 28.3986C36.6412 28.3986 35.4017 27.692 34.6817 26.3474C32.9379 23.0911 34.6645 19.2045 34.8669 15.1116C34.7905 15.1288 34.7141 15.1479 34.6377 15.1689C31.8226 15.9557 28.6865 19.6666 26.4443 22.627C26.6793 27.417 26.8912 33.0664 30.4169 35.6276C31.4559 36.3514 32.7183 36.7773 34.082 36.7773C36.2459 36.7773 38.1653 35.7001 39.3265 34.0576C41.2268 31.1699 42.3327 27.7111 42.3327 23.9964C42.3327 22.3539 42.113 20.7667 41.7081 19.2503L41.71 19.2541Z" fill="url(#paint0_radial_2234_174008)"/>
<path d="M30.3945 6.81299C32.505 7.73164 34.2028 9.65108 34.688 12.1855C34.877 13.1691 34.9133 14.1469 34.8656 15.1133C37.8641 14.4086 40.9046 16.2497 41.7087 19.2559C40.1693 13.509 35.9103 8.86611 30.3945 6.81299Z" fill="#AB1EED"/>
<path d="M41.7106 19.2541C40.9046 16.2498 37.866 14.4068 34.8675 15.1115C34.665 19.2044 32.9385 23.0929 34.6822 26.3474C35.4022 27.6919 36.678 28.3986 38.0283 28.3986C39.3786 28.3986 40.7384 27.6194 41.3706 26.3531C42.2683 24.5559 42.4707 22.18 41.7106 19.2541Z" fill="#F478C4"/>
<path d="M16.4828 10.0654C21.4122 10.0654 25.4822 13.7381 26.1124 18.4956C26.2939 19.7065 26.3703 21.1256 26.4428 22.6286C28.685 19.6664 31.8211 15.9555 34.6362 15.1705C34.7126 15.1495 34.789 15.1304 34.8654 15.1132C34.9132 14.1468 34.8769 13.169 34.6878 12.1854C34.2027 9.65097 32.5029 7.72962 30.3944 6.81288C28.4043 6.07184 26.2499 5.66504 24.0001 5.66504C17.22 5.66504 11.3051 9.3473 8.13086 14.8172C9.9166 11.8722 12.9552 10.0654 16.4828 10.0654Z" fill="url(#paint1_radial_2234_174008)"/>
<path d="M34.0822 36.7813C32.7186 36.7813 31.4561 36.3554 30.4171 35.6297C26.8915 33.0685 26.6795 27.4191 26.4446 22.6291C26.3701 21.126 26.2956 19.707 26.1142 18.4942C25.4839 13.7367 21.4139 10.064 16.4845 10.064C12.957 10.064 9.91835 11.8707 8.13261 14.8158C8.10778 14.8578 8.08104 14.8998 8.05622 14.9418C6.53404 17.6156 5.66504 20.7078 5.66504 24.0004C5.66504 34.1266 13.8737 42.3353 23.9999 42.3353C30.4095 42.3353 36.0494 39.0465 39.3268 34.0636C38.1636 35.7023 36.2461 36.7794 34.0822 36.7794V36.7813Z" fill="url(#paint2_radial_2234_174008)"/>
<defs>
<radialGradient id="paint0_radial_2234_174008" cx="0" cy="0" r="1" gradientUnits="userSpaceOnUse" gradientTransform="translate(23.4286 24.5636) scale(19.3242 19.3242)">
<stop offset="0.5" stop-color="#9ED6FF" stop-opacity="0"/>
<stop offset="0.57" stop-color="#9ED6FF" stop-opacity="0.04"/>
<stop offset="0.69" stop-color="#9ED6FF" stop-opacity="0.13"/>
<stop offset="0.83" stop-color="#9ED6FF" stop-opacity="0.29"/>
<stop offset="1" stop-color="#9ED6FF" stop-opacity="0.5"/>
</radialGradient>
<radialGradient id="paint1_radial_2234_174008" cx="0" cy="0" r="1" gradientUnits="userSpaceOnUse" gradientTransform="translate(17.3441 19.527) scale(19.3662 19.3662)">
<stop offset="0.2" stop-color="#B873EE" stop-opacity="0"/>
<stop offset="0.27" stop-color="#B873EE" stop-opacity="0.04"/>
<stop offset="0.39" stop-color="#B873EE" stop-opacity="0.14"/>
<stop offset="0.54" stop-color="#B873EE" stop-opacity="0.31"/>
<stop offset="0.71" stop-color="#B873EE" stop-opacity="0.54"/>
<stop offset="0.9" stop-color="#B873EE" stop-opacity="0.83"/>
<stop offset="1" stop-color="#B873EE"/>
</radialGradient>
<radialGradient id="paint2_radial_2234_174008" cx="0" cy="0" r="1" gradientUnits="userSpaceOnUse" gradientTransform="translate(14.4963 10.2607) scale(35.0273 35.0273)">
<stop stop-color="#7635FF"/>
<stop offset="0.15" stop-color="#7739FF"/>
<stop offset="0.31" stop-color="#7A45FF"/>
<stop offset="0.47" stop-color="#7F5AFF"/>
<stop offset="0.63" stop-color="#8677FF"/>
<stop offset="0.8" stop-color="#8F9CFF"/>
<stop offset="0.96" stop-color="#9BCAFF"/>
<stop offset="1" stop-color="#9ED6FF"/>
</radialGradient>
</defs>
</svg>
