<svg width="48" height="48" viewBox="0 0 48 48" fill="none" xmlns="http://www.w3.org/2000/svg">
<g clip-path="url(#clip0_1344_2197)">
<path d="M48.0001 22.8127C48.0001 24.765 37.2549 28.3001 24 28.3001C10.7452 28.3001 0 24.765 0 22.8127C0 20.8605 10.7452 19.2769 24 19.2769C37.2549 19.2769 48.0001 20.8605 48.0001 22.8127Z" fill="url(#paint0_radial_1344_2197)"/>
<path fill-rule="evenodd" clip-rule="evenodd" d="M48 22.2368L48 22.8061L48 22.8118C48 24.7641 37.2549 26.3467 24 26.3467C10.7452 26.3467 0 24.7641 0 22.8118L3.12238e-05 22.8061H0V22.2351V22.2293H3.11604e-05C0.021134 20.2797 10.7582 18.7002 24 18.7002C37.2418 18.7002 47.9789 20.2797 48 22.2293H48V22.2333C48 22.2339 48 22.2345 48 22.2351C48 22.2357 48 22.2363 48 22.2368Z" fill="white"/>
<ellipse cx="24" cy="22.2351" rx="24" ry="3.53489" fill="url(#paint1_radial_1344_2197)"/>
</g>
<defs>
<radialGradient id="paint0_radial_1344_2197" cx="0" cy="0" r="1" gradientUnits="userSpaceOnUse" gradientTransform="translate(9.2529 26.153) rotate(-7.99832) scale(53.2006 421.752)">
<stop offset="0.0913496" stop-color="#C5C5C5"/>
<stop offset="0.824036" stop-color="#E0E0E0"/>
</radialGradient>
<radialGradient id="paint1_radial_1344_2197" cx="0" cy="0" r="1" gradientUnits="userSpaceOnUse" gradientTransform="translate(22.8386 18.5861) rotate(79.352) scale(10.8222 80.0575)">
<stop offset="0.0843288" stop-color="white"/>
<stop offset="0.328125" stop-color="#E0E0E0"/>
<stop offset="0.846167" stop-color="#989898"/>
</radialGradient>
<clipPath id="clip0_1344_2197">
<rect width="48" height="48" fill="white"/>
</clipPath>
</defs>
</svg>
