<svg width="256" height="360" viewBox="0 0 256 360" fill="none" xmlns="http://www.w3.org/2000/svg">
<g clip-path="url(#clip0_1256_88160)">
<g clip-path="url(#clip1_1256_88160)">
<path d="M59.9705 82.7338L60.3139 83.6028C61.4302 86.4277 62.3548 90.1921 57.6696 92.0442C53.4201 93.7236 51.4827 91.2513 50.0822 87.7087L45.3625 75.7673C43.9013 72.0697 44.6408 69.1465 48.1314 67.7668C52.3601 66.0949 54.2876 68.6662 55.5497 71.8594L55.945 72.8593L52.76 74.1184L52.2363 72.7929C51.5665 71.098 50.7676 70.0599 49.2507 70.6597C47.7858 71.2382 47.7954 72.491 48.5108 74.3016L53.4042 86.6821C54.15 88.5695 55.0779 89.7619 56.6245 89.1507C58.1591 88.5439 57.9985 87.1346 57.2268 85.1831L56.7602 84.0022L59.9705 82.7338Z" fill="white"/>
<path d="M69.7585 67.5881L73.4687 79.2532C74.8899 83.7233 73.7031 86.4841 69.8152 87.7206C65.9644 88.9452 63.6309 87.1494 62.2698 82.8703L58.5395 71.1399C57.1373 66.7306 58.5959 63.9201 62.1211 62.7986C65.7475 61.6456 68.3907 63.2867 69.7585 67.5881ZM61.7647 69.843L65.6826 82.1642C66.4165 84.4714 67.5703 85.2075 69.0319 84.7432C70.5911 84.247 71.0406 83.0565 70.2655 80.6191L66.368 68.3628C65.6707 66.1713 64.5985 65.2657 62.9885 65.7775C61.4769 66.2581 61.0352 67.5495 61.7647 69.843Z" fill="white"/>
<path d="M78.4909 77.2119L78.854 78.695C79.3532 80.7333 80.2819 81.6861 81.8455 81.3034C83.4454 80.9113 83.6301 79.4345 83.125 77.3717C82.4522 74.6247 81.6229 73.8239 78.4957 72.4079C75.3418 70.9753 73.6403 70.0154 72.7487 66.3749C71.9661 63.1806 72.1553 59.7864 76.361 58.7683C80.5407 57.7562 82.0669 60.4613 82.7686 63.326L83.0731 64.5695L79.7949 65.3725L79.5119 64.2176C79.058 62.3632 78.439 61.2877 76.9978 61.6407C75.5718 61.9901 75.5043 63.3271 75.9352 65.0858C76.4181 67.0577 77.0119 67.8232 79.6184 68.9202C83.8467 70.7119 85.3302 71.9636 86.3364 76.0729C87.189 79.5547 86.8589 83.0765 82.4463 84.1572C78.133 85.2138 76.335 82.7093 75.5399 79.4634L75.1868 78.0211L78.4909 77.2119Z" fill="white"/>
<path d="M101.092 70.087C100.384 65.69 99.6141 60.5281 99.2399 57.7258L99.2021 57.7321C99.2963 62.114 99.3827 72.8871 99.3719 80.4126L96.1639 80.9292C94.2249 74.5947 90.7884 63.711 89.4737 59.272L89.3987 59.2842C89.9428 62.1852 90.9802 67.8381 91.6726 72.1384L93.1665 81.4121L90.0971 81.9061L86.0635 56.8609L91.058 56.0565C93.2963 62.6748 95.8571 70.4661 96.738 73.7869L96.7758 73.7806C96.6338 70.3444 96.8745 61.6949 96.9998 55.0993L101.848 54.319L105.882 79.3641L102.669 79.8815L101.092 70.087Z" fill="white"/>
<path d="M118.856 59.4615L119.777 71.6685C120.13 76.3467 118.338 78.7592 114.27 79.0659C110.24 79.37 108.383 77.0847 108.045 72.6068L107.12 60.3316C106.771 55.7179 108.839 53.3187 112.528 53.0406C116.322 52.7543 118.516 54.9606 118.856 59.4615ZM110.557 59.8131L111.529 72.7065C111.712 75.1206 112.665 76.1034 114.194 75.988C115.825 75.8653 116.537 74.8101 116.345 72.2596L115.377 59.4341C115.205 57.1406 114.37 56.012 112.685 56.1392C111.103 56.2586 110.376 57.4135 110.557 59.8131Z" fill="white"/>
<path d="M125.136 70.8377L125.149 72.3646C125.166 74.4634 125.85 75.6042 127.46 75.5908C129.107 75.5775 129.627 74.183 129.61 72.0594C129.587 69.2311 128.963 68.2609 126.246 66.1636C123.506 64.0437 122.071 62.7185 122.041 58.9705C122.014 55.6816 122.979 52.4223 127.306 52.3986C131.607 52.3748 132.47 55.3589 132.493 58.3081L132.504 59.5883L129.129 59.6158L129.119 58.4268C129.104 56.5175 128.749 55.3285 127.265 55.3404C125.797 55.3522 125.424 56.638 125.439 58.4486C125.455 60.4788 125.857 61.3604 128.141 63.0278C131.844 65.7441 132.999 67.3033 133.033 71.5338C133.062 75.1183 131.931 78.4703 127.388 78.5066C122.947 78.543 121.774 75.6917 121.747 72.3501L121.734 70.8651L125.136 70.8377Z" fill="white"/>
<path d="M138.894 56.1352L134.813 55.9219L134.978 52.771L146.541 53.3755L146.376 56.5261L142.291 56.3128L141.133 78.4978L137.735 78.3198L138.894 56.1352Z" fill="white"/>
<path d="M150.582 71.9185L148.716 79.0889L145.284 78.6899L152.307 53.9659L157.095 54.5223L158.42 80.2175L154.885 79.8062L154.613 72.3873L150.582 71.9185ZM154.563 69.2319C154.418 64.3356 154.317 60.111 154.358 57.4266L154.23 57.4117C153.892 59.4222 152.433 64.8377 151.381 68.8617L154.563 69.2319Z" fill="white"/>
<path d="M166.5 59.1314L162.48 58.4023L163.043 55.2981L174.435 57.3653L173.872 60.4692L169.848 59.7389L165.882 81.5953L162.534 80.9878L166.5 59.1314Z" fill="white"/>
<path d="M180.505 58.7939L174.814 83.5141L171.499 82.7509L177.19 58.0306L180.505 58.7939Z" fill="white"/>
<path d="M194.144 69.2622L190.761 81.0282C189.465 85.5373 186.946 87.1762 183.024 86.0487C179.14 84.9324 178.194 82.1434 179.435 77.8272L182.837 65.9956C184.115 61.5481 186.888 60.0178 190.444 61.04C194.101 62.0918 195.391 64.9238 194.144 69.2622ZM186.24 66.7047L182.667 79.1327C181.998 81.4595 182.55 82.7127 184.024 83.1366C185.597 83.5884 186.631 82.8474 187.338 80.3885L190.892 68.0261C191.528 65.8157 191.137 64.4668 189.514 64.0003C187.989 63.5619 186.905 64.3919 186.24 66.7047Z" fill="white"/>
<path d="M191.542 88.2321L200.346 64.4409L204.077 65.8221C203.761 70.0226 202.339 83.1964 202.077 84.8586L202.123 84.8757C203.091 81.7771 204.309 78.421 205.75 74.5246L208.381 67.4138L211.346 68.5116L202.544 92.3025L198.947 90.9718C199.285 87.0883 200.851 72.8115 201.032 71.3147L200.997 71.3013C200.101 74.2376 198.835 77.7115 197.25 81.9959L194.533 89.3384L191.542 88.2321Z" fill="white"/>
<path d="M74.2222 209.324L74.247 204.309C74.4655 184.889 82.9729 171.238 94.0717 155.409C102.568 143.417 104.79 139.853 104.844 129.434C104.909 116.682 102.781 116.67 100.085 116.657H100.042C98.1584 116.657 95.0063 116.657 94.9559 126.535L94.9125 134.91L75.2384 134.81L75.284 126.004C75.4015 103.022 89.1254 98.1976 100.617 98.1976L100.834 98.198C109.979 98.2447 116.685 101.32 120.766 107.339C124.114 112.276 125.718 119.268 125.67 128.712C125.581 146 120.038 153.554 111.647 164.989L111.436 165.276C105.847 172.989 99.4461 182.551 97.3094 190.644L128.007 190.802L124.924 209.584L74.2222 209.324V209.324Z" stroke="white" stroke-width="0.8"/>
<path d="M77.4678 206.111L77.4767 204.326C77.6821 186.066 85.3607 173.459 96.7161 157.263C105.284 145.171 108.014 140.966 108.074 129.451C108.131 118.196 106.676 113.461 100.102 113.427C94.0859 113.397 91.7702 117.984 91.7264 126.519L91.6997 131.665L78.4847 131.597L78.5136 126.021C78.5733 114.345 82.3366 101.333 100.817 101.428C117.974 101.516 122.522 112.846 122.441 128.696C122.357 145.07 117.366 151.735 108.833 163.366C100.513 174.846 94.2802 185.307 93.4398 193.854L124.207 194.012L122.183 206.34L77.4678 206.111Z" fill="white"/>
<path d="M154.387 211.009C145.342 210.963 138.54 207.895 134.17 201.891C130.403 196.716 128.519 189.306 128.567 179.864L128.825 129.528C128.928 109.506 138.426 98.4795 155.571 98.4795L155.777 98.4799C172.644 98.5666 181.877 109.355 181.777 128.859L181.515 179.929C181.465 189.606 179.583 196.807 175.761 201.941C171.282 207.959 164.17 211.01 154.622 211.01L154.387 211.009ZM155.305 117.976C153.109 117.976 149.435 117.976 149.384 128.07L149.11 181.39C149.091 185.208 149.62 187.961 150.684 189.574C151.275 190.47 152.303 191.5 155.029 191.514H155.098C157.372 191.514 160.793 191.491 160.847 181.019L161.119 127.843C161.17 118.006 157.245 117.986 155.358 117.976H155.305Z" stroke="white" stroke-width="0.8"/>
<path d="M178.547 128.842L178.285 179.912C178.201 196.424 172.572 207.873 154.403 207.78C137.637 207.694 131.712 196.393 131.796 179.881L132.054 129.545C132.15 110.93 140.524 101.631 155.761 101.71C170.678 101.786 178.639 110.945 178.547 128.842ZM146.154 128.054L145.881 181.374C145.835 190.191 148.502 194.71 155.012 194.744C161.206 194.776 164.027 190.616 164.076 181.036L164.349 127.86C164.394 119.046 161.426 114.778 155.375 114.747C149.5 114.717 146.203 118.427 146.154 128.054Z" fill="white"/>
</g>
<g clip-path="url(#clip2_1256_88160)">
<path d="M119.611 293.048L109.791 275.837C109.294 274.965 109.294 273.886 109.791 273.014L119.611 255.812C120.109 254.94 121.033 254.4 122.028 254.4H141.668C142.663 254.4 143.587 254.94 144.085 255.812L153.905 273.023L149.079 275.846L140.05 260.047H123.628L115.416 274.435L124.428 290.234L119.602 293.057L119.611 293.048Z" fill="white"/>
<path d="M133.963 302.4H114.332C113.337 302.4 112.413 301.861 111.915 300.988L102.095 283.777L106.921 280.954L115.932 296.753H132.345L140.557 282.366L131.546 266.566L136.371 263.743L146.191 280.954C146.689 281.826 146.689 282.905 146.191 283.777L136.371 300.988C135.874 301.861 134.949 302.4 133.954 302.4H133.963Z" fill="white"/>
</g>
</g>
<defs>
<clipPath id="clip0_1256_88160">
<rect width="256" height="360" fill="white"/>
</clipPath>
<clipPath id="clip1_1256_88160">
<rect width="167.072" height="160" fill="white" transform="translate(44.4639 51.2)"/>
</clipPath>
<clipPath id="clip2_1256_88160">
<rect width="51.8095" height="48" fill="white" transform="translate(102.095 254.4)"/>
</clipPath>
</defs>
</svg>
