<svg width="256" height="360" viewBox="0 0 256 360" fill="none" xmlns="http://www.w3.org/2000/svg">
<g clip-path="url(#clip0_1630_75424)">
<g clip-path="url(#clip1_1630_75424)">
<path d="M91.2702 75.746L91.3272 76.0044C92.0682 79.3867 91.8364 82.4383 87.6181 83.3618C83.4986 84.2663 82.043 81.6593 81.1842 77.7487L79.6717 70.8436C78.98 67.6818 79.4322 64.5389 83.4834 63.6497C87.8309 62.6958 89.0774 65.7398 89.6132 68.1796L89.7766 68.9169L86.4932 69.6351L86.3298 68.8903C85.984 67.3131 85.4671 66.1731 84.042 66.4847C82.7689 66.7621 82.5143 67.8376 82.9285 69.7187L84.7337 77.954C85.0605 79.4437 85.6571 80.8346 87.0974 80.5192C88.4351 80.2265 88.5834 79.1587 88.1653 77.2433L87.9943 76.4643L91.2778 75.746H91.2702Z" fill="white"/>
<path d="M103.021 66.4201L104.199 74.1157C104.833 78.2732 103.119 80.599 99.703 81.1234C96.2029 81.6593 94.0368 79.9111 93.4135 75.8258L92.2088 67.9554C91.597 63.9689 93.5047 61.6963 96.7692 61.1985C100.163 60.6778 102.424 62.5172 103.024 66.4239L103.021 66.4201ZM95.5759 67.393L96.8072 75.423C97.0808 77.2091 97.8371 78.3454 99.3116 78.1212C100.687 77.9122 101.162 76.8291 100.843 74.7503L99.6156 66.7469C99.361 65.0862 98.6807 63.9575 97.1606 64.1931C95.7507 64.4097 95.2909 65.5194 95.5759 67.393Z" fill="white"/>
<path d="M105.145 53.3737L108.531 53.0278L108.945 57.0827L105.559 57.4286L105.145 53.3737ZM105.825 60.3054L109.211 59.9596L111.191 79.3943L107.805 79.7401L105.825 60.3054Z" fill="white"/>
<path d="M113.802 65.5232C113.612 61.5785 113.555 60.4536 113.472 59.5377L116.717 59.3781C116.805 59.8189 116.903 60.5448 116.938 61.2213C117.447 59.9368 118.496 58.9867 120.422 58.8955C122.699 58.7853 124.428 60.0508 124.607 63.6952L125.325 78.5164L121.924 78.6798L121.236 64.5085C121.148 62.6958 120.491 61.9661 119.279 62.0231C117.793 62.0953 117.086 62.8972 117.234 65.983L117.861 78.8774L114.46 79.0408L113.802 65.5156V65.5232Z" fill="white"/>
<path d="M131.907 77.0952L131.732 85.1252L128.327 85.053L128.771 64.5732C128.828 61.9244 128.866 60.1573 128.855 58.9564L132.1 59.0248C132.157 59.401 132.203 60.2371 132.188 61.0199C132.754 59.7544 133.845 58.7588 135.806 58.8044C138.511 58.8614 139.777 60.7653 139.693 64.5922L139.519 72.7096C139.424 77.137 137.824 78.9953 135.004 78.9345C133.21 78.8965 132.347 77.9921 131.903 77.0952H131.907ZM136.106 72.683L136.277 64.7632C136.322 62.7415 135.654 61.875 134.472 61.8484C132.887 61.8142 132.203 62.9695 132.15 65.3409L132.005 71.9534C131.96 74.0625 132.268 75.7993 134.004 75.8373C135.536 75.8715 136.064 74.682 136.106 72.683Z" fill="white"/>
<path d="M142.122 78.9573L144.064 52.53L147.458 52.7808L145.516 79.2081L142.122 78.9573Z" fill="white"/>
<path d="M160.128 75.3013C159.786 78.0072 159.558 79.8085 159.47 80.789L156.247 80.3823C156.232 79.9947 156.285 79.0484 156.361 78.4556C155.495 80.0935 154.138 80.4241 152.523 80.2189C150.805 80.0023 148.799 78.9724 149.339 74.7313L151.197 60.0546L154.575 60.4802L152.827 74.2791C152.573 76.278 153.025 77.1939 154.298 77.3573C155.598 77.5207 156.506 76.8215 156.886 73.8078L158.509 60.9818L161.887 61.4075L160.128 75.3052V75.3013Z" fill="white"/>
<path d="M172.87 82.5257C172.057 86.6224 170.955 89.9705 165.775 88.9406C161.45 88.0818 161.241 85.1403 161.659 83.035L161.675 82.9476L165.026 83.6126L165.007 83.7114C164.867 84.4107 164.852 85.8624 166.505 86.193C168.253 86.5388 168.849 85.2847 169.359 82.7233L169.803 80.4774C169.077 81.5415 167.892 82.0317 166.242 81.7049C162.986 81.0588 162.56 78.4024 163.252 74.9289L164.726 67.4994C165.308 64.5731 167.052 61.9623 170.442 62.635C172.437 63.0302 173.098 64.1665 173.197 65.2382C173.307 64.6757 173.562 63.9309 173.695 63.5889L176.587 64.1627C176.325 65.2838 175.96 66.9217 175.542 69.0423L172.866 82.5219L172.87 82.5257ZM168.04 68.362L166.653 75.3432C166.223 77.5055 166.543 78.6874 167.869 78.9496C169.727 79.3183 170.362 77.7222 170.848 75.2786L171.966 69.6465C172.338 67.7768 172.452 66.1731 170.704 65.8272C169.306 65.5498 168.435 66.3745 168.04 68.3658V68.362Z" fill="white"/>
<path d="M92.0835 209.326L92.5281 122.995C89.7273 123.44 86.6111 123.766 84.7679 123.816L81.4351 123.903L81.5225 106.787L84.3233 106.422C89.9819 105.688 95.0135 102.504 97.2937 99.8512L98.2666 98.7188L113.392 98.7986L112.825 209.433L92.0835 209.326Z" stroke="white" stroke-width="0.8"/>
<path d="M95.329 206.111L95.7736 119.058C92.9006 119.822 87.1926 120.521 84.6768 120.589L84.7338 109.633C91.1145 108.805 96.8833 105.282 99.7373 101.968L110.139 102.021L109.603 206.191L95.3252 206.119L95.329 206.111Z" fill="white"/>
<path d="M147.158 210.884C138.105 210.839 131.299 207.768 126.925 201.76C123.155 196.584 121.27 189.166 121.319 179.718L121.578 129.349C121.68 109.314 131.185 98.2817 148.339 98.2817H148.545C165.422 98.3691 174.66 109.166 174.561 128.68L174.299 179.787C174.25 189.47 172.365 196.675 168.542 201.813C164.061 207.837 156.943 210.888 147.389 210.888H147.154L147.158 210.884ZM148.077 117.789C145.881 117.789 142.206 117.789 142.153 127.89L141.879 181.246C141.86 185.065 142.388 187.82 143.452 189.436C144.041 190.332 145.071 191.362 147.8 191.378H147.868C150.145 191.378 153.565 191.355 153.622 180.877L153.895 127.666C153.945 117.823 150.019 117.8 148.13 117.792H148.077V117.789Z" stroke="white" stroke-width="0.8"/>
<path d="M171.335 128.661L171.073 179.768C170.989 196.291 165.357 207.745 147.176 207.654C130.398 207.567 124.47 196.257 124.553 179.737L124.812 129.368C124.907 110.739 133.286 101.436 148.533 101.516C163.461 101.592 171.426 110.758 171.335 128.665V128.661ZM138.922 127.871L138.648 181.227C138.603 190.051 141.271 194.574 147.784 194.608C153.983 194.638 156.806 190.477 156.856 180.893L157.129 127.681C157.175 118.86 154.203 114.589 148.149 114.558C142.27 114.528 138.971 118.241 138.922 127.875V127.871Z" fill="white"/>
</g>
<g clip-path="url(#clip2_1630_75424)">
<path d="M117.26 291.814C107.354 291.814 99.2002 283.748 99.2002 273.753C99.2879 263.847 107.354 255.781 117.26 255.781C119.54 255.781 121.732 256.219 123.836 257.008C124.099 257.096 124.362 257.184 124.537 257.271C124.537 257.271 123.748 257.797 123.31 258.236C122.696 258.849 122.17 259.375 122.17 259.375C120.592 258.849 118.926 258.586 117.26 258.586C108.932 258.586 102.181 265.337 102.181 273.666C102.181 281.994 108.932 288.745 117.26 288.745" fill="white"/>
<path d="M117.348 286.203C110.51 286.203 104.899 280.592 104.899 273.753C104.899 266.915 110.51 261.304 117.348 261.304C118.225 261.304 119.014 261.392 119.891 261.567C120.066 261.567 120.329 261.655 120.504 261.742C120.504 261.742 119.978 262.444 119.715 262.97C119.452 263.496 119.014 264.373 119.014 264.373C118.488 264.285 117.962 264.197 117.436 264.197C112.176 264.197 107.967 268.493 107.967 273.666C107.967 278.838 112.263 283.134 117.436 283.134" fill="white"/>
<path d="M117.261 280.416C113.578 280.416 110.598 277.436 110.598 273.753C110.598 270.071 113.578 267.09 117.261 267.09H117.962C117.962 267.09 117.787 268.055 117.699 268.493C117.611 269.107 117.524 269.983 117.524 269.983H117.348C115.332 269.983 113.666 271.649 113.666 273.666C113.666 275.682 115.332 277.348 117.348 277.348" fill="white"/>
<path d="M123.397 301.019H120.767V273.841C120.767 263.847 128.921 255.781 138.827 255.781C148.734 255.781 156.8 263.847 156.8 273.841C156.8 283.836 148.734 291.901 138.74 291.901V289.008C147.331 289.008 153.907 282.257 153.907 273.929C153.907 265.6 146.981 258.849 138.652 258.849C130.323 258.849 123.397 265.6 123.397 273.929V301.019Z" fill="white"/>
<path d="M129.184 301.019H126.378V273.753C126.378 266.915 132.077 261.304 138.915 261.304C145.754 261.304 151.277 266.915 151.277 273.753C151.277 280.592 145.754 286.203 138.74 286.203V283.31C144.176 283.31 148.384 279.014 148.384 273.841C148.384 268.668 144 264.373 138.74 264.373C133.48 264.373 129.184 268.668 129.184 273.841V301.019Z" fill="white"/>
<path d="M135.145 301.019H132.165V273.841C132.165 270.159 135.233 267.178 138.915 267.178C142.597 267.178 145.491 270.159 145.491 273.841C145.491 277.523 142.597 280.504 138.828 280.504V277.611C140.932 277.611 142.685 275.945 142.685 273.929C142.685 271.912 141.019 270.246 139.003 270.246C136.986 270.246 135.321 271.912 135.321 273.929V301.019H135.145Z" fill="white"/>
</g>
</g>
<defs>
<clipPath id="clip0_1630_75424">
<rect width="256" height="360" fill="white"/>
</clipPath>
<clipPath id="clip1_1630_75424">
<rect width="97.5688" height="160" fill="white" transform="translate(79.2158 51.2)"/>
</clipPath>
<clipPath id="clip2_1630_75424">
<rect width="57.6" height="45.2384" fill="white" transform="translate(99.2002 255.781)"/>
</clipPath>
</defs>
</svg>
