<svg width="256" height="360" viewBox="0 0 256 360" fill="none" xmlns="http://www.w3.org/2000/svg">
<path d="M91.3684 210.23V122.647C88.4352 123.147 85.0596 123.532 83.0977 123.59L80.126 123.686V107.077L82.6264 106.741C88.464 105.952 93.638 102.634 95.9846 99.8837L96.8501 98.8643H111.612V210.23H91.3684Z" stroke="white" stroke-width="0.8"/>
<path d="M94.2536 207.345V119.099C91.3493 119.887 85.5598 120.628 83.0112 120.705V109.597C89.4739 108.722 95.3019 105.125 98.1774 101.749H108.718V207.345H94.244H94.2536Z" fill="white"/>
<path d="M145.926 211.519C119.72 211.519 119.72 187.601 119.72 179.744V132.207C119.72 117.589 122.47 98.1526 146.301 98.1526C157.64 98.1526 171.152 102.884 171.152 125.427V129.004H151.706V124.792C151.706 116.031 148.033 116.031 146.263 116.031C142.455 116.031 139.752 117.069 139.752 130.505V138.064C142.935 135.9 146.85 134.803 151.437 134.803C165.026 134.803 172.518 144.44 172.518 161.924V180.042C172.518 201.219 163.824 211.51 145.936 211.51L145.926 211.519ZM146.494 153.364C143.224 153.364 139.743 154.317 139.743 165.655V182.168C139.743 193.795 144.032 193.795 146.09 193.795C149.273 193.795 152.379 192.9 152.379 182.168V164.059C152.379 154.182 149.6 153.364 146.494 153.364Z" stroke="white" stroke-width="0.8"/>
<path d="M154.582 126.109V124.782C154.582 120.118 153.658 113.136 146.253 113.136C138.848 113.136 136.857 118.435 136.857 130.495V145.238C139.425 141.103 143.628 137.679 151.427 137.679C164.708 137.679 169.623 148.162 169.623 161.914V180.033C169.623 196.122 164.651 208.615 145.926 208.615C127.202 208.615 122.605 194.487 122.605 179.725V132.188C122.605 114.319 127.356 101.018 146.301 101.018C165.247 101.018 168.267 115.146 168.267 125.407V126.1H154.591L154.582 126.109ZM155.264 182.168V164.059C155.264 155.932 153.533 150.479 146.494 150.479C139.454 150.479 136.857 156.192 136.857 165.655V182.168C136.857 189.89 138.588 196.68 146.09 196.68C152.918 196.68 155.264 191.602 155.264 182.168Z" fill="white"/>
<path d="M59.0166 63.4347L62.9115 62.2806L65.864 72.2536L70.0571 71.013L67.1046 61.04L70.9995 59.886L78.472 85.1502L74.5771 86.3042L71.1149 74.6002L66.9219 75.8408L70.384 87.5448L66.4891 88.6989L59.0166 63.4347Z" fill="white"/>
<path d="M82.665 76.966L83.2612 84.0442L79.2221 84.9194L77.7603 58.28L83.367 57.0586L93.2823 81.8515L89.1373 82.7555L86.6272 76.0909L82.665 76.9564V76.966ZM85.3578 72.5614C83.819 68.3202 82.3476 64.2907 81.4244 61.444L81.2801 61.4729C81.636 63.6175 82.0591 69.2916 82.3765 73.2057L85.3674 72.5518L85.3578 72.5614Z" fill="white"/>
<path d="M96.4752 73.5904L96.706 75.1965C96.9849 77.1391 97.7254 78.1297 99.2545 77.9085C100.822 77.6777 101.014 76.139 100.764 74.4463C100.36 71.6478 99.6296 70.8688 96.5136 69.0704C93.3881 67.2624 91.6858 66.0698 91.1184 62.2037C90.6183 58.7704 91.1569 55.1544 95.8597 54.4716C100.668 53.7791 101.909 57.0971 102.322 59.9245L102.524 61.319L98.5429 61.896L98.3601 60.6169C98.1005 58.7993 97.6292 57.751 96.2924 57.9434C94.9845 58.1357 94.8114 59.3186 95.0615 61.0497C95.3307 62.8866 95.8116 63.7425 98.3409 65.0889C102.659 67.4066 104.102 68.9069 104.736 73.2634C105.275 76.9564 104.486 80.6494 99.6296 81.361C94.8114 82.0631 93.1861 79.1587 92.686 75.7254L92.4648 74.1771L96.4848 73.5904H96.4752Z" fill="white"/>
<path d="M104.967 53.6734L109.016 53.3657L109.805 63.7329L114.161 63.3963L113.373 53.0291L117.421 52.7213L119.422 78.9857L115.373 79.2934L114.45 67.1278L110.093 67.4644L111.016 79.63L106.968 79.9378L104.967 53.6734Z" fill="white"/>
<path d="M133.905 59.5206L133.944 71.8209C133.963 76.8699 131.828 79.2645 127.365 79.2741C123.086 79.2838 121.153 76.841 121.134 71.9267L121.095 59.5302C121.076 54.4812 123.615 52.1731 127.539 52.1635C131.53 52.1539 133.895 54.4524 133.905 59.5206ZM125.23 59.1455L125.269 72.3979C125.269 74.5906 126.067 75.61 127.529 75.61C129.106 75.61 129.808 74.6483 129.808 72.3306L129.77 59.107C129.77 57.0201 129.116 55.8661 127.471 55.8661C126.009 55.8661 125.221 56.924 125.23 59.1455ZM132.414 76.3986L135.877 79.1203L133.511 81.9669L129.193 78.5913L132.424 76.3986H132.414Z" fill="white"/>
<path d="M141.493 52.9425L140.099 72.9269C139.964 74.8503 140.512 75.9851 142.08 76.0909C143.686 76.2063 144.292 75.0138 144.417 73.2346L145.811 53.2502L149.87 53.5291L148.485 73.4366C148.196 77.5816 146.138 80.0532 141.753 79.755C137.579 79.4665 135.732 77.0622 136.05 72.5903L137.444 52.6732L141.493 52.9521V52.9425Z" fill="white"/>
<path d="M154.601 73.5519L152.697 80.3993L148.61 79.8223L156.505 54.3466L162.189 55.1544L162.853 81.8515L158.65 81.2553L158.611 74.1386L154.601 73.5712V73.5519ZM158.66 70.3591C158.688 65.8486 158.717 61.5594 158.833 58.5685L158.688 58.5492C158.275 60.6842 156.698 66.1564 155.63 69.9263L158.66 70.3591Z" fill="white"/>
<path d="M169.95 71.3303L167.507 82.8517L163.535 82.0054L169.008 56.2411L174.509 57.4048C178.432 58.2414 180.413 60.2995 179.423 64.935L179.211 65.9159C178.375 69.8782 176.528 70.5321 175.451 70.7341C176.807 71.7535 177.432 73.023 176.692 76.514C176.23 78.6874 175.307 82.8613 175.249 84.4769L171.412 83.6595C171.402 82.0342 172.374 77.8123 172.768 75.9466C173.431 72.8018 173.181 72.0035 170.873 71.5131L169.95 71.3207V71.3303ZM170.642 68.0509L171.556 68.2433C173.662 68.6856 174.595 68.0605 175.191 65.2619L175.374 64.3772C175.797 62.3864 175.643 61.0881 173.393 60.6073L172.268 60.3668L170.633 68.0509H170.642Z" fill="white"/>
<path d="M184.231 59.636L188.069 60.7323L184.789 72.1671H184.828C186.52 69.9552 190.252 65.1274 192.637 62.0403L196.984 63.2905L189.55 71.8016L189.992 88.6893L185.741 87.4679L185.703 75.1195L183.097 78.0624L180.808 86.0542L176.97 84.9579L184.231 59.636Z" fill="white"/>
<g clip-path="url(#clip0_3109_5640)">
<path d="M153.599 279.2C153.599 265.058 142.132 253.6 127.999 253.6C113.867 253.6 102.399 265.058 102.399 279.2C102.399 293.342 113.858 304.8 127.999 304.8C133.557 304.8 138.698 303.02 142.9 300.011L150.563 304.439C151.883 305.198 153.527 304.249 153.536 302.731L153.599 279.58C153.599 279.435 153.599 279.317 153.599 279.2ZM116.641 272.612L128.18 265.907L139.801 272.612L139.765 285.968L128.261 279.326L128.225 292.673L116.605 285.968L116.641 272.612Z" fill="white"/>
</g>
<defs>
<clipPath id="clip0_3109_5640">
<rect width="51.2" height="51.2" fill="white" transform="translate(102.4 253.6)"/>
</clipPath>
</defs>
</svg>
