<svg width="158" height="22" viewBox="0 0 158 22" fill="none" xmlns="http://www.w3.org/2000/svg">
<path d="M7.53671 1.31055H13.0151V14.3335H15.6988V16.8535H13.0151V20.6875H8.94779V16.8535H0L7.53671 1.31055ZM8.94779 14.3335V4.93935L8.10735 7.06875L4.82576 14.3335H8.94779Z" fill="white"/>
<path d="M24.3203 0.923541C25.3646 0.898723 26.4055 1.05093 27.3977 1.37354C28.1619 1.62731 28.8573 2.05029 29.4305 2.61014C29.9448 3.13166 30.326 3.76656 30.5426 4.46234C30.7725 5.20046 30.8868 5.96893 30.8817 6.74114V15.2605C30.8868 16.0328 30.7725 16.8012 30.5426 17.5393C30.3264 18.2353 29.9451 18.8703 29.4305 19.3915C28.8573 19.9514 28.1619 20.3744 27.3977 20.6281C25.3911 21.2281 23.2495 21.2281 21.2429 20.6281C20.4787 20.3744 19.7834 19.9514 19.2102 19.3915C18.6955 18.8703 18.3143 18.2353 18.0981 17.5393C17.8682 16.8012 17.7538 16.0328 17.759 15.2605V6.74114C17.7538 5.96893 17.8682 5.20046 18.0981 4.46234C18.3146 3.76656 18.6958 3.13166 19.2102 2.61014C19.7834 2.05029 20.4787 1.62731 21.2429 1.37354C22.2351 1.05093 23.276 0.898723 24.3203 0.923541ZM24.3203 18.5635C25.2781 18.5635 25.9332 18.2683 26.2856 17.6779C26.6381 17.0875 26.8143 16.3309 26.8143 15.4081V6.60074C26.8143 5.67794 26.6381 4.92134 26.2856 4.33094C25.9332 3.74054 25.2781 3.44474 24.3203 3.44354C23.3614 3.44354 22.7063 3.73874 22.355 4.32914C22.0038 4.91954 21.8275 5.67614 21.8263 6.59894V15.3991C21.8263 16.3219 22.0025 17.0785 22.355 17.6689C22.7075 18.2593 23.3626 18.5575 24.3203 18.5635Z" fill="white"/>
<path d="M47.5631 1.31055H51.6304V16.3189C51.6304 17.0557 51.8249 17.6125 52.2138 17.9893C52.6027 18.3661 53.1497 18.5551 53.8546 18.5563C54.6142 18.5563 55.1751 18.3505 55.5373 17.9389C55.8995 17.5273 56.0818 16.979 56.0842 16.2938V1.31055H60.1443V16.1623C60.1514 16.836 60.041 17.5057 59.818 18.1423C59.6044 18.7377 59.2464 19.2723 58.7751 19.6993C58.2391 20.1707 57.605 20.5203 56.9174 20.7235C56.0178 20.9828 55.0832 21.1042 54.1463 21.0835C52.881 21.0835 51.8826 20.9161 51.1509 20.5813C50.4193 20.2465 49.8984 19.8739 49.5885 19.4635C49.2822 19.8763 48.7627 20.2495 48.0298 20.5831C47.2969 20.9167 46.3009 21.0835 45.0417 21.0835C44.1066 21.1036 43.1739 20.9822 42.2761 20.7235C41.5891 20.5224 40.955 20.1753 40.4183 19.7066C39.9471 19.2795 39.589 18.7449 39.3755 18.1496C39.1524 17.5129 39.042 16.8432 39.0492 16.1696V1.31055H43.1165V16.2938C43.1165 16.9802 43.2988 17.5285 43.6634 17.9389C44.0281 18.3493 44.5871 18.5575 45.3407 18.5635C46.0444 18.5635 46.5913 18.3745 46.9815 17.9965C47.3716 17.6185 47.5661 17.0617 47.5649 16.3261L47.5631 1.31055Z" fill="white"/>
<path d="M76.8258 16.1623C76.8376 16.8573 76.7227 17.5487 76.4867 18.2035C76.2601 18.806 75.8765 19.3387 75.3746 19.7479C74.7756 20.2131 74.0824 20.5458 73.3418 20.7235C71.3171 21.1867 69.2118 21.1867 67.187 20.7235C66.4452 20.541 65.7518 20.2027 65.1543 19.7317C64.6524 19.3225 64.2688 18.7898 64.0422 18.1873C63.8072 17.5353 63.6924 16.8471 63.7031 16.1551V5.83933C63.6947 5.15166 63.8095 4.46794 64.0422 3.81973C64.2666 3.21261 64.6504 2.67527 65.1543 2.26274C65.7518 1.7918 66.4452 1.45352 67.187 1.27093C69.2118 0.807719 71.3171 0.807719 73.3418 1.27093C74.0837 1.45352 74.777 1.7918 75.3746 2.26274C75.8785 2.67527 76.2623 3.21261 76.4867 3.81973C76.7194 4.46794 76.8342 5.15166 76.8258 5.83933V16.1623ZM72.7584 5.94194C72.7587 5.63375 72.7176 5.32688 72.6363 5.02933C72.5581 4.73425 72.4198 4.45802 72.2297 4.21753C72.027 3.96823 71.767 3.77017 71.4713 3.63973C70.6941 3.34692 69.8348 3.34692 69.0575 3.63973C68.7619 3.77017 68.5019 3.96823 68.2991 4.21753C68.1091 4.45802 67.9708 4.73425 67.8926 5.02933C67.8113 5.32688 67.7702 5.63375 67.7704 5.94194V16.0579C67.7701 16.3667 67.8111 16.6742 67.8926 16.9723C67.9708 17.2674 68.1091 17.5436 68.2991 17.7841C68.5019 18.0334 68.7619 18.2315 69.0575 18.3619C69.8348 18.6547 70.6941 18.6547 71.4713 18.3619C71.767 18.2315 72.027 18.0334 72.2297 17.7841C72.4198 17.5436 72.5581 17.2674 72.6363 16.9723C72.7177 16.6742 72.7588 16.3667 72.7584 16.0579V5.94194Z" fill="white"/>
<path d="M89.4398 20.6911V5.96353C89.4399 5.65547 89.3995 5.3487 89.3195 5.05093C89.2409 4.75656 89.1026 4.481 88.913 4.24093C88.7091 3.99199 88.4486 3.79404 88.1527 3.66313C87.3755 3.37032 86.5162 3.37032 85.7389 3.66313C85.4433 3.79357 85.1833 3.99163 84.9805 4.24093C84.7909 4.481 84.6526 4.75656 84.574 5.05093C84.4925 5.34845 84.4514 5.65534 84.4518 5.96353V20.6893H80.3845V5.83933C80.376 5.15166 80.4909 4.46794 80.7236 3.81973C80.948 3.21261 81.3318 2.67527 81.8357 2.26274C82.4318 1.79282 83.1231 1.45461 83.863 1.27093C85.8877 0.807719 87.993 0.807719 90.0178 1.27093C90.7652 1.45198 91.4642 1.7903 92.0669 2.26274C92.5698 2.67585 92.9528 3.21305 93.1772 3.81973C93.4099 4.46794 93.5247 5.15166 93.5163 5.83933V20.6911H89.4398Z" fill="white"/>
<path d="M110.597 16.0327C110.597 17.5267 110.104 18.6763 109.118 19.4815C108.133 20.2867 106.528 20.6899 104.305 20.6911H97.1953V1.31055H104.305C106.53 1.31055 108.134 1.73895 109.118 2.59575C110.103 3.45255 110.596 4.66275 110.597 6.22635V16.0327ZM101.27 18.1693H103.764C104.736 18.1693 105.441 17.9683 105.879 17.5663C106.316 17.1643 106.533 16.5277 106.53 15.6565V6.34515C106.53 5.49075 106.353 4.85835 106.001 4.44795C105.648 4.03755 104.993 3.83235 104.036 3.83235H101.27V18.1693Z" fill="white"/>
<path d="M114.055 1.31055H124.899V3.83055H118.121V9.28815H124.493V11.8081H118.121V18.1658H125.171V20.6858H114.05L114.055 1.31055Z" fill="white"/>
<path d="M138.727 20.6911L136.286 14.3029C136.182 14.0263 136.06 13.7564 135.922 13.4947C135.819 13.3001 135.676 13.1294 135.501 12.9943C135.331 12.8715 135.137 12.7845 134.932 12.7388C134.665 12.6818 134.392 12.6559 134.119 12.6613H132.383V20.6911H128.316V1.31055H135.426C137.234 1.31055 138.645 1.71795 139.657 2.53275C140.67 3.34755 141.175 4.49295 141.174 5.96895V7.97595C141.185 8.49256 141.103 9.00703 140.932 9.49515C140.781 9.90173 140.556 10.2771 140.266 10.6021C139.989 10.9086 139.652 11.1576 139.276 11.3347C138.888 11.5177 138.478 11.6519 138.057 11.7343C138.319 11.8099 138.573 11.9093 138.817 12.0313C139.032 12.1415 139.228 12.2842 139.398 12.4543C139.585 12.6475 139.745 12.8642 139.874 13.0988C140.038 13.3987 140.183 13.7083 140.308 14.0257L142.937 20.6857L138.727 20.6911ZM132.383 10.1377H134.605C135.016 10.151 135.426 10.0863 135.812 9.94695C136.1 9.83827 136.36 9.66729 136.573 9.44655C136.762 9.24056 136.901 8.99419 136.979 8.72655C137.06 8.45166 137.101 8.16683 137.101 7.88055V6.08055C137.102 5.78591 137.061 5.49258 136.979 5.20935C136.901 4.9417 136.762 4.69533 136.573 4.48935C136.362 4.27028 136.101 4.10373 135.812 4.00335C135.424 3.87161 135.015 3.81062 134.605 3.82335H132.383V10.1377Z" fill="white"/>
<path d="M148.461 15.1058V16.0435C148.461 16.3476 148.502 16.6502 148.583 16.9436C148.661 17.237 148.8 17.5114 148.99 17.75C149.193 17.9976 149.453 18.1944 149.748 18.3242C150.128 18.4884 150.539 18.57 150.953 18.5635C151.367 18.5774 151.779 18.5025 152.16 18.344C152.456 18.2135 152.716 18.0155 152.919 17.7662C153.11 17.5226 153.248 17.2425 153.323 16.9436C153.405 16.646 153.446 16.3391 153.445 16.0309V15.2605C153.445 14.4877 153.274 13.8967 152.931 13.4875C152.589 13.0783 151.992 12.7183 151.141 12.4075L147.969 11.225C147.015 10.9033 146.161 10.3455 145.488 9.60495C144.846 8.88495 144.525 7.98495 144.525 6.90495V5.82495C144.516 5.13844 144.631 4.45586 144.864 3.80895C145.088 3.20623 145.465 2.67019 145.958 2.25195C146.529 1.78671 147.195 1.44952 147.91 1.26375C148.861 1.01342 149.843 0.896473 150.827 0.916352C151.784 0.897424 152.738 1.01442 153.661 1.26375C154.364 1.45149 155.016 1.79015 155.571 2.25555C156.055 2.67765 156.424 3.21305 156.643 3.81255C156.876 4.46075 156.991 5.14448 156.982 5.83215V6.73215H152.915V5.94015C152.941 5.31028 152.786 4.68596 152.466 4.14015C152.17 3.67215 151.623 3.43755 150.826 3.43635C149.975 3.43635 149.391 3.67215 149.075 4.14375C148.74 4.68874 148.575 5.31926 148.601 5.95635V6.54675C148.59 6.80506 148.632 7.06294 148.727 7.30423C148.821 7.54552 148.964 7.76501 149.148 7.94895C149.581 8.34499 150.088 8.65432 150.64 8.85975L153.974 10.172C154.448 10.3529 154.909 10.5633 155.356 10.802C155.776 11.0214 156.156 11.3079 156.481 11.6497C156.809 12.0012 157.067 12.4111 157.241 12.8575C157.444 13.4042 157.54 13.9838 157.526 14.5658V16.1605C157.536 16.8519 157.421 17.5396 157.186 18.1909C156.96 18.7923 156.576 19.3239 156.074 19.7317C155.477 20.203 154.784 20.5407 154.042 20.7217C152.017 21.185 149.912 21.185 147.887 20.7217C147.145 20.5392 146.452 20.2009 145.854 19.73C145.352 19.3207 144.969 18.788 144.742 18.1855C144.507 17.5336 144.392 16.8453 144.403 16.1533V15.0967L148.461 15.1058Z" fill="white"/>
</svg>
