<svg width="48" height="48" viewBox="0 0 48 48" fill="none" xmlns="http://www.w3.org/2000/svg">
<path fill-rule="evenodd" clip-rule="evenodd" d="M19.0575 6.02671L14.7854 7.79628L20.9788 22.7486L22.2302 22.2303L23.9997 17.9583L19.0575 6.02671ZM23.9997 30.0416L25.7693 25.7694L27.0205 25.2512L33.214 40.2035L28.9419 41.9731L23.9997 30.0416ZM6.02648 28.9421L7.79604 33.2142L22.7484 27.0207L22.2301 25.7694L17.9581 23.9999L6.02648 28.9421ZM30.0414 23.9999L25.7692 22.2303L25.2509 20.9791L40.2033 14.7856L41.9729 19.0577L30.0414 23.9999Z" fill="#875CFF"/>
<path fill-rule="evenodd" clip-rule="evenodd" d="M19.7308 28.2712L14.7886 40.2028L19.0607 41.9723L24.0028 30.0409L22.7515 27.02L19.7308 28.2712ZM28.275 19.727L25.2541 20.9783L24.0028 17.9575L28.9451 6.02595L33.2172 7.79551L28.275 19.727ZM19.7308 19.7272L7.79918 14.7849L6.02962 19.057L17.9611 23.9992L20.982 22.7479L19.7308 19.7272ZM28.275 28.2714L27.0237 25.2505L30.0444 23.9992L41.976 28.9415L40.2064 33.2136L28.275 28.2714Z" fill="#EC80FF"/>
</svg>
