<svg width="256" height="360" viewBox="0 0 256 360" fill="none" xmlns="http://www.w3.org/2000/svg">
<g clip-path="url(#clip0_1256_88162)">
<g clip-path="url(#clip1_1256_88162)">
<path d="M84.9438 75.6802L85.4544 83.0767L82.0709 83.7892L80.8726 58.098L85.5917 57.1041L95.0197 81.0615L91.5356 81.7955L88.9185 74.843L84.9438 75.6802ZM87.8674 71.8651C86.1729 67.2654 84.7337 63.2892 83.9183 60.7296L83.7918 60.7563C84.1113 62.7711 84.4494 68.3736 84.7304 72.5257L87.8674 71.8651Z" fill="white"/>
<path d="M96.9226 80.8411L92.8184 54.6637L96.1815 54.1367L100.285 80.3141L96.9226 80.8411Z" fill="white"/>
<path d="M103.617 79.8502L100.418 53.5436L103.798 53.1324L106.997 79.4397L103.617 79.8502Z" fill="white"/>
<path d="M109.302 65.5253C109.033 61.5858 108.957 60.4636 108.856 59.5484L112.097 59.3276C112.191 59.7666 112.306 60.4903 112.352 61.165C112.834 59.8716 113.865 58.9023 115.788 58.7713C118.059 58.6161 119.816 59.849 120.064 63.4889L121.074 78.2937L117.678 78.5253L116.712 64.3692C116.588 62.5574 115.919 61.8423 114.706 61.925C113.221 62.0264 112.531 62.8425 112.741 65.9224L113.619 78.8021L110.223 79.0337L109.302 65.5253Z" fill="white"/>
<path d="M134.622 64.4846L134.617 72.2703C134.615 76.4777 132.565 78.5141 129.109 78.5122C125.569 78.51 123.692 76.4521 123.695 72.3208L123.7 64.3562C123.702 60.3225 125.932 58.3667 129.235 58.3689C132.667 58.3711 134.624 60.531 134.622 64.4846ZM127.115 64.3165L127.111 72.4407C127.11 74.2484 127.686 75.4872 129.175 75.4883C130.566 75.4891 131.2 74.4941 131.201 72.3898L131.206 64.292C131.207 62.613 130.707 61.3935 129.168 61.3928C127.74 61.392 127.117 62.4208 127.115 64.3165Z" fill="white"/>
<path d="M149.373 52.5809L147.928 73.7727C147.743 76.47 147.643 77.9445 147.608 79.02L144.367 78.7992C144.332 78.3546 144.34 77.2887 144.366 76.9098C143.717 78.1037 142.739 78.9925 140.798 78.86C137.388 78.6277 136.838 75.8662 137.095 72.1049L137.626 64.3262C137.858 60.9137 139.347 58.5734 142.46 58.7857C143.911 58.8848 145 59.4686 145.427 60.4049L145.977 52.3494L149.373 52.5809ZM141.019 64.7671L140.487 72.5576C140.345 74.6415 140.774 75.7782 142.21 75.8762C143.983 75.9972 144.474 74.3828 144.639 71.965L145.059 65.7973C145.204 63.6745 145.114 62.0468 143.223 61.918C141.764 61.8181 141.144 62.933 141.019 64.7671Z" fill="white"/>
<path d="M154.643 70.8743L154.239 73.8522C154.013 75.5267 154.153 77.2086 155.802 77.4316C157.462 77.6562 157.906 76.2674 158.121 74.6827L158.137 74.5625L161.431 75.0086L161.416 75.1177C161.129 77.2372 160.149 80.9369 155.47 80.3037C150.912 79.6866 150.5 76.6924 151.031 72.7722L151.939 66.0675C152.313 63.3001 153.726 59.7429 158.18 60.3456C162.146 60.8822 163.009 63.8297 162.515 67.4834C162.366 68.583 162.072 70.7522 161.922 71.8592L154.643 70.8743ZM159.044 68.7411L159.337 66.5767C159.58 64.7805 159.395 63.4266 157.78 63.2084C156.294 63.0073 155.59 64.0761 155.323 66.0453L155.032 68.1981L159.044 68.7411Z" fill="white"/>
<path d="M166.687 75.7497L166.516 76.6107C166.224 78.074 166.525 79.184 167.807 79.4394C169.017 79.6806 169.665 79.0315 169.96 77.5533C170.257 76.0603 169.999 75.1058 168.029 73.1826C165.761 70.9711 164.797 69.3527 165.337 66.6468C165.948 63.5788 167.936 61.8746 171.186 62.5226C174.712 63.2255 175.577 65.5442 174.929 68.7915L174.767 69.6039L171.533 68.9593L171.758 67.8296C172.049 66.3733 171.731 65.5784 170.625 65.3579C169.545 65.1427 168.956 65.8233 168.716 67.0295C168.467 68.2772 168.758 68.9159 170.337 70.4586C173.064 73.0954 174.041 74.689 173.414 77.8346C172.699 81.4204 170.601 82.9439 167.13 82.2521C163.055 81.4397 162.604 78.6292 163.141 75.9341L163.311 75.0768L166.687 75.7497Z" fill="white"/>
<path d="M105.315 209.374L105.717 205.8C109.088 175.836 118.523 142.958 130.643 118.524L102.227 118.379L102.325 99.2977L153.773 99.562L153.697 114.36L153.335 115.055C140.071 140.478 130.855 172.142 126.685 206.624L126.339 209.482L105.315 209.374V209.374Z" stroke="white" stroke-width="0.8"/>
<path d="M150.525 102.777L150.47 113.56C137.933 137.589 127.97 169.079 123.476 206.236L108.928 206.161C112.737 172.309 124.009 137.578 135.929 115.319L105.475 115.164L105.539 102.546L150.525 102.777Z" fill="white"/>
</g>
<mask id="mask0_1256_88162" style="mask-type:alpha" maskUnits="userSpaceOnUse" x="102" y="249" width="52" height="52">
<path d="M153.494 275.2C153.494 261.061 142.08 249.6 128 249.6C113.92 249.6 102.506 261.061 102.506 275.2C102.506 289.338 113.92 300.8 128 300.8C142.08 300.8 153.494 289.338 153.494 275.2Z" fill="url(#paint0_linear_1256_88162)"/>
</mask>
<g mask="url(#mask0_1256_88162)">
<path fill-rule="evenodd" clip-rule="evenodd" d="M153.495 249.6V300.8H152.66L137.889 272.338C137.87 272.3 137.85 272.263 137.829 272.225L137.765 272.115L133.677 264.238C132.913 262.766 131.398 261.843 129.745 261.843H123.732C123.553 261.843 123.378 261.887 123.219 261.969C122.676 262.254 122.466 262.926 122.749 263.471L141.559 299.716L141.565 299.711L142.13 300.8H113.765L126.206 276.827L126.239 276.759C126.471 276.227 126.256 275.598 125.736 275.326C125.578 275.243 125.402 275.2 125.224 275.2H119.21L119.069 275.202C117.471 275.253 116.02 276.165 115.278 277.595L103.235 300.8H102.506V249.6H153.495Z" fill="white"/>
</g>
</g>
<defs>
<linearGradient id="paint0_linear_1256_88162" x1="153.494" y1="249.6" x2="102.294" y2="300.588" gradientUnits="userSpaceOnUse">
<stop stop-color="#21D4FD"/>
<stop offset="1" stop-color="#B721FF"/>
</linearGradient>
<clipPath id="clip0_1256_88162">
<rect width="256" height="360" fill="white"/>
</clipPath>
<clipPath id="clip1_1256_88162">
<rect width="94.6345" height="160" fill="white" transform="translate(80.6826 51.2)"/>
</clipPath>
</defs>
</svg>
