<svg width="256" height="360" viewBox="0 0 256 360" fill="none" xmlns="http://www.w3.org/2000/svg">
<g clip-path="url(#clip0_3037_81135)">
<g clip-path="url(#clip1_3037_81135)">
<path d="M74.3848 209.316V204.625C74.5001 185.007 82.6606 171.753 94.1565 155.172C102.769 142.888 105.008 139.245 105.008 128.557C105.008 115.235 102.557 115.235 99.7218 115.235C97.7898 115.235 94.1853 115.235 94.1853 125.663V133.766H75.0288V125.231C75.0288 102.143 88.8219 97.2987 100.395 97.2987C125.347 97.2987 125.347 120.194 125.347 127.711C125.347 145.108 120.089 152.346 111.391 164.332L111.179 164.621C105.422 172.656 98.8183 182.643 96.8094 191.034H127.971L125.068 209.306H74.3848V209.316Z" stroke="white" stroke-width="0.8"/>
<path d="M77.2686 206.432V204.625C77.3839 186.113 85.1023 173.29 96.5308 156.816C105.153 144.512 107.902 140.235 107.902 128.557C107.902 116.878 106.402 112.351 99.7316 112.351C93.628 112.351 91.3116 117.013 91.3116 125.663V130.883H77.9126V125.231C77.9126 113.389 81.6612 100.182 100.395 100.182C117.792 100.182 122.464 111.649 122.464 127.711C122.464 143.772 117.437 151.097 108.844 162.929C100.472 174.607 94.2048 185.248 93.3974 193.918H124.588L122.598 206.423H77.2686V206.432Z" fill="white"/>
<path d="M154.702 210.719C137.631 210.719 128.605 201.319 128.605 183.527V177.385H147.82V183.422C147.82 193.014 152.77 193.014 154.635 193.014C158.085 193.014 161.449 192.082 161.449 180.951V170.647C161.449 160.487 158.249 158.7 151.52 158.7H144.167V140.475H151.415C156.826 140.475 159.383 139.466 159.383 130.239V124.558C159.383 115.84 157.066 115.129 154.26 115.129C152.357 115.129 148.819 115.129 148.819 123.895V130.642H129.99V124.722C129.99 102.066 143.523 97.3083 154.875 97.3083C174.945 97.3083 179.164 112.197 179.164 124.693V128.739C179.164 138.111 176.857 144.695 172.147 148.703C178.597 152.798 181.634 159.824 181.634 170.388V179.058C181.634 200.377 172.83 210.739 154.721 210.739L154.702 210.719Z" stroke="white" stroke-width="0.8"/>
<path d="M132.864 127.749V124.712C132.864 113.725 136.238 100.182 154.866 100.182C170.86 100.182 176.271 110.294 176.271 124.683V128.73C176.271 140.773 172.379 146.416 166.227 148.895V149.059C173.868 151.712 178.742 157.44 178.742 170.368V179.038C178.742 195.802 173.542 207.836 154.712 207.836C137.689 207.836 131.499 198.262 131.499 183.527V180.269H144.946V183.421C144.946 189.919 147.109 195.898 154.645 195.898C162.18 195.898 164.343 190.332 164.343 180.951V170.647C164.343 159.69 160.565 155.816 151.53 155.816H147.061V143.359H151.425C159.258 143.359 162.276 140.206 162.276 130.239V124.558C162.276 117.705 160.988 112.245 154.27 112.245C147.551 112.245 145.946 117.647 145.946 123.895V127.759H132.883L132.864 127.749Z" fill="white"/>
<path d="M91.4652 54.8333L95.4157 54.2566L97.1266 66.0216H97.165C97.7898 63.2918 99.2028 57.3612 100.116 53.5741L104.585 52.9205L101.308 63.7339L108.642 78.9304L104.268 79.5648L99.1643 68.3284L97.9917 72.0771L99.1835 80.2953L95.2331 80.872L91.4556 54.8237L91.4652 54.8333Z" fill="white"/>
<path d="M108.988 79.0553L106.479 51.6902L110.526 51.3153L113.044 78.6804L108.997 79.0553H108.988Z" fill="white"/>
<path d="M125.549 73.8265C125.607 75.1049 125.703 77.2195 125.809 77.998L122.108 78.1614C122.012 77.7866 121.829 76.9696 121.781 76.6812C121.137 77.9596 120.07 78.5651 118.504 78.642C115.437 78.7766 114.082 75.9988 113.948 72.9133L113.928 72.5577C113.707 67.5403 117.033 66.0504 120.705 65.8966C120.83 65.8966 121.003 65.887 121.176 65.8774L121.06 63.2726C120.993 61.677 120.762 60.7831 119.523 60.8408C118.321 60.8888 118.081 61.8404 118.138 63.1092L118.158 63.4456L114.169 63.6186V63.3591C114.025 60.4082 115.043 57.7457 119.523 57.5535C123.454 57.3805 124.924 59.4855 125.069 62.7824L125.559 73.8361L125.549 73.8265ZM121.378 68.934C121.205 68.934 120.82 68.9628 120.705 68.9628C118.859 69.0397 117.667 69.7991 117.783 72.3366V72.6538C117.86 74.0956 118.427 75.0952 119.696 75.0376C121.051 74.9799 121.608 74.0187 121.493 71.2697L121.387 68.934H121.378Z" fill="white"/>
<path d="M130.778 57.6304C131.749 64.3299 132.643 70.5776 132.758 73.2113H132.864C133.296 69.7126 134.18 65.666 135.613 57.7169L139.679 57.7938L134.7 79.0842C133.315 84.9282 131.182 85.1589 128.855 85.1205C128.154 85.1109 127.51 85.0147 126.962 84.9282L127.097 81.3238C127.097 81.3238 127.808 81.4295 128.298 81.4391C129.567 81.468 130.24 81.0258 130.643 78.8535L126.414 57.5631L130.768 57.64L130.778 57.6304Z" fill="white"/>
<path d="M140.851 57.9187L143.014 58.0821L143.379 53.1992L147.426 53.5068L147.061 58.3897L149.608 58.5819L149.339 62.1287L146.791 61.9365L145.878 73.961C145.801 74.9222 145.878 75.7007 147.109 75.7968C147.464 75.8257 148.003 75.8257 148.224 75.7584L147.993 78.8054C147.282 79.0841 146.253 79.0841 145.494 79.0264C142.956 78.8342 141.524 77.9019 141.784 74.3743L142.754 61.6193L140.592 61.4559L140.861 57.9091L140.851 57.9187Z" fill="white"/>
<path d="M150.732 64.9642C151.27 60.8503 151.434 59.6392 151.52 58.7164L155.365 59.2259C155.375 59.6968 155.346 60.5042 155.269 61.081C156.009 59.9852 157.22 59.149 159.277 59.4181C161.738 59.7449 163.237 61.4558 162.728 65.2814L160.719 80.5066L156.692 79.978L158.604 65.5121C158.845 63.6858 158.297 62.9649 157.191 62.8207C155.759 62.6285 155.048 63.3109 154.683 66.0599L152.914 79.4782L148.887 78.9495L150.732 64.9642Z" fill="white"/>
</g>
<path d="M144.413 262.254C140.025 258.508 134.677 256.427 128.918 256.288L115.89 290.837L144.413 262.254ZM147.704 265.446L131.249 281.957L147.704 298.33C151.543 293.751 153.6 287.924 153.6 281.957C153.6 275.852 151.543 270.163 147.704 265.446ZM122.473 260.173L102.452 280.292C102.041 286.814 104.098 293.057 108.211 298.191L122.473 260.173ZM128.095 285.149L111.64 301.521C116.302 305.407 122.061 307.488 128.095 307.488C134.128 307.488 139.888 305.407 144.55 301.521L128.095 285.149Z" fill="white"/>
</g>
<defs>
<clipPath id="clip0_3037_81135">
<rect width="256" height="360" fill="white"/>
</clipPath>
<clipPath id="clip1_3037_81135">
<rect width="108.192" height="160" fill="white" transform="translate(73.9043 51.2)"/>
</clipPath>
</defs>
</svg>
