<svg width="256" height="360" viewBox="0 0 256 360" fill="none" xmlns="http://www.w3.org/2000/svg">
<g clip-path="url(#clip0_3219_5479)">
<g clip-path="url(#clip1_3219_5479)">
<path d="M148.964 115.63L123.255 115.497C122.685 124.245 121.731 136.327 121.028 143.011C123.179 139.933 127.907 137.79 133.71 137.82C147.528 137.892 152.529 148.1 152.442 165.395L152.385 176.708C152.293 194.513 147.231 207.878 128.04 207.78C110.505 207.688 104.839 196.234 104.911 182.223L104.923 180.102L119.136 180.174L119.121 183.492C119.09 189.432 120.922 195.911 128.105 195.946C135.941 195.987 137.548 189.945 137.605 178.612L137.67 165.912C137.723 155.347 136.062 149.943 128.72 149.905C122.636 149.875 120.356 153.382 118.984 160.306L106.26 158.885C107.864 144.311 110.034 115.702 110.866 102.819L150.549 103.025L148.968 115.634L148.964 115.63Z" fill="white"/>
<path d="M128.021 211.01C118.794 210.964 111.828 208 107.321 202.205C103.532 197.336 101.636 190.606 101.677 182.204L101.704 176.853L122.381 176.959L122.347 183.507C122.302 192.685 126.676 192.708 128.116 192.715H128.177C131.875 192.715 134.303 191.735 134.371 178.597L134.436 165.897C134.497 154.055 132.205 153.154 128.701 153.139H128.637C125.653 153.139 123.586 153.682 122.15 160.937L121.572 163.848L102.692 161.739L103.046 158.532C104.577 144.607 106.736 116.626 107.64 102.61L107.838 99.5701L154.205 99.8095L151.815 118.879L126.277 118.746C125.904 124.112 125.406 130.611 124.92 136.186C127.455 135.152 130.411 134.59 133.589 134.59H133.725C141.546 134.632 147.365 137.603 151.028 143.429C154.205 148.484 155.725 155.674 155.676 165.41L155.619 176.724C155.566 187.285 153.764 195.113 150.12 200.669C145.613 207.529 138.259 211.01 128.253 211.01H128.025H128.021Z" stroke="white" stroke-width="0.8" stroke-miterlimit="10"/>
<path d="M105.361 80.4703L101.317 71.5483L101.278 71.5539L100.056 81.322L95.9364 81.9836L98.3959 68.1249L92 56.1484L96.3967 55.4421L100.145 63.5991L100.184 63.5926L101.165 54.6762L105.324 54.009L102.924 66.7906L109.767 79.7631L105.361 80.4703Z" fill="white"/>
<path d="M120.834 74.6102C120.951 75.8802 121.148 77.9721 121.292 78.7315L117.625 79.0689C117.508 78.698 117.291 77.8976 117.231 77.6134C116.657 78.9114 115.619 79.5674 114.068 79.7099C111.037 79.9885 109.555 77.2928 109.276 74.2496L109.243 73.8983C108.786 68.9299 112.013 67.3011 115.647 66.9666C115.767 66.9554 115.942 66.9396 116.11 66.9238L115.873 64.3501C115.728 62.7698 115.458 61.8995 114.235 62.0113C113.046 62.1212 112.856 63.0736 112.971 64.3259L113.001 64.6548L109.055 65.0173L109.031 64.7573C108.763 61.838 109.646 59.1516 114.077 58.7435C117.969 58.3857 119.529 60.4086 119.828 63.6662L120.834 74.6102ZM116.463 69.9568C116.288 69.9726 115.91 70.008 115.794 70.0183C113.963 70.1869 112.821 70.9911 113.052 73.5041L113.081 73.8209C113.212 75.2438 113.821 76.2082 115.074 76.0936C116.416 75.9697 116.925 74.9866 116.675 72.2676L116.463 69.9568Z" fill="white"/>
<path d="M123.053 64.5961C122.958 60.484 122.93 59.2699 122.87 58.353L126.717 58.2636C126.801 58.7267 126.893 59.5187 126.907 60.1011C127.466 58.913 128.528 57.9095 130.588 57.8619C133.05 57.8051 134.78 59.2597 134.868 63.0847L135.22 78.3206L131.191 78.4128L130.857 63.9382C130.815 62.111 130.17 61.4839 129.06 61.51C127.625 61.5426 127.032 62.3188 127.095 65.0676L127.405 78.5004L123.376 78.5936L123.053 64.5961Z" fill="white"/>
<path d="M148.694 77.7575C148.484 82.2423 147.874 85.9574 142.115 85.6871C137.3 85.4617 136.63 82.4016 136.735 80.1588L136.74 80.0758L140.77 80.265L140.766 80.3526C140.74 80.9042 140.878 82.2982 142.487 82.3737C144.157 82.4519 144.498 81.1838 144.618 78.6334L144.722 76.425C144.156 77.5208 143.003 78.2066 141.304 78.1265C137.617 77.9532 136.946 75.0497 137.109 71.5769L137.467 63.937C137.596 61.1864 138.791 57.8375 142.674 58.0201C144.8 58.1198 145.627 59.1522 145.913 60.2732C145.941 59.6619 146.093 58.8308 146.183 58.4981L149.669 58.6621C149.571 59.907 149.454 61.5796 149.353 63.7115L148.694 77.7575ZM141.486 64.3713L141.153 71.4725C141.057 73.5271 141.489 74.5875 142.796 74.649C144.513 74.7301 144.869 73.392 144.985 70.9134L145.263 64.9872C145.344 63.2652 145.24 61.7566 143.614 61.6802C142.325 61.6196 141.578 62.4117 141.486 64.3713Z" fill="white"/>
<path d="M150.869 79.1397L153.528 52L157.538 52.3923L154.88 79.5329L150.869 79.1397Z" fill="white"/>
<path d="M161.796 71.2698L161.362 74.2124C161.134 75.7601 161.283 77.2268 162.796 77.4504C164.384 77.6843 164.79 76.2922 165.003 74.8516L165.017 74.7556L168.902 75.3287L168.888 75.42C168.578 77.5222 167.521 81.5802 162.394 80.8235C157.293 80.0716 157.011 76.8009 157.608 72.7513L158.576 66.1877C158.98 63.4482 160.454 59.4387 165.419 60.1711C169.696 60.8019 170.663 63.8908 170.078 67.8538C169.906 69.026 169.579 71.2409 169.409 72.3926L161.796 71.2698ZM166.053 68.7083L166.355 66.6574C166.628 64.8049 166.349 63.7408 164.919 63.5302C163.634 63.3401 162.879 64.1601 162.592 66.1076L162.29 68.1529L166.053 68.7083Z" fill="white"/>
</g>
<g clip-path="url(#clip2_3219_5479)">
<path d="M114.158 275.212C113.219 274.497 112.071 274.111 110.89 274.112C110.117 274.093 109.348 274.233 108.631 274.523C107.914 274.814 107.264 275.249 106.723 275.802C106.182 276.352 105.758 277.004 105.474 277.721C105.191 278.438 105.056 279.205 105.075 279.976C105.054 280.757 105.189 281.535 105.472 282.264C105.755 282.993 106.18 283.658 106.723 284.221C107.278 284.778 107.941 285.216 108.672 285.506C109.403 285.797 110.186 285.935 110.972 285.911C112.119 285.904 113.235 285.542 114.167 284.875V285.607H117.571V274.406H114.158V275.21V275.212ZM113.498 277.794C114.057 278.401 114.355 279.204 114.326 280.03C114.355 280.854 114.058 281.656 113.498 282.262C113.218 282.537 112.884 282.752 112.518 282.894C112.151 283.035 111.759 283.099 111.367 283.082C110.986 283.092 110.608 283.022 110.257 282.875C109.906 282.728 109.59 282.508 109.33 282.23C108.779 281.612 108.49 280.802 108.526 279.974C108.504 279.171 108.8 278.392 109.35 277.806C109.613 277.532 109.93 277.316 110.281 277.171C110.632 277.026 111.01 276.955 111.39 276.964C111.779 276.95 112.167 277.017 112.53 277.159C112.893 277.302 113.222 277.518 113.498 277.794ZM127.408 274.312C126.405 274.31 125.427 274.625 124.614 275.212V274.403H121.226V285.607H124.614V280.534C124.614 279.271 124.778 278.368 125.103 277.885C125.428 277.402 125.924 277.219 126.682 277.219C127.37 277.219 127.837 277.38 128.077 277.702C128.26 277.942 128.481 278.485 128.481 279.713V285.607H131.872V279.126C131.872 277.525 131.515 276.342 130.811 275.612C129.993 274.75 128.847 274.312 127.408 274.312ZM143.865 274.722C142.953 274.046 141.844 273.692 140.709 273.715C139.93 273.688 139.154 273.833 138.438 274.139C137.721 274.446 137.081 274.907 136.563 275.49C135.605 276.597 135.093 278.02 135.127 279.484C135.106 280.225 135.233 280.964 135.499 281.656C135.766 282.349 136.167 282.982 136.68 283.518C137.618 284.445 138.854 285.011 140.169 285.117C141.484 285.222 142.794 284.861 143.869 284.095V284.806C143.869 286.754 143.079 287.647 141.385 287.647C141.001 287.673 140.615 287.612 140.258 287.468C139.901 287.324 139.581 287.102 139.322 286.817C139.097 286.516 138.95 286.163 138.896 285.791L138.845 285.529H135.576L135.616 285.88C135.672 286.535 135.865 287.172 136.182 287.748C136.5 288.325 136.935 288.828 137.459 289.225C138.479 290.005 139.792 290.401 141.359 290.401C143.222 290.401 144.708 289.825 145.779 288.698C146.352 288.108 146.752 287.372 146.937 286.571C147.005 286.24 147.055 285.904 147.086 285.566C147.121 285.191 147.136 284.755 147.136 284.266V274H143.865V274.722ZM143.174 277.273C143.441 277.564 143.648 277.906 143.783 278.278C143.917 278.649 143.977 279.044 143.958 279.439C143.988 280.2 143.732 280.945 143.24 281.526C142.972 281.797 142.652 282.013 142.3 282.16C141.947 282.307 141.57 282.383 141.188 282.383C140.806 282.383 140.428 282.307 140.076 282.16C139.724 282.013 139.404 281.797 139.136 281.526C138.656 280.939 138.41 280.196 138.442 279.438C138.41 278.673 138.656 277.923 139.136 277.326C139.388 277.035 139.703 276.805 140.057 276.654C140.411 276.504 140.795 276.436 141.18 276.456C141.551 276.444 141.92 276.511 142.264 276.652C142.607 276.793 142.918 277.005 143.174 277.273ZM154.798 266.592H151.025V285.586H154.798V266.593V266.592ZM103.161 266.4H98.4739L95.8135 270.236L98.2483 273.715L103.16 266.4H103.161ZM103.568 285.564L90.6955 266.4H86.0311L92.1055 275.603L85.3999 285.586H90.0439L94.5079 279.097L98.9683 285.586L103.569 285.564H103.568ZM169.826 279.368C169.826 277.446 169.298 275.915 168.248 274.82C167.197 273.724 165.737 273.14 163.931 273.14C162.125 273.14 160.696 273.721 159.591 274.867C158.486 276.013 157.975 277.535 157.975 279.382C157.975 281.228 158.536 282.763 159.645 283.896C160.753 285.03 162.245 285.607 164.065 285.607C164.659 285.611 165.253 285.547 165.832 285.415C166.376 285.283 166.897 285.071 167.377 284.783C167.865 284.489 168.311 284.13 168.703 283.716C169.035 283.364 169.337 282.983 169.605 282.58L166.802 281.048C166.49 281.526 166.107 281.952 165.665 282.311C165.218 282.599 164.693 282.74 164.162 282.719C163.809 282.732 163.458 282.675 163.128 282.551C162.798 282.426 162.496 282.238 162.239 281.995C161.783 281.526 161.495 280.919 161.419 280.268H169.787L169.826 279.368ZM161.486 277.882C161.614 277.292 161.941 276.763 162.411 276.384C162.882 276.005 163.467 275.799 164.071 275.799C164.675 275.799 165.261 276.005 165.731 276.384C166.202 276.763 166.528 277.292 166.657 277.882H161.485H161.486Z" fill="white"/>
</g>
</g>
<defs>
<clipPath id="clip0_3219_5479">
<rect width="256" height="360" fill="white"/>
</clipPath>
<clipPath id="clip1_3219_5479">
<rect width="125.246" height="160" fill="white" transform="translate(65.377 51.2)"/>
</clipPath>
<clipPath id="clip2_3219_5479">
<rect width="85.2" height="24" fill="white" transform="translate(85.3999 266.4)"/>
</clipPath>
</defs>
</svg>
