<svg width="48" height="48" viewBox="0 0 48 48" fill="none" xmlns="http://www.w3.org/2000/svg">
<mask id="mask0_2234_174018" style="mask-type:alpha" maskUnits="userSpaceOnUse" x="5" y="5" width="38" height="38">
<path d="M21.7769 5.46478C22.5418 5.90727 22.8043 6.88599 22.3619 7.65097L18.9739 13.5195C18.5314 14.2845 17.5527 14.547 16.7877 14.1045C16.0227 13.662 15.7602 12.6833 16.2027 11.9183L19.5907 6.04976C20.0332 5.28478 21.0119 5.02229 21.7769 5.46478ZM13.5197 29.0253L7.65119 25.6373C6.88622 25.1948 5.9075 25.4573 5.46502 26.2223C5.02254 26.9873 5.28503 27.966 6.05 28.4085L11.9185 31.7965C12.6835 32.239 13.6622 31.9765 14.1047 31.2115C14.5472 30.4465 14.2847 29.4678 13.5197 29.0253ZM29.0272 34.4796L25.6392 40.3481C25.1967 41.1131 25.4592 42.0918 26.2242 42.5343C26.9892 42.9768 27.9679 42.7143 28.4104 41.9493L31.7983 36.0807C32.2408 35.3158 31.9783 34.337 31.2134 33.8946C30.4484 33.4521 29.4697 33.7146 29.0272 34.4796ZM41.9492 19.5887L36.0807 16.2007C35.3157 15.7582 34.337 16.0207 33.8945 16.7857C33.452 17.5507 33.7145 18.5294 34.4795 18.9719L40.348 22.3599C41.113 22.8024 42.0917 22.5399 42.5342 21.7749C42.9767 21.0099 42.7142 20.0312 41.9492 19.5887ZM11.206 10.6603V17.4363C11.206 18.3194 11.9223 19.0356 12.8054 19.0356C13.6884 19.0356 14.4047 18.3194 14.4047 17.4363V10.6603C14.4047 9.77715 13.6884 9.06092 12.8054 9.06092C11.9223 9.06092 11.206 9.77715 11.206 10.6603ZM17.4364 33.5927H10.6604C9.77735 33.5927 9.06113 34.3089 9.06113 35.192C9.06113 36.0751 9.77735 36.7914 10.6604 36.7914H17.4364C18.3195 36.7914 19.0357 36.0751 19.0357 35.192C19.0357 34.3089 18.3195 33.5927 17.4364 33.5927ZM33.5927 30.5628V37.3388C33.5927 38.2219 34.3089 38.9382 35.192 38.9382C36.0751 38.9382 36.7913 38.2219 36.7913 37.3388V30.5628C36.7913 29.6797 36.0751 28.9635 35.192 28.9635C34.3089 28.9635 33.5927 29.6797 33.5927 30.5628ZM37.3388 11.2059H30.5628C29.6797 11.2059 28.9635 11.9221 28.9635 12.8052C28.9635 13.6883 29.6797 14.4045 30.5628 14.4045H37.3388C38.2218 14.4045 38.9381 13.6883 38.9381 12.8052C38.9381 11.9221 38.2218 11.2059 37.3388 11.2059ZM6.25062 18.8444L9.6386 24.713C10.0811 25.4779 11.0598 25.7404 11.8248 25.2979C12.5897 24.8555 12.8522 23.8767 12.4097 23.1118L9.02176 17.2432C8.57927 16.4782 7.60056 16.2157 6.83559 16.6582C6.07062 17.1007 5.80813 18.0794 6.25062 18.8444ZM23.1118 35.5895L17.2433 38.9775C16.4783 39.42 16.2158 40.3988 16.6583 41.1637C17.1008 41.9287 18.0795 42.1912 18.8445 41.7487L24.713 38.3607C25.478 37.9182 25.7405 36.9395 25.298 36.1745C24.8555 35.4095 23.8768 35.147 23.1118 35.5895ZM35.5895 24.8873L38.9774 30.7559C39.4199 31.5209 40.3986 31.7834 41.1636 31.3409C41.9286 30.8984 42.1911 29.9197 41.7486 29.1547L38.3606 23.2861C37.9181 22.5212 36.9394 22.2587 36.1744 22.7011C35.4095 23.1436 35.147 24.1224 35.5895 24.8873ZM29.1547 6.25038L23.2862 9.6384C22.5212 10.0809 22.2587 11.0596 22.7012 11.8246C23.1437 12.5896 24.1224 12.8521 24.8874 12.4096L30.7559 9.02155C31.5209 8.57906 31.7833 7.60034 31.3409 6.83536C30.8984 6.07039 29.9197 5.80789 29.1547 6.25038Z" fill="#1A1A1A"/>
</mask>
<g mask="url(#mask0_2234_174018)">
<path d="M42.7485 5.24976H5.25V42.7486H42.7485V5.24976Z" fill="url(#paint0_linear_2234_174018)"/>
</g>
<defs>
<linearGradient id="paint0_linear_2234_174018" x1="5.25" y1="5.24976" x2="42.7489" y2="42.7483" gradientUnits="userSpaceOnUse">
<stop offset="0.1" stop-color="#FC829F"/>
<stop offset="0.25" stop-color="#FF1C53"/>
<stop offset="0.45" stop-color="#EA49F8"/>
<stop offset="0.6" stop-color="#B250FF"/>
<stop offset="0.9" stop-color="#5E5FF5"/>
</linearGradient>
</defs>
</svg>
