<svg width="48" height="48" viewBox="0 0 48 48" fill="none" xmlns="http://www.w3.org/2000/svg">
<path d="M8.37207 34.7983C11.802 39.7542 17.5237 43 24.0055 43C24.7417 43 25.4661 42.9565 26.1805 42.8753L8.37207 34.7983Z" fill="url(#paint0_linear_2234_173995)"/>
<path d="M5.01879 24.6429C5.02473 24.7913 5.03066 24.9398 5.03858 25.0882C5.03858 25.1139 5.04254 25.1397 5.04254 25.1654C5.05244 25.3277 5.06431 25.49 5.07817 25.6503C5.07817 25.6602 5.07817 25.6721 5.08015 25.6819C5.09598 25.8581 5.1138 26.0342 5.13359 26.2104C7.30275 26.3747 9.43826 26.6656 11.5283 27.0753C20.7155 28.8743 30.8884 30.8218 42.4942 28.3835C42.7337 27.3662 42.892 26.3192 42.9613 25.2465C30.9478 27.9837 21.3667 25.8244 11.2195 23.9997C9.18691 23.6355 7.11868 23.3762 5.01879 23.2278C5.0089 23.4831 5.00098 23.7404 5.00098 23.9997C5.00098 24.1798 5.00296 24.3579 5.0089 24.536C5.0089 24.5716 5.01088 24.6073 5.01286 24.6429H5.01879Z" fill="url(#paint1_linear_2234_173995)"/>
<path d="M10.2393 10.9058L29.3896 5.77385C27.6836 5.27115 25.8766 5 24.0063 5C18.5893 5 13.7008 7.26812 10.2393 10.9058Z" fill="url(#paint2_linear_2234_173995)"/>
<path d="M33.1508 7.34155C25.438 9.2653 17.5451 10.7378 9.50382 11.7274C8.65673 12.7269 7.91258 13.8134 7.2832 14.9752C17.2166 13.8827 26.9343 12.0678 36.3769 9.57999C35.3853 8.72895 34.3047 7.97687 33.1488 7.34155H33.1508Z" fill="url(#paint3_linear_2234_173995)"/>
<path d="M15.1172 29.0051C12.0851 28.0828 8.48896 27.2872 5.24512 27.0022C5.32626 27.5148 5.42917 28.0215 5.5499 28.5202C5.55584 28.542 5.5598 28.5618 5.56574 28.5835C5.62511 28.821 5.68845 29.0585 5.75574 29.2941C5.76168 29.3119 5.76563 29.3297 5.77157 29.3495C5.84084 29.587 5.91407 29.8245 5.99323 30.058C9.06291 30.3866 12.4512 31.3227 15.3448 32.146C21.9215 34.0164 30.4497 36.3953 38.6138 36.1539C39.3876 35.2256 40.0744 34.2202 40.6622 33.1554C33.9034 33.6225 25.7156 32.2331 15.1192 29.0071L15.1172 29.0051Z" fill="url(#paint4_linear_2234_173995)"/>
<path d="M6.27734 30.844C6.74443 32.0513 7.33026 33.2012 8.02296 34.2759C9.33317 34.6005 10.6236 34.9706 11.8942 35.3882C17.0479 37.0863 23.6346 39.9343 30.623 41.8165C32.0579 41.2841 33.4097 40.5835 34.6565 39.7384C26.821 38.1946 17.8079 33.975 10.873 31.9682C9.36682 31.5327 7.83494 31.1567 6.27932 30.846L6.27734 30.844Z" fill="url(#paint5_linear_2234_173995)"/>
<path d="M40.6456 14.8206C40.131 13.8904 39.5412 13.0077 38.8841 12.1824C28.5925 14.5277 17.8813 15.7686 6.87913 15.7686C6.42392 16.7147 6.04392 17.7042 5.74902 18.7295C6.12308 18.7314 6.49516 18.7374 6.86922 18.7374C18.4948 18.7374 29.8018 17.3797 40.6456 14.8206Z" fill="url(#paint6_linear_2234_173995)"/>
<path d="M31.9473 19.6201C25.4675 20.3801 18.9283 20.4494 12.4228 19.9388C10.1468 19.7607 7.85889 19.6182 5.56108 19.5172C5.55515 19.5172 5.54724 19.5172 5.5413 19.5172C5.52942 19.5687 5.51953 19.6221 5.50567 19.6756C5.46213 19.8616 5.41859 20.0496 5.38099 20.2376C5.35526 20.3623 5.33546 20.487 5.31369 20.6117C5.29192 20.7305 5.26817 20.8472 5.25035 20.968C5.22463 21.1263 5.20484 21.2866 5.18307 21.4469C5.1712 21.534 5.15734 21.6191 5.14745 21.7062C5.12766 21.8705 5.1138 22.0387 5.09797 22.2049C5.09005 22.2861 5.08016 22.3672 5.07422 22.4504C5.1613 22.4622 5.25036 22.4721 5.33744 22.482C7.72233 22.5869 10.0953 22.7354 12.4565 22.9234C18.3623 23.3964 24.2998 23.3865 30.1957 22.7987C36.1292 22.2089 40.7684 21.3203 42.7554 20.8868C42.5932 19.8972 42.3537 18.9354 42.0429 18.0032C39.1138 18.6405 35.5553 19.2006 31.9512 19.6241L31.9473 19.6201Z" fill="url(#paint7_linear_2234_173995)"/>
<defs>
<linearGradient id="paint0_linear_2234_173995" x1="47.0587" y1="9.05334" x2="9.05871" y2="47.0532" gradientUnits="userSpaceOnUse">
<stop stop-color="#FC829F"/>
<stop offset="0.4" stop-color="#FF1C53"/>
<stop offset="0.6" stop-color="#EA49F8"/>
<stop offset="0.7" stop-color="#B250FF"/>
<stop offset="0.78" stop-color="#5E5FF5"/>
</linearGradient>
<linearGradient id="paint1_linear_2234_173995" x1="43.7866" y1="5.77945" x2="5.7866" y2="43.7793" gradientUnits="userSpaceOnUse">
<stop stop-color="#FC829F"/>
<stop offset="0.4" stop-color="#FF1C53"/>
<stop offset="0.6" stop-color="#EA49F8"/>
<stop offset="0.7" stop-color="#B250FF"/>
<stop offset="0.78" stop-color="#5E5FF5"/>
</linearGradient>
<linearGradient id="paint2_linear_2234_173995" x1="33.0788" y1="-4.9275" x2="-4.92123" y2="33.0724" gradientUnits="userSpaceOnUse">
<stop stop-color="#FC829F"/>
<stop offset="0.4" stop-color="#FF1C53"/>
<stop offset="0.6" stop-color="#EA49F8"/>
<stop offset="0.7" stop-color="#B250FF"/>
<stop offset="0.78" stop-color="#5E5FF5"/>
</linearGradient>
<linearGradient id="paint3_linear_2234_173995" x1="35.8009" y1="-2.20595" x2="-2.19907" y2="35.7939" gradientUnits="userSpaceOnUse">
<stop stop-color="#FC829F"/>
<stop offset="0.4" stop-color="#FF1C53"/>
<stop offset="0.6" stop-color="#EA49F8"/>
<stop offset="0.7" stop-color="#B250FF"/>
<stop offset="0.78" stop-color="#5E5FF5"/>
</linearGradient>
<linearGradient id="paint4_linear_2234_173995" x1="45.7565" y1="7.74887" x2="7.75655" y2="45.7487" gradientUnits="userSpaceOnUse">
<stop stop-color="#FC829F"/>
<stop offset="0.4" stop-color="#FF1C53"/>
<stop offset="0.6" stop-color="#EA49F8"/>
<stop offset="0.7" stop-color="#B250FF"/>
<stop offset="0.78" stop-color="#5E5FF5"/>
</linearGradient>
<linearGradient id="paint5_linear_2234_173995" x1="46.8818" y1="8.87524" x2="8.88179" y2="46.8751" gradientUnits="userSpaceOnUse">
<stop stop-color="#FC829F"/>
<stop offset="0.4" stop-color="#FF1C53"/>
<stop offset="0.6" stop-color="#EA49F8"/>
<stop offset="0.7" stop-color="#B250FF"/>
<stop offset="0.78" stop-color="#5E5FF5"/>
</linearGradient>
<linearGradient id="paint6_linear_2234_173995" x1="38.5318" y1="0.525079" x2="0.531822" y2="38.525" gradientUnits="userSpaceOnUse">
<stop stop-color="#FC829F"/>
<stop offset="0.4" stop-color="#FF1C53"/>
<stop offset="0.6" stop-color="#EA49F8"/>
<stop offset="0.7" stop-color="#B250FF"/>
<stop offset="0.78" stop-color="#5E5FF5"/>
</linearGradient>
<linearGradient id="paint7_linear_2234_173995" x1="41.1761" y1="3.16933" x2="3.1761" y2="41.1692" gradientUnits="userSpaceOnUse">
<stop stop-color="#FC829F"/>
<stop offset="0.4" stop-color="#FF1C53"/>
<stop offset="0.6" stop-color="#EA49F8"/>
<stop offset="0.7" stop-color="#B250FF"/>
<stop offset="0.78" stop-color="#5E5FF5"/>
</linearGradient>
</defs>
</svg>
