<svg width="256" height="360" viewBox="0 0 256 360" fill="none" xmlns="http://www.w3.org/2000/svg">
<g clip-path="url(#clip0_2185_98566)">
<g clip-path="url(#clip1_2185_98566)">
<path d="M104.32 69.416C103.68 64.96 102.984 59.728 102.656 56.888H102.616C102.64 61.328 102.544 72.224 102.408 79.832L99.152 80.304C97.296 73.864 94 62.8 92.752 58.296H92.672C93.176 61.248 94.128 66.984 94.76 71.344L96.12 80.744L93.008 81.192L89.344 55.8L94.408 55.072C96.56 61.8 99.024 69.72 99.856 73.096H99.896C99.808 69.616 100.2 60.872 100.432 54.208L105.344 53.496L109.008 78.888L105.752 79.36L104.32 69.432V69.416Z" fill="white"/>
<path d="M109.752 52.0159L113.184 51.7999L113.744 60.5519C114.272 59.2719 115.4 58.4079 117.12 58.2959C120.008 58.1119 121.352 60.3999 121.568 63.8879L122.024 71.0239C122.296 75.3199 121.688 78.3759 117.944 78.6079C116.056 78.7279 115.096 77.8479 114.552 76.7279C114.576 77.4959 114.576 77.9919 114.536 78.5439L111.416 78.7439C111.4 77.4959 111.264 75.7439 111.128 73.6079L109.752 52.0159ZM118.616 71.8639L118.16 64.6479C118.032 62.6239 117.56 61.3759 116.04 61.4719C114.184 61.5919 113.904 63.2319 114.056 65.6799L114.456 72.0159C114.616 74.5359 115.304 75.6719 116.816 75.5759C118.136 75.4959 118.768 74.3439 118.608 71.8719L118.616 71.8639Z" fill="white"/>
<path d="M124.68 78.0559L124.248 51.2879L127.688 51.2319L128.12 77.9999L124.68 78.0559Z" fill="white"/>
<path d="M141.712 64.4159L141.464 72.2799C141.328 76.5279 139.192 78.5199 135.704 78.4079C132.128 78.2959 130.296 76.1599 130.432 71.9839L130.688 63.9439C130.816 59.8719 133.128 57.9679 136.464 58.0719C139.928 58.1839 141.84 60.4239 141.712 64.4159ZM134.136 64.0079L133.872 72.2159C133.816 74.0399 134.36 75.3119 135.864 75.3599C137.264 75.4079 137.944 74.4239 138.008 72.2959L138.272 64.1199C138.328 62.4239 137.856 61.1759 136.304 61.1279C134.864 61.0799 134.2 62.1039 134.136 64.0159V64.0079Z" fill="white"/>
<path d="M154.096 72.992L154.072 73.256C153.744 76.736 152.584 79.608 148.24 79.192C144 78.792 143.4 75.832 143.776 71.808L144.448 64.696C144.752 61.44 146.16 58.552 150.328 58.944C154.808 59.368 155.072 62.68 154.832 65.192L154.76 65.952L151.376 65.632L151.448 64.864C151.6 63.24 151.448 61.984 149.984 61.84C148.672 61.72 148.096 62.672 147.912 64.608L147.112 73.088C146.968 74.624 147.112 76.144 148.592 76.288C149.968 76.416 150.44 75.432 150.624 73.464L150.696 72.664L154.08 72.984L154.096 72.992Z" fill="white"/>
<path d="M160.152 69.336H160.216C161.44 67.312 163.96 63.48 165.368 61.224L168.952 61.776L164.216 68.408L166.352 81.344L162.64 80.776L161.36 71.352L159.432 74L158.488 80.136L155.112 79.616L159.184 53.152L162.56 53.672L160.152 69.336Z" fill="white"/>
<path d="M94.9121 206.632V119.24C92.0321 120.024 86.3041 120.752 83.7761 120.832V109.832C90.1761 108.968 95.9521 105.4 98.8001 102.056H109.24V206.632H94.9041H94.9121Z" fill="white"/>
<path d="M164.92 115.304H139.112C138.584 124.088 137.688 136.224 137.016 142.936C139.16 139.832 143.896 137.656 149.72 137.656C163.592 137.656 168.664 147.88 168.664 165.24V176.6C168.664 194.472 163.656 207.912 144.384 207.912C126.784 207.912 121.032 196.44 121.032 182.376V180.248H135.296V183.576C135.296 189.544 137.168 196.032 144.376 196.032C152.24 196.032 153.824 189.96 153.824 178.584V165.832C153.824 155.224 152.128 149.808 144.76 149.808C138.648 149.808 136.384 153.344 135.04 160.304L122.264 158.944C123.8 144.304 125.832 115.576 126.6 102.64H166.432L164.912 115.304H164.92Z" fill="white"/>
<path d="M91.512 210.032V123.392C88.744 123.84 85.704 124.168 83.888 124.232L80.384 124.344V106.864L83.328 106.464C88.96 105.704 93.96 102.504 96.216 99.856L97.232 98.656H112.648V210.032H91.512Z" stroke="white" stroke-width="0.8" stroke-miterlimit="10"/>
<path d="M144.392 211.312C127.144 211.312 117.64 201.032 117.64 182.376V176.848H138.712V183.584C138.712 192.64 142.984 192.64 144.392 192.64C148.048 192.64 150.44 191.664 150.44 178.592V165.84C150.44 153.216 147.688 153.216 144.776 153.216C141.864 153.216 139.784 153.736 138.392 160.952L137.8 164.024L118.536 161.976L118.888 158.6C120.352 144.624 122.376 116.528 123.216 102.448L123.408 99.248H170.28L167.944 118.72H142.312C141.976 124.008 141.52 130.368 141.064 135.864C143.632 134.832 146.592 134.272 149.72 134.272C157.624 134.272 163.528 137.256 167.264 143.128C170.496 148.216 172.064 155.448 172.064 165.256V176.616C172.064 185.2 172.064 211.336 144.384 211.336L144.392 211.312Z" stroke="white" stroke-width="0.8" stroke-miterlimit="10"/>
</g>
<path d="M127.992 267.261C128.033 267.204 128.065 267.17 128.086 267.13C129.471 264.769 130.854 262.406 132.238 260.046C132.353 259.851 132.464 259.655 132.583 259.463C132.804 259.099 133.13 258.912 133.565 258.912C137.238 258.912 140.909 258.912 144.582 258.912C145.022 258.912 145.35 259.113 145.569 259.487C146.276 260.697 146.983 261.908 147.69 263.118C149.808 266.741 151.924 270.367 154.045 273.991C155.685 276.795 157.327 279.596 158.967 282.398C160.019 284.197 161.071 285.997 162.123 287.797C162.339 288.169 162.344 288.55 162.125 288.923C160.354 291.945 158.583 294.97 156.807 297.989C156.688 298.193 156.562 298.399 156.409 298.577C156.231 298.783 155.984 298.878 155.704 298.878C153.114 298.878 150.522 298.878 147.933 298.878C146.832 298.878 145.734 298.874 144.633 298.878C144.191 298.878 143.858 298.701 143.637 298.327C142.804 296.909 141.976 295.49 141.145 294.069C140.489 292.947 139.83 291.826 139.174 290.702C139.145 290.651 139.111 290.603 139.068 290.536C139.024 290.596 138.992 290.637 138.968 290.68C137.493 293.194 136.016 295.708 134.551 298.229C134.277 298.701 133.895 298.912 133.349 298.912C129.785 298.905 126.221 298.907 122.657 298.912C122.098 298.912 121.699 298.699 121.413 298.203C119.97 295.703 118.507 293.216 117.052 290.726C117.018 290.666 116.974 290.611 116.918 290.529C116.821 290.69 116.739 290.826 116.658 290.963C115.223 293.412 113.789 295.859 112.353 298.308C112.128 298.694 111.8 298.886 111.336 298.886C107.682 298.881 104.028 298.881 100.374 298.886C99.8978 298.886 99.5625 298.687 99.3293 298.287C98.9527 297.635 98.5713 296.983 98.1899 296.333C96.7662 293.896 95.345 291.454 93.9116 289.022C93.6395 288.557 93.6493 288.137 93.9238 287.675C95.0899 285.707 96.2415 283.733 97.3979 281.76C99.0426 278.954 100.685 276.15 102.33 273.344C103.965 270.552 105.602 267.76 107.237 264.966C108.304 263.147 109.37 261.33 110.434 259.511C110.665 259.109 111.015 258.912 111.481 258.912C115.106 258.912 118.731 258.912 122.353 258.912C122.849 258.912 123.22 259.118 123.473 259.552C124.918 262.035 126.369 264.515 127.819 266.998C127.868 267.082 127.926 267.163 127.992 267.261ZM100.311 295.655C100.362 295.581 100.393 295.54 100.42 295.495C101.601 293.482 102.779 291.468 103.96 289.455C105.568 286.709 107.179 283.965 108.787 281.219C109.331 280.291 109.875 279.364 110.415 278.436C110.629 278.07 110.937 277.852 111.372 277.844C111.838 277.835 112.159 278.07 112.385 278.46C113.928 281.101 115.473 283.74 117.016 286.381C118.682 289.23 120.346 292.082 122.01 294.931C122.149 295.169 122.292 295.404 122.45 295.672C122.508 295.578 122.545 295.521 122.581 295.463C123.93 293.163 125.278 290.862 126.631 288.564C126.714 288.423 126.714 288.317 126.631 288.18C125.742 286.671 124.858 285.161 123.973 283.649C122.003 280.282 120.035 276.915 118.067 273.547C115.893 269.826 113.719 266.104 111.542 262.382C111.501 262.313 111.455 262.248 111.399 262.159C111.353 262.234 111.319 262.281 111.289 262.332C110.558 263.576 109.827 264.819 109.098 266.066C106.681 270.19 104.266 274.314 101.849 278.439C100.517 280.711 99.1835 282.982 97.8522 285.257C97.2788 286.235 96.7055 287.215 96.1297 288.19C96.0593 288.308 96.0544 288.403 96.1297 288.526C96.7929 289.65 97.4465 290.776 98.1048 291.902C98.7948 293.081 99.4823 294.26 100.172 295.439C100.211 295.504 100.252 295.567 100.311 295.658V295.655ZM139.063 271.592C138.939 271.805 138.842 271.973 138.742 272.143C137.452 274.345 136.162 276.55 134.869 278.75C134.804 278.863 134.801 278.944 134.869 279.057C136.602 282.012 138.329 284.969 140.059 287.926C141.531 290.443 143.001 292.959 144.473 295.475C144.505 295.528 144.539 295.578 144.585 295.646C144.628 295.581 144.655 295.545 144.68 295.504C146.052 293.163 147.425 290.824 148.8 288.485C148.856 288.389 148.846 288.319 148.793 288.228C147.415 285.877 146.042 283.524 144.667 281.171C142.967 278.259 141.264 275.35 139.563 272.438C139.405 272.167 139.245 271.899 139.063 271.592ZM124.352 277.842C124.51 277.842 124.617 277.842 124.722 277.842C127.397 277.842 130.071 277.842 132.744 277.844C132.853 277.844 132.916 277.811 132.97 277.715C133.159 277.379 133.358 277.049 133.553 276.716C134.925 274.369 136.298 272.021 137.675 269.677C137.763 269.526 137.794 269.411 137.697 269.246C136.349 266.952 135.01 264.654 133.667 262.358C133.628 262.293 133.587 262.231 133.519 262.128C130.458 267.372 127.416 272.586 124.348 277.84L124.352 277.842ZM124.345 296.746C124.435 296.755 124.481 296.765 124.527 296.765C127.268 296.765 130.008 296.767 132.749 296.772C132.86 296.772 132.919 296.729 132.972 296.635C133.152 296.314 133.344 296 133.528 295.682C134.69 293.7 135.851 291.718 137.012 289.733C137.061 289.65 137.1 289.563 137.153 289.46C137.073 289.455 137.027 289.448 136.978 289.448C134.238 289.448 131.497 289.448 128.757 289.453C128.687 289.453 128.587 289.511 128.548 289.57C128.402 289.793 128.276 290.031 128.14 290.261C126.971 292.252 125.803 294.246 124.634 296.238C124.542 296.396 124.452 296.554 124.343 296.746H124.345ZM113.294 261.057C113.342 261.153 113.367 261.205 113.393 261.253C114.751 263.576 116.109 265.898 117.465 268.22C117.531 268.33 117.596 268.378 117.73 268.378C120.453 268.373 123.174 268.376 125.898 268.376H126.104C126.058 268.287 126.031 268.222 125.997 268.162C124.649 265.855 123.3 263.549 121.957 261.241C121.877 261.105 121.787 261.059 121.629 261.059C118.93 261.062 116.231 261.059 113.534 261.059C113.469 261.059 113.405 261.059 113.296 261.059L113.294 261.057ZM159.3 287.284C159.246 287.186 159.212 287.114 159.171 287.045C157.83 284.749 156.487 282.453 155.148 280.157C155.073 280.028 154.99 279.982 154.839 279.982C152.131 279.987 149.419 279.987 146.711 279.987C146.647 279.987 146.587 279.994 146.499 279.999C146.548 280.087 146.577 280.15 146.613 280.21C147.962 282.515 149.31 284.821 150.653 287.128C150.729 287.258 150.814 287.303 150.964 287.303C153.661 287.299 156.36 287.301 159.057 287.299C159.125 287.299 159.195 287.291 159.297 287.284H159.3ZM115.031 289.446C114.892 289.446 114.805 289.446 114.715 289.446C112.077 289.446 109.441 289.451 106.802 289.439C106.554 289.439 106.423 289.508 106.297 289.724C104.983 291.986 103.654 294.244 102.332 296.501C102.293 296.566 102.262 296.633 102.218 296.714C102.483 296.731 102.718 296.758 102.956 296.758C105.498 296.76 108.039 296.758 110.58 296.762C110.706 296.762 110.774 296.719 110.835 296.614C112.033 294.565 113.233 292.516 114.433 290.467C114.625 290.141 114.812 289.813 115.028 289.441L115.031 289.446ZM148.241 268.376C148.168 268.242 148.122 268.148 148.071 268.057C146.745 265.788 145.416 263.518 144.094 261.246C144.011 261.105 143.924 261.052 143.759 261.052C141.067 261.057 138.375 261.054 135.683 261.054C135.613 261.054 135.542 261.054 135.438 261.054C135.482 261.143 135.504 261.201 135.535 261.253C136.888 263.571 138.244 265.886 139.592 268.206C139.67 268.34 139.755 268.378 139.906 268.376C142.585 268.371 145.265 268.373 147.945 268.373C148.027 268.373 148.11 268.373 148.241 268.373V268.376ZM153.761 277.823C153.722 277.741 153.702 277.698 153.681 277.657C152.323 275.33 150.962 273.003 149.604 270.676C149.536 270.559 149.458 270.516 149.32 270.516C146.611 270.521 143.9 270.518 141.191 270.518H140.972C141.011 270.602 141.033 270.655 141.062 270.705C142.42 273.032 143.778 275.359 145.136 277.689C145.197 277.792 145.267 277.835 145.391 277.835C148.112 277.832 150.836 277.832 153.557 277.832C153.613 277.832 153.671 277.825 153.763 277.82L153.761 277.823ZM137.165 287.303C137.112 287.198 137.08 287.131 137.041 287.066C135.693 284.761 134.345 282.453 133.001 280.145C132.933 280.028 132.86 279.982 132.719 279.982C130.003 279.987 127.287 279.982 124.571 279.982C124.51 279.982 124.447 279.989 124.36 279.994C124.403 280.08 124.43 280.14 124.462 280.195C125.815 282.506 127.168 284.816 128.516 287.128C128.594 287.26 128.677 287.306 128.827 287.303C131.519 287.299 134.211 287.301 136.903 287.301H137.163L137.165 287.303ZM146.485 296.734C146.579 296.734 146.642 296.734 146.706 296.734C149.361 296.734 152.019 296.729 154.674 296.741C154.956 296.741 155.092 296.65 155.228 296.417C156.538 294.165 157.859 291.917 159.176 289.669C159.212 289.604 159.246 289.539 159.297 289.446C159.2 289.446 159.139 289.446 159.081 289.446C157.201 289.436 155.32 289.424 153.442 289.417C152.614 289.415 151.783 289.417 150.955 289.412C150.819 289.412 150.739 289.448 150.668 289.568C149.32 291.876 147.969 294.179 146.618 296.484C146.577 296.554 146.543 296.628 146.489 296.729L146.485 296.734ZM115.033 287.289C113.814 285.202 112.613 283.148 111.389 281.051C110.162 283.143 108.957 285.199 107.735 287.289H115.033ZM122.462 276.771C123.692 274.674 124.897 272.618 126.114 270.535H118.816C120.035 272.62 121.238 274.676 122.46 276.771H122.462Z" fill="white"/>
</g>
<defs>
<clipPath id="clip0_2185_98566">
<rect width="256" height="360" fill="white"/>
</clipPath>
<clipPath id="clip1_2185_98566">
<rect width="163.984" height="160.512" fill="white" transform="translate(46.0081 51.2)"/>
</clipPath>
</defs>
</svg>
