<svg width="48" height="48" viewBox="0 0 48 48" fill="none" xmlns="http://www.w3.org/2000/svg">
<circle cx="24" cy="24" r="20" fill="url(#paint0_linear_487_8420)"/>
<path fill-rule="evenodd" clip-rule="evenodd" d="M25.1112 6.81111C24.7445 6.78889 24.3778 6.77778 24.0001 6.77778C14.4889 6.77778 6.77783 14.4889 6.77783 24C6.77783 32.3667 12.7556 39.3444 20.6667 40.9V38.6333C13.9889 37.1222 9.00005 31.1444 9.00005 24C9.00005 16.0889 15.1223 9.61111 22.8889 9.04445V13.0222C21.9889 13.1556 21.1556 13.3889 20.4112 13.7222C19.1889 14.2778 18.2556 15.0333 17.6112 15.9889C16.9667 16.9556 16.6667 18.0111 16.7001 19.1778C16.7223 20.2111 17.0001 21.1333 17.5223 21.9222C18.0445 22.7111 18.6556 23.3889 19.3667 23.9333C20.0778 24.4889 21.0223 25.1222 22.1778 25.8333C23.1445 26.4222 23.9112 26.9333 24.4667 27.3444C25.0223 27.7556 25.5001 28.2333 25.8889 28.7778C26.2778 29.3222 26.4778 29.9 26.4889 30.5444C26.5001 31.1333 26.3556 31.7 26.0556 32.2333C25.7556 32.7667 25.3445 33.1889 24.8223 33.5222C24.3001 33.8556 23.7334 34.0111 23.1223 34.0111C22.2445 32.6444 20.4112 29.5778 19.5001 27.9111L15.9889 30.6667C17.4556 33.3111 19.7556 34.7778 22.8889 35.0667V41.1889C23.2556 41.2111 23.6223 41.2222 24.0001 41.2222C33.5112 41.2222 41.2223 33.5111 41.2223 24C41.2223 15.6333 35.2445 8.65556 27.3334 7.1V9.36667C34.0112 10.8778 39.0001 16.8556 39.0001 24C39.0001 31.9111 32.8778 38.3889 25.1112 38.9556V35.0667C26.3889 34.9667 27.5112 34.6667 28.4667 34.1889C29.6778 33.5778 30.5778 32.7778 31.1667 31.7889C31.7556 30.8 32.0334 29.7556 32.0001 28.6333C31.9778 27.6222 31.7001 26.7 31.1778 25.8889C30.6556 25.0778 30.0445 24.3778 29.3334 23.8C28.6223 23.2222 27.6667 22.5444 26.4889 21.7889C25.4778 21.1333 24.6778 20.5778 24.1001 20.1444C23.5223 19.7 23.0334 19.1889 22.6334 18.6222C22.2334 18.0556 22.0334 17.4222 22.0112 16.7444C21.9889 15.9556 22.2334 15.3111 22.7334 14.7889C23.2334 14.2667 23.9667 14.0111 24.9223 14.0111C25.9889 15.4778 27.0556 17.0556 28.1112 18.7111L31.6667 15.9111L31.6889 15.8778C30.8223 14.9222 29.8556 14.1889 28.7889 13.6667C27.8001 13.1889 26.5778 12.9333 25.1001 12.8889V6.81111H25.1112Z" fill="white"/>
<defs>
<linearGradient id="paint0_linear_487_8420" x1="4" y1="4" x2="44" y2="44" gradientUnits="userSpaceOnUse">
<stop offset="0.07" stop-color="#FC829F"/>
<stop offset="0.31" stop-color="#FF1C53"/>
<stop offset="0.47" stop-color="#EA49F8"/>
<stop offset="0.59" stop-color="#B250FF"/>
<stop offset="0.73" stop-color="#5E5FF5"/>
<stop offset="0.89" stop-color="#323CFF"/>
</linearGradient>
</defs>
</svg>
