<svg width="48" height="48" viewBox="0 0 48 48" fill="none" xmlns="http://www.w3.org/2000/svg">
<ellipse cx="6.27499" cy="30.5324" rx="1.55624" ry="1.55621" fill="#00B112"/>
<path fill-rule="evenodd" clip-rule="evenodd" d="M12.7656 18.7224C12.8501 18.4494 13.0618 18.2235 13.3824 18.1166L13.1824 17.5166C12.5388 17.7311 12.1603 18.2543 12.1005 18.838C12.0532 18.8648 12.0075 18.8959 11.9638 18.9312L11.9471 18.9448C11.6704 19.1687 11.5473 19.5121 11.592 19.8409L11.5862 19.8396L10.813 18.2661C10.5862 17.8046 10.0851 17.5446 9.57718 17.625C8.93741 17.7262 8.5008 18.3269 8.60199 18.9666C8.68233 19.4746 9.0842 19.871 9.59321 19.9443L10.6048 20.09C10.3467 20.3159 10.2071 20.6495 10.2246 20.9896C10.0825 20.9877 9.93093 21.0166 9.77841 21.0844C9.09999 21.3863 8.88544 21.9339 9.40962 23.1119C9.98285 24.4002 11.3199 24.0026 11.9819 23.708L11.2426 22.0467C11.2905 22.051 11.3388 22.0522 11.3873 22.0503C11.5251 22.0449 11.6641 22.0137 11.7977 21.9542C12.2955 21.7327 12.5519 21.1925 12.4335 20.6808C12.7063 20.7175 12.9934 20.6401 13.2164 20.4421L13.9485 19.7924L13.3764 19.0819C13.217 18.8839 12.9978 18.7624 12.7656 18.7224Z" fill="#FF8A00"/>
<path fill-rule="evenodd" clip-rule="evenodd" d="M29.1368 4.70304C29.4325 4.68755 29.7043 4.80489 29.8945 5.00288C29.9726 4.97802 30.0551 4.96264 30.1408 4.95815C30.6807 4.92986 31.1413 5.3446 31.1696 5.88451C31.1846 6.17035 31.0754 6.43397 30.8892 6.62298C30.9144 6.7016 30.9299 6.78471 30.9345 6.87103C30.9628 7.41094 30.548 7.87156 30.0081 7.89986C29.7264 7.91462 29.4663 7.8088 29.278 7.62754C29.1867 7.66165 29.0887 7.6826 28.9862 7.68797C28.4463 7.71627 27.9857 7.30152 27.9574 6.76161C27.9418 6.46352 28.0612 6.18961 28.2622 5.99927C28.2332 5.91498 28.2154 5.8253 28.2105 5.73187C28.1822 5.19196 28.5969 4.73134 29.1368 4.70304Z" fill="#FF8A00"/>
<path d="M35.2133 11.7945C34.6658 12.4127 33.7208 12.47 33.1026 11.9225C32.4843 11.375 32.427 10.43 32.9745 9.81179C33.522 9.19356 35.761 8.92066 35.761 8.92066C35.761 8.92066 35.7608 11.1762 35.2133 11.7945Z" fill="#A736FF"/>
<path fill-rule="evenodd" clip-rule="evenodd" d="M15.6675 8.66245L19.5836 4.76685C19.5836 4.76685 19.7905 5.28746 19.4525 6.17196C19.2934 6.58847 19.0569 6.93296 18.8512 7.18091L21.2381 5.80973C21.4389 6.72337 20.9077 8.18656 19.9855 8.76725L20.8335 8.56138C20.8335 9.26075 20.2664 10.3943 19.4125 10.7904C18.5586 11.1865 17.6336 11.2464 17.2849 11.2464L19.608 11.5602V13.7261L16.5298 11.3867C15.2113 11.279 14.6124 10.2705 14.2634 9.56292C13.8738 8.7732 13.268 8.8688 12.8992 8.92698C12.8783 8.93029 12.8582 8.93347 12.8389 8.93636C13.0084 8.51507 13.4357 7.84586 14.2733 7.89472C14.7273 7.92121 15.0751 8.21109 15.3344 8.42731C15.434 8.51029 15.5205 8.58242 15.595 8.62464C15.6196 8.63855 15.6438 8.65111 15.6675 8.66245Z" fill="#3491FF"/>
<path fill-rule="evenodd" clip-rule="evenodd" d="M45.746 32.2574L44.5619 32.5854C44.663 33.2383 44.55 33.9288 44.1931 34.545C43.6613 35.4629 42.7174 35.9932 41.7309 36.0375L41.8378 36.5217C41.8599 36.6222 41.7602 36.7062 41.665 36.6672L39.7313 35.8764C39.9661 35.8695 40.191 35.8409 40.4017 35.7907C40.4007 35.7903 40.3996 35.7898 40.3986 35.7893C40.9957 35.6479 41.4802 35.334 41.7585 34.8535C42.3568 33.8207 41.8139 32.3447 40.5403 31.2604C40.5349 31.2565 40.5296 31.2524 40.5245 31.2481C40.2758 31.0379 39.9997 30.8427 39.6989 30.6685C39.6674 30.6502 39.4323 30.5144 39.4006 30.4968L39.5998 30.1664C39.6685 30.0526 39.8088 30.0039 39.9332 30.0507C40.0531 30.0958 40.1831 30.1452 40.3135 30.1975C41.1097 29.8091 42.0883 29.8615 43.1018 30.4486C43.4056 30.6246 43.6669 30.8457 43.8822 31.0985C44.6828 30.9793 45.4857 31.4499 45.746 32.2574Z" fill="#A736FF"/>
<path fill-rule="evenodd" clip-rule="evenodd" d="M18.459 26.9134C18.5308 26.7074 18.7559 26.5987 18.9619 26.6705C19.1678 26.7423 19.2766 26.9674 19.2048 27.1734L19.0748 27.5463L18.329 27.2863L18.459 26.9134ZM16.4465 27.8859C16.6618 27.2681 17.3373 26.9418 17.9552 27.1572L19.4468 27.6772C20.0647 27.8925 20.3909 28.568 20.1756 29.1858L19.9427 29.1047L19.7826 29.564C19.4332 30.5662 18.4594 31.2134 17.4001 31.1473C16.5292 30.5406 16.1687 29.4283 16.5181 28.4261L16.6782 27.9667L16.4465 27.8859Z" fill="#3491FF"/>
<path fill-rule="evenodd" clip-rule="evenodd" d="M23.0893 18.5343C22.7939 18.6017 22.5268 18.788 22.3651 19.072C22.0593 19.6093 22.2469 20.2928 22.7842 20.5986C23.3215 20.9044 24.005 20.7168 24.3108 20.1795C24.4041 20.0157 24.4514 19.8383 24.457 19.6621C24.7523 19.5947 25.0195 19.4084 25.1811 19.1244C25.2743 18.9607 25.3217 18.7835 25.3273 18.6074C25.6226 18.5401 25.8898 18.3538 26.0515 18.0698C26.1447 17.906 26.1921 17.7286 26.1977 17.5525C26.4928 17.485 26.7598 17.2987 26.9214 17.0149C27.2272 16.4776 27.0396 15.7941 26.5023 15.4883C25.965 15.1825 25.2815 15.3701 24.9757 15.9074C24.8825 16.0712 24.8351 16.2485 24.8295 16.4247C24.5343 16.4921 24.2674 16.6784 24.1058 16.9622C24.0126 17.1259 23.9652 17.3032 23.9596 17.4792C23.6643 17.5466 23.3971 17.7329 23.2355 18.0169C23.1422 18.1807 23.0948 18.3582 23.0893 18.5343Z" fill="#FF61B9"/>
<path fill-rule="evenodd" clip-rule="evenodd" d="M26.5218 30.9849L27.0697 29.8891C27.0758 29.8768 27.0828 29.8652 27.0905 29.8541L27.0095 29.6669C26.6072 28.7357 26.8159 27.6531 27.5355 26.9381C28.242 26.2361 29.3013 26.0278 30.2211 26.41L30.5522 26.5476L30.5546 26.5392L30.5957 26.4671C30.9033 25.9272 31.5904 25.739 32.1302 26.0468L32.3224 26.1565L31.3054 28.1837C31.2934 28.2077 31.3021 28.237 31.3254 28.2504L31.396 28.2911C31.9139 28.5897 32.0288 29.2876 31.6342 29.7366C31.5864 29.791 31.5013 29.79 31.4547 29.7346L30.7792 28.931C30.7597 28.9078 30.7253 28.9042 30.7014 28.923L30.0177 29.4598C29.9397 29.521 29.8997 29.6187 29.9124 29.717L29.9457 29.9737C29.9978 30.3766 29.7554 30.7593 29.369 30.8845L28.9927 31.0063C28.9149 31.0315 28.8378 30.966 28.8501 30.8851L28.9873 29.9828C28.9903 29.9631 28.9724 29.9466 28.953 29.9512L28.0418 30.1656C27.9948 30.1767 27.9568 30.2111 27.9411 30.2568L27.8947 30.3916C27.7341 30.8588 27.2874 31.1665 26.7936 31.15L26.6165 31.144C26.5363 31.1414 26.4859 31.0566 26.5218 30.9849Z" fill="#00B112"/>
<path d="M6.59501 15.8126C6.25611 17.3571 4.62217 17.4322 4.62217 17.4322C4.62217 17.4322 3.16981 16.6798 3.50871 15.1354C3.7644 13.9701 5.61468 12.909 5.61468 12.909C5.61468 12.909 6.85071 14.6473 6.59501 15.8126Z" fill="#FFBB0C"/>
<path fill-rule="evenodd" clip-rule="evenodd" d="M19.5699 19.6769L23.4047 25.4762C23.5679 25.7229 23.933 25.7134 24.0831 25.4585L31.3882 13.0494C31.5027 12.8549 31.7554 12.7936 31.9463 12.9141L32.4486 13.231C32.6216 13.3401 32.6844 13.5622 32.5942 13.7458L30.0858 18.8468C30.0112 18.9985 30.1447 19.1692 30.3099 19.1333L35.6353 17.9761C35.8583 17.9277 36.0766 18.0753 36.1146 18.3004L36.162 18.5805C36.1954 18.7784 36.077 18.9704 35.8852 19.0294L28.9823 21.1529C28.9068 21.1761 28.8436 21.2282 28.8062 21.2977L22.8283 32.431C22.7555 32.5666 22.8551 32.7306 23.009 32.7285L30.8878 32.6225C31.0016 32.6209 31.1094 32.571 31.1842 32.4851L35.5975 27.4126C35.7359 27.2536 35.974 27.2292 36.1417 27.357L36.8266 27.879C37.0028 28.0133 37.0364 28.2652 36.9014 28.4409L33.9391 32.2962C33.8362 32.43 33.9333 32.6236 34.1022 32.6212L39.2236 32.5478C39.4352 32.5447 39.6125 32.707 39.6282 32.918L39.7 33.8831C39.7165 34.1047 39.5492 34.2973 39.3275 34.3119L21.4473 35.4941C21.3068 35.5034 21.1815 35.5859 21.1175 35.7113L17.6236 42.5541C17.5186 42.7596 17.2621 42.834 17.0635 42.7164L15.1049 41.5568C14.9168 41.4455 14.8529 41.2037 14.9614 41.014L16.9853 37.4756C17.0717 37.3247 17.0506 37.1353 16.9333 37.007L6.67709 25.7921C6.52674 25.6277 6.53969 25.3722 6.70588 25.2238L7.28595 24.7059C7.44274 24.5659 7.68113 24.5712 7.83161 24.7179L12.1301 28.9099C12.2291 29.0065 12.394 28.9772 12.4535 28.852L15.1816 23.1166C15.2694 22.9322 15.482 22.8435 15.6748 22.9108L16.2526 23.1127C16.4649 23.1869 16.5744 23.4215 16.4948 23.6319L13.9297 30.4134C13.8875 30.525 13.9154 30.651 14.0009 30.7343L18.143 34.7739C18.2821 34.9095 18.5115 34.8792 18.6106 34.712L22.2513 28.5695C22.3249 28.4452 22.3258 28.2909 22.2537 28.1657L14.163 14.1369C14.0532 13.9465 14.1175 13.7033 14.3071 13.5921L14.873 13.2601C15.0563 13.1525 15.2918 13.2071 15.409 13.3844L18.2376 17.662C18.3086 17.7694 18.4605 17.7838 18.5505 17.6918L22.3291 13.8265C22.4749 13.6773 22.711 13.6653 22.8712 13.7989L23.1313 14.0157C23.2955 14.1525 23.323 14.3943 23.1939 14.5646L19.5811 19.3302C19.5042 19.4317 19.4997 19.5707 19.5699 19.6769Z" fill="white"/>
<path fill-rule="evenodd" clip-rule="evenodd" d="M38.1904 15.3762C38.0866 15.5308 37.9178 15.6358 37.7248 15.6877C37.5124 15.4664 37.3399 15.1612 37.2371 14.7453L36.6231 14.8972C36.8502 15.8156 37.3785 16.3692 38.0201 16.6415C38.4732 16.8337 38.9665 16.8794 39.4258 16.8352C39.4342 16.997 39.4613 17.1537 39.5036 17.3004C39.0931 17.1632 38.6136 17.3178 38.377 17.7265L38.269 17.9131L38.3202 17.9628C38.6499 18.2833 39.1228 18.3029 39.4705 18.0931L39.92 19.9109L36.5708 20.7389C36.1209 20.8502 35.8369 21.2942 35.9247 21.7493L36.7047 25.7962L37.2591 25.6596L37.2197 22.5687L37.2644 22.5569L37.9692 25.4808L38.5243 25.3441L38.3448 22.2702L39.6797 21.9159L40.6456 24.812L41.2107 24.6723L40.7511 22.1008L40.7999 22.0831C41.0701 21.985 41.2992 21.8197 41.4733 21.6117L42.4203 22.1L42.0069 23.2617L42.5392 23.4991L43.1939 22.1056C43.2632 21.9582 43.2211 21.7825 43.0926 21.6825L41.8395 20.7073C41.8491 20.5733 41.8416 20.4363 41.8156 20.2991C41.7827 20.125 41.7207 19.9578 41.6324 19.8042L40.7697 18.3039L41.7132 17.9538C41.9866 17.8524 42.1403 17.5618 42.0703 17.2787L40.1376 17.2066C40.031 16.9096 40.0175 16.5367 40.1616 16.1951C40.3085 15.8469 40.6329 15.4988 41.269 15.2967L41.0775 14.6939C40.2865 14.9452 39.8059 15.4109 39.5788 15.9493C39.5452 16.0289 39.5175 16.1094 39.4952 16.1902C39.1115 16.245 38.7077 16.2234 38.3496 16.0918C38.488 15.9992 38.6143 15.8796 38.7156 15.7287C38.9624 15.361 39.0226 14.8659 38.8371 14.2622L38.2325 14.4479C38.3775 14.9198 38.3047 15.2059 38.1904 15.3762Z" fill="#FF61B9"/>
<path d="M12.1159 12.0918C12.3141 12.0513 12.4818 12.2406 12.4177 12.4324L11.5534 15.023C11.4894 15.2148 11.2416 15.2655 11.1074 15.1141L9.29617 13.0703C9.162 12.9189 9.24204 12.679 9.44023 12.6385L12.1159 12.0918Z" fill="#A736FF"/>
<path d="M25.2414 13.373C25.519 13.272 25.7739 13.1173 25.9916 12.9178C26.2094 12.7182 26.3857 12.4778 26.5105 12.2101C26.6354 11.9424 26.7062 11.6528 26.7191 11.3577C26.732 11.0627 26.6866 10.7679 26.5856 10.4904C26.4846 10.2129 26.3299 9.95795 26.1304 9.7402C25.9308 9.52245 25.6904 9.34613 25.4227 9.22131C25.155 9.09649 24.8654 9.02562 24.5703 9.01274C24.2752 8.99985 23.9805 9.04521 23.703 9.14623L24.4722 11.2596L25.2414 13.373Z" fill="#00B112"/>
<rect x="32.4573" y="21.4036" width="2.57792" height="2.57792" rx="0.569723" transform="rotate(50 32.4573 21.4036)" fill="#FF8A00"/>
<rect width="2.49038" height="2.49033" transform="matrix(0.122384 0.992483 -0.992482 0.122389 45.6035 25.0362)" fill="#3491FF"/>
<path d="M2.35243 23.335C1.94677 22.5488 2.25532 21.5825 3.04159 21.1769C3.82786 20.7712 4.79412 21.0798 5.19978 21.866L6.08787 23.5874L3.24053 25.0564L2.35243 23.335Z" fill="#FF61B9"/>
<path d="M26.0212 39.4257L26.2806 39.1145C26.3313 38.64 26.692 37.4304 27.8958 37.0447C29.0151 36.6861 29.9693 37.2691 30.3134 37.6603H30.6807C30.907 37.6603 31.042 37.9124 30.9166 38.1007L30.706 38.417C30.7639 38.9821 30.4434 40.2011 29.1567 40.6358C27.87 41.0705 26.9242 40.3875 26.5547 39.9818L26.1676 39.8814C25.9664 39.8292 25.8881 39.5853 26.0212 39.4257Z" fill="#FFBB0C"/>
</svg>
