<svg width="256" height="360" viewBox="0 0 256 360" fill="none" xmlns="http://www.w3.org/2000/svg">
<g clip-path="url(#clip0_1703_77760)">
<g clip-path="url(#clip1_1703_77760)">
<path d="M113.126 79.2347L110.473 79.5311C110.332 79.1093 110.142 78.0832 110.055 77.5359C109.58 79.3715 108.197 80.1429 106.562 80.3291C102.945 80.7358 101.474 78.2238 101.006 74.0511L99.6421 61.8749C99.1784 57.7478 100.497 54.7418 104.601 54.2819C109.523 53.7309 110.579 57.2196 110.906 60.1382L110.99 60.883L107.607 61.2631L107.509 60.3814C107.338 58.8689 106.942 57.1436 104.936 57.3678C103.378 57.5426 102.774 58.6561 103.036 61.0313L104.484 73.9789C104.731 76.1944 105.487 77.4067 107.075 77.2281C109.025 77.0077 109.238 75.2482 108.919 72.3903L108.489 68.5634L106.03 68.8371L105.704 65.9108L111.556 65.2572L113.122 79.2309L113.126 79.2347Z" fill="white"/>
<path d="M115.147 53.6435L120.225 53.442C125.648 53.2292 126.814 56.2277 126.989 60.6474L127.381 70.4978C127.533 74.3817 127.061 78.5772 121.152 78.8128L116.147 79.0104L115.144 53.6473L115.147 53.6435ZM119.438 75.9588L120.806 75.9056C123.588 75.7954 124.051 74.0852 123.937 71.1666L123.516 60.4726C123.413 57.8884 122.889 56.2847 120.031 56.3987L118.666 56.4519L119.438 75.9588Z" fill="white"/>
<path d="M133.712 71.3263L132.454 78.6342L129 78.524L133.921 53.2825L138.74 53.4345L142.221 78.9421L138.664 78.828L137.767 71.4555L133.708 71.3263H133.712ZM137.455 68.3126C136.9 63.4445 136.44 59.2375 136.258 56.5583H136.129C135.962 58.5877 134.962 64.1095 134.252 68.21L137.455 68.3126Z" fill="white"/>
<path d="M155.286 72.74L155.195 73.6711C154.895 76.6961 153.994 80.4698 148.978 79.972C144.429 79.5197 143.836 76.4339 144.212 72.6412L145.478 59.8532C145.869 55.8933 147.868 53.6321 151.604 54.0008C156.134 54.4492 156.67 57.6186 156.331 61.0389L156.225 62.1106L152.816 61.7724L152.957 60.3548C153.135 58.5383 152.9 57.25 151.277 57.0904C149.707 56.9346 149.145 58.0557 148.951 59.9938L147.636 73.2492C147.435 75.271 147.716 76.7569 149.373 76.9203C151.018 77.0837 151.52 75.7574 151.725 73.6673L151.851 72.4018L155.286 72.74Z" fill="white"/>
<path d="M74.3472 209.414V204.394C74.465 184.959 82.9092 171.255 93.9339 155.358C102.374 143.315 104.579 139.739 104.579 129.311C104.579 116.55 102.447 116.55 99.7521 116.55C97.852 116.55 94.6711 116.55 94.6711 126.461V134.841H74.9818V126.028C74.9818 102.922 88.8073 98.0728 100.406 98.0728C109.557 98.0728 116.283 101.117 120.399 107.117C123.774 112.043 125.416 119.028 125.416 128.479C125.416 145.778 119.905 153.367 111.567 164.855L111.358 165.14C105.806 172.885 99.4481 182.489 97.3542 190.599H128.072L125.085 209.41H74.3472V209.414Z" stroke="white" stroke-width="0.8"/>
<path d="M77.5776 206.184V204.397C77.6878 186.126 85.3074 173.471 96.5867 157.205C105.099 145.06 107.809 140.841 107.809 129.319C107.809 117.796 106.327 113.327 99.7486 113.327C93.7289 113.327 91.4335 117.929 91.4335 126.469V131.618H78.2161V126.039C78.2161 114.353 81.9138 101.314 100.406 101.314C117.576 101.314 122.185 112.628 122.185 128.49C122.185 144.353 117.226 151.57 108.748 163.252C100.482 174.782 94.2989 185.282 93.5009 193.84H124.287L122.326 206.187H77.5776V206.184Z" fill="white"/>
<path d="M127.894 209.414V204.394C128.011 184.963 136.456 171.255 147.48 155.358C155.921 143.315 158.125 139.739 158.125 129.311C158.125 116.55 155.993 116.55 153.299 116.55C151.398 116.55 148.218 116.55 148.218 126.461V134.841H128.532V126.028C128.532 102.922 142.357 98.0728 153.956 98.0728C163.107 98.0728 169.834 101.117 173.949 107.117C177.324 112.043 178.966 119.028 178.966 128.479C178.966 145.778 173.455 153.367 165.117 164.855L164.908 165.14C159.356 172.885 152.998 182.489 150.904 190.599H181.622L178.631 209.41H127.894V209.414Z" stroke="white" stroke-width="0.8"/>
<path d="M131.127 206.184V204.397C131.238 186.126 138.857 173.471 150.137 157.205C158.649 145.06 161.359 140.841 161.359 129.319C161.359 117.796 159.877 113.327 153.298 113.327C147.279 113.327 144.983 117.929 144.983 126.469V131.618H131.758V126.039C131.758 114.353 135.456 101.314 153.948 101.314C171.118 101.314 175.728 112.628 175.728 128.49C175.728 144.353 170.768 151.57 162.29 163.252C154.024 174.782 147.841 185.282 147.043 193.84H177.833L175.872 206.187H131.127V206.184Z" fill="white"/>
</g>
<path d="M104.163 249.6L128.184 250.809L151.837 256.654L104.163 249.6Z" fill="#999999"/>
<path d="M105.931 282.475L104.163 249.6L117.526 307.2L105.931 282.475Z" fill="#999999"/>
<path d="M151.837 256.651L144.919 287.991L117.526 307.2L130.496 266.306L151.837 256.651Z" fill="#EEEEEE"/>
<path d="M130.497 266.306L117.526 307.2L104.163 249.6L130.497 266.306Z" fill="white"/>
<path d="M130.497 266.306L104.163 249.6L151.837 256.651L130.497 266.306Z" fill="#CCCCCC"/>
</g>
<defs>
<clipPath id="clip0_1703_77760">
<rect width="256" height="360" fill="white"/>
</clipPath>
<clipPath id="clip1_1703_77760">
<rect width="107.685" height="160" fill="white" transform="translate(74.1572 51.2)"/>
</clipPath>
</defs>
</svg>
