<svg width="256" height="360" viewBox="0 0 256 360" fill="none" xmlns="http://www.w3.org/2000/svg">
<g clip-path="url(#clip0_1256_88167)">
<g clip-path="url(#clip1_1256_88167)">
<path d="M81.5352 58.3552L90.7931 56.478L91.4203 59.5724L85.4987 60.7726L86.958 67.9724L92.5745 66.8338L93.2017 69.9278L87.5852 71.0661L89.9151 82.5586L86.5787 83.2351L81.5352 58.3552Z" fill="white"/>
<path d="M93.7864 54.9007L97.1506 54.3807L97.773 58.4078L94.4087 58.9277L93.7864 54.9007ZM94.8237 61.7887L98.1882 61.2684L101.172 80.5745L97.8075 81.0944L94.8237 61.7887Z" fill="white"/>
<path d="M114.661 78.2139C115.085 82.3705 115.013 85.8932 109.76 86.4287C105.372 86.8763 104.312 84.1263 104.094 81.9897L104.086 81.9029L107.484 81.5562L107.494 81.655C107.566 82.3645 107.975 83.7585 109.653 83.5874C111.426 83.4067 111.629 82.0305 111.364 79.4338L111.131 77.1547C110.749 78.3854 109.758 79.2004 108.087 79.3711C104.785 79.7081 103.6 77.2943 103.241 73.7716L102.472 66.2371C102.17 63.2711 103.073 60.2621 106.512 59.911C108.534 59.705 109.5 60.5957 109.911 61.5929C109.853 61.0221 109.876 60.2365 109.904 59.8709L112.836 59.5718C112.915 60.7215 113.048 62.3923 113.267 64.5433L114.661 78.2139ZM105.891 66.0875L106.613 73.1678C106.836 75.3593 107.488 76.3965 108.833 76.2592C110.719 76.067 110.857 74.355 110.604 71.8752L110.022 66.1625C109.828 64.2657 109.47 62.6988 107.694 62.8799C106.277 63.0243 105.685 64.0694 105.891 66.0875Z" fill="white"/>
<path d="M117.54 64.8023C117.481 61.0584 117.465 60.0634 117.413 59.156L120.661 59.1048C120.773 59.6886 120.781 60.2085 120.818 60.8699C121.44 59.5409 122.564 58.7708 124.179 58.7456C125.734 58.7211 126.819 59.3694 127.303 60.8665C127.939 59.7239 128.937 58.6706 130.959 58.6387C132.992 58.6068 134.756 59.5606 134.816 63.3571L135.052 78.4157L131.648 78.4696L131.422 64.0567C131.399 62.6245 131.05 61.7112 129.778 61.7313C128.218 61.7558 127.877 63.0595 127.909 65.0621L128.12 78.5249L124.69 78.579L124.465 64.2875C124.435 62.3729 123.894 61.8237 122.797 61.8407C121.244 61.8652 120.919 63.1916 120.95 65.205L121.162 78.6343L117.758 78.6878L117.54 64.8023Z" fill="white"/>
<path d="M141.501 69.9378L141.298 72.9365C141.183 74.6229 141.436 76.2914 143.095 76.4042C144.767 76.5178 145.118 75.1016 145.226 73.5065L145.234 73.3856L148.551 73.6104L148.544 73.7203C148.399 75.855 147.668 79.6122 142.957 79.2923C138.366 78.9806 137.756 76.0201 138.024 72.0725L138.483 65.3211C138.672 62.5347 139.844 58.891 144.329 59.1954C148.323 59.4663 149.381 62.3499 149.131 66.0292C149.056 67.1366 148.907 69.3203 148.832 70.4351L141.501 69.9378ZM145.751 67.5159L145.899 65.3363C146.022 63.5278 145.747 62.1888 144.121 62.079C142.625 61.9773 141.993 63.0907 141.858 65.0732L141.711 67.2413L145.751 67.5159Z" fill="white"/>
<path d="M152.513 66.1799C153.047 62.2676 153.199 61.1527 153.286 60.2368L156.504 60.6762C156.508 61.126 156.474 61.8579 156.382 62.5274C157.117 61.3587 158.322 60.618 160.232 60.8789C162.488 61.1869 163.958 62.75 163.464 66.3648L161.456 81.0678L158.083 80.6069L160.003 66.5485C160.249 64.7489 159.738 63.9131 158.534 63.7484C157.059 63.5472 156.218 64.2067 155.8 67.2651L154.053 80.0562L150.68 79.5956L152.513 66.1799Z" fill="white"/>
<path d="M166.619 62.1629L168.723 62.5726L169.628 57.9247L172.959 58.5734L172.053 63.2213L174.582 63.7138L174.009 66.6557L171.48 66.1636L169.147 78.1419C168.964 79.0815 168.95 79.9266 170.129 80.1563C170.476 80.2239 171.013 80.2895 171.258 80.2602L170.763 82.8024C170.093 82.9624 169.163 82.8469 168.472 82.7126C166.3 82.2895 165.084 81.2511 165.699 78.0944L168.15 65.5148L166.046 65.1051L166.619 62.1629Z" fill="white"/>
<path d="M92.0701 209.307L92.5125 122.978C89.709 123.424 86.5935 123.751 84.752 123.799L81.4189 123.886L81.5065 106.769L84.3085 106.406C89.9666 105.673 94.9983 102.487 97.2788 99.8363L98.2526 98.7051L113.378 98.7819L112.81 209.414L92.0701 209.307V209.307Z" stroke="white" stroke-width="0.8"/>
<path d="M95.3185 206.092L95.7646 119.039C92.8921 119.803 87.185 120.503 84.6677 120.569L84.7238 109.611C91.1048 108.784 96.8739 105.262 99.7286 101.944L110.129 101.997L109.595 206.166L95.3185 206.092Z" fill="white"/>
<path d="M146.213 209.585L146.35 182.831L117.088 182.681L117.162 168.334L141.916 99.5022L166.4 99.6276L166.066 164.681L174.327 164.723L172.481 182.966L165.973 182.932L165.835 209.685L146.213 209.585ZM146.444 164.58L146.535 146.663C146.548 144.267 146.581 141.856 146.629 139.444C144.041 147.618 141.338 155.897 138.494 164.54L146.444 164.58Z" stroke="white" stroke-width="0.8"/>
<path d="M149.461 206.37L149.598 179.617L120.337 179.466L120.391 168.906L144.184 102.745L163.152 102.843L162.818 167.896L170.754 167.937L169.561 179.719L162.758 179.684L162.621 206.437L149.461 206.37ZM149.767 146.68C149.819 136.542 150.254 126.294 150.513 116.206L150.354 116.205C145.263 133.581 139.715 150.519 134.035 167.749L149.659 167.829L149.767 146.68Z" fill="white"/>
</g>
<path d="M84.0646 271.396V276.285H92.2734V279.294H84.0646V286.626H80.7742V268.384H93.2655V271.393H84.0646V271.396Z" fill="white" stroke="white" stroke-width="0.2" stroke-miterlimit="10"/>
<path d="M95.6885 286.626V273.248H98.9266V286.626H95.6885Z" fill="white" stroke="white" stroke-width="0.2" stroke-miterlimit="10"/>
<path d="M114.09 288.403C114.09 289.278 113.896 290.005 113.504 290.589C113.113 291.173 112.612 291.631 112.001 291.966C111.39 292.3 110.7 292.537 109.937 292.673C109.172 292.811 108.424 292.879 107.694 292.879C106.879 292.879 106.066 292.819 105.261 292.698C104.453 292.577 103.703 292.27 103.005 291.772C102.496 291.412 102.1 290.992 101.821 290.511C101.542 290.031 101.399 289.475 101.399 288.838C101.399 288.254 101.537 287.718 101.808 287.23C102.08 286.742 102.471 286.369 102.98 286.11C102.556 285.871 102.227 285.539 101.998 285.119C101.768 284.699 101.654 284.266 101.654 283.818C101.654 282.668 102.18 281.77 103.234 281.116C102.825 280.703 102.504 280.225 102.267 279.674C102.028 279.125 101.91 278.509 101.91 277.822C101.91 277.032 102.055 276.33 102.344 275.711C102.633 275.092 103.025 274.579 103.518 274.166C104.012 273.753 104.585 273.441 105.238 273.227C105.891 273.014 106.592 272.905 107.34 272.905C107.883 272.905 108.412 272.978 108.92 273.124C109.429 273.27 109.905 273.471 110.349 273.728C110.638 273.144 111.019 272.722 111.495 272.455C111.971 272.188 112.49 272.057 113.051 272.057C113.153 272.057 113.297 272.057 113.484 272.057C113.671 272.057 113.816 272.075 113.918 272.108V274.604L113.664 274.579C113.29 274.579 112.953 274.639 112.657 274.76C112.36 274.881 112.158 275.104 112.059 275.429C112.517 276.184 112.747 276.989 112.747 277.847C112.747 278.62 112.597 279.306 112.3 279.905C112.004 280.507 111.607 281.013 111.116 281.423C110.623 281.835 110.049 282.152 109.396 282.374C108.741 282.598 108.058 282.708 107.345 282.708C106.597 282.708 105.884 282.588 105.203 282.349C105.051 282.434 104.902 282.56 104.757 282.721C104.613 282.885 104.54 283.078 104.54 283.3C104.54 283.695 104.697 283.956 105.011 284.085C105.326 284.213 105.652 284.279 105.994 284.279H108.185C108.506 284.279 108.855 284.284 109.229 284.291C109.603 284.301 109.982 284.334 110.364 284.394C110.745 284.455 111.119 284.545 111.485 284.664C111.852 284.784 112.186 284.955 112.492 285.177C113.071 285.572 113.482 286.045 113.729 286.591C113.968 287.15 114.09 287.751 114.09 288.403ZM111.084 288.481C111.084 288.068 110.974 287.751 110.752 287.529C110.531 287.306 110.264 287.144 109.95 287.041C109.636 286.938 109.294 286.878 108.93 286.863C108.564 286.845 108.23 286.838 107.923 286.838H105.425C105.084 286.941 104.8 287.134 104.57 287.416C104.341 287.701 104.226 288.055 104.226 288.483C104.226 288.911 104.341 289.246 104.57 289.487C104.8 289.726 105.084 289.912 105.425 290.041C105.764 290.169 106.131 290.25 106.522 290.285C106.913 290.32 107.262 290.335 107.567 290.335C107.888 290.335 108.255 290.322 108.663 290.297C109.072 290.272 109.454 290.199 109.81 290.078C110.167 289.958 110.468 289.774 110.715 289.525C110.959 289.273 111.084 288.926 111.084 288.481ZM109.68 277.827C109.68 277.107 109.471 276.511 109.055 276.038C108.638 275.565 108.065 275.331 107.335 275.331C106.604 275.331 106.031 275.567 105.615 276.038C105.198 276.508 104.989 277.105 104.989 277.827C104.989 278.547 105.196 279.14 105.615 279.603C106.031 280.066 106.604 280.298 107.335 280.298C108.065 280.298 108.638 280.066 109.055 279.603C109.474 279.14 109.68 278.549 109.68 277.827Z" fill="white" stroke="white" stroke-width="0.2" stroke-miterlimit="10"/>
<path d="M131.577 286.626V278.315C131.577 277.492 131.437 276.853 131.156 276.398C130.877 275.945 130.336 275.716 129.538 275.716C129.079 275.716 128.688 275.824 128.366 276.038C128.045 276.252 127.776 276.536 127.564 276.886C127.352 277.238 127.195 277.628 127.093 278.056C126.99 278.486 126.94 278.904 126.94 279.317V286.624H123.78V278.315C123.78 277.492 123.64 276.853 123.358 276.398C123.079 275.945 122.538 275.716 121.74 275.716C121.282 275.716 120.89 275.824 120.569 276.038C120.247 276.252 119.973 276.536 119.754 276.886C119.532 277.238 119.372 277.628 119.27 278.056C119.168 278.486 119.118 278.904 119.118 279.317V286.624H115.957V273.248H118.607L118.861 275.024C119.235 274.407 119.736 273.902 120.364 273.507C120.993 273.112 121.75 272.915 122.633 272.915C123.568 272.915 124.35 273.109 124.979 273.494C125.607 273.879 126.093 274.418 126.432 275.102C126.823 274.4 127.362 273.859 128.05 273.482C128.738 273.104 129.533 272.915 130.433 272.915C131.861 272.915 132.936 273.348 133.659 274.216C134.381 275.084 134.743 276.209 134.743 277.601V286.631H131.577V286.626Z" fill="white" stroke="white" stroke-width="0.2" stroke-miterlimit="10"/>
<path d="M149.216 280.041C149.199 280.162 149.191 280.273 149.191 280.376V280.942H140.322C140.322 281.458 140.402 281.946 140.564 282.409C140.726 282.872 140.97 283.257 141.289 283.567C141.528 283.79 141.805 283.982 142.119 284.145C142.433 284.309 142.81 284.389 143.253 284.389C143.712 284.389 144.091 284.341 144.388 284.248C144.684 284.155 144.954 283.987 145.19 283.748C145.494 283.438 145.709 283.061 145.828 282.615H148.887C148.852 283.01 148.72 283.443 148.491 283.916C148.261 284.389 148.02 284.777 147.765 285.086C147.204 285.756 146.534 286.236 145.751 286.528C144.968 286.82 144.153 286.966 143.306 286.966C142.386 286.966 141.593 286.815 140.923 286.515C140.25 286.216 139.651 285.816 139.125 285.32C138.462 284.669 137.956 283.889 137.607 282.98C137.258 282.072 137.084 281.068 137.084 279.971C137.084 278.891 137.241 277.89 137.555 276.974C137.869 276.056 138.35 275.273 138.993 274.619C139.487 274.106 140.085 273.693 140.791 273.383C141.496 273.074 142.306 272.92 143.226 272.92C144.213 272.92 145.128 273.122 145.98 273.524C146.828 273.927 147.526 274.548 148.072 275.389C148.563 276.126 148.877 276.878 149.014 277.641C149.146 278.398 149.216 279.201 149.216 280.041ZM146.03 278.6C146.01 277.623 145.739 276.841 145.213 276.259C144.993 276.02 144.717 275.832 144.385 275.693C144.054 275.557 143.66 275.487 143.199 275.487C142.707 275.487 142.274 275.583 141.897 275.771C141.526 275.96 141.217 276.209 140.98 276.519C140.741 276.81 140.571 277.12 140.469 277.445C140.369 277.769 140.307 278.157 140.292 278.602H146.03V278.6Z" fill="white" stroke="white" stroke-width="0.2" stroke-miterlimit="10"/>
<path d="M159.795 286.626V278.418C159.795 277.631 159.641 277.012 159.337 276.566C159.03 276.121 158.454 275.897 157.605 275.897C157.043 275.897 156.575 276.056 156.201 276.373C155.827 276.69 155.531 277.097 155.309 277.596C155.087 278.094 154.96 278.672 154.927 279.332C154.892 279.993 154.875 280.605 154.875 281.171V286.626H151.689V273.248H154.366L154.596 274.971C154.987 274.269 155.543 273.748 156.266 273.414C156.988 273.079 157.732 272.91 158.495 272.91C159.21 272.91 159.843 273.031 160.394 273.27C160.944 273.512 161.413 273.841 161.797 274.262C162.178 274.682 162.473 275.188 162.677 275.779C162.882 276.37 162.984 277.009 162.984 277.696V286.624H159.795V286.626Z" fill="white" stroke="white" stroke-width="0.2" stroke-miterlimit="10"/>
<path d="M173.738 286.447C172.82 286.687 171.91 286.807 171.01 286.807C169.667 286.807 168.665 286.442 168.002 285.713C167.338 284.983 167.007 283.977 167.007 282.691V275.897H164.584V273.247H167.007V269.851L170.193 269.053V273.247H173.533V275.897H170.193V282.406C170.193 282.922 170.31 283.295 170.55 283.526C170.789 283.758 171.163 283.873 171.671 283.873C172.01 283.873 172.329 283.866 172.626 283.848C172.922 283.831 173.291 283.798 173.735 283.745V286.447H173.738Z" fill="white" stroke="white" stroke-width="0.2" stroke-miterlimit="10"/>
<path fill-rule="evenodd" clip-rule="evenodd" d="M99.1909 270.281C99.1909 269.279 98.3883 268.399 97.3014 268.399C96.1921 268.399 95.4119 269.279 95.4119 270.281C95.4119 271.33 96.1921 272.115 97.3014 272.115C98.3883 272.115 99.1909 271.33 99.1909 270.281Z" fill="white"/>
</g>
<defs>
<clipPath id="clip0_1256_88167">
<rect width="256" height="360" fill="white"/>
</clipPath>
<clipPath id="clip1_1256_88167">
<rect width="93.5439" height="160" fill="white" transform="translate(81.228 51.2)"/>
</clipPath>
</defs>
</svg>
