<svg width="256" height="360" viewBox="0 0 256 360" fill="none" xmlns="http://www.w3.org/2000/svg">
<g clip-path="url(#clip0_1256_88166)">
<g clip-path="url(#clip1_1256_88166)">
<path d="M103.461 72.7671L103.283 80.1795L99.8474 80.5751L101.038 54.8824L105.83 54.3306L112.994 79.061L109.457 79.4684L107.496 72.3025L103.461 72.7671ZM106.726 69.2396C105.465 64.5026 104.401 60.4099 103.827 57.7853L103.699 57.8002C103.83 59.8361 103.647 65.446 103.541 69.6066L106.726 69.2396Z" fill="white"/>
<path d="M114.858 78.9414L113.801 53.5772L117.78 53.4113C119.109 57.4112 122.883 70.1236 123.281 71.7599L123.331 71.758C123.028 68.5229 122.857 64.9546 122.684 60.8006L122.368 53.2198L125.53 53.088L126.587 78.4523L122.753 78.6119C121.565 74.8966 117.499 61.1105 117.089 59.658L117.051 59.6595C117.357 62.7164 117.53 66.4124 117.721 70.9801L118.047 78.8086L114.858 78.9414Z" fill="white"/>
<path d="M130.66 53.0869L134.01 53.1893L133.65 64.9787L133.688 64.9799C134.769 62.5564 137.355 56.8954 138.965 53.3408L142.736 53.4558L137.715 63.2601L142.303 78.842L138.6 78.7288L135.295 66.7482L133.491 70.1681L133.235 78.5651L129.885 78.4627L130.66 53.0869Z" fill="white"/>
<path d="M147.801 67.8137L146.657 79.3192L143.27 78.9826L145.78 53.723L150.763 54.2181C154.585 54.5981 156.528 56.3869 156.092 60.778L155.988 61.8213C155.621 65.5128 154.076 66.5345 152.891 66.8555C154.354 67.6582 155.044 68.8607 154.706 72.2679C154.493 74.4078 154.05 78.4805 154.171 80.0659L150.89 79.7397C150.715 78.1606 151.195 73.9773 151.375 72.17C151.689 69.0091 151.345 68.1659 148.983 67.931L147.801 67.8137ZM148.081 64.9903L149.293 65.1109C151.497 65.3298 152.303 64.3653 152.574 61.6387L152.671 60.6637C152.88 58.5624 152.508 57.2427 150.164 57.0097L148.887 56.8827L148.081 64.9903Z" fill="white"/>
<path d="M127.609 210.191C117.663 210.141 110.457 206.639 106.19 199.784C102.966 194.604 101.487 187.786 101.535 178.325L101.776 131.43C101.83 120.821 103.503 113.312 107.041 107.8C111.391 101.022 118.555 97.5847 128.334 97.5847L128.553 97.5851C138.066 97.6341 144.981 100.937 149.107 107.403C151.973 111.895 153.348 117.651 153.31 124.999L153.289 128.916L133.332 128.813L133.355 124.274C133.398 116.021 130.029 116.003 128.411 115.995L128.351 115.995C125.412 115.995 122.372 115.995 122.301 129.857L122.267 136.602C125.329 134.721 129.008 133.773 133.275 133.773L133.425 133.773C140.652 133.81 146.369 136.713 149.959 142.167C152.989 146.772 154.505 153.116 154.465 161.023L154.373 178.9C154.324 188.443 152.555 195.575 148.964 200.704C144.558 207 137.449 210.192 127.838 210.192L127.609 210.191ZM128.406 152.829C126.079 152.829 122.184 152.829 122.124 164.535L122.04 180.824C121.983 191.911 125.954 191.932 127.862 191.942H127.939C130.233 191.942 133.677 191.903 133.733 180.884L133.825 163.022C133.845 159.152 133.427 156.486 132.548 154.872C131.975 153.818 131.083 152.842 128.46 152.829H128.406V152.829Z" stroke="white" stroke-width="0.8"/>
<path d="M136.58 125.598L136.587 124.29C136.61 119.685 135.737 112.801 128.427 112.763C121.165 112.726 119.13 117.939 119.07 129.84L118.995 144.387C121.551 140.32 125.712 136.965 133.408 137.005C146.508 137.072 151.303 147.44 151.233 161.007L151.141 178.883C151.06 194.756 146.087 207.055 127.625 206.96C108.333 206.861 104.692 192.908 104.767 178.342L105.007 131.447C105.098 113.82 109.85 100.721 128.537 100.817C147.351 100.913 150.131 114.864 150.079 124.982L150.075 125.667L136.58 125.598ZM136.965 180.9L137.057 163.039C137.098 155.026 135.422 149.633 128.477 149.597C121.247 149.56 118.94 155.182 118.892 164.518L118.808 180.807C118.769 188.421 120.439 195.135 127.846 195.174C134.585 195.208 136.917 190.215 136.965 180.9Z" fill="white"/>
</g>
<g clip-path="url(#clip2_1256_88166)">
<path d="M147.781 262.325L131.335 253.606C129.315 252.533 126.908 252.533 124.888 253.597L108.27 262.352C105.764 263.858 103.419 265.634 103.32 270.809V274.984H109.785V269.277L128.116 259.503L146.311 269.277V274.984H152.776V270.809C152.668 265.607 150.306 263.84 147.781 262.325Z" fill="white"/>
<path d="M146.302 287.986L131.344 296.362V289.6C136.6 288.365 140.063 284.082 140.063 278.356C140.063 271.413 135.266 266.752 128.116 266.752C120.966 266.752 116.169 271.413 116.169 278.356C116.169 284.091 119.622 288.365 124.888 289.6V296.371L109.794 287.986V281.746H103.32V285.912C103.429 291.079 105.764 292.864 108.27 294.37L124.888 303.125C126.908 304.189 129.324 304.189 131.335 303.116L147.772 294.397C150.297 292.891 152.668 291.115 152.767 285.912V281.746H146.302V287.986ZM122.174 278.356C122.174 274.551 124.284 272.459 128.116 272.459C131.948 272.459 134.058 274.551 134.058 278.356C134.058 282.044 131.84 284.253 128.116 284.253C124.392 284.253 122.174 282.053 122.174 278.356Z" fill="white"/>
</g>
</g>
<defs>
<clipPath id="clip0_1256_88166">
<rect width="256" height="360" fill="white"/>
</clipPath>
<clipPath id="clip1_1256_88166">
<rect width="56.685" height="160" fill="white" transform="translate(99.6575 51.2)"/>
</clipPath>
<clipPath id="clip2_1256_88166">
<rect width="49.5789" height="51.2" fill="white" transform="translate(103.21 252.8)"/>
</clipPath>
</defs>
</svg>
