<svg width="48" height="48" viewBox="0 0 48 48" fill="none" xmlns="http://www.w3.org/2000/svg">
<path fill-rule="evenodd" clip-rule="evenodd" d="M10.2445 10.9059L29.4149 5.77386C27.707 5.27115 25.8982 5 24.0259 5C18.6033 5 13.7097 7.26813 10.2445 10.9059ZM5.03764 25.0887C5.02972 24.9402 5.02377 24.7918 5.01783 24.6434H5.01189L5.01188 24.6433C5.0099 24.6077 5.00792 24.5721 5.00792 24.5365C5.00198 24.3583 5 24.1802 5 24.0001C5 23.7408 5.00792 23.4836 5.01783 23.2282C7.11992 23.3767 9.1903 23.636 11.225 24.0001C11.995 24.1384 12.7617 24.2787 13.5265 24.4186L13.5265 24.4186C22.8508 26.1241 31.8855 27.7767 43 25.247C42.9307 26.3197 42.7722 27.3667 42.5324 28.384C30.9145 30.8223 20.731 28.8748 11.5341 27.0758C9.44192 26.6661 7.30417 26.3751 5.13274 26.2109C5.11293 26.0347 5.0951 25.8586 5.07925 25.6824C5.07727 25.6725 5.07727 25.6607 5.07727 25.6508V25.6507C5.0634 25.4904 5.05151 25.3281 5.0416 25.1659C5.0416 25.153 5.04061 25.1401 5.03962 25.1273C5.03863 25.1144 5.03764 25.1015 5.03764 25.0887ZM24.0258 43.0001C17.5373 43.0001 11.8096 39.7542 8.37608 34.7984L26.2032 42.8754C25.488 42.9565 24.7628 43.0001 24.0258 43.0001ZM33.1774 7.34183L33.1788 7.34149H33.1768L33.1774 7.34183ZM9.50702 11.7273C17.5563 10.7378 25.457 9.26542 33.1774 7.34183C34.3342 7.97707 35.4158 8.72904 36.4082 9.57993C26.9557 12.0678 17.2279 13.8827 7.28408 14.9752C7.91411 13.8134 8.65906 12.7268 9.50702 11.7273ZM15.1261 29.0054C12.0909 28.0831 8.491 27.2875 5.24376 27.0025C5.32499 27.5151 5.42802 28.0218 5.54887 28.5205C5.55185 28.5314 5.55432 28.5418 5.5568 28.5522C5.55928 28.5626 5.56175 28.573 5.56472 28.5839C5.62416 28.8214 5.68756 29.0589 5.75492 29.2944C5.75835 29.3047 5.76113 29.315 5.764 29.3256C5.7661 29.3334 5.76826 29.3414 5.77077 29.3498C5.84011 29.5873 5.91342 29.8248 5.99267 30.0583C9.06556 30.3869 12.4574 31.323 15.354 32.1464C21.9376 34.0167 30.4747 36.3957 38.6473 36.1542C39.422 35.226 40.1095 34.2206 40.6979 33.1558C33.932 33.6228 25.7356 32.2335 15.1281 29.0074L15.1261 29.0054ZM8.02511 34.276C7.33168 33.2013 6.74523 32.0514 6.27766 30.8441L6.27964 30.8461C7.83689 31.1568 9.37037 31.5329 10.8781 31.9683C13.5976 32.7545 16.6364 33.8802 19.7985 35.0516L19.7985 35.0516C24.7083 36.8705 29.9155 38.7995 34.6865 39.7385C33.4384 40.5837 32.0852 41.2843 30.6488 41.8167C26.1439 40.6047 21.8059 38.9921 17.9102 37.5441L17.9101 37.544L17.9098 37.5439C15.7559 36.7433 13.7372 35.9929 11.9004 35.3883C10.6284 34.9707 9.33669 34.6006 8.02511 34.276ZM40.6819 14.8208C40.1668 13.8905 39.5764 13.0078 38.9186 12.1825C28.6162 14.5278 17.8938 15.7688 6.88014 15.7688C6.42446 16.7148 6.04406 17.7044 5.74886 18.7296C5.89872 18.7304 6.04826 18.7319 6.19775 18.7333L6.19799 18.7333H6.19812C6.42201 18.7354 6.64577 18.7376 6.87023 18.7376C18.508 18.7376 29.8268 17.3798 40.6819 14.8208ZM12.4295 19.9389C18.9418 20.4496 25.4878 20.3803 31.9743 19.6203L31.9783 19.6242C35.5861 19.2007 39.1484 18.6406 42.0806 18.0033C42.3916 18.9355 42.6314 19.8974 42.7938 20.887C40.8047 21.3204 36.1607 22.209 30.2209 22.7988C24.3188 23.3867 18.3752 23.3965 12.4632 22.9235C10.0996 22.7355 7.72406 22.5871 5.33668 22.4822L5.31213 22.4794C5.23282 22.4704 5.15218 22.4613 5.07318 22.4505C5.0772 22.3942 5.08306 22.3387 5.08888 22.2836C5.09164 22.2574 5.0944 22.2312 5.09695 22.2051C5.101 22.1626 5.10492 22.12 5.10884 22.0774C5.12027 21.9532 5.13173 21.8287 5.14648 21.7063C5.15294 21.6496 5.16108 21.5936 5.16926 21.5374C5.17363 21.5074 5.17801 21.4774 5.18214 21.4471C5.18742 21.4083 5.19258 21.3695 5.19773 21.3307C5.21387 21.2093 5.22998 21.0881 5.2495 20.9681C5.26269 20.8788 5.27913 20.7917 5.29562 20.7043C5.30142 20.6736 5.30723 20.6428 5.31291 20.6119C5.31836 20.5807 5.32368 20.5495 5.32901 20.5183C5.34498 20.4248 5.36095 20.3313 5.38027 20.2378C5.41791 20.0498 5.4615 19.8617 5.50508 19.6757C5.51372 19.6424 5.52081 19.6092 5.52781 19.5764C5.53205 19.5565 5.53626 19.5368 5.54075 19.5174H5.56056C7.86077 19.6183 10.1511 19.7608 12.4295 19.9389Z" fill="#5054F8"/>
</svg>
