<svg width="256" height="360" viewBox="0 0 256 360" fill="none" xmlns="http://www.w3.org/2000/svg">
<g clip-path="url(#clip0_1256_88163)">
<g clip-path="url(#clip1_1256_88163)">
<path d="M99.7437 54.9223L104.798 54.3774C110.195 53.7962 111.565 56.7092 112.039 61.1099L113.095 70.912C113.512 74.7782 113.324 78.9963 107.443 79.6303L102.463 80.1662L99.7437 54.9223ZM105.536 76.9006L106.9 76.7536C109.668 76.4556 110.015 74.7173 109.703 71.8128L108.556 61.1678C108.279 58.5959 107.648 57.0321 104.804 57.3387L103.444 57.4849L105.536 76.9006Z" fill="white"/>
<path d="M118.661 71.3574L118.72 72.8844C118.802 74.9838 119.522 76.104 121.132 76.0409C122.779 75.9771 123.256 74.5659 123.173 72.4416C123.063 69.6129 122.41 68.6612 119.627 66.6468C116.82 64.6105 115.344 63.3288 115.198 59.5799C115.07 56.2905 115.934 52.9996 120.263 52.8426C124.565 52.6863 125.52 55.645 125.635 58.5951L125.685 59.8753L122.309 60.0067L122.263 58.8178C122.188 56.9081 121.796 55.7296 120.312 55.7872C118.844 55.8447 118.51 57.1423 118.581 58.9533C118.66 60.9837 119.089 61.8537 121.426 63.4513C125.214 66.0544 126.418 67.5788 126.583 71.8102C126.723 75.3958 125.694 78.7836 121.15 78.9606C116.708 79.1336 115.446 76.3175 115.316 72.975L115.258 71.4899L118.661 71.3574Z" fill="white"/>
<path d="M132.674 66.9085L132.374 78.4688L128.971 78.3805L129.629 53.0004L134.635 53.1303C138.477 53.2305 140.545 54.873 140.43 59.2848L140.403 60.333C140.307 64.0422 138.84 65.1743 137.682 65.5811C139.2 66.2745 139.976 67.4237 139.887 70.847C139.831 72.9973 139.687 77.0921 139.924 78.6645L136.627 78.5791C136.337 77.0168 136.51 72.8087 136.558 70.9929C136.64 67.8171 136.236 67.0009 133.862 66.9393L132.674 66.9085ZM132.748 64.0719L133.965 64.1035C136.18 64.161 136.914 63.1395 136.984 60.4002L137.01 59.4207C137.065 57.309 136.597 56.0203 134.242 55.9587L132.959 55.9256L132.748 64.0719Z" fill="white"/>
<path d="M145.348 79.118L143.311 53.4231L146.973 53.7679L147.45 64.6338C147.598 68.1366 147.86 72.0841 147.824 74.8914L147.889 74.8977C148.354 72.2645 149.388 68.4121 150.162 64.9764L152.631 54.3002L156.256 54.6413L149.522 79.5107L145.348 79.118Z" fill="white"/>
<path d="M127.421 211.009C118.426 210.963 111.643 208.351 107.261 203.248C103.34 198.681 101.373 192.088 101.416 183.65L101.45 177.197L121.187 177.298L121.155 183.64C121.14 186.59 121.641 188.95 122.603 190.464C123.224 191.44 124.401 192.739 127.45 192.755L127.509 192.755C130.82 192.755 133.796 191.876 133.851 181.269L133.903 171.099C133.926 166.529 133.234 163.506 131.785 161.855C130.961 160.916 129.313 159.665 124.542 159.641L116.894 159.601L116.99 140.837L124.655 140.876C129.763 140.876 132.007 139.96 132.052 131.192L132.08 125.581C132.126 116.658 129.537 116.645 127.457 116.634H127.412C125.563 116.634 122.47 116.634 122.427 124.878L122.391 131.923L103.036 131.823L103.068 125.592C103.106 118.19 104.641 112.173 107.63 107.706C111.819 101.446 118.655 98.2712 127.948 98.2712L128.158 98.2716C136.669 98.3154 143.06 101.046 147.155 106.388C150.712 111.028 152.42 117.383 152.376 125.814L152.356 129.812C152.309 138.945 150.075 145.434 145.56 149.458C151.673 153.664 154.636 160.747 154.584 170.933L154.54 179.492C154.489 189.289 152.671 196.55 148.98 201.691C144.541 207.874 137.368 211.009 127.659 211.01L127.421 211.009V211.009Z" stroke="white" stroke-width="0.8"/>
<path d="M106.285 128.608L106.301 125.609C106.356 114.764 109.759 101.41 128.142 101.504C143.927 101.585 149.217 111.594 149.144 125.797L149.124 129.795C149.062 141.686 145.192 147.231 139.105 149.655L139.104 149.814C146.631 152.467 151.417 158.15 151.351 170.917L151.308 179.475C151.223 196.022 146.028 207.872 127.437 207.777C110.632 207.69 104.574 198.207 104.649 183.667L104.665 180.445L117.939 180.514L117.923 183.623C117.89 190.042 119.992 195.949 127.433 195.987C134.81 196.025 137.035 190.538 137.083 181.286L137.135 171.116C137.19 160.299 133.483 156.454 124.558 156.409L120.143 156.386L120.206 144.085L124.51 144.107C132.24 144.147 135.233 141.053 135.284 131.208L135.313 125.598C135.347 118.827 134.101 113.436 127.474 113.402C120.863 113.368 119.227 118.695 119.195 124.861L119.176 128.674L106.285 128.608Z" fill="white"/>
</g>
<path d="M164.726 290.645H164.704C164.506 290.631 164.321 290.54 164.19 290.39C164.058 290.24 163.992 290.044 164.005 289.844C164.005 289.838 164.005 289.832 164.005 289.826C164.002 289.728 164.017 289.63 164.052 289.538C164.086 289.446 164.139 289.362 164.205 289.29C164.273 289.219 164.353 289.161 164.443 289.121C164.532 289.08 164.628 289.058 164.726 289.055C164.869 289.058 165.008 289.104 165.124 289.188C165.24 289.272 165.327 289.39 165.375 289.526H166.093C166.036 289.23 165.875 288.966 165.64 288.779C165.381 288.555 165.046 288.436 164.704 288.448C164.344 288.449 163.997 288.591 163.739 288.844C163.481 289.098 163.332 289.442 163.323 289.805C163.316 289.997 163.349 290.188 163.42 290.366C163.491 290.544 163.599 290.706 163.736 290.839C163.997 291.099 164.35 291.245 164.717 291.245H164.748C165.058 291.245 165.359 291.14 165.603 290.948C165.847 290.756 166.019 290.488 166.093 290.185H165.375C165.326 290.319 165.237 290.434 165.121 290.516C165.005 290.598 164.868 290.643 164.726 290.645Z" fill="white"/>
<path d="M167.271 288.763C167.132 288.431 166.93 288.13 166.677 287.874C166.423 287.619 166.122 287.417 165.791 287.277C165.448 287.131 165.08 287.056 164.708 287.058C164.336 287.057 163.967 287.131 163.624 287.277C163.293 287.417 162.993 287.62 162.739 287.874C162.485 288.129 162.283 288.431 162.144 288.763C161.998 289.108 161.922 289.478 161.921 289.853C161.922 290.227 161.998 290.596 162.144 290.94C162.283 291.272 162.485 291.574 162.739 291.829C162.993 292.084 163.293 292.286 163.624 292.427C163.967 292.574 164.336 292.65 164.708 292.651H164.713C165.084 292.649 165.451 292.573 165.791 292.427C166.122 292.287 166.423 292.084 166.677 291.829C166.93 291.574 167.132 291.272 167.271 290.94C167.416 290.596 167.491 290.226 167.49 289.853C167.491 289.478 167.416 289.108 167.271 288.763ZM166.714 290.704C166.604 290.964 166.446 291.2 166.248 291.399C166.049 291.6 165.813 291.759 165.554 291.869C165.286 291.983 164.997 292.042 164.706 292.041C164.414 292.042 164.125 291.984 163.857 291.869C163.598 291.759 163.362 291.6 163.164 291.399C162.965 291.2 162.806 290.964 162.696 290.704C162.583 290.435 162.525 290.145 162.525 289.853C162.525 289.56 162.583 289.27 162.696 288.999C162.806 288.739 162.965 288.503 163.164 288.304C163.362 288.104 163.598 287.945 163.857 287.835C164.124 287.721 164.411 287.663 164.702 287.663H164.706C164.998 287.663 165.286 287.721 165.555 287.835C165.814 287.945 166.049 288.104 166.248 288.304C166.447 288.504 166.605 288.74 166.715 288.999C166.828 289.269 166.887 289.56 166.886 289.853C166.886 290.145 166.828 290.434 166.714 290.704V290.704Z" fill="white"/>
<path d="M102.621 272.327C101.112 271.482 98.9913 271.015 96.3195 271.015H95.1196V275.856H96.9878C100.153 275.856 102.099 277.985 102.099 281.834C102.099 285.77 100.124 287.754 96.9588 287.754H95.1196V292.594H96.6972C103.406 292.594 107.587 288.92 107.587 281.805C107.587 277.401 105.671 274.077 102.621 272.327Z" fill="white"/>
<path d="M89 292.609H94.4923V287.769H94.4886V275.87H94.4923V271.03H89V292.609Z" fill="white"/>
<path d="M118.941 279.793L118.705 279.69L117.438 284.054C118.545 284.608 119.405 285.294 119.405 286.328C119.407 286.6 119.354 286.87 119.251 287.122C119.148 287.374 118.996 287.603 118.805 287.795C118.613 287.988 118.385 288.14 118.135 288.244C117.884 288.347 117.615 288.4 117.344 288.398C115.979 288.398 115.108 287.232 115.079 285.453H109.619V285.921C109.619 290.557 112.698 293.007 117.373 293.007C122.019 293.007 124.865 290.557 124.865 286.387C124.865 283.555 123.674 281.834 118.941 279.793Z" fill="white"/>
<path d="M115.078 283.059C115.659 283.294 116.278 283.526 116.862 283.783L118.126 279.434C116.319 278.618 115.425 278.031 115.425 276.905C115.425 275.943 116.296 275.214 117.313 275.214C118.387 275.214 119.023 275.768 119.258 277.314H124.689C124.66 274.427 123.556 272.706 121.262 271.511C120.085 270.905 118.78 270.595 117.458 270.607C113.509 270.607 109.966 273.29 109.966 276.964C109.967 279.764 111.563 281.63 115.078 283.059Z" fill="white"/>
<path d="M138.279 278.772C138.279 280.347 137.506 281.31 136.177 281.683L138.872 285.085C141.778 284.26 143.536 281.619 143.536 278.448C143.536 275.387 141.909 272.849 139.586 271.799C138.454 271.303 136.74 271.012 134.504 271.012H133.253V275.852H134.824C136.885 275.856 138.279 276.906 138.279 278.772Z" fill="white"/>
<path d="M141.14 288.96L140.029 287.558L138.193 285.244H138.198L135.485 281.821C135.246 281.849 135.007 281.862 134.767 281.862H132.733V281.847H132.628V271.014H127.135V292.595H132.628V285.622H132.791L137.757 292.592H144.03L141.141 288.956L141.14 288.96Z" fill="white"/>
<path d="M159.086 271.015L155.172 284.48L154.692 286.149H154.687L152.813 292.594H157.509L164.71 271.015H159.086Z" fill="white"/>
<path d="M150.305 271.015H144.671L151.844 292.594H152.16L154.335 285.111L150.305 271.015Z" fill="white"/>
</g>
<defs>
<clipPath id="clip0_1256_88163">
<rect width="256" height="360" fill="white"/>
</clipPath>
<clipPath id="clip1_1256_88163">
<rect width="56.8925" height="160" fill="white" transform="translate(99.5537 51.2)"/>
</clipPath>
</defs>
</svg>
