<svg width="256" height="360" viewBox="0 0 256 360" fill="none" xmlns="http://www.w3.org/2000/svg">
<g clip-path="url(#clip0_1256_88168)">
<path d="M66.8613 89.0745L56.0259 65.8516L59.4896 64.7824C61.8302 70.0994 65.5368 78.761 67.0446 82.9628L67.1064 82.9439C66.1473 78.1858 64.7674 69.1735 63.8113 63.4482L67.0274 62.4554C69.5271 67.8359 73.2748 75.4729 75.2123 80.2785L75.2958 80.2529C74.1895 75.677 72.5502 66.9697 71.4359 61.0945L74.7359 60.0758L78.5999 85.4508L75.213 86.4963C72.7744 81.1844 69.1923 73.7635 67.2987 69.3301L67.2369 69.3494C68.1784 74.3068 69.3352 82.4054 70.2227 88.0368L66.8613 89.0745Z" fill="white"/>
<path d="M90.9713 63.2675L93.5582 75.2413C94.5494 79.8302 93.1047 82.4678 89.1138 83.3295C85.161 84.1839 83.0068 82.1727 82.0581 77.7805L79.4565 65.7399C78.4788 61.2137 80.1989 58.5524 83.8175 57.7704C87.5399 56.9662 90.0173 58.8526 90.9713 63.2675ZM82.7927 64.7542L85.5251 77.4016C86.0368 79.7697 87.1164 80.6129 88.6165 80.2889C90.2168 79.9434 90.7779 78.8 90.2374 76.2983L87.5193 63.7173C87.0333 61.4675 86.0511 60.4633 84.3987 60.8203C82.8469 61.1558 82.2841 62.4005 82.7927 64.7542Z" fill="white"/>
<path d="M97.5129 81.2479L93.9841 56.1085L97.9277 55.5548C99.6417 59.4063 104.638 71.6889 105.195 73.2788L105.243 73.2717C104.627 70.082 104.108 66.5474 103.53 62.4302L102.475 54.9165L105.609 54.4767L109.138 79.616L105.337 80.1497C103.792 76.5677 98.3997 63.2448 97.8499 61.8394L97.8122 61.8445C98.4155 64.8569 98.9484 68.518 99.584 73.0457L100.673 80.8044L97.5129 81.2479Z" fill="white"/>
<path d="M110.56 53.982L115.632 53.6484C121.046 53.2925 122.294 56.2592 122.584 60.6745L123.231 70.5095C123.486 74.3885 123.123 78.5948 117.222 78.9826L112.226 79.311L110.56 53.982ZM115.431 76.1773L116.799 76.0871C119.577 75.9041 119.996 74.1821 119.805 71.2681L119.102 60.5872C118.933 58.0065 118.368 56.4184 115.514 56.6059L114.15 56.6957L115.431 76.1773Z" fill="white"/>
<path d="M135.419 66.6343L129.791 66.635L129.792 75.3949L136.237 75.3938L135.797 78.5242L126.388 78.5257L126.384 53.1384L135.732 53.137L135.733 56.2941L129.789 56.2952L129.79 63.5046L135.418 63.5039L135.419 66.6343Z" fill="white"/>
<path d="M141.946 67.2622L141.223 78.8034L137.825 78.5903L139.413 53.2532L144.411 53.5664C148.246 53.8069 150.253 55.5241 149.977 59.9285L149.911 60.9747C149.679 64.6778 148.171 65.7555 146.999 66.1196C148.49 66.8681 149.224 68.0446 149.01 71.4626C148.875 73.6092 148.581 77.6959 148.76 79.2754L145.469 79.0691C145.236 77.4974 145.564 73.2989 145.678 71.4856C145.876 68.3155 145.502 67.4853 143.132 67.3365L141.946 67.2622ZM142.124 64.4306L143.339 64.5067C145.55 64.6451 146.321 63.652 146.492 60.9168L146.553 59.9389C146.685 57.831 146.265 56.5257 143.914 56.378L142.634 56.2979L142.124 64.4306Z" fill="white"/>
<path d="M159.989 55.0219L165.009 55.8201C170.368 56.6722 170.928 59.842 170.233 64.2119L168.685 73.9464C168.074 77.7857 166.789 81.8064 160.948 80.8778L156.003 80.0918L159.989 55.0219ZM159.823 77.7456L161.177 77.9608C163.927 78.398 164.717 76.8115 165.176 73.9271L166.856 63.3557C167.263 60.8017 167.064 59.1276 164.239 58.6785L162.889 58.4636L159.823 77.7456Z" fill="white"/>
<path d="M174.511 75.9527L171.852 82.8738L168.484 82.0922L178.237 58.2952L182.936 59.3851L181.375 85.0827L177.906 84.2781L178.467 76.8705L174.511 75.9527ZM178.771 73.7279C179.175 68.8428 179.548 64.6309 179.889 61.9663L179.763 61.937C179.202 63.8984 177.145 69.12 175.648 73.0031L178.771 73.7279Z" fill="white"/>
<path d="M199.455 70.894L195.849 82.6006C194.467 87.0867 191.916 88.6796 188.015 87.4779C184.15 86.2873 183.256 83.4794 184.579 79.1856L188.205 67.4132C189.568 62.9884 192.37 61.5098 195.908 62.5994C199.547 63.7202 200.784 66.5778 199.455 70.894ZM191.596 68.187L187.788 80.552C187.074 82.8671 187.603 84.1311 189.07 84.5828C190.634 85.0649 191.683 84.3427 192.436 81.8966L196.225 69.5965C196.902 67.3973 196.538 66.0408 194.922 65.5432C193.405 65.0759 192.305 65.8857 191.596 68.187Z" fill="white"/>
<path d="M124.973 205.677L125.419 118.624C122.547 119.388 116.84 120.088 114.323 120.154L114.379 109.196C120.76 108.369 126.529 104.847 129.383 101.529L139.784 101.582L139.25 205.751L124.973 205.677Z" fill="white"/>
<path d="M121.725 208.893L122.167 122.563C119.364 123.008 116.249 123.336 114.407 123.384L111.074 123.472L111.161 106.354L113.963 105.991C119.621 105.258 124.653 102.072 126.934 99.4213L127.907 98.2898L143.032 98.3672L142.465 208.999L121.725 208.893V208.893Z" stroke="white" stroke-width="0.8"/>
<path d="M124.973 205.678L125.419 118.624C122.547 119.388 116.84 120.088 114.323 120.154L114.379 109.196C120.76 108.369 126.529 104.847 129.383 101.529L139.784 101.582L139.25 205.751L124.973 205.678Z" fill="white"/>
<path fill-rule="evenodd" clip-rule="evenodd" d="M128 300.8C142.138 300.8 153.6 289.338 153.6 275.2C153.6 261.061 142.138 249.6 128 249.6C113.861 249.6 102.4 261.061 102.4 275.2C102.4 289.338 113.861 300.8 128 300.8ZM110.08 265.813H115.2L121.6 277.76L122.88 280.149L124.16 277.76L124.587 276.964L127.147 281.742L122.88 289.707L110.08 265.813ZM126.72 277.76L125.44 275.371L120.32 265.813H125.44L128 270.592L130.56 275.371L131.84 277.76L133.12 280.149L134.4 277.76L140.8 265.813H145.92L133.12 289.707L129.92 283.733L128 280.149L126.72 277.76ZM131.414 273.778L135.68 265.813H130.56L128.854 268.999L131.414 273.778Z" fill="white"/>
</g>
<defs>
<clipPath id="clip0_1256_88168">
<rect width="256" height="360" fill="white"/>
</clipPath>
</defs>
</svg>
