<svg width="256" height="360" viewBox="0 0 256 360" fill="none" xmlns="http://www.w3.org/2000/svg">
<g clip-path="url(#clip0_3037_81201)">
<g clip-path="url(#clip1_3037_81201)">
<path d="M127.601 210.719C116.097 210.719 102.39 206.025 102.39 183.661V180.112H122.407V184.517C122.407 192.886 126.024 192.886 127.755 192.886C130.814 192.886 133.7 192.886 133.7 175.61V166.636C130.891 168.415 127.399 169.243 123.013 169.243C113.163 169.243 101.409 164.366 101.409 141.117V126.381C101.409 107.922 110.98 97.332 127.669 97.332C139.529 97.332 153.668 102.507 153.668 127.16V172.205C153.668 187.547 153.668 210.729 127.592 210.729L127.601 210.719ZM127.63 115.05C125.36 115.05 121.551 115.05 121.551 124.861V141.309C121.551 150.168 124.514 150.909 127.294 150.909C130.516 150.909 133.661 149.889 133.661 137.645V124.938C133.661 115.81 130.679 115.05 127.63 115.05Z" stroke="white" stroke-width="0.8"/>
<path d="M119.531 182.998V184.517C119.531 191.751 122.109 195.771 127.765 195.771C134.614 195.771 136.595 190.827 136.595 175.61V159.335C134.094 163.741 130.391 166.357 123.023 166.357C109.499 166.357 104.305 156.228 104.305 141.117V126.381C104.305 110.125 112.048 100.218 127.679 100.218C143.309 100.218 150.793 109.509 150.793 127.16V172.205C150.793 191.231 148.955 207.843 127.602 207.843C109.364 207.843 105.276 195.656 105.276 183.671V183.007H119.522L119.531 182.998ZM118.675 124.861V141.309C118.675 148.139 120.31 153.795 127.303 153.795C134.7 153.795 136.557 147.562 136.557 137.645V124.938C136.557 116.608 134.2 112.164 127.64 112.164C121.417 112.164 118.675 116.233 118.675 124.861Z" fill="white"/>
<path d="M103.66 71.5438L103.814 72.5634C104.266 75.5453 104.4 79.7872 98.8889 80.624C94.0602 81.3551 92.5885 78.4983 91.9826 74.5161L90.0011 61.3863C89.3855 57.3656 90.8091 54.4223 94.8971 53.8067C99.7834 53.066 101.207 56.1633 101.755 59.78L101.928 60.9439L97.8982 61.5499L97.6481 59.9146C97.3884 58.1833 96.8305 57.2598 95.4357 57.4715C94.0602 57.6831 93.762 58.6931 94.0314 60.4725L96.1187 74.2467C96.3784 75.9493 96.917 77.219 98.4368 76.9881C99.8893 76.7669 100.101 75.5645 99.8027 73.6215L99.5815 72.1594L103.641 71.5438H103.66Z" fill="white"/>
<path d="M114.731 66.3881L108.96 66.8979L109.691 75.1605L116.338 74.5738L116.155 78.3444L105.978 79.2485L103.65 53.0083L113.779 52.1041L114.116 55.8651L108.027 56.4038L108.633 63.1754L114.404 62.6656L114.731 66.3881Z" fill="white"/>
<path d="M121.166 66.3882L121.464 78.1617L117.405 78.2675L116.732 51.931L122.359 51.7868C126.37 51.681 128.775 53.2296 128.89 57.9717L128.919 58.972C129.025 63.0216 127.39 64.0893 126.38 64.5317C127.938 65.2147 128.842 66.3016 128.929 69.8702C128.986 72.0825 129.054 76.3629 129.381 77.9597L125.456 78.0559C125.062 76.4784 125.033 72.1499 124.975 70.2357C124.889 67.023 124.465 66.3016 122.099 66.3593L121.157 66.3786L121.166 66.3882ZM121.08 63.0312L122.013 63.0023C124.158 62.9446 124.927 62.1174 124.86 59.251L124.841 58.3468C124.793 56.3076 124.34 55.086 122.032 55.1437L120.887 55.1726L121.089 63.0216L121.08 63.0312Z" fill="white"/>
<path d="M134.796 55.5766L130.573 55.413L130.727 51.6425L143.261 52.1426L143.107 55.9132L138.855 55.7401L137.961 78.2963L133.901 78.1328L134.796 55.5766Z" fill="white"/>
<path d="M149.215 52.7102L146.964 78.96L142.915 78.6137L145.165 52.3639L149.215 52.7102Z" fill="white"/>
<path d="M152.985 53.0372L156.938 53.5855L155.313 65.3782H155.351C156.708 62.9447 159.709 57.635 161.642 54.2396L166.125 54.8552L159.978 64.3394L162.816 80.9896L158.429 80.3836L156.64 68.1581L154.476 71.4381L153.341 79.6718L149.388 79.1332L152.976 53.0372H152.985Z" fill="white"/>
</g>
<path d="M128.153 254.899L112.985 259.538L112.983 259.535C112.854 259.574 112.719 259.588 112.584 259.575C112.45 259.563 112.32 259.523 112.2 259.46C112.081 259.397 111.976 259.31 111.89 259.206C111.85 259.157 111.814 259.105 111.784 259.049C111.75 258.987 111.722 258.921 111.701 258.853C111.69 258.817 111.681 258.781 111.674 258.744C111.656 258.648 111.652 258.55 111.662 258.453C111.675 258.319 111.715 258.188 111.779 258.069C111.815 258.001 111.859 257.938 111.909 257.88C111.947 257.836 111.989 257.796 112.034 257.76C112.077 257.724 112.123 257.692 112.172 257.665C112.24 257.626 112.312 257.594 112.388 257.572L127.855 252.845C128.049 252.785 128.257 252.785 128.45 252.845L144.255 257.675C144.514 257.755 144.731 257.934 144.858 258.174C144.985 258.414 145.012 258.694 144.933 258.953C144.855 259.213 144.676 259.431 144.438 259.559C144.199 259.687 143.919 259.716 143.659 259.638L128.153 254.899Z" fill="white"/>
<path fill-rule="evenodd" clip-rule="evenodd" d="M127.609 303.842L127.613 303.844C127.689 303.891 127.771 303.928 127.856 303.954C127.878 303.96 127.899 303.967 127.922 303.972C127.97 303.984 128.019 303.991 128.069 303.996L128.118 304L128.158 304C128.327 304 128.494 303.958 128.642 303.877L129.902 303.197C136.536 299.618 141.152 295.112 144.339 290.528C147.09 286.544 149.089 282.089 150.237 277.385C151.081 273.939 151.508 270.404 151.509 266.856C151.526 265.214 151.418 263.573 151.187 261.947L150.918 260.318C150.897 260.185 150.85 260.057 150.779 259.942C150.709 259.827 150.616 259.728 150.507 259.649C150.398 259.57 150.274 259.513 150.143 259.482C150.012 259.451 149.876 259.447 149.743 259.469C149.718 259.473 149.692 259.478 149.668 259.485L149.647 259.49C149.619 259.497 149.59 259.505 149.563 259.514C149.308 259.601 149.098 259.786 148.978 260.027L140.504 277.68L140.399 277.877C140.299 277.845 140.193 277.828 140.086 277.828H116.432L107.343 260.079L107.328 260.045C107.308 260.004 107.286 259.963 107.261 259.924C107.235 259.882 107.206 259.843 107.174 259.805C107.141 259.766 107.105 259.73 107.066 259.696C106.963 259.607 106.845 259.54 106.717 259.498C106.588 259.456 106.453 259.439 106.318 259.45C106.259 259.454 106.201 259.464 106.144 259.479C106.071 259.497 106 259.524 105.932 259.559C105.812 259.621 105.706 259.706 105.618 259.809C105.57 259.866 105.529 259.928 105.494 259.993C105.466 260.046 105.443 260.102 105.425 260.16C105.411 260.205 105.399 260.251 105.392 260.298C105.386 260.332 105.382 260.368 105.379 260.403L105.125 261.945C104.893 263.571 104.785 265.212 104.802 266.854C104.803 270.402 105.231 273.937 106.075 277.383C107.224 282.089 109.224 286.543 111.976 290.528C115.157 295.112 119.772 299.619 126.413 303.197L127.609 303.842ZM142.329 278.586L149.351 263.971C149.432 264.929 149.467 265.891 149.456 266.853C149.454 270.235 149.047 273.604 148.242 276.889C147.155 281.351 145.26 285.576 142.651 289.355C139.924 293.283 136.095 297.153 130.683 300.394L142.31 278.625L142.329 278.586ZM117.478 279.871L128.18 300.771L139.334 279.871H117.478ZM106.963 263.816L125.711 300.45C120.25 297.197 116.394 293.306 113.649 289.355C111.041 285.576 109.146 281.351 108.058 276.889C107.254 273.605 106.846 270.236 106.845 266.854C106.834 265.84 106.873 264.826 106.963 263.816Z" fill="white"/>
</g>
<defs>
<clipPath id="clip0_3037_81201">
<rect width="256" height="360" fill="white"/>
</clipPath>
<clipPath id="clip1_3037_81201">
<rect width="76.518" height="160" fill="white" transform="translate(89.7412 51.2)"/>
</clipPath>
</defs>
</svg>
