<svg width="189" height="28" viewBox="0 0 189 28" fill="none" xmlns="http://www.w3.org/2000/svg">
<g clip-path="url(#clip0_270_16497)">
<path fill-rule="evenodd" clip-rule="evenodd" d="M5.99558 0H1.05794C0.473657 0 0 0.473657 0 1.05794V5.96215C0 6.54643 0.473657 7.02009 1.05794 7.02009H5.99558C6.57986 7.02009 7.05352 6.54643 7.05352 5.96215V1.05794C7.05352 0.473657 6.57986 0 5.99558 0ZM24.6498 7.63955H28.5675C29.1518 7.63955 29.6255 8.1132 29.6255 8.69746V20.6106C29.6255 21.1949 29.1518 21.6686 28.5675 21.6686H23.6299C23.0456 21.6686 22.5719 21.1949 22.5719 20.6106V9.49864C22.5719 8.12977 21.4622 7.02009 20.0934 7.02009H16.1756C15.5913 7.02009 15.1177 6.54643 15.1177 5.96214V1.05794C15.1177 0.473654 15.5913 0 16.1756 0H21.1133C21.6976 0 22.1712 0.473654 22.1712 1.05794V5.161C22.1712 6.52987 23.2809 7.63955 24.6498 7.63955ZM39.1579 7.63955H43.0757C43.6599 7.63955 44.1336 8.1132 44.1336 8.69746V20.6106C44.1336 21.1949 43.6599 21.6686 43.0757 21.6686H38.138C37.5537 21.6686 37.08 21.1949 37.08 20.6106V9.49864C37.08 8.12977 35.9704 7.02009 34.6015 7.02009H30.6838C30.0995 7.02009 29.6258 6.54643 29.6258 5.96214V1.05794C29.6258 0.473654 30.0995 0 30.6838 0H35.6214C36.2057 0 36.6794 0.473654 36.6794 1.05794V5.161C36.6794 6.52987 37.789 7.63955 39.1579 7.63955ZM9.12205 7.63952H14.0598C14.644 7.63952 15.1177 8.11316 15.1177 8.69743V20.6106C15.1177 21.1949 14.644 21.6685 14.0598 21.6685H9.12205C8.53777 21.6685 8.06413 21.1949 8.06413 20.6106V8.69743C8.06413 8.11316 8.53777 7.63952 9.12205 7.63952Z" fill="black"/>
<path fill-rule="evenodd" clip-rule="evenodd" d="M113.105 9.94455C113.726 8.50235 114.945 7.43305 117.137 7.33107C117.327 7.32218 117.486 7.48048 117.486 7.67139V9.79448C117.486 9.97944 117.336 10.1269 117.151 10.1327C114.583 10.2127 113.43 11.2327 113.105 13.1333V21.5247C113.105 21.7121 112.953 21.8641 112.765 21.8641H111.031C110.844 21.8641 110.692 21.7121 110.692 21.5247V7.6625C110.692 7.47512 110.844 7.32307 111.031 7.32307H112.765C112.953 7.32307 113.105 7.47512 113.105 7.6625V9.94455ZM73.5553 7.32781C69.9865 7.32781 67.0935 10.6581 67.0935 14.7661C67.0935 18.8742 69.9865 22.2044 73.5553 22.2044C77.124 22.2044 80.017 18.8742 80.017 14.7661C80.017 10.6581 77.124 7.32781 73.5553 7.32781ZM73.5553 20.3022C71.3191 20.3022 69.5064 17.8236 69.5064 14.7661C69.5064 11.7087 71.3191 9.23009 73.5553 9.23009C75.7914 9.23009 77.6042 11.7087 77.6042 14.7661C77.6042 17.8236 75.7914 20.3022 73.5553 20.3022ZM62.8811 8.02747H64.3669C64.5545 8.02747 64.7064 8.17943 64.7064 8.36692V20.7293C64.7064 22.5028 64.4465 23.9024 63.9267 24.9284C62.956 26.8236 61.1236 27.7713 58.4289 27.7713C56.9299 27.7713 55.6691 27.4344 54.6467 26.7605C53.7214 26.151 53.165 25.2298 52.9774 23.9971C52.9457 23.7887 53.1021 23.5983 53.3129 23.5983H55.0435C55.2031 23.5983 55.3356 23.7118 55.3742 23.8667C55.4983 24.3639 55.7039 24.7569 55.9916 25.0458C56.5189 25.5674 57.3489 25.8282 58.4817 25.8282C60.2715 25.8282 61.4429 25.1935 61.9965 23.9243C62.325 23.1763 62.4764 21.8424 62.4504 19.9207C61.9828 20.6338 61.4199 21.1642 60.7618 21.5117C60.1036 21.8596 59.2331 22.0334 58.1507 22.0334C56.6438 22.0334 55.3254 21.4966 54.1953 20.4226C53.0651 19.349 52.5002 17.5734 52.5002 15.0956C52.5002 12.7571 53.0696 10.9314 54.2083 9.61845C55.3471 8.30595 56.7221 7.64928 58.3328 7.64928C59.4238 7.64928 60.3764 7.91893 61.1907 8.45781C61.6322 8.76238 62.0825 9.20577 62.5416 9.78798V8.36692C62.5416 8.17943 62.6936 8.02747 62.8811 8.02747ZM58.4289 20.1163C60.1066 20.1163 61.2872 19.3558 61.9708 17.8342C62.3513 16.9735 62.5416 15.9694 62.5416 14.8218C62.5416 13.0919 62.1868 11.8093 61.4778 10.9747C60.7685 10.1401 59.8647 9.72278 58.7661 9.72278C57.1225 9.72278 55.9983 10.4968 55.3927 12.0441C55.0726 12.8703 54.9127 13.9526 54.9127 15.2912C54.9127 16.865 55.2306 18.0626 55.8664 18.8838C56.502 19.7058 57.3562 20.1163 58.4289 20.1163ZM92.0455 7.70133H93.8813C94.1185 7.70133 94.2826 7.93838 94.199 8.16036L89.1966 21.4482C89.1468 21.5805 89.0202 21.6681 88.8788 21.6681H86.8491C86.7069 21.6681 86.5798 21.5795 86.5306 21.4461L81.6298 8.15824C81.5481 7.93662 81.7121 7.70133 81.9483 7.70133H83.941C84.0877 7.70133 84.2178 7.79559 84.2635 7.93499L87.9166 19.073L91.7243 7.93099C91.7712 7.79364 91.9003 7.70133 92.0455 7.70133ZM124.203 8.11875C124.941 7.76244 125.763 7.58408 126.667 7.58408C128.649 7.58408 129.988 8.27524 130.684 9.65757C131.066 10.4139 131.258 11.4963 131.258 12.9047V21.5244C131.258 21.7119 131.106 21.8638 130.918 21.8638H129.211C129.023 21.8638 128.871 21.7119 128.871 21.5244V13.0612C128.871 12.2094 128.745 11.5224 128.493 11.0008C128.076 10.1317 127.319 9.6967 126.224 9.6967C125.667 9.6967 125.211 9.75349 124.855 9.86623C124.211 10.0576 123.646 10.44 123.159 11.0138C122.768 11.4749 122.514 11.9507 122.396 12.4416C122.279 12.9329 122.22 13.635 122.22 14.5479V21.5244C122.22 21.7119 122.068 21.8638 121.881 21.8638H120.212C120.025 21.8638 119.873 21.7119 119.873 21.5244V8.23651C119.873 8.04902 120.025 7.89706 120.212 7.89706H121.764C121.951 7.89706 122.103 8.04902 122.103 8.23651V9.50663C122.103 9.63404 122.26 9.68912 122.344 9.59345C122.933 8.92397 123.553 8.43242 124.203 8.11875ZM155.043 7.58408C154.139 7.58408 153.317 7.76244 152.578 8.11875C151.928 8.43242 151.309 8.92397 150.72 9.59345C150.635 9.68912 150.479 9.63404 150.479 9.50663V8.23651C150.479 8.04902 150.327 7.89706 150.139 7.89706H148.588C148.401 7.89706 148.249 8.04902 148.249 8.23651V21.5244C148.249 21.7119 148.401 21.8638 148.588 21.8638H150.257C150.444 21.8638 150.596 21.7119 150.596 21.5244V14.5479C150.596 13.635 150.655 12.9329 150.772 12.4416C150.889 11.9507 151.144 11.4749 151.535 11.0138C152.022 10.44 152.587 10.0576 153.23 9.86623C153.587 9.75349 154.043 9.6967 154.6 9.6967C155.695 9.6967 156.451 10.1317 156.869 11.0008C157.121 11.5224 157.247 12.2094 157.247 13.0612V21.5244C157.247 21.7119 157.399 21.8638 157.586 21.8638H159.294C159.481 21.8638 159.633 21.7119 159.633 21.5244V12.9047C159.633 11.4963 159.442 10.4139 159.06 9.65757C158.364 8.27524 157.025 7.58408 155.043 7.58408ZM170.745 10.4468C170.249 9.87716 169.454 9.59237 168.358 9.59237C166.863 9.59237 165.794 10.3218 165.15 11.7807C164.733 12.7272 164.524 13.895 164.524 15.2845C164.524 16.6824 164.82 17.859 165.411 18.8139C166.002 19.7693 166.933 20.2468 168.202 20.2468C169.176 20.2468 169.947 19.9502 170.517 19.357C171.037 18.8152 171.41 18.0908 171.636 17.1839C171.674 17.0319 171.807 16.9213 171.964 16.9213H173.58C173.789 16.9213 173.953 17.1104 173.916 17.3163C173.622 18.9669 172.991 20.1894 172.023 20.9838C170.98 21.8398 169.645 22.2681 168.019 22.2681C166.194 22.2681 164.737 21.6009 163.651 20.2661C162.564 18.9317 162.021 17.265 162.021 15.2651C162.021 12.8135 162.616 10.9053 163.807 9.54021C164.998 8.17554 166.515 7.49279 168.358 7.49279C169.932 7.49279 171.212 7.8756 172.199 8.64039C173.117 9.35209 173.694 10.5412 173.931 12.2078C173.96 12.4103 173.799 12.5918 173.595 12.5918H171.974C171.812 12.5918 171.679 12.4747 171.645 12.316C171.487 11.5772 171.187 10.954 170.745 10.4468ZM145.484 17.0658V13.2332C145.484 9.08835 143.78 7.32781 139.891 7.32781C136.721 7.32781 134.508 9.06035 134.139 11.7354C134.111 11.9409 134.269 12.1261 134.477 12.1261H136.377C136.543 12.1261 136.689 12.0055 136.711 11.841C136.928 10.229 138.094 9.31535 139.919 9.31535C142.105 9.31535 143.042 10.3656 143.042 12.9778V13.2048L140.402 13.5171C138.074 13.801 136.711 14.1417 135.632 14.681C134.355 15.3909 133.645 16.6117 133.645 18.0311C133.645 20.558 135.547 22.2044 138.443 22.2044C140.538 22.2044 142.197 21.3076 142.983 19.8037C143.046 19.6827 143.23 19.7279 143.239 19.864C143.272 20.462 143.328 21.0512 143.397 21.5673C143.42 21.7366 143.563 21.8637 143.733 21.8637H145.523C145.743 21.8637 145.904 21.6582 145.852 21.4437C145.594 20.3823 145.484 18.987 145.484 17.0658ZM143.071 15.6748C143.071 18.4287 141.453 20.2173 138.983 20.2173C137.25 20.2173 136.2 19.3656 136.2 17.9743C136.2 16.5833 137.109 15.845 139.21 15.5327L143.071 14.9649V15.6748ZM95.8125 14.9365C95.8125 10.1954 98.1972 7.32781 102.257 7.32781C106.09 7.32781 108.304 9.51397 108.304 13.7725V15.1364C108.304 15.3238 108.152 15.4758 107.965 15.4758H98.578C98.379 15.4758 98.2265 15.6464 98.2394 15.845C98.4061 18.418 100.043 20.0751 102.456 20.0751C104.161 20.0751 105.441 19.2248 106.108 17.6891C106.182 17.5189 106.384 17.4453 106.553 17.5202L107.917 18.1246C108.086 18.1987 108.167 18.3951 108.094 18.5636C107.058 20.9491 105.038 22.2044 102.286 22.2044C98.2257 22.2044 95.8125 19.6207 95.8125 14.9365ZM98.2257 13.5171H105.863V13.2043C105.863 10.5926 104.528 9.23009 102.2 9.23009C99.7019 9.23009 98.2825 10.8481 98.2257 13.5171ZM182.767 7.32781C178.707 7.32781 176.322 10.1954 176.322 14.9365C176.322 19.6207 178.735 22.2044 182.795 22.2044C185.546 22.2044 187.566 20.9497 188.603 18.5652C188.676 18.397 188.594 18.1989 188.426 18.1246L187.063 17.5202C186.887 17.4424 186.688 17.529 186.611 17.705C185.941 19.2307 184.664 20.0751 182.965 20.0751C180.547 20.0751 178.909 18.411 178.748 15.8287C178.736 15.6353 178.894 15.4758 179.087 15.4758H188.474C188.662 15.4758 188.814 15.3238 188.814 15.1363V13.7725C188.814 9.51397 186.599 7.32781 182.767 7.32781ZM186.372 13.5171H178.735C178.792 10.8481 180.211 9.23009 182.71 9.23009C185.038 9.23009 186.372 10.5926 186.372 13.2043V13.5171Z" fill="black"/>
</g>
<defs>
<clipPath id="clip0_270_16497">
<rect width="189" height="28" fill="white"/>
</clipPath>
</defs>
</svg>
