<svg width="60" height="30" viewBox="0 0 60 30" fill="none" xmlns="http://www.w3.org/2000/svg">
<path fill-rule="evenodd" clip-rule="evenodd" d="M8.1511 0H1.43829C0.643945 0 0 0.643945 0 1.43829V8.10565C0 8.9 0.643945 9.54394 1.43829 9.54394H8.1511C8.94545 9.54394 9.58939 8.9 9.58939 8.10565V1.43829C9.58939 0.643945 8.94545 0 8.1511 0ZM33.5113 10.3861H38.8376C39.6319 10.3861 40.2759 11.0301 40.2759 11.8244V28.0205C40.2759 28.8149 39.6319 29.4588 38.8376 29.4588H32.1247C31.3304 29.4588 30.6864 28.8149 30.6864 28.0205V12.9136C30.6864 11.0526 29.1778 9.54394 27.3168 9.54394H21.9906C21.1962 9.54394 20.5523 8.9 20.5523 8.10565V1.43829C20.5523 0.643941 21.1962 0 21.9906 0H28.7034C29.4978 0 30.1417 0.643941 30.1417 1.43829V7.01647C30.1417 8.87748 31.6503 10.3861 33.5113 10.3861ZM53.2355 10.3861H58.5617C59.3561 10.3861 60 11.0301 60 11.8244V28.0205C60 28.8149 59.3561 29.4588 58.5617 29.4588H51.8489C51.0545 29.4588 50.4106 28.8149 50.4106 28.0205V12.9136C50.4106 11.0526 48.9019 9.54394 47.0409 9.54394H41.7147C40.9203 9.54394 40.2764 8.9 40.2764 8.10565V1.43829C40.2764 0.643941 40.9203 0 41.7147 0H48.4276C49.2219 0 49.8658 0.643941 49.8658 1.43829V7.01647C49.8658 8.87748 51.3745 10.3861 53.2355 10.3861ZM12.4013 10.3861H19.1142C19.9085 10.3861 20.5524 11.03 20.5524 11.8243V28.0205C20.5524 28.8148 19.9085 29.4588 19.1142 29.4588H12.4013C11.6069 29.4588 10.963 28.8148 10.963 28.0205V11.8243C10.963 11.03 11.6069 10.3861 12.4013 10.3861Z" fill="black"/>
</svg>
