<svg width="24" height="24" viewBox="0 0 24 24" fill="none" xmlns="http://www.w3.org/2000/svg">
<path d="M12 11.1787C10.625 11.1787 9.5 10.7504 8.625 9.89372C7.75 9.03704 7.3125 7.93559 7.3125 6.58937C7.3125 5.24316 7.75 4.14171 8.625 3.28502C9.5 2.42834 10.625 2 12 2C13.375 2 14.5 2.42834 15.375 3.28502C16.25 4.14171 16.6875 5.24316 16.6875 6.58937C16.6875 7.93559 16.25 9.03704 15.375 9.89372C14.5 10.7504 13.375 11.1787 12 11.1787ZM3.875 21C3.35417 21 2.91146 20.8215 2.54688 20.4646C2.18229 20.1076 2 19.6742 2 19.1643V18.124C2 17.3489 2.19792 16.686 2.59375 16.1353C2.98958 15.5845 3.5 15.1664 4.125 14.8808C5.52083 14.2689 6.85938 13.81 8.14063 13.504C9.42188 13.1981 10.7083 13.0451 12 13.0451C13.2917 13.0451 14.5729 13.2032 15.8438 13.5193C17.1146 13.8355 18.4479 14.2893 19.8438 14.8808C20.4896 15.1664 21.0104 15.5845 21.4062 16.1353C21.8021 16.686 22 17.3489 22 18.124V19.1643C22 19.6742 21.8177 20.1076 21.4531 20.4646C21.0885 20.8215 20.6458 21 20.125 21H3.875Z" fill="#B3B7CF"/>
</svg>
