<svg width="36" height="36" viewBox="0 0 36 36" fill="none" xmlns="http://www.w3.org/2000/svg">
<mask id="mask0_781_46819" style="mask-type:alpha" maskUnits="userSpaceOnUse" x="0" y="0" width="36" height="36">
<path d="M15.8661 0.206425C16.6005 0.631217 16.8525 1.5708 16.4277 2.30519L13.1752 7.93908C12.7504 8.67347 11.8108 8.92546 11.0764 8.50067C10.342 8.07588 10.09 7.1363 10.5148 6.40191L13.7674 0.768014C14.1922 0.033627 15.1318 -0.218368 15.8661 0.206425ZM7.93908 22.8248L2.30519 19.5723C1.5708 19.1475 0.631217 19.3995 0.206425 20.1339C-0.218368 20.8682 0.033627 21.8078 0.768014 22.2326L6.40191 25.4852C7.1363 25.91 8.07588 25.658 8.50067 24.9236C8.92546 24.1892 8.67347 23.2496 7.93908 22.8248ZM22.8266 28.0609L19.5741 33.6948C19.1493 34.4292 19.4013 35.3688 20.1357 35.7936C20.87 36.2184 21.8096 35.9664 22.2344 35.232L25.487 29.5981C25.9118 28.8637 25.6598 27.9241 24.9254 27.4993C24.191 27.0745 23.2514 27.3265 22.8266 28.0609ZM35.232 13.7656L29.5981 10.513C28.8637 10.0882 27.9241 10.3402 27.4993 11.0746C27.0745 11.809 27.3265 12.7486 28.0609 13.1734L33.6948 16.4259C34.4292 16.8507 35.3688 16.5987 35.7936 15.8643C36.2184 15.13 35.9664 14.1904 35.232 13.7656ZM5.71792 5.19413V11.6992C5.71792 12.547 6.40551 13.2346 7.25329 13.2346C8.10108 13.2346 8.78867 12.547 8.78867 11.6992V5.19413C8.78867 4.34635 8.10108 3.65876 7.25329 3.65876C6.40551 3.65876 5.71792 4.34635 5.71792 5.19413ZM11.6992 27.2095H5.19413C4.34635 27.2095 3.65876 27.8971 3.65876 28.7449C3.65876 29.5927 4.34635 30.2803 5.19413 30.2803H11.6992C12.547 30.2803 13.2346 29.5927 13.2346 28.7449C13.2346 27.8971 12.547 27.2095 11.6992 27.2095ZM27.2095 24.3008V30.8059C27.2095 31.6537 27.8971 32.3412 28.7449 32.3412C29.5927 32.3412 30.2803 31.6537 30.2803 30.8059V24.3008C30.2803 23.453 29.5927 22.7654 28.7449 22.7654C27.8971 22.7654 27.2095 23.453 27.2095 24.3008ZM30.8059 5.71792H24.3008C23.453 5.71792 22.7654 6.40551 22.7654 7.25329C22.7654 8.10108 23.453 8.78867 24.3008 8.78867H30.8059C31.6537 8.78867 32.3412 8.10108 32.3412 7.25329C32.3412 6.40551 31.6537 5.71792 30.8059 5.71792ZM0.960611 13.051L4.21315 18.6849C4.63794 19.4193 5.57753 19.6713 6.31191 19.2465C7.0463 18.8217 7.29829 17.8821 6.8735 17.1477L3.62096 11.5138C3.19617 10.7794 2.25659 10.5274 1.5222 10.9522C0.787814 11.377 0.535819 12.3166 0.960611 13.051ZM17.1477 29.1265L11.5138 32.379C10.7794 32.8038 10.5274 33.7434 10.9522 34.4778C11.377 35.2122 12.3166 35.4642 13.051 35.0394L18.6849 31.7868C19.4193 31.3621 19.6713 30.4225 19.2465 29.6881C18.8217 28.9537 17.8821 28.7017 17.1477 29.1265ZM29.1265 18.8523L32.379 24.4862C32.8038 25.2206 33.7434 25.4726 34.4778 25.0478C35.2122 24.623 35.4642 23.6834 35.0394 22.949L31.7868 17.3151C31.3621 16.5807 30.4225 16.3287 29.6881 16.7535C28.9537 17.1783 28.7017 18.1179 29.1265 18.8523ZM22.949 0.960611L17.3151 4.21315C16.5807 4.63794 16.3287 5.57753 16.7535 6.31191C17.1783 7.0463 18.1179 7.29829 18.8523 6.8735L24.4862 3.62096C25.2206 3.19617 25.4726 2.25659 25.0478 1.5222C24.623 0.787814 23.6834 0.535819 22.949 0.960611Z" fill="#1A1A1A"/>
</mask>
<g mask="url(#mask0_781_46819)">
<path d="M35.9993 0H0V35.9993H35.9993V0Z" fill="url(#paint0_linear_781_46819)"/>
</g>
<defs>
<linearGradient id="paint0_linear_781_46819" x1="0" y1="0" x2="35.9993" y2="35.9993" gradientUnits="userSpaceOnUse">
<stop offset="0.1" stop-color="#FC829F"/>
<stop offset="0.25" stop-color="#FF1C53"/>
<stop offset="0.45" stop-color="#EA49F8"/>
<stop offset="0.6" stop-color="#B250FF"/>
<stop offset="0.9" stop-color="#5E5FF5"/>
</linearGradient>
</defs>
</svg>
