<svg width="116" height="28" viewBox="0 0 116 28" fill="none" xmlns="http://www.w3.org/2000/svg">
<path d="M31.8105 23.7191H40.2686C44.2458 23.7191 46.6624 21.5006 46.6624 18.4566C46.6624 15.7868 44.762 14.0713 42.4586 13.9939V13.8133C44.5354 13.3748 45.9451 11.8012 45.9576 9.73754C45.9451 6.88708 43.7676 5.0426 39.614 5.0426H31.8105V23.7191ZM36.5934 19.7722V15.6965H39.1107C40.6461 15.6965 41.6028 16.4833 41.6028 17.8375C41.6028 19.1015 40.7595 19.7851 39.0351 19.7722H36.5934ZM36.5934 12.6267V8.91201H38.8086C40.1049 8.91201 41.0237 9.58273 41.0237 10.7694C41.0237 11.956 40.0797 12.6267 38.733 12.6267H36.5934Z" fill="#FF474C"/>
<path d="M48.5506 23.7192H53.3083V9.71184H48.5506V23.7192ZM48.5506 5.94557C48.538 7.19668 49.6079 8.20269 50.9169 8.18979C52.2132 8.20269 53.2831 7.19668 53.2831 5.94557C53.2831 4.70736 52.2132 3.70129 50.9169 3.70129C49.6079 3.70129 48.538 4.70736 48.5506 5.94557Z" fill="#FF474C"/>
<path d="M63.9063 9.71185H61.3891V9.22174C61.3891 8.25431 61.9933 7.89321 62.9498 7.88031C63.1386 7.89321 63.5287 7.90611 64.1329 7.95771V4.4236C63.3273 4.25593 62.5597 4.16565 61.4898 4.16565C58.532 4.16565 56.6314 5.8295 56.6314 9.22174V9.71185H54.8694V13.2459H56.6314V23.7193H61.3891V13.2459H63.9063V9.71185Z" fill="#FF474C"/>
<path d="M65.8435 23.7192H70.6012V16.3415C70.5886 14.7163 71.6836 13.6328 73.1688 13.6328C73.6848 13.6328 74.4904 13.7231 74.9561 13.8908V9.68601C74.5785 9.5957 74.138 9.5183 73.7226 9.5312C72.2501 9.5183 71.092 10.4083 70.6012 12.3431H70.4502V9.71181H65.8435V23.7192Z" fill="#FF474C"/>
<path d="M82.6846 23.9772C87.0899 23.9772 89.7204 21.0622 89.7078 16.7542C89.7204 12.4462 87.0899 9.53125 82.6846 9.53125C78.2794 9.53125 75.6489 12.4462 75.6362 16.7542C75.6489 21.0622 78.2794 23.9772 82.6846 23.9772ZM80.4946 16.7284C80.5072 14.4842 81.3127 13.0782 82.7098 13.0911C84.0439 13.0782 84.8621 14.4842 84.8494 16.7284C84.8621 18.947 84.0439 20.3528 82.7098 20.3657C81.3127 20.3528 80.5072 18.947 80.4946 16.7284Z" fill="#FF474C"/>
<path d="M99.7272 14.2261H104.107C103.969 11.2983 101.603 9.53125 97.7135 9.53125C93.862 9.53125 91.4706 11.1694 91.4706 14.0715C91.4706 16.2512 92.8551 17.6571 95.624 18.173L98.0154 18.6115C99.1105 18.818 99.6014 19.1275 99.6265 19.695C99.6014 20.3141 98.9218 20.6624 97.9651 20.6753C96.8198 20.6624 96.0268 20.1594 95.8758 19.2565H91.1433C91.4328 22.094 93.8116 23.9772 97.9399 23.9772C101.703 23.9772 104.435 22.094 104.46 19.1275C104.435 17.0638 103.088 15.8514 100.306 15.3355L97.5876 14.8195C96.5052 14.6132 96.1904 14.2132 96.2031 13.7876C96.1904 13.1685 96.9205 12.7945 97.8142 12.8074C98.821 12.7945 99.6392 13.3491 99.7272 14.2261Z" fill="#FF474C"/>
<path d="M114.429 9.71186H112.037V6.3584H107.28V9.71186H105.518V13.2459H107.28V19.7208C107.242 22.6359 109.029 23.9127 112.339 23.9256C113.409 23.9127 114.164 23.8354 114.605 23.7451V20.1078C114.064 20.1594 113.359 20.1981 113.019 20.1852C112.352 20.1465 112.037 19.8885 112.037 19.2307V13.2459H114.429V9.71186Z" fill="#FF474C"/>
<path fill-rule="evenodd" clip-rule="evenodd" d="M14.069 27.3565C21.5344 27.3565 27.5862 21.3046 27.5862 13.8393C27.5862 6.37388 21.5344 0.322021 14.069 0.322021C6.60364 0.322021 0.551758 6.37388 0.551758 13.8393C0.551758 21.3046 6.60364 27.3565 14.069 27.3565ZM13.6592 7.71594C15.5432 7.19678 17.4115 8.62827 17.4085 10.6134C17.4081 10.8492 17.3804 11.0798 17.3283 11.3017C16.9809 11.3027 16.6259 11.3498 16.2701 11.4478L10.4321 13.0561L8.12335 9.241L13.6592 7.71594ZM18.4645 10.615C18.4641 10.8968 18.4346 11.1732 18.379 11.4412C20.0593 11.9001 21.3555 13.4444 21.3555 15.3586C21.3555 17.1804 20.1487 18.7817 18.4006 19.2673L11.3921 21.2135L7.94731 15.5212L15.227 13.4998C15.8793 13.3188 16.4311 12.9255 16.8165 12.4055C16.7281 12.4214 16.6393 12.4415 16.5505 12.466L9.9423 14.2865L6.49721 8.59358L13.3787 6.69791C15.9477 5.98995 18.4686 7.94415 18.4645 10.615ZM15.5095 14.5173C16.6307 14.2061 17.5291 13.4358 18.0293 12.4428C19.3016 12.7553 20.2995 13.9086 20.2995 15.3586C20.2995 16.7112 19.404 17.8926 18.118 18.2498L11.881 19.9816L9.57192 16.166L15.5095 14.5173Z" fill="#FF474C"/>
</svg>
