<svg width="192" height="28" viewBox="0 0 192 28" fill="none" xmlns="http://www.w3.org/2000/svg">
<g clip-path="url(#clip0_243_17830)">
<g clip-path="url(#clip1_243_17830)">
<path fill-rule="evenodd" clip-rule="evenodd" d="M6.02584 0H28.3052V5.56997H6.02584H0.456055L6.02584 0ZM6.02584 5.56997L0.456055 11.1397V27.8494H22.7354L28.3052 22.2794H6.02584V5.56997Z" fill="black"/>
<path d="M33.875 0V27.8494L39.4448 22.2794V16.7097H56.1544L61.7242 11.1397V5.56997L56.1544 0H33.875ZM56.1544 11.1397H39.4448V5.56997H56.1544V11.1397Z" fill="black"/>
<path d="M159.196 16.7099L153.626 11.1402L136.917 11.1399V5.57021H153.626L153.626 11.1402L159.196 5.57021L153.626 0.000244141H136.917L131.347 5.56997V27.8494L136.917 22.2796V27.8494H153.626L159.196 22.2796L159.196 16.7099ZM153.626 22.2796H136.917L136.917 16.7099H153.626V22.2796Z" fill="black"/>
<path d="M191.222 5.56997V5.56973L185.653 0H168.943L163.373 5.56973V11.1397L168.943 16.7097H185.653V22.2794H168.943L163.373 27.8494H185.653L191.222 22.2796V22.2794V16.7097L185.653 11.1397H168.943V5.56997H191.222Z" fill="black"/>
<path d="M107.753 0.000244141L97.928 27.8494H103.498L105.463 22.2799H110.708L116.278 16.7102L120.207 27.8494H125.777L115.953 0.000244141H107.753ZM107.428 16.7099L111.853 4.16681L116.278 16.7102L107.428 16.7099Z" fill="black"/>
<path d="M95.1431 22.2796H72.8638V0.000244141L67.2939 5.57009V27.8494H89.5733L95.1431 22.2796Z" fill="black"/>
</g>
</g>
<defs>
<clipPath id="clip0_243_17830">
<rect width="191.088" height="28" fill="white" transform="translate(0.456055)"/>
</clipPath>
<clipPath id="clip1_243_17830">
<rect width="191.088" height="28" fill="white" transform="translate(0.456055)"/>
</clipPath>
</defs>
</svg>
