<svg width="234" height="28" viewBox="0 0 234 28" fill="none" xmlns="http://www.w3.org/2000/svg">
<path fill-rule="evenodd" clip-rule="evenodd" d="M36.4907 9.69272H31.5354C29.7929 9.69272 28.3771 8.27694 28.3771 6.53442V1.36134C28.3771 0.598989 27.7781 0 27.0157 0H20.7536C19.9912 0 19.3922 0.598989 19.3922 1.36134V7.56904C19.3922 8.33139 19.9912 8.93038 20.7536 8.93038H25.7089C27.4514 8.93038 28.8672 10.3462 28.8672 12.0887V26.1377C28.8672 26.9 29.4661 27.499 30.2285 27.499H36.4907C37.253 27.499 37.852 26.9 37.852 26.1377V11.0541C37.7975 10.2917 37.1985 9.69272 36.4907 9.69272ZM54.8415 9.69272H49.8862C48.1437 9.69272 46.7279 8.27694 46.7279 6.53442V1.36134C46.7279 0.598989 46.1289 0 45.3666 0H39.1044C38.342 0 37.7431 0.598989 37.7431 1.36134V7.56904C37.7431 8.33139 38.342 8.93038 39.1044 8.93038H44.0597C45.8022 8.93038 47.218 10.3462 47.218 12.0887V26.1377C47.218 26.9 47.817 27.499 48.5793 27.499H54.8415C55.6038 27.499 56.2028 26.9 56.2028 26.1377V11.0541C56.1484 10.2917 55.5494 9.69272 54.8415 9.69272ZM1.69484 0.0544569H7.95699C8.66489 0.0544569 9.26388 0.653446 9.31833 1.4158V7.6235C9.31833 8.38585 8.71934 8.98483 7.95699 8.98483H1.69484C0.932485 8.98483 0.333496 8.38585 0.333496 7.6235V1.4158C0.333496 0.653446 0.932485 0.0544569 1.69484 0.0544569ZM18.1398 9.69272H11.8776C11.1153 9.69272 10.5163 10.2917 10.5163 11.0541V26.1377C10.5163 26.9 11.1153 27.499 11.8776 27.499H18.1398C18.9021 27.499 19.5011 26.9 19.5011 26.1377V11.0541C19.5011 10.2917 18.9021 9.69272 18.1398 9.69272ZM170.392 2.55928H172.57C172.842 2.55928 173.006 2.77711 173.06 3.04938V27.0634C173.06 27.2812 172.842 27.499 172.625 27.499H170.61C170.392 27.499 170.174 27.2812 170.174 27.0634V24.8852C170.174 24.7219 169.956 24.6674 169.847 24.8308C168.704 26.7911 166.907 27.9346 164.348 27.9346C159.991 27.9346 157.051 24.1229 157.051 18.5142C157.051 12.9599 160.209 9.09371 164.674 9.09371C166.852 9.09371 168.486 9.91052 169.63 11.653C169.739 11.7619 169.956 11.7075 169.956 11.5441V2.99492C169.956 2.77711 170.174 2.55928 170.392 2.55928ZM165.11 25.1575C168.105 25.1575 170.011 22.7615 170.011 18.8953V18.0785C170.011 14.1579 168.105 11.7619 165.11 11.7619C162.061 11.7619 160.209 14.2123 160.209 18.4597C160.209 22.6526 162.061 25.1575 165.11 25.1575ZM87.5681 12.6332C88.7661 10.1828 90.5631 8.98486 93.0135 8.98486C96.444 8.98486 98.4588 11.4897 98.4588 15.7371V27.0634C98.4588 27.2812 98.241 27.4991 98.0232 27.4991H95.8451C95.6272 27.4991 95.4094 27.2812 95.4094 27.0634V15.9549C95.4094 13.1233 94.2659 11.7075 91.9788 11.7075C89.4195 11.7075 87.9493 13.559 87.9493 16.8262V27.009C87.9493 27.2268 87.7315 27.4446 87.5136 27.4446H85.3355C85.1177 27.4446 84.8999 27.2268 84.8999 27.009V15.7916C84.8999 13.1778 83.7019 11.7075 81.5238 11.7075C79.0189 11.7075 77.4942 13.7223 77.4942 16.9895V27.0634C77.4942 27.2812 77.2764 27.4991 77.0586 27.4991H74.8804C74.6626 27.4991 74.4448 27.2812 74.4448 27.0634V9.96502C74.4448 9.7472 74.6626 9.5294 74.8804 9.5294H76.8952C77.113 9.5294 77.3309 9.7472 77.3309 9.96502V11.8709C77.3309 12.0343 77.5487 12.0887 77.6576 11.9253C78.6922 9.96502 80.2713 8.98486 82.4495 8.98486C84.9543 8.98486 86.7513 10.2373 87.5681 12.6332ZM103.414 18.732C103.414 12.7421 106.463 9.09371 111.582 9.09371C116.428 9.09371 119.206 11.8164 119.206 17.2073V18.9498C119.206 19.1676 118.988 19.3854 118.77 19.3854H106.899C106.627 19.3854 106.464 19.6032 106.464 19.8755C106.681 23.1427 108.751 25.212 111.8 25.212C113.978 25.212 115.612 24.1773 116.428 22.217C116.483 21.9992 116.755 21.8903 116.973 21.9992L118.716 22.7615C118.933 22.8705 119.042 23.0883 118.933 23.3061C117.626 26.3555 115.067 27.9346 111.582 27.9346C106.463 27.9346 103.414 24.6674 103.414 18.732ZM106.518 16.8806H116.156V16.4449C116.156 13.1777 114.468 11.4352 111.528 11.4352C108.369 11.4352 106.572 13.5045 106.518 16.8806ZM151.987 21.4002V16.5538C151.987 11.3263 149.808 9.09371 144.908 9.09371C140.878 9.09371 138.101 11.2719 137.611 14.648C137.556 14.9202 137.774 15.1381 138.046 15.1381H140.442C140.66 15.1381 140.824 14.9747 140.878 14.7569C141.15 12.7421 142.621 11.5441 144.908 11.5441C147.685 11.5441 148.828 12.851 148.828 16.1727V16.4449L145.507 16.8261C142.566 17.2073 140.824 17.6429 139.462 18.2964C137.829 19.1676 136.957 20.7468 136.957 22.5437C136.957 25.7565 139.353 27.8257 143.002 27.8257C145.67 27.8257 147.739 26.6822 148.719 24.7763C148.774 24.613 149.046 24.6674 149.046 24.8308L149.046 24.8314C149.101 25.5935 149.155 26.3557 149.264 27.0089C149.318 27.2267 149.482 27.3901 149.699 27.3901H151.987C152.259 27.3901 152.477 27.1178 152.422 26.8456C152.095 25.5931 151.987 23.7962 151.987 21.4002ZM148.937 19.6032C148.937 23.0883 146.868 25.3209 143.764 25.3209C141.586 25.3209 140.225 24.2318 140.225 22.4893C140.225 20.7468 141.368 19.8211 144.036 19.3854L148.937 18.6775V19.6032ZM182.263 9.47497H180.085C179.867 9.47497 179.649 9.69278 179.649 9.91059V27.009C179.649 27.2268 179.867 27.4446 180.085 27.4446H182.263C182.481 27.4446 182.698 27.2268 182.698 27.009V9.91059C182.698 9.69278 182.535 9.47497 182.263 9.47497ZM200.614 9.47491H202.792C203.01 9.47491 203.173 9.69273 203.282 9.85609V26.9545C203.282 27.1723 203.064 27.3901 202.846 27.3901H200.831C200.614 27.3901 200.396 27.1723 200.396 26.9545V24.7764C200.396 24.5585 200.178 24.5041 200.069 24.6674C199.089 26.4644 197.074 27.7713 194.842 27.7713C190.322 27.7713 188.688 25.0486 188.688 20.8557V9.85609C188.688 9.63827 188.906 9.42045 189.124 9.42045H191.302C191.52 9.42045 191.738 9.63827 191.738 9.85609V20.529C191.738 23.5784 193.045 25.212 195.386 25.212C198.218 25.212 200.178 22.7616 200.178 19.1132V9.91053C200.178 9.69271 200.396 9.47491 200.614 9.47491ZM182.481 2.55928H179.867C179.649 2.55928 179.431 2.77711 179.431 2.99492V5.60868C179.431 5.8265 179.649 6.04432 179.867 6.04432H182.481C182.698 6.04432 182.916 5.8265 182.916 5.60868V2.99492C182.916 2.77711 182.698 2.55928 182.481 2.55928ZM128.844 9.58387H132.71C132.928 9.58387 133.091 9.80168 133.091 10.0739V11.7076C133.091 11.9254 132.873 12.1432 132.656 12.1432H128.789C128.68 12.1432 128.626 12.1976 128.626 12.3065V22.0537C128.626 24.123 129.388 24.9942 131.24 24.9942C131.839 24.9942 132.274 24.9398 132.71 24.8309C132.928 24.7764 133.146 24.9398 133.146 25.1576V27.1724C133.146 27.3902 133.037 27.5535 132.819 27.608C132.111 27.7713 131.458 27.8258 130.477 27.8258C126.557 27.8258 125.577 25.4299 125.577 22.1082V12.2521C125.577 12.1432 125.522 12.0887 125.413 12.0887H122.691C122.473 12.0887 122.255 11.8709 122.255 11.6531V10.0195C122.255 9.80168 122.473 9.58387 122.691 9.58387H123.398C124.651 9.58387 125.631 8.54925 125.631 7.35127V3.10389C125.631 2.88607 125.849 2.66826 126.067 2.66826H128.245C128.463 2.66826 128.68 2.88607 128.68 3.10389V9.4205C128.68 9.52941 128.735 9.58387 128.844 9.58387ZM228.222 8.98486C225.771 8.98486 223.974 10.1828 222.776 12.6332C221.959 10.2373 220.162 8.98486 217.658 8.98486C215.479 8.98486 213.9 9.96502 212.866 11.9253C212.757 12.0887 212.539 12.0343 212.539 11.8709V9.96502C212.539 9.7472 212.321 9.5294 212.103 9.5294H210.088C209.871 9.5294 209.653 9.7472 209.653 9.96502V27.0634C209.653 27.2812 209.871 27.4991 210.088 27.4991H212.267C212.484 27.4991 212.702 27.2812 212.702 27.0634V16.9895C212.702 13.7223 214.227 11.7075 216.732 11.7075C218.91 11.7075 220.108 13.1778 220.108 15.7916V27.009C220.108 27.2268 220.326 27.4446 220.544 27.4446H222.722C222.94 27.4446 223.157 27.2268 223.157 27.009V16.8262C223.157 13.559 224.628 11.7075 227.187 11.7075C229.474 11.7075 230.617 13.1233 230.617 15.9549V27.0634C230.617 27.2812 230.835 27.4991 231.053 27.4991H233.231C233.449 27.4991 233.667 27.2812 233.667 27.0634V15.7371C233.667 11.4897 231.652 8.98486 228.222 8.98486Z" fill="#2A2A2A"/>
</svg>
