<svg width="142" height="28" viewBox="0 0 142 28" fill="none" xmlns="http://www.w3.org/2000/svg">
<g clip-path="url(#clip0_243_17788)">
<path d="M97.3629 13.7177C97.3968 9.23547 94.0548 5.49273 89.7081 5.15967C89.8774 5.56047 89.9395 5.99515 89.9395 6.4637C89.9395 7.23144 89.7081 7.93709 89.2395 8.53547C90.5435 8.60322 91.746 9.17338 92.6492 10.1726C93.5863 11.1774 94.0548 12.4814 93.9871 13.8532C93.8855 16.529 91.5484 18.804 88.8726 18.804H88.2064V9.4387C87.704 9.73789 87.1339 9.90725 86.5355 9.90725C85.9653 9.90725 85.4008 9.73789 84.8645 9.4387V22.1798H88.7766C93.4226 22.1798 97.2331 18.4032 97.2669 13.7234H97.3629V13.7177Z" fill="#01D4C9"/>
<path d="M84.8589 6.42419C84.8589 7.39516 85.6266 8.19677 86.5637 8.19677C87.5008 8.19677 88.2686 7.39516 88.2686 6.42419C88.2686 5.45322 87.5008 4.65161 86.5637 4.65161C85.6266 4.65161 84.8589 5.45887 84.8589 6.42419Z" fill="#01D4C9"/>
<path d="M126.785 15.7556C126.785 14.0508 126.181 12.4814 125.081 11.2734C123.946 10.0709 122.54 9.39917 120.937 9.39917C119.769 9.39917 118.696 9.73223 117.759 10.4379L117.691 10.5056V9.43304H114.383V26.8201H117.691V21.0734L117.759 21.1411C118.696 21.8072 119.763 22.1798 120.937 22.1798C122.506 22.1798 123.946 21.5419 125.081 20.3056C126.215 19.0693 126.785 17.5282 126.785 15.8234V15.7556ZM122.676 17.8613C122.106 18.4314 121.44 18.7306 120.672 18.7306C119.87 18.7306 119.198 18.4314 118.668 17.8613C118.098 17.2911 117.832 16.5911 117.832 15.7556C117.832 14.9201 118.098 14.2484 118.668 13.65C119.238 13.0459 119.904 12.7806 120.672 12.7806C121.473 12.7806 122.145 13.0798 122.676 13.65C123.246 14.2201 123.511 14.9201 123.511 15.7556C123.511 16.5911 123.24 17.2572 122.676 17.8613Z" fill="#01D4C9"/>
<path d="M104.82 9.40478C103.251 9.40478 101.811 10.0427 100.705 11.279C99.5702 12.4814 99 14.0564 99 15.7612C99 17.4661 99.604 19.0354 100.705 20.2435C101.84 21.4459 103.245 22.1177 104.82 22.1177C105.989 22.1177 107.061 21.7846 107.998 21.079L108.066 21.0112V22.0838H111.374V9.37091H108.066V10.4435L107.998 10.3757C107.061 9.70962 105.994 9.33704 104.82 9.33704V9.40478ZM107.225 17.8612C106.655 18.4314 105.989 18.7306 105.187 18.7306C104.385 18.7306 103.714 18.4314 103.149 17.8612C102.579 17.2911 102.314 16.5911 102.314 15.7556C102.314 14.9201 102.579 14.2483 103.149 13.6499C103.719 13.0798 104.385 12.7806 105.187 12.7806C105.989 12.7806 106.66 13.0798 107.225 13.6499C107.795 14.2201 108.06 14.9201 108.06 15.7556C108.06 16.5911 107.795 17.2572 107.225 17.8612Z" fill="#01D4C9"/>
<path d="M46.0428 15.5863C47.2452 14.35 47.8831 12.8088 47.8831 11.104C47.8831 9.39917 47.2452 7.82982 46.0428 6.62175C44.8404 5.41369 43.3331 4.74756 41.6621 4.74756H35.4412V22.1347H38.7492V17.5226L41.6565 17.4887C43.3275 17.4887 44.8686 16.8508 46.0371 15.6145V15.5863H46.0428ZM38.7492 14.0847V8.13466H41.6565C42.4581 8.13466 43.1299 8.43385 43.6944 9.00401C44.2645 9.60804 44.5299 10.2742 44.5299 11.1097C44.5299 11.9451 44.2645 12.6169 43.6944 13.2153C43.1242 13.7855 42.4581 14.0847 41.6226 14.0847L38.7492 14.1185V14.0847Z" fill="#01D4C9"/>
<path d="M53.5283 4.71936H50.2202V22.1065H53.5283V4.71936Z" fill="#01D4C9"/>
<path d="M73.4557 9.37097H69.7468L75.0307 20.1702L72.0218 26.8202H75.6968L83.521 9.37097H79.846L76.8033 16.1903L73.4557 9.37097Z" fill="#01D4C9"/>
<path d="M141.565 15.7556C141.565 14.0508 140.96 12.4814 139.86 11.2734C138.725 10.0709 137.319 9.39917 135.716 9.39917C134.548 9.39917 133.475 9.73223 132.538 10.4379L132.47 10.5056V9.43304H129.162V26.8201H132.47V21.0734L132.538 21.1411C133.475 21.8072 134.542 22.1798 135.716 22.1798C137.285 22.1798 138.725 21.5419 139.86 20.3056C140.994 19.0693 141.565 17.5282 141.565 15.8234V15.7556ZM137.449 17.8613C136.879 18.4314 136.213 18.7306 135.445 18.7306C134.644 18.7306 133.972 18.4314 133.441 17.8613C132.871 17.2911 132.606 16.5911 132.606 15.7556C132.606 14.9201 132.871 14.2484 133.441 13.65C134.011 13.0459 134.677 12.7806 135.445 12.7806C136.247 12.7806 136.919 13.0798 137.449 13.65C138.019 14.254 138.285 14.9201 138.285 15.7556C138.285 16.5911 138.019 17.2572 137.449 17.8613Z" fill="#01D4C9"/>
<path d="M61.7533 9.40478C60.1839 9.40478 58.7444 10.0427 57.6379 11.279C56.5033 12.4814 55.9331 14.0564 55.9331 15.7612C55.9331 17.4661 56.5371 19.0354 57.6379 20.2435C58.7726 21.4459 60.1783 22.1177 61.7533 22.1177C62.9218 22.1177 63.9944 21.7846 64.9315 21.079L64.9992 21.0112V22.0838H68.3073V9.37091H64.9992V10.4435L64.9315 10.3757C63.9944 9.70962 62.9275 9.33704 61.7533 9.33704V9.40478ZM64.1638 17.8612C63.5936 18.4314 62.9275 18.7306 62.1259 18.7306C61.3242 18.7306 60.6525 18.4314 60.0879 17.8612C59.5178 17.2911 59.2525 16.5911 59.2525 15.7556C59.2525 14.9201 59.5178 14.2483 60.0879 13.6499C60.6581 13.0798 61.3242 12.7806 62.1259 12.7806C62.9275 12.7806 63.5992 13.0798 64.1638 13.6499C64.7339 14.2201 64.9992 14.9201 64.9992 15.7556C64.9992 16.5911 64.7283 17.2572 64.1638 17.8612Z" fill="#01D4C9"/>
<path fill-rule="evenodd" clip-rule="evenodd" d="M2.242 0.00561523H13.5436C21.0968 0.00561523 27.2501 6.29432 27.2501 14.0169C27.2501 21.7395 21.0968 28.0282 13.5436 28.0282H2.242C1.23716 28.0282 0.435547 27.1927 0.435547 26.1879V1.87981C0.435547 0.87497 1.23716 0.0394862 2.242 0.0394862V0.00561523ZM7.15329 8.66529L14.7122 13.4129L17.7888 11.4709C18.088 11.2677 18.4267 11.1379 18.7936 11.104L9.36619 5.18787C8.39522 4.58384 7.12506 4.88868 6.52668 5.854C5.92829 6.81932 6.22748 8.09513 7.1928 8.72739L7.15329 8.66529ZM6.18797 8.76691C6.35732 8.97013 6.5549 9.13384 6.792 9.26932L10.3372 11.4766V20.7403C10.3372 21.875 9.40006 22.8121 8.26539 22.8121C7.13071 22.8121 6.19361 21.875 6.19361 20.7403V8.76691H6.18797ZM18.1557 12.075C19.1267 11.4709 20.3968 11.7758 20.9952 12.7411C21.5936 13.7064 21.2944 14.9822 20.3291 15.6145L10.9017 21.5306C10.9694 21.2992 11.0033 21.0282 11.0033 20.7629V16.5855L18.1557 12.1032V12.075Z" fill="#01D4C9"/>
</g>
<defs>
<clipPath id="clip0_243_17788">
<rect width="141.129" height="28" fill="white" transform="translate(0.435547)"/>
</clipPath>
</defs>
</svg>
