<svg width="116" height="28" viewBox="0 0 116 28" fill="none" xmlns="http://www.w3.org/2000/svg">
<g clip-path="url(#clip0_243_17816)">
<path d="M14.6834 8.71105L19.6851 3.70934C21.4321 1.96233 24.0885 2.17771 25.4048 4.11617C26.4338 5.55207 26.3142 7.49053 25.0937 8.71105L20.1877 13.617C20.0919 13.7128 19.8766 13.8324 19.7808 14.0239L20.092 14.2393L27.2475 21.3948C28.3723 22.5196 28.5637 23.7401 28.1569 25.176C27.7501 26.6119 26.721 27.4256 25.1894 27.7367C23.9689 27.9521 22.9398 27.5213 22.0304 26.7076C19.5894 24.3623 17.2202 21.8974 14.7791 19.4563C14.6834 19.3606 14.5637 19.241 14.468 19.241L17.1244 16.5846C18.4407 15.2683 18.5603 12.8034 17.2202 11.4871C16.5261 10.4581 15.6167 9.52472 14.6834 8.71105Z" fill="#4E81C2"/>
<path d="M14.6836 19.1453L9.58613 24.2427C8.96391 24.8649 8.15023 25.2718 7.24083 25.2718C6.33143 25.3675 5.49382 25.0564 4.79981 24.5538C2.95707 23.2376 2.76562 20.5812 4.39297 18.9299C5.92459 17.3025 7.55194 15.7709 9.08357 14.2393C9.17929 14.1436 9.29895 14.0239 9.39468 14.0239L9.08357 13.7128L1.92801 6.55723C1.30579 5.74356 0.803225 4.7145 0.898952 3.58971C0.994678 1.43587 2.93314 0.119629 4.36904 0.119629C5.58955 0.119629 6.61861 0.526467 7.43228 1.43587C9.68186 3.78117 12.0272 6.03074 14.3725 8.37604L14.6836 8.68715C14.5878 8.78288 14.4682 8.90254 14.4682 8.99826L12.1229 11.3436C11.5007 11.9658 11.0938 12.8752 10.9981 13.7846C10.9981 14.2872 10.9981 14.694 11.2135 15.2205C11.4289 15.6273 11.6203 16.1299 11.9314 16.441C12.8648 17.3025 13.7742 18.2119 14.6836 19.1453Z" fill="#6BBFA6"/>
<path d="M115.124 23.7401C112.779 20.4615 110.434 17.3025 107.969 14.1435C107.753 13.9282 107.753 13.8324 107.969 13.641C109.094 12.1093 110.123 10.6734 111.128 9.14183L114.813 3.92473V3.82901H109.811C109.716 3.82901 109.5 3.92473 109.5 4.04439L107.059 7.41875L105.025 10.2905C104.929 10.1948 104.81 10.0752 104.81 9.97943C103.374 8.04097 102.058 6.10251 100.622 4.04439C100.526 3.829 100.311 3.73328 100.119 3.73328H95.2132C95.3089 3.82901 95.4286 3.94866 95.4286 4.04439L102.177 13.4495C102.273 13.6649 102.273 13.7606 102.177 13.9521C100.239 16.6085 98.3004 19.2649 96.2422 21.9213C96.0269 22.2324 95.8354 22.5435 95.5243 22.8307L89.9961 16.2017L95.2132 9.76405H90.3072C90.2115 9.76405 90.0918 9.85977 89.9961 9.97943L88.5602 11.7264L85.9995 14.7897V14.8854V2.72815H81.7158V24.0752H85.9995V17.8529C86.0952 17.8529 86.0952 17.9487 86.0952 17.9487L91.0012 23.764C91.0969 23.9794 91.3123 23.9794 91.5038 23.9794H99.6884C99.9038 23.9794 100.095 23.8837 100.191 23.6683C101.1 22.4478 102.034 21.1076 103.063 19.8871C103.685 19.0735 104.379 18.1401 105.001 17.2307C105.097 17.3264 105.217 17.4461 105.217 17.5418L109.811 23.6683C109.907 23.8837 110.027 23.8837 110.218 23.8837H115.22L115.124 23.7401ZM43.6166 15.1487C43.832 15.0529 43.9277 15.0529 44.0234 14.9333C45.0525 14.5264 45.9619 13.9042 46.6799 12.9948C47.7089 11.5589 47.8046 9.93157 47.3978 8.30422C46.991 6.55721 46.0816 5.3367 44.4303 4.4273C43.4012 3.92473 42.2764 3.70935 41.1517 3.70935H33.2781V23.9316H37.7773V15.6512C38.0884 15.6512 38.4952 15.5555 38.6867 15.9623C40.7209 18.6187 42.8747 21.1794 45.0286 23.7162L45.244 23.9316L45.5551 24.0273H50.6525L47.0867 19.5282C47.0867 19.5521 43.6166 15.1487 43.6166 15.1487ZM41.1517 11.7743C40.0269 11.87 38.9021 11.7743 37.7773 11.7743V7.99311H41.1517C41.7739 7.99311 42.3722 8.30422 42.6833 8.80678C43.3055 9.93157 42.8987 11.5829 41.1517 11.7743ZM56.779 9.52473C52.6867 9.42901 49.432 12.6837 49.2166 16.5846C49.0012 21.2752 52.6867 24.3384 56.5636 24.3384C61.0628 24.4341 64.0303 20.964 64.2217 17.3982C64.4371 12.4923 60.4645 9.33328 56.779 9.52473ZM59.7465 17.9008C59.4354 19.3367 58.2149 20.3418 56.6833 20.2461C55.4628 20.2461 54.5294 19.6239 54.0269 18.4991C53.3089 17.1829 53.5243 15.3401 54.5294 14.3111C55.4388 13.4017 56.4679 13.1863 57.6884 13.4974C58.9089 13.8085 59.5311 14.6222 59.8422 15.747C59.9619 16.5846 59.9619 17.3025 59.7465 17.9008ZM76.4986 18.4273C75.8764 18.4273 75.3739 18.4273 75.1824 19.1452C75.1824 19.241 75.0867 19.241 75.0867 19.241C74.273 20.3658 73.1482 20.6769 71.8081 20.27C70.6833 19.9589 69.9653 19.1452 69.6542 18.0205C69.3431 16.9914 69.4388 15.9863 69.8696 14.9572C70.779 12.923 74.0576 12.6119 75.1824 14.6461C75.4935 15.1487 75.8046 15.2683 76.3072 15.2683H79.9927C79.3705 12.3008 76.9294 9.0461 71.8081 9.45294C68.2422 9.76405 64.7482 12.923 65.179 17.7333C65.4901 21.2034 68.5534 24.7931 73.7705 24.2666C75.6132 24.0512 77.1448 23.2376 78.3653 21.8256C79.179 20.7965 79.8012 19.6717 79.9927 18.3555H79.5858C78.5568 18.4273 77.5277 18.523 76.4986 18.4273ZM14.6833 19.1452L11.9311 16.3692C11.62 16.0581 11.3089 15.5555 11.2132 15.1487C10.9978 14.7418 10.9978 14.2393 10.9978 13.7128C11.0935 12.8034 11.4046 11.9658 12.1226 11.2717L14.4679 8.92644C14.5636 8.83072 14.6833 8.71106 14.6833 8.61533L17.4354 11.3675C18.7516 12.6837 18.7517 15.1487 17.3397 16.4649C16.526 17.3982 15.6166 18.2119 14.6833 19.1452Z" fill="#2B255A"/>
</g>
<defs>
<clipPath id="clip0_243_17816">
<rect width="114.632" height="28" fill="white" transform="translate(0.683594)"/>
</clipPath>
</defs>
</svg>
