<?xml version="1.0" encoding="utf-8"?>
<!-- Generator: Adobe Illustrator 22.1.0, SVG Export Plug-In . SVG Version: 6.00 Build 0)  -->
<svg version="1.1" id="Artwork" xmlns="http://www.w3.org/2000/svg" xmlns:xlink="http://www.w3.org/1999/xlink" x="0px" y="0px"
	 viewBox="0 0 1280 1280" style="enable-background:new 0 0 1280 1280;" xml:space="preserve">
<style type="text/css">
	.st0{fill:#231F20;}
</style>
<path class="st0" d="M423.7,499.4v70.9c0,7.9-6.4,14.2-14.2,14.2h-70.9c-7.9,0-14.2-6.4-14.2-14.2v-70.9c0-7.9,6.4-14.2,14.2-14.2
	h70.9C417.3,485.2,423.7,491.5,423.7,499.4z M522.3,594.5h-70.9c-7.9,0-14.2,6.4-14.2,14.2v170.6c0,7.9,6.4,14.2,14.2,14.2h70.9
	c7.9,0,14.2-6.4,14.2-14.2V608.7C536.5,600.8,530.1,594.5,522.3,594.5z M733.5,594.5h-29.7c-0.2,0-0.4,0-0.6,0H680
	c-21.1,0-38.1-17.1-38.1-38.1v-10.2v-3v-43.8c0-7.9-6.4-14.2-14.2-14.2h-70.9c-7.9,0-14.2,6.4-14.2,14.2v70.9
	c0,7.9,6.4,14.2,14.2,14.2h26c1.4-0.2,2.9-0.3,4.3-0.3h23.2c21.1,0,38.1,17.1,38.1,38.1v3.1v119.8v34c0,7.9,6.4,14.2,14.2,14.2h70.9
	c7.9,0,14.2-6.4,14.2-14.2V608.7C747.7,600.8,741.3,594.5,733.5,594.5z M938.8,594.5h-29.7c-0.2,0-0.4,0-0.6,0h-23.2
	c-21.1,0-38.1-17.1-38.1-38.1v-10.2v-3v-43.8c0-7.9-6.4-14.2-14.2-14.2H762c-7.9,0-14.2,6.4-14.2,14.2v70.9
	c0,7.9,6.4,14.2,14.2,14.2h26c1.4-0.2,2.9-0.3,4.3-0.3h23.2c21.1,0,38.1,17.1,38.1,38.1v3.1v119.8v34c0,7.9,6.4,14.2,14.2,14.2h70.9
	c7.9,0,14.2-6.4,14.2-14.2V608.7C953,600.8,946.6,594.5,938.8,594.5z"/>
</svg>
